<?xml version="1.0" encoding="iso-8859-1"?>
<!-- Generator: Adobe Illustrator 19.1.0, SVG Export Plug-In . SVG Version: 6.00 Build 0)  -->
<svg version="1.1" id="Capa_1" xmlns="http://www.w3.org/2000/svg" xmlns:xlink="http://www.w3.org/1999/xlink" x="0px" y="0px"
	 viewBox="0 0 334.356 334.356" style="enable-background:new 0 0 334.356 334.356;" xml:space="preserve">
<g>
	<path d="M319.455,97.469c3.554,0,6.427-2.879,6.427-6.427V55.695c0-3.548-2.873-6.427-6.427-6.427h-8.561V32.301
		c0-17.719-14.422-32.134-32.134-32.134H98.989V0H40.608C22.889,0,8.474,14.415,8.474,32.134v269.927
		c0,17.712,14.415,32.134,32.134,32.134h24.73v0.013c0.617,0.09,1.228,0.148,1.87,0.148h211.552
		c17.712,0,32.134-14.409,32.134-32.134v-86.666h8.561c3.554,0,6.427-2.873,6.427-6.427v-35.348c0-3.548-2.873-6.427-6.427-6.427
		h-8.561v-12.05h8.561c3.554,0,6.427-2.873,6.427-6.427V113.53c0-3.554-2.873-6.427-6.427-6.427h-8.561v-9.64h8.561V97.469z
		 M40.608,321.335c-10.63,0-19.281-8.651-19.281-19.281V32.128c0-10.63,8.651-19.281,19.281-19.281h45.528v308.488H65.525l0,0
		H40.608z M298.041,302.215c0,10.63-8.651,19.28-19.281,19.28L98.989,321.47V13.021h179.771c10.63,0,19.281,8.651,19.281,19.281
		V302.215z M210.887,162.625c12.089-5.244,20.572-17.275,20.572-31.273c0-18.811-15.302-34.114-34.107-34.114
		s-34.114,15.302-34.114,34.114c0,13.946,8.445,25.926,20.457,31.202c-22.372,5.527-39.384,24.531-41.582,48.516l-0.289,3.136
		l2.314,2.166c14.493,13.484,33.323,20.913,53.021,20.913c19.685,0,38.51-7.429,53.009-20.913l2.32-2.159l-0.289-3.136
		C250.001,187.188,233.13,168.248,210.887,162.625z M176.092,131.352c0-11.723,9.537-21.26,21.266-21.26s21.254,9.537,21.254,21.26
		c0,11.716-9.525,21.254-21.254,21.254S176.092,143.068,176.092,131.352z M197.159,224.431c-15.367,0-30.09-5.424-41.832-15.328
		c3.368-20.373,20.836-35.373,41.832-35.373s38.458,15,41.839,35.373C227.243,219.007,212.506,224.431,197.159,224.431z"/>
</g>
<g>
</g>
<g>
</g>
<g>
</g>
<g>
</g>
<g>
</g>
<g>
</g>
<g>
</g>
<g>
</g>
<g>
</g>
<g>
</g>
<g>
</g>
<g>
</g>
<g>
</g>
<g>
</g>
<g>
</g>
</svg>
