<?xml version="1.0" encoding="iso-8859-1"?>
<!-- Generator: Adobe Illustrator 19.1.0, SVG Export Plug-In . SVG Version: 6.00 Build 0)  -->
<svg version="1.1" id="Capa_1" xmlns="http://www.w3.org/2000/svg" xmlns:xlink="http://www.w3.org/1999/xlink" x="0px" y="0px"
	 viewBox="0 0 343.649 343.649" style="enable-background:new 0 0 343.649 343.649;" xml:space="preserve">
<g>
	<path d="M171.812,343.649c-84.648,0-153.518-68.876-153.518-153.531c0-84.648,68.87-153.518,153.518-153.518
		c84.654,0,153.544,68.87,153.544,153.518C325.355,274.773,256.472,343.649,171.812,343.649z M171.812,49.454
		c-77.559,0-140.664,63.105-140.664,140.664c0,77.572,63.099,140.677,140.664,140.677c77.578,0,140.69-63.099,140.69-140.677
		C312.502,112.56,249.39,49.454,171.812,49.454z M248.175,233.339c3.953-3.567,4.267-9.653,0.688-13.606
		c-3.567-3.965-9.653-4.267-13.606-0.701c-17.41,15.714-39.917,24.364-63.356,24.364c-23.522,0-46.068-8.702-63.484-24.506
		c-3.933-3.567-10.026-3.291-13.612,0.656c-3.58,3.94-3.284,10.045,0.662,13.618c20.971,19.03,48.111,29.512,76.441,29.512
		C200.122,262.671,227.211,252.253,248.175,233.339z M171.825,111.788c-58.851,0-118.434-19.203-118.434-55.901
		C53.391,19.197,112.974,0,171.825,0s118.434,19.197,118.434,55.888C290.258,92.591,230.675,111.788,171.825,111.788z
		 M171.825,32.141c-53.812,0-85.291,16.877-86.3,23.779c0.977,6.851,32.43,23.734,86.3,23.734c53.863,0,85.323-16.883,86.3-23.792
		C257.122,49.017,225.63,32.141,171.825,32.141z M159.427,157.695c0-5.328-4.319-9.64-9.64-9.64c-5.321,0-9.64,4.312-9.64,9.64
		c0,4.454-3.618,8.079-8.072,8.079c-4.454,0-8.072-3.625-8.072-8.079c0-5.328-4.319-9.64-9.64-9.64c-5.321,0-9.64,4.312-9.64,9.64
		c0,15.084,12.269,27.365,27.353,27.365C147.158,185.061,159.427,172.785,159.427,157.695z M236.157,157.695
		c0-5.328-4.319-9.64-9.64-9.64s-9.64,4.312-9.64,9.64c0,4.454-3.625,8.079-8.072,8.079c-4.454,0-8.072-3.625-8.072-8.079
		c0-5.328-4.319-9.64-9.64-9.64c-5.321,0-9.64,4.312-9.64,9.64c0,15.084,12.262,27.365,27.353,27.365
		C223.882,185.061,236.157,172.785,236.157,157.695z"/>
</g>
<g>
</g>
<g>
</g>
<g>
</g>
<g>
</g>
<g>
</g>
<g>
</g>
<g>
</g>
<g>
</g>
<g>
</g>
<g>
</g>
<g>
</g>
<g>
</g>
<g>
</g>
<g>
</g>
<g>
</g>
</svg>
