<?xml version="1.0" encoding="iso-8859-1"?>
<!-- Generator: Adobe Illustrator 19.1.0, SVG Export Plug-In . SVG Version: 6.00 Build 0)  -->
<svg version="1.1" id="Capa_1" xmlns="http://www.w3.org/2000/svg" xmlns:xlink="http://www.w3.org/1999/xlink" x="0px" y="0px"
	 viewBox="0 0 333.829 333.829" style="enable-background:new 0 0 333.829 333.829;" xml:space="preserve">
<g>
	<path d="M166.911,333.826C74.879,333.826,0,258.953,0,166.915S74.879,0.003,166.911,0.003c92.045,0,166.918,74.879,166.918,166.918
		S258.956,333.826,166.911,333.826z M166.911,12.857c-84.95,0-154.058,69.108-154.058,154.064
		c0,84.943,69.108,154.058,154.058,154.058s154.064-69.114,154.064-154.058C320.975,81.965,251.868,12.857,166.911,12.857z
		 M97.148,229.833c19.152-17.385,43.966-26.961,69.853-26.961c25.804,0,50.56,9.525,69.699,26.813
		c3.953,3.567,10.052,3.265,13.618-0.688c3.567-3.952,3.265-10.045-0.688-13.618c-22.693-20.495-52.044-31.781-82.63-31.781
		c-30.688,0-60.104,11.363-82.81,31.973c-3.94,3.58-4.242,9.666-0.662,13.606c1.902,2.095,4.512,3.162,7.134,3.162
		C92.983,232.327,95.304,231.504,97.148,229.833z M136.371,115.275c-9.203-5.386-21.016-2.301-26.395,6.896
		c-5.386,9.19-2.307,21.016,6.89,26.395s21.016,2.294,26.395-6.89C148.659,132.48,145.561,120.667,136.371,115.275z
		 M155.697,135.911c2.693-4.595,1.15-10.501-3.445-13.194L93.568,88.334c-4.595-2.693-10.495-1.157-13.188,3.445
		c-2.693,4.595-1.15,10.501,3.445,13.194l58.683,34.384c1.53,0.9,3.207,1.324,4.865,1.324
		C150.684,140.674,153.903,138.971,155.697,135.911z M190.568,141.676c5.386,9.19,17.198,12.275,26.395,6.89
		s12.275-17.211,6.89-26.395c-5.386-9.203-17.198-12.282-26.395-6.896C188.274,120.667,185.176,132.48,190.568,141.676z
		 M191.327,139.356l58.683-34.384c4.595-2.693,6.138-8.599,3.451-13.194c-2.699-4.602-8.612-6.131-13.194-3.445l-58.683,34.384
		c-4.595,2.693-6.138,8.599-3.438,13.194c1.793,3.066,5.007,4.769,8.323,4.769C188.126,140.674,189.791,140.25,191.327,139.356z"/>
</g>
<g>
</g>
<g>
</g>
<g>
</g>
<g>
</g>
<g>
</g>
<g>
</g>
<g>
</g>
<g>
</g>
<g>
</g>
<g>
</g>
<g>
</g>
<g>
</g>
<g>
</g>
<g>
</g>
<g>
</g>
</svg>
