<?xml version="1.0" encoding="iso-8859-1"?>
<!-- Generator: Adobe Illustrator 19.1.0, SVG Export Plug-In . SVG Version: 6.00 Build 0)  -->
<svg version="1.1" id="Capa_1" xmlns="http://www.w3.org/2000/svg" xmlns:xlink="http://www.w3.org/1999/xlink" x="0px" y="0px"
	 viewBox="0 0 335.1 335.1" style="enable-background:new 0 0 335.1 335.1;" xml:space="preserve">
<g>
	<path d="M329.817,133.073c-4.28-4.685-10.212-7.076-17.005-6.453l-80.779,7.179c-11.028,0.983-14.621,8.573-15.45,10.874
		c-0.842,2.301-2.963,10.424,4.872,18.265l32.5,32.501l-80.014,63.896V105.721h2.751l45.534-0.006
		c11.093,0,15.328-7.243,16.369-9.467c1.028-2.224,3.869-10.129-3.252-18.619L183.298,15.43c-3.863-4.608-9.589-7.249-15.707-7.249
		c-6.125,0-11.838,2.635-15.701,7.243L99.82,77.635c-7.115,8.503-4.28,16.401-3.246,18.619c1.041,2.224,5.283,9.467,16.363,9.467
		h48.15v153.621l-79.956-63.851l32.571-32.571c7.834-7.834,5.713-15.958,4.872-18.265c-0.835-2.301-4.422-9.897-15.463-10.868
		l-80.824-7.166c-6.684-0.617-12.719,1.767-17.005,6.459c-3.875,4.235-5.72,9.833-5.193,15.752l7.172,80.772
		c0.996,11.266,9.094,16.401,16.196,16.401c3.265,0,8.156-1.009,12.95-5.81l35.56-35.56l89.102,71.151v44.705
		c0,3.548,2.873,6.427,6.427,6.427c0.887,0,1.735-0.18,2.506-0.508c2.301-0.97,3.92-3.265,3.92-5.913v-0.006v-44.705l89.159-71.203
		l35.637,35.63c4.794,4.807,9.692,5.81,12.957,5.81c7.095,0,15.187-5.135,16.176-16.395l7.159-80.798
		C335.543,142.913,333.699,137.315,329.817,133.073z M112.911,92.867c-3.265,0-4.357-1.279-4.711-2.05
		c-0.353-0.765-0.643-2.423,1.459-4.936l52.07-62.205c1.407-1.69,3.541-2.641,5.848-2.641c2.314,0,4.435,0.958,5.836,2.641
		l52.044,62.205c2.102,2.506,1.812,4.165,1.465,4.929c-0.366,0.765-1.459,2.05-4.717,2.05L112.911,92.867z M27.325,231.115
		c-1.69,1.684-3.033,2.037-3.863,2.037c-1.857,0-3.123-1.755-3.381-4.679l-7.185-80.779c-0.199-2.327,0.443-4.39,1.877-5.951
		c1.433-1.562,3.297-2.359,5.54-2.359c0.283,0,0.572,0.013,0.848,0.039l80.798,7.172c3.258,0.289,4.229,1.665,4.512,2.455
		c0.296,0.797,0.431,2.481-1.877,4.788L27.325,231.115z M315.055,228.493c-0.251,2.931-1.517,4.672-3.374,4.672
		c-0.829,0-2.172-0.347-3.869-2.037l-77.27-77.27c-2.301-2.314-2.172-3.997-1.883-4.788c0.289-0.797,1.253-2.172,4.518-2.468
		l80.772-7.179c0.276-0.026,0.566-0.039,0.842-0.039c2.256,0,4.12,0.797,5.546,2.352c1.446,1.568,2.089,3.625,1.883,5.951
		L315.055,228.493z"/>
</g>
<g>
</g>
<g>
</g>
<g>
</g>
<g>
</g>
<g>
</g>
<g>
</g>
<g>
</g>
<g>
</g>
<g>
</g>
<g>
</g>
<g>
</g>
<g>
</g>
<g>
</g>
<g>
</g>
<g>
</g>
</svg>
