<?xml version="1.0" encoding="iso-8859-1"?>
<!-- Generator: Adobe Illustrator 19.1.0, SVG Export Plug-In . SVG Version: 6.00 Build 0)  -->
<svg version="1.1" id="Capa_1" xmlns="http://www.w3.org/2000/svg" xmlns:xlink="http://www.w3.org/1999/xlink" x="0px" y="0px"
	 viewBox="0 0 301.213 301.213" style="enable-background:new 0 0 301.213 301.213;" xml:space="preserve">
<g>
	<g>
		<path d="M222.234,301.213c-5.084,0-12.918-1.472-21.311-8.516L65.097,179.039c-8.657-7.237-13.618-17.603-13.618-28.452
			s4.962-21.215,13.618-28.452L200.922,8.496C209.322,1.472,217.15,0,222.233,0c13.67,0,27.5,10.759,27.5,31.312v238.596
			C249.74,290.461,235.903,301.213,222.234,301.213z M222.234,12.854c-2.963,0-7.635,0.951-13.066,5.501L73.343,131.994
			c-5.733,4.788-9.01,11.568-9.01,18.593c0,7.031,3.284,13.798,9.01,18.593l135.825,113.671c5.45,4.557,10.116,5.514,13.066,5.514
			c7.294,0,14.647-5.707,14.647-18.451V31.312C236.887,18.561,229.528,12.854,222.234,12.854z"/>
	</g>
</g>
<g>
</g>
<g>
</g>
<g>
</g>
<g>
</g>
<g>
</g>
<g>
</g>
<g>
</g>
<g>
</g>
<g>
</g>
<g>
</g>
<g>
</g>
<g>
</g>
<g>
</g>
<g>
</g>
<g>
</g>
</svg>
