<?xml version="1.0" encoding="iso-8859-1"?>
<!-- Generator: Adobe Illustrator 19.1.0, SVG Export Plug-In . SVG Version: 6.00 Build 0)  -->
<svg version="1.1" id="Capa_1" xmlns="http://www.w3.org/2000/svg" xmlns:xlink="http://www.w3.org/1999/xlink" x="0px" y="0px"
	 viewBox="0 0 333.456 333.456" style="enable-background:new 0 0 333.456 333.456;" xml:space="preserve">
<g>
	<path d="M310.969,144.129h-58.87c3.053-3.927,4.704-8.728,4.704-13.792c0-6.009-2.333-11.652-6.575-15.906
		c-8.483-8.503-23.317-8.503-31.813-0.006l-36.286,36.279c-1.048,1.041-1.979,2.185-2.815,3.426
		c-0.321,0.482-0.591,0.977-0.842,1.478l-0.328,0.604c-0.334,0.578-0.643,1.163-0.893,1.748c-0.27,0.656-0.463,1.311-0.835,2.584
		c-0.18,0.559-0.353,1.125-0.443,1.645c-0.302,1.478-0.443,2.956-0.443,4.415l0.026,0.887c0.039,1.176,0.18,2.352,0.411,3.477
		c0.109,0.585,0.276,1.15,0.45,1.71l0.193,0.656c0.186,0.636,0.373,1.26,0.63,1.889c0.276,0.662,0.611,1.273,0.958,1.902
		l0.315,0.572c0.244,0.488,0.508,0.97,0.778,1.369c0.823,1.247,1.774,2.416,2.834,3.47l36.273,36.273
		c4.255,4.248,9.897,6.588,15.906,6.588c6.016,0,11.658-2.346,15.913-6.588c4.255-4.242,6.581-9.884,6.581-15.906
		c0-5.058-1.658-9.865-4.717-13.792h58.883c12.404,0,22.494-10.09,22.494-22.487C333.463,154.22,323.373,144.129,310.969,144.129z
		 M310.969,176.251h-89.667l19.833,19.833c1.819,1.819,2.815,4.235,2.815,6.819c0,2.584-0.996,5-2.815,6.825
		c-3.638,3.631-9.994,3.631-13.631,0l-36.273-36.279c-0.45-0.45-0.855-0.938-1.24-1.562l-1.407-3.387
		c-0.129-0.617-0.186-1.221-0.186-1.838v-0.321c0.019-0.553,0.09-1.105,0.251-1.761l1.362-3.291
		c0.353-0.533,0.758-1.035,1.208-1.485l36.286-36.279c3.631-3.644,9.987-3.65,13.631,0c1.819,1.819,2.815,4.235,2.815,6.819
		s-0.996,5-2.815,6.825l-19.82,19.82h89.654c5.309,0,9.64,4.325,9.64,9.64C320.609,171.925,316.284,176.251,310.969,176.251z
		 M135.426,144.149H76.544c3.066-3.927,4.724-8.734,4.724-13.798c0-6.003-2.339-11.652-6.588-15.906
		c-8.49-8.49-23.336-8.49-31.806,0.006L6.639,150.685c-1.067,1.067-2.024,2.243-2.847,3.47c-0.321,0.469-0.585,0.958-1.028,1.825
		c-0.386,0.662-0.752,1.33-1.073,2.108c-0.238,0.591-0.418,1.189-0.765,2.397c-0.199,0.591-0.379,1.183-0.482,1.742
		c-0.219,1.112-0.36,2.23-0.405,3.348L0,166.643c0,1.446,0.148,2.924,0.431,4.338c0.116,0.604,0.283,1.17,0.604,2.179
		c0.193,0.713,0.405,1.427,0.688,2.102c0.263,0.623,0.572,1.208,1.208,2.352c0.257,0.508,0.521,0.996,0.874,1.517
		c0.823,1.221,1.748,2.365,2.796,3.406l36.286,36.286c4.248,4.242,9.891,6.581,15.906,6.581c6.009,0,11.658-2.346,15.894-6.575
		c4.248-4.255,6.588-9.897,6.588-15.913c0-5.064-1.652-9.865-4.711-13.786h58.87c12.404,0,22.494-10.09,22.494-22.494
		C157.92,154.239,147.83,144.149,135.426,144.149z M135.433,176.276H45.778l19.814,19.82c1.819,1.819,2.821,4.235,2.821,6.819
		s-1.003,5-2.828,6.832c-3.618,3.618-9.987,3.625-13.625-0.006l-36.286-36.286c-0.45-0.45-0.855-0.951-1.266-1.632l-1.362-3.291
		c-0.096-0.521-0.167-1.041-0.186-1.568v-0.36c0-0.623,0.064-1.234,0.174-1.787l0.289-0.913l0.257-0.938
		c0.09-0.212,0.212-0.405,0.572-1.028l0.321-0.649c0.366-0.546,0.784-1.054,1.253-1.523l36.247-36.247
		c3.625-3.644,9.994-3.638,13.625,0c3.76,3.76,3.76,9.878,0,13.638l-19.833,19.84h89.667c5.315,0,9.64,4.325,9.64,9.64
		C145.073,171.945,140.748,176.276,135.433,176.276z"/>
</g>
<g>
</g>
<g>
</g>
<g>
</g>
<g>
</g>
<g>
</g>
<g>
</g>
<g>
</g>
<g>
</g>
<g>
</g>
<g>
</g>
<g>
</g>
<g>
</g>
<g>
</g>
<g>
</g>
<g>
</g>
</svg>
