<?xml version="1.0" encoding="iso-8859-1"?>
<!-- Generator: Adobe Illustrator 19.1.0, SVG Export Plug-In . SVG Version: 6.00 Build 0)  -->
<svg version="1.1" id="Capa_1" xmlns="http://www.w3.org/2000/svg" xmlns:xlink="http://www.w3.org/1999/xlink" x="0px" y="0px"
	 viewBox="0 0 327.062 327.062" style="enable-background:new 0 0 327.062 327.062;" xml:space="preserve">
<g>
	<g>
		<path d="M118.331,268.131c-3.805,0-9.64-1.093-15.836-6.279L10.013,184.46C3.65,179.145,0,171.51,0,163.515
			s3.644-15.63,10.013-20.945l92.482-77.373c6.189-5.18,12.025-6.266,15.836-6.266c10.321,0,20.772,8.027,20.772,23.374v58.735
			h165.465c12.404,0,22.494,10.09,22.494,22.494s-10.09,22.494-22.494,22.494H139.102v58.735
			C139.102,260.097,128.652,268.131,118.331,268.131z M118.331,71.785c-1.677,0-4.357,0.566-7.59,3.271l-92.482,77.379
			c-3.432,2.866-5.405,6.909-5.405,11.08s1.973,8.214,5.405,11.086l92.482,77.398c3.239,2.699,5.913,3.278,7.59,3.278
			c3.65,0,7.918-2.764,7.918-10.521v-71.582h178.319c5.315,0,9.64-4.332,9.64-9.64c0-5.315-4.325-9.64-9.64-9.64H126.249V82.305
			C126.249,74.542,121.981,71.785,118.331,71.785z"/>
	</g>
</g>
<g>
</g>
<g>
</g>
<g>
</g>
<g>
</g>
<g>
</g>
<g>
</g>
<g>
</g>
<g>
</g>
<g>
</g>
<g>
</g>
<g>
</g>
<g>
</g>
<g>
</g>
<g>
</g>
<g>
</g>
</svg>
