<?xml version='1.0' encoding='iso-8859-1'?>
<svg version="1.1" xmlns="http://www.w3.org/2000/svg" viewBox="0 0 44 44" xmlns:xlink="http://www.w3.org/1999/xlink" enable-background="new 0 0 44 44">
  <g>
    <g>
      <path fill-rule="evenodd" d="m13,34h-4c-0.553,0-1,0.447-1,1v4c0,0.553 0.447,1 1,1h4c0.553,0 1-0.447 1-1v-4c0-0.553-0.447-1-1-1zm-1,4h-2v-2h2v2zm-5,4h-5v-5c0-0.553-0.447-1-1-1-0.553,0-1,0.447-1,1v6c0,0.553 0.447,1 1,1h6c0.553,0 1-0.447 1-1 0-0.553-0.447-1-1-1zm-6-34c0.553,0 1-0.447 1-1v-5h5c0.553,0 1-0.447 1-1 0-0.553-0.447-1-1-1h-6c-0.553,0-1,0.447-1,1v6c0,0.553 0.447,1 1,1zm19,23v-26c0-0.553-0.447-1-1-1h-4c-0.553,0-1,0.447-1,1v26c0,0.553 0.447,1 1,1h4c0.553,0 1-0.447 1-1zm-2-1h-2v-24h2v24zm15,2c0.553,0 1-0.447 1-1v-26c0-0.553-0.447-1-1-1-0.553,0-1,0.447-1,1v26c0,0.553 0.447,1 1,1zm-25-1c0,0.553 0.447,1 1,1 0.553,0 1-0.447 1-1v-26c0-0.553-0.447-1-1-1-0.553,0-1,0.447-1,1v26zm-4-26v34c0,0.553 0.447,1 1,1 0.553,0 1-0.447 1-1v-34c0-0.553-0.447-1-1-1-0.553,0-1,0.447-1,1zm32,30c0-0.553-0.447-1-1-1h-4c-0.553,0-1,0.447-1,1v4c0,0.553 0.447,1 1,1h4c0.553,0 1-0.447 1-1v-4zm-2,3h-2v-2h2v2zm9-2c-0.553,0-1,0.447-1,1v5h-5c-0.553,0-1,0.447-1,1 0,0.553 0.447,1 1,1h6c0.553,0 1-0.447 1-1v-6c0-0.553-0.447-1-1-1zm-13-31c0-0.553-0.447-1-1-1-0.553,0-1,0.447-1,1v26c0,0.553 0.447,1 1,1 0.553,0 1-0.447 1-1v-26zm13-5h-6c-0.553,0-1,0.447-1,1 0,0.553 0.447,1 1,1h5v5c0,0.553 0.447,1 1,1 0.553,0 1-0.447 1-1v-6c0-0.553-0.447-1-1-1zm-3,39v-34c0-0.553-0.447-1-1-1-0.553,0-1,0.447-1,1v34c0,0.553 0.447,1 1,1 0.553,0 1-0.447 1-1zm-14-5c-0.553,0-1,0.447-1,1v4c0,0.553 0.447,1 1,1 0.553,0 1-0.447 1-1v-4c0-0.553-0.447-1-1-1zm-4,0h-4c-0.553,0-1,0.447-1,1v4c0,0.553 0.447,1 1,1h4c0.553,0 1-0.447 1-1v-4c0-0.553-0.447-1-1-1zm-1,4h-2v-2h2v2zm2-34c-0.553,0-1,0.447-1,1v26c0,0.553 0.447,1 1,1 0.553,0 1-0.447 1-1v-26c0-0.553-0.447-1-1-1z"/>
    </g>
  </g>
</svg>
