<?xml version="1.0" encoding="iso-8859-1"?>
<!-- Generator: Adobe Illustrator 19.1.0, SVG Export Plug-In . SVG Version: 6.00 Build 0)  -->
<svg version="1.1" id="Capa_1" xmlns="http://www.w3.org/2000/svg" xmlns:xlink="http://www.w3.org/1999/xlink" x="0px" y="0px"
	 viewBox="0 0 313.585 313.585" style="enable-background:new 0 0 313.585 313.585;" xml:space="preserve">
<g>
	<path d="M260.287,69.493c3.541,0,6.427,2.879,6.427,6.427v26.511v12.854h12.854h14.737c3.541,0,6.427,2.879,6.427,6.427v70.162
		c0,3.548-2.886,6.427-6.427,6.427h-14.737h-12.854v12.854v26.511c0,3.548-2.886,6.427-6.427,6.427H19.281
		c-3.554,0-6.427-2.879-6.427-6.427V75.92c0-3.548,2.873-6.427,6.427-6.427H260.287 M260.287,56.64H19.281
		C8.631,56.64,0,65.271,0,75.92v161.744c0,10.636,8.631,19.281,19.281,19.281h241.006c10.636,0,19.281-8.644,19.281-19.281v-26.511
		h14.737c10.636,0,19.28-8.638,19.28-19.281v-70.162c0-10.643-8.644-19.281-19.28-19.281h-14.737V75.92
		C279.567,65.264,270.93,56.64,260.287,56.64L260.287,56.64z M229.914,149.372h-29.255v-29.229h-14.814v29.229h-29.236v14.827
		h29.236v29.236h14.814v-29.236h29.255V149.372z M51.807,149.379h73.292v14.827H51.807V149.379z"/>
</g>
<g>
</g>
<g>
</g>
<g>
</g>
<g>
</g>
<g>
</g>
<g>
</g>
<g>
</g>
<g>
</g>
<g>
</g>
<g>
</g>
<g>
</g>
<g>
</g>
<g>
</g>
<g>
</g>
<g>
</g>
</svg>
