<?xml version='1.0' encoding='iso-8859-1'?>
<svg version="1.1" xmlns="http://www.w3.org/2000/svg" viewBox="0 0 44 44" xmlns:xlink="http://www.w3.org/1999/xlink" enable-background="new 0 0 44 44">
  <g>
    <g>
      <path d="m13,23h18c0.552,0 1-0.448 1-1v-6c0-0.553-0.448-1-1-1h-18c-0.553,0-1,0.447-1,1v6c0,0.552 0.447,1 1,1zm1-6h16v4h-16v-4zm-1,12h-4c-0.553,0-1,0.447-1,1 0,0.553 0.447,1 1,1h4c0.553,0 1-0.447 1-1 0-0.553-0.447-1-1-1zm30,5h-1v-8h-0.028c0.021-0.284-0.059-0.573-0.277-0.792l-5.695-5.694v-7.514c0-0.553-0.448-1-1-1h-4v-3h4c0.552,0 1-0.447 1-1v-6c0-0.553-0.448-1-1-1h-10c-0.553,0-1,0.447-1,1v6c0,0.553 0.447,1 1,1h4v3h-20c-0.553,0-1,0.447-1,1v7.537l-5.692,5.671c-0.221,0.219-0.302,0.508-0.28,0.792h-0.028v8h-1c-0.553,0-1,0.447-1,1v8c0,0.553 0.447,1 1,1h42c0.552,0 1-0.447 1-1v-8c0-0.553-0.448-1-1-1zm-17-28v-4h8v4h-8zm-22,20.477l5.725-5.703c0.248-0.246 0.327-0.583 0.275-0.902v-6.872h24v7c0,0.006 0.003,0.011 0.003,0.016-0.005,0.274 0.093,0.55 0.303,0.759l5.694,5.695v7.53h-36v-7.523zm38,15.523h-40v-6h40v6zm-7-13h-4c-0.553,0-1,0.447-1,1 0,0.553 0.447,1 1,1h4c0.552,0 1-0.447 1-1 0-0.553-0.448-1-1-1zm-11,0h-4c-0.553,0-1,0.447-1,1 0,0.553 0.447,1 1,1h4c0.553,0 1-0.447 1-1 0-0.553-0.447-1-1-1z"/>
    </g>
  </g>
</svg>
