<?xml version="1.0" encoding="iso-8859-1"?>
<!-- Generator: Adobe Illustrator 19.1.0, SVG Export Plug-In . SVG Version: 6.00 Build 0)  -->
<svg version="1.1" id="Capa_1" xmlns="http://www.w3.org/2000/svg" xmlns:xlink="http://www.w3.org/1999/xlink" x="0px" y="0px"
	 viewBox="0 0 331.787 331.787" style="enable-background:new 0 0 331.787 331.787;" xml:space="preserve">
<g>
	<path d="M319.677,46.454c-7.873-7.847-18.297-12.16-29.371-12.16c-4.685,0-9.235,0.81-13.528,2.294
		c-6.215-7.821-15.675-12.918-26.453-12.918H34.139C15.277,23.671,0,38.954,0,57.81v216.173c0,18.856,15.277,34.133,34.139,34.133
		h216.179c18.85,0,34.139-15.277,34.139-34.133V140.318l35.213-35.206C335.821,88.948,335.828,62.637,319.677,46.454z
		 M271.604,153.172v120.812c0,11.729-9.544,21.279-21.286,21.279H34.139c-11.735,0-21.286-9.544-21.286-21.279V57.81
		c0-11.735,9.544-21.286,21.286-21.286h216.179c5.778,0,11.08,2.314,14.93,6.215c-0.064,0.045-0.122,0.109-0.18,0.154
		c-1.427,1.099-2.815,2.262-4.107,3.554l-96.358,96.37l-42.52-42.514c-5.855-5.874-13.181-9.775-21.157-11.363l0,0
		c-0.418-0.084-0.848-0.116-1.273-0.186c-2.256-0.379-4.55-0.611-6.883-0.611l0,0l0,0c-2.333,0-4.627,0.231-6.883,0.611
		c-8.458,1.407-16.26,5.36-22.423,11.536c0,0-0.006,0.006-0.013,0.013c0,0.006-0.006,0.006-0.013,0.013
		c-6.851,6.825-11.016,15.656-11.954,25.187c-0.135,1.362-0.199,2.738-0.199,4.126c0,2.77,0.27,5.501,0.797,8.162
		c1.587,7.976,5.489,15.302,11.375,21.17l72.739,72.578l0.18,0.174l0.186,0.174c7.699,7.095,17.699,11.003,28.169,11.003
		c1.382,0,2.751-0.071,4.1-0.199c9.486-0.925,18.284-5.051,25.116-11.864l0.257-0.257L271.604,153.172z M310.577,96.024
		l-26.119,26.119l0,0l-99.59,99.584c-5.578,5.546-12.86,8.316-20.148,8.316c-6.98,0-13.965-2.545-19.454-7.603L72.52,149.868
		c-11.196-11.157-11.196-29.306,0-40.463c5.585-5.598,12.912-8.393,20.238-8.393c7.327,0,14.647,2.802,20.225,8.393l51.607,51.601
		L270.043,55.541c1.176-1.176,2.461-2.153,3.773-3.078c0.559-0.392,1.131-0.771,1.716-1.112c0.623-0.379,1.273-0.681,1.915-1.009
		c1.767-0.868,3.599-1.594,5.476-2.095l0,0c2.423-0.649,4.891-1.086,7.378-1.086c7.333,0,14.666,2.796,20.27,8.387
		C321.74,66.718,321.74,84.861,310.577,96.024z"/>
</g>
<g>
</g>
<g>
</g>
<g>
</g>
<g>
</g>
<g>
</g>
<g>
</g>
<g>
</g>
<g>
</g>
<g>
</g>
<g>
</g>
<g>
</g>
<g>
</g>
<g>
</g>
<g>
</g>
<g>
</g>
</svg>
