<?xml version="1.0" encoding="iso-8859-1"?>
<!-- Generator: Adobe Illustrator 19.1.0, SVG Export Plug-In . SVG Version: 6.00 Build 0)  -->
<svg version="1.1" id="Capa_1" xmlns="http://www.w3.org/2000/svg" xmlns:xlink="http://www.w3.org/1999/xlink" x="0px" y="0px"
	 viewBox="0 0 333.122 333.122" style="enable-background:new 0 0 333.122 333.122;" xml:space="preserve">
<g>
	<path d="M265.647,277.424H67.482C30.27,277.424,0,247.147,0,209.942c0-32.79,24.165-60.946,55.971-66.466
		c2.834-30.669,28.535-54.577,59.712-54.577c9.666,0,19.088,2.307,27.578,6.716c16.87-24.769,45.148-39.917,75.245-39.917
		c50.2,0,91.043,40.843,91.043,91.049c0,3.638-0.251,7.384-0.778,11.376c15.315,12.777,24.351,31.864,24.351,51.826
		C333.129,247.147,302.865,277.424,265.647,277.424z M115.683,101.746c-25.984,0-47.128,21.144-47.128,47.134v5.893l-5.855,0.771
		c-27.957,2.429-49.847,26.311-49.847,54.39c0,30.116,24.506,54.628,54.628,54.628H265.64c30.129,0,54.628-24.512,54.628-54.628
		c0-17.462-8.098-33.465-22.23-43.915l-3.175-2.339l0.656-3.882c0.803-4.73,1.183-8.998,1.183-13.053
		c0-43.118-35.071-78.195-78.189-78.195c-27.706,0-53.593,14.942-67.585,38.992l-3.432,5.906l-5.688-3.792
		C134.051,104.484,125.015,101.746,115.683,101.746z M210.202,223.284c4.28,5.546,11.286,5.546,15.579,0l7.378-9.589
		c4.293-5.559,11.298-14.647,15.579-20.2l7.391-9.589c4.293-5.546,2.057-10.09-4.955-10.09h-20.437c-7.018,0-18.49,0-25.508,0
		h-20.444c-7.018,0-9.242,4.544-4.955,10.09l7.404,9.589c4.28,5.546,11.286,14.634,15.579,20.2L210.202,223.284z M233.66,131.188
		c0-3.175-2.571-5.752-5.752-5.752h-19.872c-3.175,0-5.752,2.571-5.752,5.752v51.974c0,3.175,2.571,5.752,5.752,5.752h19.872
		c3.175,0,5.752-2.571,5.752-5.752V131.188z"/>
</g>
<g>
</g>
<g>
</g>
<g>
</g>
<g>
</g>
<g>
</g>
<g>
</g>
<g>
</g>
<g>
</g>
<g>
</g>
<g>
</g>
<g>
</g>
<g>
</g>
<g>
</g>
<g>
</g>
<g>
</g>
</svg>
