<?xml version="1.0" encoding="iso-8859-1"?>
<!-- Generator: Adobe Illustrator 19.1.0, SVG Export Plug-In . SVG Version: 6.00 Build 0)  -->
<svg version="1.1" id="Capa_1" xmlns="http://www.w3.org/2000/svg" xmlns:xlink="http://www.w3.org/1999/xlink" x="0px" y="0px"
	 viewBox="0 0 333.129 333.129" style="enable-background:new 0 0 333.129 333.129;" xml:space="preserve">
<g>
	<path d="M308.771,131.872c0.521-3.959,0.778-7.706,0.778-11.369c0-50.206-40.836-91.049-91.043-91.049
		c-30.11,0-58.375,15.142-75.245,39.917c-8.49-4.409-17.905-6.71-27.578-6.71c-31.177,0-56.877,23.908-59.712,54.57
		C24.158,122.753,0,150.921,0,183.698c0,37.211,30.27,67.482,67.482,67.482h57.295l35.354,45.83
		c3.271,4.235,7.963,6.665,12.879,6.665s9.608-2.436,12.873-6.671l35.341-45.823h44.422c37.211,0,67.482-30.27,67.482-67.482
		C333.122,163.428,324.298,144.752,308.771,131.872z M175.697,289.163c-1.665,2.153-3.753,2.14-5.392,0l-60.117-77.938h43.336
		v-89.68c0-1.69,1.375-3.072,3.066-3.072h32.815c1.697,0,3.078,1.375,3.078,3.072v89.68h43.33l-22.269,28.869l-8.753,11.093h0.206
		L175.697,289.163z M265.64,238.333h-34.512l15.052-19.512c3.593-4.666,4.473-9.724,2.429-13.888
		c-2.05-4.165-6.6-6.562-12.487-6.562h-30.791v-76.826c0-8.779-7.147-15.926-15.932-15.926h-32.815
		c-8.779,0-15.919,7.14-15.919,15.926v76.826h-30.81c-5.887,0-10.437,2.391-12.487,6.562s-1.163,9.229,2.436,13.888l15.052,19.512
		H67.475c-30.123,0-54.628-24.506-54.628-54.628c0-28.072,21.896-51.961,49.84-54.39l5.861-0.771v-5.893
		c0-25.984,21.144-47.128,47.128-47.128c9.338,0,18.368,2.731,26.119,7.905l5.688,3.792l3.438-5.906
		c13.991-24.056,39.891-38.998,67.585-38.998c43.111,0,78.189,35.078,78.189,78.195c0,4.094-0.386,8.361-1.183,13.04l-0.662,3.895
		l3.175,2.346c14.133,10.444,22.237,26.446,22.237,43.915C320.268,213.821,295.757,238.333,265.64,238.333z"/>
</g>
<g>
</g>
<g>
</g>
<g>
</g>
<g>
</g>
<g>
</g>
<g>
</g>
<g>
</g>
<g>
</g>
<g>
</g>
<g>
</g>
<g>
</g>
<g>
</g>
<g>
</g>
<g>
</g>
<g>
</g>
</svg>
