<?xml version="1.0" encoding="iso-8859-1"?>
<!-- Generator: Adobe Illustrator 19.1.0, SVG Export Plug-In . SVG Version: 6.00 Build 0)  -->
<svg version="1.1" id="Capa_1" xmlns="http://www.w3.org/2000/svg" xmlns:xlink="http://www.w3.org/1999/xlink" x="0px" y="0px"
	 viewBox="0 0 333.829 333.829" style="enable-background:new 0 0 333.829 333.829;" xml:space="preserve">
<g>
	<path d="M166.911,333.826C74.879,333.826,0,258.953,0,166.915S74.879,0.003,166.911,0.003c92.045,0,166.918,74.879,166.918,166.918
		S258.956,333.826,166.911,333.826z M166.911,12.857c-84.95,0-154.058,69.108-154.058,154.064
		c0,84.943,69.108,154.058,154.058,154.058s154.064-69.114,154.064-154.058C320.975,81.965,251.868,12.857,166.911,12.857z
		 M207.079,103.752c-10.656,0-19.293,8.631-19.293,19.293c0,10.649,8.638,19.293,19.293,19.293s19.293-8.644,19.293-19.293
		C226.372,112.383,217.735,103.752,207.079,103.752z M126.75,103.752c-10.656,0-19.293,8.631-19.293,19.293
		c0,10.649,8.638,19.293,19.293,19.293s19.293-8.644,19.293-19.293C146.043,112.383,137.406,103.752,126.75,103.752z
		 M165.182,233.374c13.991-0.591,19.281-11.144,22.43-17.462c0.45-0.906,1.041-2.082,1.568-3.014
		c1.118,1.208,2.596,3.329,3.58,4.743c4.357,6.266,10.945,15.726,23.811,15.726c13.696,0,18.792-10.855,21.53-16.697
		c0.803-1.735,2.031-4.345,2.526-4.769c7.693-0.405,19.428,5.913,22.809,8.098c4.454,2.898,10.431,1.645,13.329-2.834
		c2.898-4.454,1.632-10.431-2.834-13.329c-1.844-1.202-18.728-11.71-33.94-11.196c-12.102,0.405-16.633,10.077-19.345,15.861
		c-2.622,5.591-3.078,5.591-4.068,5.591c-2.384,0-4.094-1.857-7.982-7.455c-3.927-5.662-9.312-13.4-19.345-13.786
		c-11.408-0.328-16.093,8.875-18.869,14.428c-3.033,6.054-3.888,6.735-5.99,6.825c-0.051,0-0.096,0-0.135,0
		c-0.424-1.054-0.893-2.988-1.189-4.242c-1.234-5.219-4.139-17.423-17.397-17.661c-0.135,0-0.264,0-0.392,0
		c-10.579,0-16.421,7.532-20.701,13.04c-3.599,4.634-5.424,6.665-7.783,6.703c-1.06,0.238-2.327-1.195-5.296-6.253
		c-3.503-5.983-8.798-15.013-20.457-15.225c-0.174-0.006-0.36-0.006-0.533-0.006c-16.183,0-30.476,13.439-32.063,14.981
		c-3.824,3.708-3.908,9.814-0.199,13.631c3.728,3.83,9.82,3.901,13.631,0.199c3.226-3.136,11.96-9.525,18.76-9.525
		c0.064,0,0.135,0,0.199,0c0.951,0.45,2.879,3.728,4.03,5.701c3.464,5.913,9.242,15.778,21.845,15.778c0.129,0,0.251,0,0.373,0
		c11.877-0.174,18.4-8.599,22.725-14.158c1.234-1.594,2.783-3.58,4.017-4.704c0.167,0.675,0.341,1.382,0.476,1.96
		c1.369,5.758,4.524,19.068,19.756,19.068C164.431,233.387,164.797,233.387,165.182,233.374z"/>
</g>
<g>
</g>
<g>
</g>
<g>
</g>
<g>
</g>
<g>
</g>
<g>
</g>
<g>
</g>
<g>
</g>
<g>
</g>
<g>
</g>
<g>
</g>
<g>
</g>
<g>
</g>
<g>
</g>
<g>
</g>
</svg>
