<?xml version="1.0" encoding="iso-8859-1"?>
<!-- Generator: Adobe Illustrator 19.1.0, SVG Export Plug-In . SVG Version: 6.00 Build 0)  -->
<svg version="1.1" id="Capa_1" xmlns="http://www.w3.org/2000/svg" xmlns:xlink="http://www.w3.org/1999/xlink" x="0px" y="0px"
	 viewBox="0 0 333.842 333.842" style="enable-background:new 0 0 333.842 333.842;" xml:space="preserve">
<g>
	<path d="M166.911,333.832C74.879,333.832,0,258.96,0,166.921S74.873,0.01,166.911,0.01c92.045,0,166.931,74.879,166.931,166.918
		S258.956,333.832,166.911,333.832z M166.911,12.863c-84.95,0-154.058,69.108-154.058,154.064
		c0,84.943,69.108,154.058,154.058,154.058c84.956,0,154.077-69.114,154.077-154.058C320.982,81.971,251.868,12.863,166.911,12.863z
		 M203.872,97.331c-14.21,0-25.72,11.504-25.72,25.72c0,14.197,11.51,25.72,25.72,25.72c14.21,0,25.72-11.523,25.72-25.72
		C229.592,108.835,218.082,97.331,203.872,97.331z M123.537,97.331c-10.656,0-19.293,8.631-19.293,19.293
		c0,10.649,8.638,19.293,19.293,19.293s19.293-8.644,19.293-19.293C142.83,105.962,134.192,97.331,123.537,97.331z M251.418,211.388
		c3.978-3.503,4.37-9.525,0.9-13.541c-3.464-3.991-9.537-4.441-13.573-0.99c-1.112,0.951-27.423,22.822-62.655-0.726
		c-47.231-31.569-91.049-1.144-92.893,0.161c-4.325,3.078-5.334,9.049-2.275,13.394s9.049,5.373,13.419,2.346
		c1.407-0.99,35.046-23.94,71.042,0.129c15.489,10.354,30.405,14.068,43.535,14.068C228.21,226.221,243.661,218.188,251.418,211.388
		z"/>
</g>
<g>
</g>
<g>
</g>
<g>
</g>
<g>
</g>
<g>
</g>
<g>
</g>
<g>
</g>
<g>
</g>
<g>
</g>
<g>
</g>
<g>
</g>
<g>
</g>
<g>
</g>
<g>
</g>
<g>
</g>
</svg>
