<?xml version="1.0" encoding="iso-8859-1"?>
<!-- Generator: Adobe Illustrator 19.1.0, SVG Export Plug-In . SVG Version: 6.00 Build 0)  -->
<svg version="1.1" id="Capa_1" xmlns="http://www.w3.org/2000/svg" xmlns:xlink="http://www.w3.org/1999/xlink" x="0px" y="0px"
	 viewBox="0 0 320.635 320.635" style="enable-background:new 0 0 320.635 320.635;" xml:space="preserve">
<g>
	<path d="M307.781,12.854v23.972c-6.575,4.235-10.932,11.626-10.932,20.007s4.357,15.765,10.932,20v230.948H12.854L12.86,76.826
		c6.568-4.229,10.919-11.613,10.919-20c0-8.381-4.357-15.765-10.926-20V12.854h227.433c4.242,6.568,11.626,10.932,20.007,10.932
		c8.381,0,15.765-4.364,19.994-10.932L307.781,12.854 M307.781,0h-36.562c0,6.035-4.897,10.932-10.919,10.932
		c-6.035,0-10.932-4.897-10.932-10.932H12.854C5.758,0,0,5.758,0,12.854v33.053h0.006c6.028,0,10.919,4.891,10.919,10.926
		c0,6.041-4.897,10.932-10.919,10.932H0v240.017c0,7.095,5.758,12.854,12.854,12.854h294.927c7.095,0,12.854-5.758,12.854-12.854
		V67.765c-6.035,0-10.932-4.891-10.932-10.926s4.897-10.932,10.932-10.932V12.854C320.635,5.752,314.876,0,307.781,0L307.781,0z
		 M258.776,51.061c7.095,0,12.854,5.758,12.854,12.854V256.72c0,7.089-5.758,12.854-12.854,12.854H65.971
		c-7.089,0-12.854-5.765-12.854-12.854V63.915c0-7.095,5.765-12.854,12.854-12.854L258.776,51.061 M258.776,38.208H65.971
		c-14.197,0-25.707,11.51-25.707,25.707V256.72c0,14.21,11.51,25.707,25.707,25.707h192.805c14.197,0,25.707-11.498,25.707-25.707
		V63.915C284.484,49.718,272.973,38.208,258.776,38.208L258.776,38.208z M126.39,187.471c-3.001,2.577-6.356,4.563-10.077,5.938
		c-3.721,1.382-7.577,2.069-11.568,2.069c-3.066,0-6.009-0.398-8.843-1.195c-2.834-0.791-5.489-1.922-7.963-3.374
		c-2.481-1.452-4.737-3.201-6.78-5.238c-2.044-2.037-3.785-4.3-5.238-6.774c-1.459-2.481-2.577-5.135-3.374-7.963
		c-0.797-2.834-1.195-5.784-1.195-8.843c0-3.066,0.398-6.022,1.195-8.869c0.797-2.847,1.922-5.514,3.374-7.989
		c1.452-2.474,3.201-4.73,5.238-6.774c2.037-2.044,4.3-3.792,6.78-5.244c2.474-1.459,5.129-2.577,7.963-3.374
		c2.834-0.79,5.778-1.195,8.843-1.195c3.991,0,7.847,0.681,11.568,2.05c3.721,1.362,7.082,3.348,10.077,5.964l-6.838,11.253
		c-1.889-2.037-4.126-3.612-6.703-4.704c-2.584-1.093-5.283-1.639-8.104-1.639c-2.847,0-5.521,0.54-8.008,1.62
		c-2.494,1.08-4.672,2.545-6.53,4.39c-1.864,1.844-3.336,4.023-4.415,6.53c-1.08,2.506-1.62,5.167-1.62,7.989
		c0,2.815,0.54,5.469,1.62,7.937c1.08,2.481,2.545,4.647,4.415,6.504c1.857,1.864,4.036,3.336,6.53,4.415
		c2.487,1.08,5.161,1.62,8.008,1.62c2.815,0,5.514-0.546,8.104-1.639c2.577-1.099,4.814-2.667,6.703-4.704L126.39,187.471z
		 M146.782,194.084h-12.924v-64.538H159.7c2.365,0,4.647,0.308,6.845,0.925c2.185,0.617,4.229,1.478,6.138,2.609
		c1.909,1.125,3.638,2.481,5.225,4.049c1.568,1.575,2.924,3.329,4.055,5.244c1.118,1.922,1.999,3.972,2.609,6.163
		s0.919,4.467,0.919,6.838c0,3.541-0.675,6.877-2.018,10.019c-1.356,3.13-3.201,5.868-5.534,8.207
		c-2.346,2.339-5.084,4.184-8.22,5.534c-3.123,1.35-6.465,2.024-10.007,2.024h-12.918v12.924H146.782z M146.782,142.464V168.3H159.7
		c1.767,0,3.432-0.341,5-1.009c1.555-0.675,2.924-1.6,4.094-2.77c1.17-1.176,2.095-2.545,2.764-4.12
		c0.675-1.575,1.015-3.252,1.015-5.019c0-1.767-0.341-3.445-1.015-5.013c-0.668-1.575-1.594-2.95-2.764-4.126
		c-1.17-1.17-2.539-2.089-4.094-2.77c-1.568-0.668-3.226-1.009-5-1.009H146.782z M243.956,168.293c0,3.573-0.675,6.922-2.031,10.058
		c-1.343,3.13-3.188,5.861-5.533,8.188c-2.333,2.32-5.071,4.158-8.207,5.508s-6.491,2.024-10.052,2.024
		c-3.58,0-6.928-0.675-10.064-2.024c-3.123-1.35-5.861-3.188-8.181-5.508c-2.32-2.327-4.165-5.058-5.508-8.188
		c-1.356-3.136-2.031-6.491-2.031-10.058v-38.747h12.879v38.747c0,1.767,0.341,3.438,1.003,4.994c0.675,1.562,1.607,2.924,2.776,4.1
		c1.17,1.17,2.539,2.089,4.12,2.77c1.568,0.668,3.252,1.009,5.019,1.009s3.438-0.341,5.007-1.009c1.581-0.675,2.95-1.6,4.132-2.77
		c1.17-1.176,2.082-2.539,2.764-4.1c0.675-1.555,1.015-3.226,1.015-4.994v-38.747h12.918v38.747H243.956z"/>
</g>
<g>
</g>
<g>
</g>
<g>
</g>
<g>
</g>
<g>
</g>
<g>
</g>
<g>
</g>
<g>
</g>
<g>
</g>
<g>
</g>
<g>
</g>
<g>
</g>
<g>
</g>
<g>
</g>
<g>
</g>
</svg>
