<?xml version="1.0" encoding="iso-8859-1"?>
<!-- Generator: Adobe Illustrator 19.1.0, SVG Export Plug-In . SVG Version: 6.00 Build 0)  -->
<svg version="1.1" id="Capa_1" xmlns="http://www.w3.org/2000/svg" xmlns:xlink="http://www.w3.org/1999/xlink" x="0px" y="0px"
	 viewBox="0 0 351.721 351.721" style="enable-background:new 0 0 351.721 351.721;" xml:space="preserve">
<g>
	<path d="M295.274,314.561c4.402-2.012,6.986-4.441,6.986-7.07c0-4.794-8.689-8.927-21.305-11.009
		c5.251-4.28,10.225-8.863,14.923-13.734c0.405,0.039,0.797,0.129,1.208,0.129c8.059,0,14.595-6.53,14.595-14.589
		c0-1.305-0.219-2.545-0.553-3.753c19.885-27.475,31.652-61.19,31.652-97.617C342.782,74.879,267.903,0,175.851,0
		C83.819,0,8.94,74.879,8.94,166.918c0,36.434,11.768,70.155,31.646,97.617c-0.328,1.208-0.546,2.449-0.546,3.753
		c0,8.059,6.536,14.589,14.595,14.589c0.411,0,0.803-0.09,1.208-0.129c5.649,5.848,11.71,11.298,18.156,16.266
		C41.112,304.15,19.345,312.961,19.345,323c0,15.868,54.069,28.721,120.773,28.721c39.461,0,74.384-4.518,96.422-11.472
		c9.415,3.49,23.31,5.726,38.921,5.726c28.387,0,51.402-7.32,51.402-16.343C326.862,322.846,313.829,317.036,295.274,314.561z
		 M175.851,12.86c84.956,0,154.077,69.108,154.077,154.064c0,31.941-9.775,61.653-26.498,86.28l-12.899-15.315l-7.5,26.498
		l0.064-0.013c-0.353,1.253-0.598,2.545-0.598,3.914c0,2.789,0.823,5.373,2.185,7.584c-27.899,27.854-66.383,45.116-108.832,45.116
		c-42.443,0-80.92-17.262-108.813-45.116c1.362-2.211,2.185-4.794,2.185-7.584c0-1.369-0.244-2.661-0.598-3.914l0.064,0.013
		l-7.5-26.498l-12.905,15.315c-16.716-24.628-26.491-54.339-26.491-86.28C21.793,81.968,90.901,12.86,175.851,12.86z M105.034,80.47
		c0-15.971,12.989-28.966,28.966-28.966S162.965,64.5,162.965,80.47c0,5.328-4.319,9.64-9.64,9.64s-9.64-4.312-9.64-9.64
		c0-5.341-4.345-9.685-9.685-9.685s-9.685,4.345-9.685,9.685c0,5.328-4.319,9.64-9.64,9.64S105.034,85.798,105.034,80.47z
		 M188.756,80.47c0-15.971,12.989-28.966,28.966-28.966S246.688,64.5,246.688,80.47c0,5.328-4.319,9.64-9.64,9.64
		c-5.321,0-9.64-4.312-9.64-9.64c0-5.341-4.345-9.685-9.685-9.685s-9.685,4.345-9.685,9.685c0,5.328-4.319,9.64-9.64,9.64
		S188.756,85.798,188.756,80.47z M175.536,122.92c39.204,0,72.694,26.684,86.422,64.423c4.28,11.761,2.635,30.238-6.086,34.191
		c-11.324,5.135-75.592-32.044-107.36-26.421c-31.768,5.623-49.14,25.592-55.868,16.78c-2.558-3.348-7.796-12.789-3.515-24.551
		C102.849,149.604,136.332,122.92,175.536,122.92z M252.105,132.245c0-1.356,0.244-2.648,0.598-3.901l-0.064,0.013l7.5-26.498
		l18.246,21.665h-0.051c1.832,2.449,2.956,5.45,2.956,8.721c0,8.059-6.536,14.595-14.595,14.595
		C258.635,146.84,252.105,140.304,252.105,132.245z M70.425,132.245c0-3.278,1.125-6.279,2.956-8.721H73.33l18.246-21.665
		l7.5,26.498l-0.064-0.013c0.353,1.253,0.598,2.545,0.598,3.901c0,8.059-6.536,14.595-14.595,14.595S70.425,140.304,70.425,132.245z
		 M48.201,200.273c0-3.291,1.118-6.292,2.95-8.721l-0.051-0.013l18.252-21.665l7.494,26.498l-0.064-0.013
		c0.353,1.253,0.604,2.545,0.604,3.914c0,8.059-6.543,14.589-14.595,14.589S48.201,208.326,48.201,200.273z M274.863,196.365
		l7.507-26.498l18.239,21.665l-0.051,0.013c1.832,2.436,2.963,5.437,2.963,8.721c0,8.059-6.543,14.589-14.595,14.589
		c-8.053,0-14.589-6.53-14.589-14.589c0-1.369,0.238-2.661,0.591-3.914L274.863,196.365z"/>
</g>
<g>
</g>
<g>
</g>
<g>
</g>
<g>
</g>
<g>
</g>
<g>
</g>
<g>
</g>
<g>
</g>
<g>
</g>
<g>
</g>
<g>
</g>
<g>
</g>
<g>
</g>
<g>
</g>
<g>
</g>
</svg>
