<?xml version='1.0' encoding='iso-8859-1'?>
<svg version="1.1" xmlns="http://www.w3.org/2000/svg" viewBox="0 0 44 44" xmlns:xlink="http://www.w3.org/1999/xlink" enable-background="new 0 0 44 44">
  <g>
    <g>
      <path d="m33,20c-0.552,0-1,0.447-1,1v2c0,0.553 0.448,1 1,1s1-0.447 1-1v-2c0-0.553-0.448-1-1-1zm8,2h-3v-5c0-0.553-0.448-1-1-1h-7v-7c0-0.553-0.448-1-1-1h-28c-0.552,0-1,0.447-1,1v22c0,0.553 0.448,1 1,1h4.184c-0.112,0.315-0.184,0.648-0.184,1 0,1.657 1.343,3 3,3s3-1.343 3-3c0-0.352-0.072-0.685-0.184-1h15.367c-0.111,0.315-0.183,0.648-0.183,1 0,1.657 1.343,3 3,3s3-1.343 3-3c0-0.352-0.065-0.688-0.177-1h11.177c0.552,0 1-0.447 1-1v-6c0-1.657-1.343-3-3-3zm-33,12c-0.552,0-1-0.447-1-1 0-0.553 0.448-1 1-1s1,0.447 1,1c0,0.553-0.448,1-1,1zm-6-4v-20h26v20h-26zm27,4c-0.552,0-1-0.447-1-1 0-0.553 0.448-1 1-1s1,0.447 1,1c0,0.553-0.448,1-1,1zm13-4h-12v-12h6v6h5c0.552,0 1,0.447 1,1v5zm-23.321-17.718c-0.388-0.388-1.017-0.388-1.404,0s-0.388,1.016 0,1.403l5.319,5.315h-17.594c-0.552,0-1,0.447-1,1 0,0.553 0.448,1 1,1h17.594l-5.319,5.315c-0.388,0.388-0.388,1.016 0,1.403 0.388,0.388 1.017,0.388 1.404,0l7.022-7.017c0.388-0.387 0.388-1.016 0-1.402l-7.022-7.017z"/>
    </g>
  </g>
</svg>
