<?xml version="1.0" encoding="iso-8859-1"?>
<!-- Generator: Adobe Illustrator 19.1.0, SVG Export Plug-In . SVG Version: 6.00 Build 0)  -->
<svg version="1.1" id="Capa_1" xmlns="http://www.w3.org/2000/svg" xmlns:xlink="http://www.w3.org/1999/xlink" x="0px" y="0px"
	 viewBox="0 0 333.842 333.842" style="enable-background:new 0 0 333.842 333.842;" xml:space="preserve">
<g>
	<path d="M289.6,53.889c6.35-17.7,10.212-42.308,5.81-45.399c-4.518-3.188-25.283,6.041-40.386,16.755
		C229.432,9.274,199.238,0.006,166.911,0.006c-32.321,0-62.514,9.267-88.099,25.238C63.703,14.531,42.944,5.302,38.426,8.49
		c-4.402,3.091-0.54,27.7,5.81,45.399C16.793,83.645,0,123.357,0,166.924c0,92.039,74.873,166.911,166.911,166.911
		c92.045,0,166.931-74.873,166.931-166.911C333.836,123.35,317.036,83.645,289.6,53.889z M166.911,320.982
		c-84.95,0-154.058-69.114-154.058-154.058c0-38.285,14.062-73.317,37.256-100.291c2.044,3.201,4.152,5.283,6.202,5.514
		c11.485,1.311,43.246-16.279,38.413-30.463c-0.81-2.365-2.802-5.013-5.463-7.738c22.822-13.374,49.345-21.08,77.649-21.08
		s54.834,7.706,77.655,21.086c-2.661,2.725-4.647,5.366-5.456,7.738c-4.846,14.184,26.916,31.774,38.407,30.463
		c2.05-0.231,4.158-2.314,6.202-5.514c23.194,26.973,37.269,62.013,37.269,100.291C320.982,251.874,251.868,320.982,166.911,320.982
		z M276.09,183.91c-10.585,51.717-56.64,89.262-109.513,89.262c-52.025,0-96.75-35.296-108.761-85.856
		c-1.234-5.174,1.967-10.366,7.147-11.6c5.193-1.279,10.379,1.973,11.607,7.14c9.949,41.826,46.961,71.036,90.008,71.036
		c43.754,0,81.865-31.054,90.625-73.844c1.073-5.225,6.183-8.561,11.382-7.519C273.796,173.595,277.157,178.692,276.09,183.91z
		 M80.38,118.434c2.693-4.602,8.599-6.144,13.188-3.445l58.683,34.384c4.595,2.693,6.138,8.599,3.445,13.188
		c-1.793,3.066-5.013,4.769-8.323,4.769c-1.125,0-2.243-0.276-3.336-0.681c-0.257,0.566-0.45,1.144-0.771,1.69
		c-5.386,9.19-17.205,12.282-26.395,6.896c-9.203-5.386-12.282-17.211-6.896-26.401c0.283-0.482,0.649-0.874,0.958-1.317
		l-27.108-15.881C79.23,128.935,77.688,123.029,80.38,118.434z M178.145,162.56c-2.693-4.589-1.15-10.495,3.445-13.188
		l58.683-34.384c4.589-2.686,10.489-1.157,13.188,3.445c2.693,4.595,1.15,10.501-3.445,13.194l-27.108,15.881
		c0.315,0.443,0.675,0.835,0.958,1.318c5.386,9.19,2.301,21.016-6.896,26.401c-9.197,5.386-21.016,2.294-26.395-6.896
		c-0.321-0.546-0.514-1.125-0.771-1.69c-1.093,0.405-2.211,0.681-3.336,0.681C183.158,167.329,179.939,165.62,178.145,162.56z"/>
</g>
<g>
</g>
<g>
</g>
<g>
</g>
<g>
</g>
<g>
</g>
<g>
</g>
<g>
</g>
<g>
</g>
<g>
</g>
<g>
</g>
<g>
</g>
<g>
</g>
<g>
</g>
<g>
</g>
<g>
</g>
</svg>
