<?xml version="1.0" encoding="iso-8859-1"?>
<!-- Generator: Adobe Illustrator 19.1.0, SVG Export Plug-In . SVG Version: 6.00 Build 0)  -->
<svg version="1.1" id="Capa_1" xmlns="http://www.w3.org/2000/svg" xmlns:xlink="http://www.w3.org/1999/xlink" x="0px" y="0px"
	 viewBox="0 0 318.458 318.458" style="enable-background:new 0 0 318.458 318.458;" xml:space="preserve">
<g>
	<g>
		<path d="M12.502,244.407l-2.429-4.531c-5.54-10.309-9.049-22.931-9.884-35.547c-2.596-39.3,21.742-74.121,65.419-94.179
			L54.02,85.6l6.947-2.256c10.662-3.464,22.057-6.234,34.827-8.483l4.627-0.81l12.121,23.13c14.537-2.68,30.926-4.081,47.726-4.081
			c55.489,0,124.918,15.463,153.364,58.863l4.827,7.359l-155.182,43.163l-0.006-0.013L12.502,244.407z M71.925,93.441l11.016,23.336
			l-6.26,2.571c-42.205,17.333-66.01,48.78-63.671,84.127c0.591,8.998,2.751,17.95,6.157,25.733l129.205-35.939l-38.484-73.459
			l8.805-1.427c15.527-2.513,29.358-3.734,42.295-3.734c35.868,0,63.658,9.833,82.611,29.223l7.892,8.066l-63.343,15.418
			l-19.531-32.88c-4.917-0.341-9.91-0.405-15.045-0.174c-3.515,0.206-7.5,0.566-11.883,1.08l28.021,51.955l127.765-35.534
			c-28.779-33.689-90.644-45.862-137.213-45.862c-17.802,0-35.052,1.639-49.879,4.749l-4.756,0.996L93.403,88.364
			C85.768,89.835,78.667,91.506,71.925,93.441z M180.076,128.602l14.274,24.024l31.054-7.564
			C213.412,136.314,198.244,130.806,180.076,128.602z M53.159,200.236l-1.208-6.742c-5.019-28.053,5.27-49.981,29.743-63.414
			l5.99-3.291l27.533,58.33L53.159,200.236z M82.041,144.958c-13.599,9.499-19.64,22.507-18.323,39.48l33.143-8.072L82.041,144.958z
			"/>
	</g>
</g>
<g>
</g>
<g>
</g>
<g>
</g>
<g>
</g>
<g>
</g>
<g>
</g>
<g>
</g>
<g>
</g>
<g>
</g>
<g>
</g>
<g>
</g>
<g>
</g>
<g>
</g>
<g>
</g>
<g>
</g>
</svg>
