<?xml version="1.0" encoding="iso-8859-1"?>
<!-- Generator: Adobe Illustrator 19.1.0, SVG Export Plug-In . SVG Version: 6.00 Build 0)  -->
<svg version="1.1" id="Capa_1" xmlns="http://www.w3.org/2000/svg" xmlns:xlink="http://www.w3.org/1999/xlink" x="0px" y="0px"
	 viewBox="0 0 242.676 242.676" style="enable-background:new 0 0 242.676 242.676;" xml:space="preserve">
<g>
	<g>
		<path d="M6.578,6.579c8.766-8.773,23.04-8.773,31.813,0L197.68,165.862l-0.006-106.197c0-12.031,10.476-22.494,22.494-22.494
			c12.397,0,22.487,10.09,22.494,22.494l0.006,160.51c0,1.452-0.148,2.943-0.437,4.415c-0.109,0.553-0.27,1.086-0.45,1.62
			l-0.193,0.643c-0.18,0.668-0.379,1.318-0.636,1.954c-0.257,0.623-0.578,1.202-0.9,1.774l-0.341,0.636
			c-0.238,0.463-0.482,0.925-0.771,1.375c-1.793,2.661-3.85,4.653-6.247,6.279c-0.559,0.373-1.048,0.636-1.549,0.887l-0.604,0.308
			c-0.591,0.334-1.17,0.649-1.793,0.9c-0.617,0.264-1.318,0.469-2.018,0.668c-1.067,0.334-1.587,0.488-2.134,0.611
			c-1.497,0.289-3.021,0.437-4.505,0.431H59.676c-6.009,0-11.658-2.339-15.913-6.588s-6.581-9.891-6.588-15.913
			c-0.006-12.012,10.469-22.487,22.494-22.487l106.197-0.013L6.578,38.386C-2.182,29.62-2.182,15.339,6.578,6.579z M210.534,196.897
			L29.31,15.667c-3.76-3.753-9.872-3.753-13.631,0c-3.76,3.76-3.76,9.878,0,13.638l181.217,181.217H59.657
			c-5.148,0-9.64,4.499-9.64,9.64c0,2.571,1.003,4.994,2.821,6.819c1.825,1.825,4.242,2.821,6.825,2.828l160.439-0.006
			c0.681,0.006,1.343-0.064,1.986-0.193l3.246-1.343c1.388-0.855,2.153-1.716,2.879-2.789l1.363-3.31
			c0.174-0.739,0.244-1.375,0.238-2.005l-0.006-160.51c-0.006-5.315-4.332-9.64-9.64-9.64c-5.129,0-9.64,4.486-9.64,9.64
			L210.534,196.897z"/>
	</g>
</g>
<g>
</g>
<g>
</g>
<g>
</g>
<g>
</g>
<g>
</g>
<g>
</g>
<g>
</g>
<g>
</g>
<g>
</g>
<g>
</g>
<g>
</g>
<g>
</g>
<g>
</g>
<g>
</g>
<g>
</g>
</svg>
