<?xml version="1.0" encoding="iso-8859-1"?>
<!-- Generator: Adobe Illustrator 19.1.0, SVG Export Plug-In . SVG Version: 6.00 Build 0)  -->
<svg version="1.1" id="Capa_1" xmlns="http://www.w3.org/2000/svg" xmlns:xlink="http://www.w3.org/1999/xlink" x="0px" y="0px"
	 viewBox="0 0 242.669 242.669" style="enable-background:new 0 0 242.669 242.669;" xml:space="preserve">
<g>
	<g>
		<path d="M236.09,6.577c8.773,8.766,8.773,23.04,0,31.813L76.814,197.679l106.197-0.006c12.025,0,22.494,10.476,22.494,22.494
			c0.006,12.397-10.084,22.488-22.494,22.494l-160.504,0.006c-1.452,0-2.943-0.148-4.415-0.437c-0.553-0.109-1.086-0.27-1.62-0.45
			l-0.643-0.193c-0.668-0.18-1.318-0.379-1.954-0.636c-0.623-0.257-1.202-0.578-1.774-0.9l-0.636-0.341
			c-0.463-0.238-0.925-0.482-1.375-0.771c-2.661-1.793-4.653-3.85-6.279-6.247c-0.373-0.559-0.636-1.048-0.887-1.549l-0.315-0.604
			c-0.334-0.591-0.649-1.17-0.9-1.793c-0.264-0.617-0.469-1.318-0.668-2.018c-0.334-1.067-0.488-1.587-0.611-2.134
			c-0.289-1.497-0.437-3.021-0.431-4.505V59.675c0-6.009,2.339-11.658,6.588-15.913s9.891-6.581,15.913-6.588
			c12.012-0.006,22.487,10.469,22.487,22.494l0.013,106.203L204.284,6.583C213.05-2.189,227.33-2.189,236.09,6.577z M45.779,210.532
			l181.23-181.23c3.753-3.76,3.753-9.872,0-13.631c-3.76-3.76-9.878-3.76-13.631,0L32.154,196.895V59.65
			c0-5.148-4.499-9.64-9.64-9.64c-2.571,0-4.994,1.003-6.819,2.821c-1.825,1.825-2.821,4.242-2.828,6.825l0.006,160.446
			c-0.006,0.681,0.064,1.343,0.193,1.986l1.343,3.246c0.855,1.388,1.716,2.153,2.789,2.879l3.31,1.363
			c0.739,0.174,1.375,0.244,2.005,0.238l160.504-0.006c5.315-0.006,9.64-4.332,9.64-9.64c0-5.129-4.479-9.64-9.64-9.64
			L45.779,210.532z"/>
	</g>
</g>
<g>
</g>
<g>
</g>
<g>
</g>
<g>
</g>
<g>
</g>
<g>
</g>
<g>
</g>
<g>
</g>
<g>
</g>
<g>
</g>
<g>
</g>
<g>
</g>
<g>
</g>
<g>
</g>
<g>
</g>
</svg>
