<?xml version="1.0" encoding="iso-8859-1"?>
<!-- Generator: Adobe Illustrator 19.1.0, SVG Export Plug-In . SVG Version: 6.00 Build 0)  -->
<svg version="1.1" id="Capa_1" xmlns="http://www.w3.org/2000/svg" xmlns:xlink="http://www.w3.org/1999/xlink" x="0px" y="0px"
	 viewBox="0 0 245.704 245.704" style="enable-background:new 0 0 245.704 245.704;" xml:space="preserve">
<g>
	<g>
		<path d="M165.491,228.148c-2.686,2.693-7.59,6.041-15.636,6.761L29.731,245.578c-8.252,0.739-16.228-2.076-21.883-7.731
			c-5.656-5.656-8.471-13.625-7.731-21.89L10.797,95.852c0.707-8.034,4.075-12.931,6.767-15.624
			c7.301-7.301,20.36-9.017,31.215,1.838l41.53,41.53L207.317,6.59c8.766-8.773,23.04-8.773,31.806,0
			c8.773,8.773,8.773,23.04,0.006,31.813L122.123,155.403l41.537,41.537C174.508,207.782,172.799,220.847,165.491,228.148z
			 M26.652,89.316c-1.189,1.189-2.68,3.483-3.059,7.674L12.918,217.094c-0.405,4.454,1.06,8.702,4.017,11.658
			c2.95,2.95,7.198,4.415,11.658,4.017l120.124-10.662c4.197-0.386,6.498-1.864,7.68-3.053c2.584-2.577,3.644-7.552-1.838-13.034
			l-50.618-50.624L230.036,29.308c3.76-3.753,3.76-9.878,0-13.638c-3.76-3.76-9.872-3.76-13.631,0L90.31,141.765L39.693,91.147
			C34.198,85.652,29.242,86.732,26.652,89.316z"/>
	</g>
</g>
<g>
</g>
<g>
</g>
<g>
</g>
<g>
</g>
<g>
</g>
<g>
</g>
<g>
</g>
<g>
</g>
<g>
</g>
<g>
</g>
<g>
</g>
<g>
</g>
<g>
</g>
<g>
</g>
<g>
</g>
</svg>
