<?xml version="1.0" encoding="iso-8859-1"?>
<!-- Generator: Adobe Illustrator 19.1.0, SVG Export Plug-In . SVG Version: 6.00 Build 0)  -->
<svg version="1.1" id="Capa_1" xmlns="http://www.w3.org/2000/svg" xmlns:xlink="http://www.w3.org/1999/xlink" x="0px" y="0px"
	 viewBox="0 0 236.715 236.715" style="enable-background:new 0 0 236.715 236.715;" xml:space="preserve">
<g>
	<path d="M0.118,29.746l10.681,120.111c0.707,8.046,4.068,12.944,6.767,15.643c7.294,7.294,20.354,8.998,31.209-1.851l52.893-52.893
		l124.07,124.064c2.526,2.519,6.575,2.513,9.088,0c2.513-2.513,2.526-6.568,0-9.094l-124.07-124.064l52.886-52.886
		c10.848-10.848,9.145-23.921,1.851-31.209c-2.699-2.699-7.59-6.041-15.643-6.767L29.733,0.124
		C21.481-0.615,13.492,2.207,7.843,7.85C2.194,13.505-0.628,21.487,0.118,29.746z M28.595,12.927l120.124,10.669
		c4.203,0.379,6.504,1.864,7.686,3.053c2.577,2.571,3.638,7.545-1.844,13.034L39.688,154.561
		c-5.489,5.489-10.463,4.422-13.034,1.844c-1.189-1.189-2.686-3.49-3.053-7.686L12.92,28.615c-0.405-4.46,1.06-8.708,4.01-11.665
		C19.887,13.987,24.128,12.535,28.595,12.927z"/>
</g>
<g>
</g>
<g>
</g>
<g>
</g>
<g>
</g>
<g>
</g>
<g>
</g>
<g>
</g>
<g>
</g>
<g>
</g>
<g>
</g>
<g>
</g>
<g>
</g>
<g>
</g>
<g>
</g>
<g>
</g>
</svg>
