<?xml version="1.0" encoding="iso-8859-1"?>
<!-- Generator: Adobe Illustrator 19.1.0, SVG Export Plug-In . SVG Version: 6.00 Build 0)  -->
<svg version="1.1" id="Capa_1" xmlns="http://www.w3.org/2000/svg" xmlns:xlink="http://www.w3.org/1999/xlink" x="0px" y="0px"
	 viewBox="0 0 242.695 242.695" style="enable-background:new 0 0 242.695 242.695;" xml:space="preserve">
<g>
	<g>
		<path d="M6.579,236.105c-8.773-8.766-8.773-23.047,0-31.813L165.862,45.003L59.665,45.01c-12.025,0-22.494-10.476-22.494-22.494
			C37.165,10.118,47.255,0.028,59.665,0.022l160.51-0.006c1.452,0,2.943,0.148,4.415,0.437c0.553,0.109,1.086,0.27,1.62,0.45
			l0.643,0.193c0.668,0.18,1.318,0.379,1.954,0.636c0.623,0.257,1.202,0.578,1.774,0.9l0.636,0.341
			c0.463,0.238,0.925,0.482,1.375,0.771c2.661,1.793,4.653,3.85,6.279,6.247c0.373,0.559,0.636,1.048,0.887,1.549l0.328,0.604
			c0.334,0.591,0.649,1.17,0.9,1.793c0.264,0.617,0.469,1.318,0.668,2.018c0.334,1.067,0.488,1.587,0.611,2.134
			c0.289,1.497,0.437,3.021,0.431,4.505v160.42c0,6.009-2.339,11.658-6.588,15.913c-4.248,4.255-9.891,6.581-15.913,6.581
			c-12.012,0.006-22.488-10.469-22.488-22.488l-0.013-106.203L38.386,236.105C29.62,244.871,15.339,244.871,6.579,236.105z
			 M196.897,32.15L15.667,213.38c-3.753,3.76-3.753,9.872,0,13.631c3.76,3.76,9.878,3.76,13.631,0L210.522,45.787v137.245
			c0,5.148,4.499,9.647,9.64,9.64c2.571,0,4.994-1.003,6.819-2.821s2.821-4.242,2.828-6.825L229.803,22.58
			c0.006-0.681-0.064-1.343-0.193-1.986l-1.343-3.246c-0.855-1.388-1.716-2.153-2.789-2.879l-3.31-1.362
			c-0.739-0.174-1.375-0.244-2.005-0.238l-160.51,0.006c-5.315,0.006-9.64,4.332-9.64,9.64c0,5.129,4.48,9.64,9.64,9.64
			L196.897,32.15z"/>
	</g>
</g>
<g>
</g>
<g>
</g>
<g>
</g>
<g>
</g>
<g>
</g>
<g>
</g>
<g>
</g>
<g>
</g>
<g>
</g>
<g>
</g>
<g>
</g>
<g>
</g>
<g>
</g>
<g>
</g>
<g>
</g>
</svg>
