<?xml version="1.0" encoding="iso-8859-1"?>
<!-- Generator: Adobe Illustrator 19.1.0, SVG Export Plug-In . SVG Version: 6.00 Build 0)  -->
<svg version="1.1" id="Capa_1" xmlns="http://www.w3.org/2000/svg" xmlns:xlink="http://www.w3.org/1999/xlink" x="0px" y="0px"
	 viewBox="0 0 242.676 242.676" style="enable-background:new 0 0 242.676 242.676;" xml:space="preserve">
<g>
	<g>
		<path d="M236.096,236.096c-8.766,8.773-23.047,8.773-31.813,0L44.994,76.814L45,183.011c0,12.025-10.476,22.494-22.494,22.494
			c-12.397,0.006-22.487-10.084-22.494-22.494L0.006,22.507c0-1.452,0.148-2.943,0.437-4.415c0.109-0.553,0.27-1.086,0.45-1.62
			l0.193-0.643c0.18-0.668,0.379-1.318,0.636-1.954c0.257-0.623,0.578-1.202,0.9-1.774l0.341-0.636
			C3.2,11.003,3.444,10.54,3.733,10.09C5.526,7.43,7.583,5.437,9.98,3.811c0.559-0.373,1.048-0.636,1.549-0.887l0.604-0.315
			c0.591-0.334,1.17-0.649,1.793-0.9c0.617-0.264,1.318-0.469,2.018-0.668c1.067-0.334,1.587-0.488,2.134-0.611
			C19.575,0.142,21.099-0.006,22.583,0h160.42c6.009,0,11.658,2.339,15.913,6.588s6.581,9.891,6.581,15.913
			c0.006,12.012-10.469,22.487-22.487,22.487L76.806,45.001l159.289,159.283C244.862,213.056,244.862,227.337,236.096,236.096z
			 M32.14,45.779l181.23,181.23c3.76,3.753,9.872,3.753,13.631,0c3.76-3.76,3.76-9.878,0-13.631L45.778,32.154h137.245
			c5.148,0,9.647-4.499,9.64-9.64c0-2.571-1.003-4.994-2.821-6.819c-1.819-1.825-4.242-2.821-6.825-2.828L22.57,12.873
			c-0.681-0.006-1.343,0.064-1.986,0.193l-3.246,1.343c-1.388,0.855-2.153,1.716-2.879,2.789l-1.362,3.31
			c-0.174,0.739-0.244,1.375-0.238,2.005l0.006,160.51c0.006,5.315,4.332,9.64,9.64,9.64c5.129,0,9.64-4.479,9.64-9.64L32.14,45.779
			z"/>
	</g>
</g>
<g>
</g>
<g>
</g>
<g>
</g>
<g>
</g>
<g>
</g>
<g>
</g>
<g>
</g>
<g>
</g>
<g>
</g>
<g>
</g>
<g>
</g>
<g>
</g>
<g>
</g>
<g>
</g>
<g>
</g>
</svg>
