<?xml version="1.0" encoding="iso-8859-1"?>
<!-- Generator: Adobe Illustrator 19.1.0, SVG Export Plug-In . SVG Version: 6.00 Build 0)  -->
<svg version="1.1" id="Capa_1" xmlns="http://www.w3.org/2000/svg" xmlns:xlink="http://www.w3.org/1999/xlink" x="0px" y="0px"
	 viewBox="0 0 236.714 236.714" style="enable-background:new 0 0 236.714 236.714;" xml:space="preserve">
<g>
	<path d="M206.969,0.116L86.858,10.804c-8.046,0.707-12.944,4.062-15.643,6.761c-7.294,7.294-9.004,20.354,1.851,31.209
		l52.893,52.893L1.895,225.737c-2.519,2.526-2.513,6.575,0,9.088c2.506,2.513,6.568,2.526,9.094,0L135.052,110.76l52.886,52.886
		c10.848,10.848,23.921,9.145,31.209,1.851c2.699-2.699,6.041-7.59,6.767-15.643L236.59,29.731
		c0.739-8.258-2.082-16.247-7.725-21.89C223.209,2.192,215.227-0.623,206.969,0.116z M223.788,28.593l-10.669,120.124
		c-0.379,4.203-1.864,6.504-3.053,7.686c-2.571,2.577-7.545,3.638-13.034-1.844L82.16,39.686
		c-5.489-5.489-4.422-10.456-1.851-13.034c1.189-1.189,3.49-2.686,7.686-3.053L208.1,12.912c4.46-0.405,8.708,1.06,11.665,4.017
		C222.721,19.885,224.186,24.127,223.788,28.593z"/>
</g>
<g>
</g>
<g>
</g>
<g>
</g>
<g>
</g>
<g>
</g>
<g>
</g>
<g>
</g>
<g>
</g>
<g>
</g>
<g>
</g>
<g>
</g>
<g>
</g>
<g>
</g>
<g>
</g>
<g>
</g>
</svg>
