<?xml version="1.0" encoding="iso-8859-1"?>
<!-- Generator: Adobe Illustrator 19.1.0, SVG Export Plug-In . SVG Version: 6.00 Build 0)  -->
<svg version="1.1" id="Capa_1" xmlns="http://www.w3.org/2000/svg" xmlns:xlink="http://www.w3.org/1999/xlink" x="0px" y="0px"
	 viewBox="0 0 236.721 236.721" style="enable-background:new 0 0 236.721 236.721;" xml:space="preserve">
<g>
	<path d="M236.604,206.973L225.923,86.861c-0.713-8.046-4.068-12.944-6.767-15.643c-7.294-7.294-20.36-8.998-31.215,1.851
		l-52.893,52.893L10.977,1.899c-2.526-2.519-6.575-2.513-9.088,0s-2.526,6.568,0,9.094l124.07,124.064l-52.886,52.886
		c-10.848,10.848-9.145,23.921-1.851,31.209c2.699,2.699,7.59,6.041,15.643,6.767l120.124,10.675
		c8.258,0.739,16.241-2.082,21.89-7.725C234.522,223.213,237.349,215.231,236.604,206.973z M208.127,223.792l-120.13-10.669
		c-4.203-0.379-6.504-1.864-7.686-3.053c-2.577-2.571-3.638-7.545,1.845-13.034l114.88-114.88c5.495-5.489,10.469-4.422,13.04-1.845
		c1.183,1.189,2.686,3.49,3.053,7.686l10.681,120.105c0.405,4.46-1.067,8.708-4.017,11.665
		C216.841,222.725,212.593,224.19,208.127,223.792z"/>
</g>
<g>
</g>
<g>
</g>
<g>
</g>
<g>
</g>
<g>
</g>
<g>
</g>
<g>
</g>
<g>
</g>
<g>
</g>
<g>
</g>
<g>
</g>
<g>
</g>
<g>
</g>
<g>
</g>
<g>
</g>
</svg>
