<?xml version="1.0" encoding="iso-8859-1"?>
<!-- Generator: Adobe Illustrator 19.1.0, SVG Export Plug-In . SVG Version: 6.00 Build 0)  -->
<svg version="1.1" id="Capa_1" xmlns="http://www.w3.org/2000/svg" xmlns:xlink="http://www.w3.org/1999/xlink" x="0px" y="0px"
	 viewBox="0 0 236.713 236.713" style="enable-background:new 0 0 236.713 236.713;" xml:space="preserve">
<g>
	<path d="M29.748,236.597l120.111-10.681c8.046-0.713,12.944-4.068,15.643-6.767c7.294-7.294,8.998-20.36-1.851-31.215
		l-52.893-52.893L234.822,10.977c2.519-2.526,2.513-6.575,0-9.088c-2.513-2.513-6.568-2.526-9.094,0l-124.07,124.057L48.771,73.06
		c-10.848-10.848-23.921-9.145-31.209-1.851c-2.699,2.699-6.041,7.59-6.767,15.643L0.12,206.976
		c-0.739,8.258,2.082,16.241,7.725,21.89C13.501,234.515,21.483,237.337,29.748,236.597z M12.923,208.12L23.591,87.99
		c0.379-4.203,1.864-6.504,3.053-7.686c2.571-2.577,7.545-3.638,13.034,1.845l114.88,114.88c5.489,5.495,4.422,10.469,1.844,13.04
		c-1.189,1.183-3.49,2.686-7.686,3.053L28.61,223.802c-4.46,0.405-8.708-1.067-11.665-4.017
		C13.989,216.835,12.531,212.587,12.923,208.12z"/>
</g>
<g>
</g>
<g>
</g>
<g>
</g>
<g>
</g>
<g>
</g>
<g>
</g>
<g>
</g>
<g>
</g>
<g>
</g>
<g>
</g>
<g>
</g>
<g>
</g>
<g>
</g>
<g>
</g>
<g>
</g>
</svg>
