<?xml version="1.0" encoding="iso-8859-1"?>
<!-- Generator: Adobe Illustrator 19.1.0, SVG Export Plug-In . SVG Version: 6.00 Build 0)  -->
<svg version="1.1" id="Capa_1" xmlns="http://www.w3.org/2000/svg" xmlns:xlink="http://www.w3.org/1999/xlink" x="0px" y="0px"
	 viewBox="0 0 245.697 245.697" style="enable-background:new 0 0 245.697 245.697;" xml:space="preserve">
<g>
	<g>
		<path d="M80.213,17.552c2.686-2.693,7.59-6.041,15.636-6.761L215.967,0.122c8.252-0.739,16.228,2.076,21.883,7.731
			s8.471,13.625,7.731,21.89L234.9,149.854c-0.707,8.034-4.075,12.931-6.767,15.624c-7.301,7.307-20.36,9.017-31.215-1.832
			l-41.53-41.537L38.387,239.117c-8.766,8.766-23.04,8.766-31.806,0c-8.773-8.773-8.773-23.047-0.006-31.813L123.581,90.303
			L82.044,48.767C71.202,37.918,72.905,24.853,80.213,17.552z M219.045,156.391c1.189-1.189,2.68-3.477,3.059-7.667l10.675-120.111
			c0.405-4.454-1.06-8.702-4.017-11.658c-2.95-2.95-7.198-4.415-11.658-4.017L96.987,23.599c-4.197,0.386-6.498,1.864-7.68,3.053
			c-2.584,2.577-3.644,7.552,1.838,13.034l50.618,50.624L15.668,216.392c-3.76,3.76-3.76,9.878,0,13.638s9.872,3.76,13.631,0
			l126.088-126.094l50.618,50.624C211.506,160.047,216.461,158.974,219.045,156.391z"/>
	</g>
</g>
<g>
</g>
<g>
</g>
<g>
</g>
<g>
</g>
<g>
</g>
<g>
</g>
<g>
</g>
<g>
</g>
<g>
</g>
<g>
</g>
<g>
</g>
<g>
</g>
<g>
</g>
<g>
</g>
<g>
</g>
</svg>
