<?xml version="1.0" encoding="iso-8859-1"?>
<!-- Generator: Adobe Illustrator 19.1.0, SVG Export Plug-In . SVG Version: 6.00 Build 0)  -->
<svg version="1.1" id="Capa_1" xmlns="http://www.w3.org/2000/svg" xmlns:xlink="http://www.w3.org/1999/xlink" x="0px" y="0px"
	 viewBox="0 0 245.703 245.703" style="enable-background:new 0 0 245.703 245.703;" xml:space="preserve">
<g>
	<g>
		<path d="M228.151,80.212c2.693,2.686,6.041,7.59,6.761,15.636l10.669,120.124c0.739,8.252-2.076,16.228-7.731,21.883
			c-5.656,5.656-13.625,8.471-21.89,7.731L95.855,234.906c-8.034-0.707-12.931-4.075-15.624-6.767
			c-7.301-7.301-9.017-20.36,1.838-31.215l41.53-41.53l-117.013-117c-8.773-8.766-8.773-23.04,0-31.813s23.04-8.773,31.813,0
			l117.001,117.007l41.537-41.53C207.784,71.201,220.85,72.911,228.151,80.212z M89.312,219.051c1.189,1.189,3.483,2.68,7.674,3.059
			l120.111,10.675c4.454,0.405,8.702-1.06,11.658-4.017c2.95-2.95,4.415-7.198,4.017-11.658L222.11,96.986
			c-0.386-4.197-1.864-6.498-3.053-7.68c-2.577-2.584-7.552-3.644-13.034,1.838l-50.624,50.618L29.311,15.667
			c-3.753-3.76-9.878-3.753-13.638,0c-3.76,3.76-3.76,9.878,0,13.638l126.094,126.088L91.15,206.011
			C85.655,211.506,86.729,216.467,89.312,219.051z"/>
	</g>
</g>
<g>
</g>
<g>
</g>
<g>
</g>
<g>
</g>
<g>
</g>
<g>
</g>
<g>
</g>
<g>
</g>
<g>
</g>
<g>
</g>
<g>
</g>
<g>
</g>
<g>
</g>
<g>
</g>
<g>
</g>
</svg>
