<?xml version="1.0" encoding="iso-8859-1"?>
<!-- Generator: Adobe Illustrator 19.1.0, SVG Export Plug-In . SVG Version: 6.00 Build 0)  -->
<svg version="1.1" id="Capa_1" xmlns="http://www.w3.org/2000/svg" xmlns:xlink="http://www.w3.org/1999/xlink" x="0px" y="0px"
	 viewBox="0 0 325.776 325.776" style="enable-background:new 0 0 325.776 325.776;" xml:space="preserve">
<g>
	<path d="M31.292,200.607h31.633v-69.178H31.292V200.607z M44.146,144.282h5.926v43.471h-5.926V144.282z M200.614,131.429h-31.633
		v69.178h31.633V131.429z M187.76,187.754h-5.926v-43.471h5.926V187.754z M231.899,106.383h-0.341h-93.53V62.578H94.217h-0.334
		H50.078v43.805H0v119.25h93.877h0.334h43.478v37.565h93.87h0.341h93.877V106.383H231.899z M81.357,212.78H12.854v-93.543h50.071
		V75.432h18.432V212.78z M106.73,75.432h18.439V93.87H106.73V75.432z M125.169,212.78H106.73v-93.543h18.439V212.78z
		 M219.046,250.338h-68.504v-12.192h50.071V212.78h-50.071v-93.543h68.504V250.338z M312.923,250.338h-68.504v-12.192h50.065V212.78
		h-50.065v-93.543h68.504V250.338z M294.484,131.429h-31.626v69.178h31.626C294.484,200.607,294.484,131.429,294.484,131.429z
		 M281.63,187.754h-5.919v-43.471h5.919C281.63,144.282,281.63,187.754,281.63,187.754z"/>
</g>
<g>
</g>
<g>
</g>
<g>
</g>
<g>
</g>
<g>
</g>
<g>
</g>
<g>
</g>
<g>
</g>
<g>
</g>
<g>
</g>
<g>
</g>
<g>
</g>
<g>
</g>
<g>
</g>
<g>
</g>
</svg>
