<?xml version="1.0" encoding="iso-8859-1"?>
<!-- Generator: Adobe Illustrator 19.1.0, SVG Export Plug-In . SVG Version: 6.00 Build 0)  -->
<svg version="1.1" id="Capa_1" xmlns="http://www.w3.org/2000/svg" xmlns:xlink="http://www.w3.org/1999/xlink" x="0px" y="0px"
	 viewBox="0 0 324.554 324.554" style="enable-background:new 0 0 324.554 324.554;" xml:space="preserve">
<g>
	<g>
		<path d="M162.287,0c12.404,0,22.494,10.09,22.494,22.494v225.261l75.091-75.098c8.503-8.509,23.317-8.503,31.813,0
			c8.766,8.76,8.766,23.034,0,31.806L178.193,317.961c-1.022,1.028-2.185,1.979-3.426,2.815c-0.469,0.315-0.958,0.578-1.472,0.829
			l-0.591,0.315c-0.598,0.341-1.202,0.668-1.825,0.932c-0.623,0.257-1.253,0.437-1.889,0.623l-0.688,0.206
			c-0.495,0.161-0.996,0.315-1.517,0.424c-3.149,0.617-6.009,0.572-8.856,0.026c-0.656-0.135-1.189-0.296-1.722-0.469l-0.662-0.193
			c-0.649-0.18-1.279-0.373-1.902-0.636c-0.623-0.251-1.26-0.604-1.896-0.958c-0.99-0.521-1.472-0.778-1.941-1.08
			c-1.266-0.855-2.449-1.819-3.496-2.879L32.883,204.483c-4.248-4.248-6.588-9.897-6.588-15.913c0-6.009,2.339-11.652,6.588-15.906
			c8.49-8.503,23.31-8.503,31.806,0l75.104,75.091V22.494C139.793,10.103,149.889,0,162.287,0z M171.927,278.796V22.5
			c0-5.315-4.325-9.64-9.64-9.64c-5.315,0-9.64,4.325-9.64,9.64v256.283l-97.045-97.045c-3.638-3.638-10-3.638-13.631,0
			c-1.819,1.819-2.821,4.242-2.821,6.819c0,2.577,1.003,4.994,2.821,6.825l113.459,113.453c0.476,0.482,0.99,0.906,1.536,1.266
			l3.246,1.343c1.581,0.379,2.731,0.308,4.004,0.064l3.303-1.375c0.656-0.405,1.15-0.797,1.587-1.247l113.491-113.498
			c3.753-3.76,3.753-9.878,0-13.631c-3.625-3.625-9.994-3.644-13.638,0L171.927,278.796z"/>
	</g>
</g>
<g>
</g>
<g>
</g>
<g>
</g>
<g>
</g>
<g>
</g>
<g>
</g>
<g>
</g>
<g>
</g>
<g>
</g>
<g>
</g>
<g>
</g>
<g>
</g>
<g>
</g>
<g>
</g>
<g>
</g>
</svg>
