<?xml version="1.0" encoding="iso-8859-1"?>
<!-- Generator: Adobe Illustrator 19.1.0, SVG Export Plug-In . SVG Version: 6.00 Build 0)  -->
<svg version="1.1" id="Capa_1" xmlns="http://www.w3.org/2000/svg" xmlns:xlink="http://www.w3.org/1999/xlink" x="0px" y="0px"
	 viewBox="0 0 327.068 327.068" style="enable-background:new 0 0 327.068 327.068;" xml:space="preserve">
<g>
	<g>
		<path d="M268.137,208.737c0,3.805-1.093,9.64-6.279,15.836l-77.398,92.482c-5.309,6.363-12.95,10.013-20.939,10.013
			c-7.995,0-15.63-3.644-20.951-10.013l-77.373-92.482c-5.18-6.189-6.266-12.025-6.266-15.836c0-10.322,8.021-20.772,23.374-20.772
			h58.735V22.494C141.04,10.09,151.13,0,163.534,0s22.494,10.09,22.494,22.494v165.465h58.735
			C260.104,187.959,268.137,198.409,268.137,208.737z M71.791,208.737c0,1.677,0.566,4.357,3.265,7.59l77.379,92.482
			c2.866,3.432,6.909,5.405,11.093,5.405c4.171,0,8.214-1.973,11.086-5.405l77.398-92.482c2.699-3.239,3.278-5.913,3.278-7.59
			c0-3.65-2.764-7.918-10.521-7.918h-71.588V22.494c0-5.315-4.332-9.64-9.64-9.64c-5.321,0-9.64,4.325-9.64,9.64v178.319H82.312
			C74.542,200.813,71.791,205.087,71.791,208.737z"/>
	</g>
</g>
<g>
</g>
<g>
</g>
<g>
</g>
<g>
</g>
<g>
</g>
<g>
</g>
<g>
</g>
<g>
</g>
<g>
</g>
<g>
</g>
<g>
</g>
<g>
</g>
<g>
</g>
<g>
</g>
<g>
</g>
</svg>
