<?xml version="1.0" encoding="iso-8859-1"?>
<!-- Generator: Adobe Illustrator 19.1.0, SVG Export Plug-In . SVG Version: 6.00 Build 0)  -->
<svg version="1.1" id="Capa_1" xmlns="http://www.w3.org/2000/svg" xmlns:xlink="http://www.w3.org/1999/xlink" x="0px" y="0px"
	 viewBox="0 0 320.995 320.995" style="enable-background:new 0 0 320.995 320.995;" xml:space="preserve">
<g>
	<path d="M181.455,310.975l77.373-92.489c5.193-6.189,6.279-12.025,6.279-15.842c0-10.315-8.027-20.759-23.381-20.759h-74.808V6.427
		c0-3.567-2.873-6.427-6.427-6.427c-3.548,0-6.427,2.86-6.427,6.427v175.459H79.269c-15.347,0-23.381,10.444-23.381,20.759
		c0,3.818,1.093,9.64,6.279,15.842l77.392,92.489c5.315,6.363,12.963,10.019,20.945,10.019
		C168.492,320.995,176.134,317.338,181.455,310.975z M149.417,302.73l-77.398-92.489c-2.712-3.239-3.284-5.913-3.284-7.597
		c0-3.638,2.764-7.905,10.527-7.905H241.72c7.764,0,10.527,4.267,10.527,7.905c0,1.684-0.572,4.37-3.284,7.597l-77.366,92.489
		c-2.866,3.438-6.909,5.411-11.093,5.411C156.333,308.141,152.297,306.168,149.417,302.73z"/>
</g>
<g>
</g>
<g>
</g>
<g>
</g>
<g>
</g>
<g>
</g>
<g>
</g>
<g>
</g>
<g>
</g>
<g>
</g>
<g>
</g>
<g>
</g>
<g>
</g>
<g>
</g>
<g>
</g>
<g>
</g>
</svg>
