<?xml version="1.0" encoding="iso-8859-1"?>
<!-- Generator: Adobe Illustrator 19.1.0, SVG Export Plug-In . SVG Version: 6.00 Build 0)  -->
<svg version="1.1" id="Capa_1" xmlns="http://www.w3.org/2000/svg" xmlns:xlink="http://www.w3.org/1999/xlink" x="0px" y="0px"
	 viewBox="0 0 304.728 304.728" style="enable-background:new 0 0 304.728 304.728;" xml:space="preserve">
<g>
	<path d="M304.728,289.204H0V135.5c0-3.554,2.873-6.427,6.427-6.427s6.427,2.873,6.427,6.427v140.851h279.021V134.96
		c0-3.554,2.886-6.427,6.427-6.427c3.554,0,6.427,2.873,6.427,6.427C304.728,134.96,304.728,289.204,304.728,289.204z
		 M145.934,130.821V21.951c0-3.554,2.873-6.427,6.427-6.427c3.554,0,6.427,2.873,6.427,6.427v108.871h48.201
		c7.834,0,11.395,5,11.395,9.66c0,1.845-0.566,4.704-3.201,7.879l-52.057,62.205c-2.751,3.303-6.677,5.186-10.765,5.186
		c-4.094,0-8.014-1.883-10.771-5.186L89.513,148.36c-2.635-3.168-3.188-6.028-3.188-7.879c0-4.659,3.573-9.66,11.388-9.66H145.934z
		 M102.437,143.675l49.03,58.638c0.309,0.366,0.643,0.578,0.919,0.578s0.611-0.212,0.919-0.578l49.017-58.593L102.437,143.675z"/>
</g>
<g>
</g>
<g>
</g>
<g>
</g>
<g>
</g>
<g>
</g>
<g>
</g>
<g>
</g>
<g>
</g>
<g>
</g>
<g>
</g>
<g>
</g>
<g>
</g>
<g>
</g>
<g>
</g>
<g>
</g>
</svg>
