<?xml version="1.0" encoding="iso-8859-1"?>
<!-- Generator: Adobe Illustrator 19.1.0, SVG Export Plug-In . SVG Version: 6.00 Build 0)  -->
<svg version="1.1" id="Capa_1" xmlns="http://www.w3.org/2000/svg" xmlns:xlink="http://www.w3.org/1999/xlink" x="0px" y="0px"
	 viewBox="0 0 332.595 332.595" style="enable-background:new 0 0 332.595 332.595;" xml:space="preserve">
<g>
	<path d="M264.76,114.725H67.135v-14.229H264.76V114.725z M192.998,49.075H67.141v14.229h125.857V49.075z M264.76,136.911H67.135
		v14.229H264.76V136.911z M332.595,128.575v7.076v149.732v7.082c0,21.266-17.295,38.561-38.561,38.561H38.561
		C17.295,331.027,0,313.732,0,292.466v-7.082V135.658v-7.082c0-2.365,0.225-4.672,0.636-6.915c0.135-0.713,0.392-1.375,0.559-2.076
		c0.366-1.504,0.713-3.014,1.253-4.447c0.276-0.752,0.668-1.44,0.996-2.166c0.591-1.311,1.157-2.622,1.877-3.85
		c0.405-0.688,0.913-1.311,1.356-1.973c0.791-1.176,1.575-2.339,2.494-3.419c0.508-0.598,1.086-1.125,1.626-1.69
		c0.983-1.028,1.973-2.044,3.066-2.963c0.598-0.495,1.234-0.919,1.857-1.375c1.163-0.855,2.32-1.69,3.573-2.416
		c0.668-0.386,1.375-0.701,2.063-1.048c1.298-0.656,2.603-1.266,3.978-1.774c0.341-0.129,0.668-0.276,1.009-0.392V33.702
		c0-17.719,14.415-32.134,32.134-32.134h215.569c17.725,0,32.134,14.415,32.134,32.134v58.336c0.135,0.045,0.276,0.109,0.411,0.161
		c1.183,0.405,2.275,0.97,3.387,1.485c0.938,0.424,1.909,0.784,2.802,1.285c1.08,0.598,2.031,1.337,3.04,2.031
		c0.842,0.585,1.735,1.093,2.526,1.742c0.951,0.771,1.78,1.677,2.648,2.532c0.726,0.713,1.504,1.356,2.172,2.127
		c0.816,0.945,1.478,2.005,2.211,3.021c0.578,0.803,1.215,1.555,1.735,2.404c0.675,1.125,1.183,2.346,1.735,3.541
		c0.405,0.855,0.893,1.658,1.228,2.545c0.527,1.369,0.842,2.828,1.215,4.267c0.199,0.79,0.501,1.542,0.656,2.352
		C332.37,123.813,332.595,126.172,332.595,128.575z M306.181,136.731l13.541-8.278c-0.013-1.472-0.135-2.911-0.379-4.312
		c-0.013-0.019-0.013-0.045-0.013-0.071c-0.251-1.433-0.63-2.821-1.118-4.158c-0.341-0.951-0.803-1.851-1.253-2.744
		c-0.174-0.353-0.302-0.733-0.501-1.073c-0.643-1.144-1.382-2.23-2.198-3.258c-0.039-0.051-0.077-0.116-0.116-0.174
		c-2.159-2.699-4.91-4.878-7.969-6.536v30.605H306.181z M39.197,144.559l47.051,28.773h133.524v14.229H109.513l25.238,15.431
		l0.006-0.006l31.53,19.287l31.53-19.287l0.013,0.006l95.496-58.401V33.702c0-10.63-8.651-19.281-19.281-19.281H58.478
		c-10.63,0-19.281,8.651-19.281,19.281V144.559z M12.867,128.46l13.477,8.239v-30.572c-0.925,0.501-1.812,1.048-2.661,1.652
		c-0.238,0.167-0.463,0.341-0.688,0.521c-0.81,0.617-1.587,1.273-2.314,1.973c-0.264,0.264-0.514,0.533-0.771,0.803
		c-0.643,0.675-1.26,1.375-1.825,2.114c-0.296,0.392-0.553,0.803-0.829,1.208c-0.463,0.688-0.932,1.382-1.324,2.114
		c-0.302,0.559-0.54,1.157-0.803,1.742c-0.289,0.649-0.604,1.279-0.835,1.947c-0.289,0.835-0.488,1.71-0.688,2.584
		c-0.116,0.482-0.276,0.945-0.366,1.44C13.001,125.606,12.873,127.014,12.867,128.46z M12.854,277.524l109.584-67.006l-109.584-67
		V277.524z M319.729,292.582L197.818,218.05l-31.53,19.281l-31.53-19.281L12.867,292.582c0.006,0.938,0.174,1.825,0.276,2.744
		c0.09,0.784,0.096,1.6,0.251,2.365c0.174,0.835,0.495,1.613,0.752,2.416c0.251,0.803,0.424,1.632,0.752,2.397
		c0.289,0.675,0.701,1.273,1.041,1.922c0.437,0.816,0.816,1.677,1.337,2.442c0.353,0.514,0.803,0.945,1.189,1.433
		c0.636,0.803,1.228,1.639,1.96,2.359c0.405,0.405,0.9,0.726,1.337,1.105c0.803,0.701,1.581,1.433,2.468,2.024
		c0.495,0.334,1.06,0.559,1.575,0.861c0.919,0.527,1.8,1.093,2.783,1.504c0.816,0.341,1.697,0.533,2.545,0.79
		c0.758,0.231,1.478,0.54,2.269,0.701c1.671,0.341,3.393,0.521,5.167,0.521h255.467c1.767,0,3.49-0.18,5.161-0.521
		c0.79-0.161,1.504-0.469,2.275-0.701c0.855-0.257,1.735-0.45,2.545-0.79c0.977-0.411,1.857-0.977,2.776-1.504
		c0.514-0.302,1.08-0.527,1.581-0.861c0.88-0.598,1.658-1.324,2.461-2.024c0.437-0.379,0.932-0.694,1.343-1.105
		c0.726-0.72,1.318-1.555,1.96-2.359c0.379-0.482,0.829-0.919,1.183-1.433c0.527-0.765,0.906-1.626,1.343-2.442
		c0.341-0.649,0.752-1.24,1.041-1.922c0.328-0.765,0.501-1.594,0.752-2.397c0.251-0.803,0.578-1.581,0.752-2.416
		c0.148-0.765,0.161-1.581,0.251-2.365C319.549,294.407,319.716,293.52,319.729,292.582z M319.741,143.511l-109.597,67.013
		l109.597,67.006V143.511z"/>
</g>
<g>
</g>
<g>
</g>
<g>
</g>
<g>
</g>
<g>
</g>
<g>
</g>
<g>
</g>
<g>
</g>
<g>
</g>
<g>
</g>
<g>
</g>
<g>
</g>
<g>
</g>
<g>
</g>
<g>
</g>
</svg>
