<?xml version="1.0" encoding="iso-8859-1"?>
<!-- Generator: Adobe Illustrator 19.1.0, SVG Export Plug-In . SVG Version: 6.00 Build 0)  -->
<svg version="1.1" id="Capa_1" xmlns="http://www.w3.org/2000/svg" xmlns:xlink="http://www.w3.org/1999/xlink" x="0px" y="0px"
	 viewBox="0 0 333.842 333.842" style="enable-background:new 0 0 333.842 333.842;" xml:space="preserve">
<g>
	<path d="M166.911,0.006C74.879,0.006,0,74.879,0,166.924c0,92.032,74.873,166.911,166.911,166.911
		c92.045,0,166.931-74.873,166.931-166.911C333.835,74.879,258.956,0.006,166.911,0.006z M166.911,320.975
		c-84.95,0-154.058-69.114-154.058-154.058c0-84.956,69.108-154.064,154.058-154.064c84.956,0,154.077,69.108,154.077,154.064
		C320.982,251.868,251.868,320.975,166.911,320.975z M290.21,197.548c0,20.463-16.588,37.057-37.057,37.057
		c-20.469,0-37.057-16.594-37.057-37.057s16.588-37.057,37.057-37.057C273.622,160.491,290.21,177.091,290.21,197.548z
		 M117.733,197.548c0,20.463-16.588,37.057-37.057,37.057s-37.057-16.594-37.057-37.057s16.588-37.057,37.057-37.057
		S117.733,177.091,117.733,197.548z M206.841,147.091c-10.656,0-19.293-8.644-19.293-19.293c0-0.617,0.129-1.195,0.18-1.787
		c-4.531-0.784-7.989-4.711-7.989-9.473c0-5.328,4.319-9.64,9.64-9.64h68.009c5.321,0,9.64,4.312,9.64,9.64
		c0,5.321-4.319,9.64-9.64,9.64h-31.421c0.045,0.54,0.161,1.06,0.161,1.62C226.135,138.447,217.497,147.091,206.841,147.091z
		 M146.114,126.005c0.058,0.598,0.18,1.176,0.18,1.787c0,10.649-8.638,19.293-19.293,19.293s-19.293-8.644-19.293-19.293
		c0-0.559,0.122-1.08,0.161-1.62H76.46c-5.321,0-9.64-4.319-9.64-9.64c0-5.328,4.319-9.64,9.64-9.64h68.009
		c5.321,0,9.64,4.312,9.64,9.64C154.109,121.294,150.645,125.22,146.114,126.005z M186.218,219.406
		c0,10.656-8.638,19.293-19.293,19.293s-19.293-8.638-19.293-19.293s8.638-19.293,19.293-19.293S186.218,208.75,186.218,219.406z"/>
</g>
<g>
</g>
<g>
</g>
<g>
</g>
<g>
</g>
<g>
</g>
<g>
</g>
<g>
</g>
<g>
</g>
<g>
</g>
<g>
</g>
<g>
</g>
<g>
</g>
<g>
</g>
<g>
</g>
<g>
</g>
</svg>
