<?xml version="1.0" encoding="iso-8859-1"?>
<!-- Generator: Adobe Illustrator 19.1.0, SVG Export Plug-In . SVG Version: 6.00 Build 0)  -->
<svg version="1.1" id="Capa_1" xmlns="http://www.w3.org/2000/svg" xmlns:xlink="http://www.w3.org/1999/xlink" x="0px" y="0px"
	 viewBox="0 0 303.436 303.436" style="enable-background:new 0 0 303.436 303.436;" xml:space="preserve">
<g>
	<path d="M203.832,303.436c-41.067,0-59.39-6.478-59.39-44.879c0-35.206,16.247-42.276,42.449-42.276
		c3.014,0,6.195,0.077,9.531,0.161c3.618,0.09,5.604,1.812,6.626,3.246c2.301,3.246,1.183,6.722,0.437,9.017
		c-0.521,1.6-1.054,3.258-1.054,5.18c0,1.992,0.289,3.541,0.54,4.91c0.424,2.346,1.022,5.553-1.363,8.419
		c-1.549,1.864-3.773,2.809-6.613,2.809l-4.512-0.039c-8.464,0-8.464,1.311-8.464,3.695c0,3.47,0.456,5.469,1.363,5.932
		c2.185,1.125,8.104,1.125,13.323,1.125h3.123c19.37,0,19.37-0.906,19.37-15.99c0-30.598-8.181-31.536-16.106-32.449
		c-17.545-2.063-29.576-4.216-35.765-6.414c-5.431-1.928-9.383-5.096-12.269-8.85c-0.476,1.761-1.015,3.56-1.62,5.386
		c-1.703,4.814-2.404,6.639-2.796,7.487l0.006,0.006c-3.599,7.552-9.332,11.221-17.539,11.221c-3.387,0-7.037-0.591-10.9-1.215
		c-1.986-0.321-4.1-0.662-6.35-0.945c-15.077-1.922-45.592-8.4-59.088-14.184c-7.796-3.612-10.765-7.603-14.19-14.679
		c-8.863-18.278-17.449-77.565-17.532-78.144c-1.253-10.045-1.324-15.341-1.324-15.566c-0.013-5.855,0.476-12.455,3.863-18.419
		l-3.824,1.877l5.489-16.453l1.234-1.054L84.64,8.651l2.018-0.604l13.978-3.496L99.75,6.228c2.943-1.845,6.337-3.329,9.994-4.351
		C113.792,0.739,121.607,0,129.641,0c9.293,0,22.687,0.932,33.715,5.366c6.967,2.802,12.912,9.537,15.688,17.352
		c2.147-0.039,4.46-0.064,6.896-0.064c10.996,0,20.649,0.482,28.683,1.427c17.905,2.108,31.729,4.698,38.927,7.301
		c10.129,3.663,17.217,12.564,19.428,24.428c3.715,19.923,8.535,99.307,6.048,126.268c-4.306,46.665-11.555,70.798-12.969,75.155
		C251.725,301.669,237.496,303.436,203.832,303.436z M186.891,229.136c-21.022,0-29.589,2.661-29.589,29.422
		c0,25.585,5.482,32.025,46.53,32.025c29.917,0,37.963,0,49.994-37.308c0.823-2.545,8.136-26.112,12.397-72.392
		c2.359-25.56-2.359-103.864-5.887-122.733c-1.857-9.949-7.789-13.483-11.157-14.698c-6.112-2.211-19.595-4.685-36.061-6.62
		c-7.539-0.887-16.684-1.337-27.179-1.337c-4.39,0-8.387,0.084-11.652,0.18l-5.733,0.174l-0.829-5.668
		c-0.932-6.356-5.424-11.395-9.178-12.905c-7.115-2.86-17.385-4.435-28.921-4.435c-8.406,0-14.428,0.835-16.433,1.401
		c-4.865,1.356-8.94,3.856-10.913,6.684c-1.671,2.391-2.455,5.276-2.461,9.075c0,2.911,0.077,9.537,0.141,15.759l0.186,13.715
		c-0.013,9.872-7.719,17.565-17.166,17.577H55.694c-4.447,0-8.156,0.656-11.003,1.947c-2.179,0.99-3.805,2.275-5.122,4.055
		c-2.153,2.886-3.021,6.722-3.008,13.259l0,0c0,0,0.077,4.839,1.215,13.991c1.652,12.295,9.627,60.322,16.35,74.191
		c2.635,5.444,3.734,6.633,7.86,8.548c12.127,5.199,41.472,11.382,55.483,13.169c2.41,0.308,4.666,0.668,6.774,1.009
		c3.49,0.566,6.504,1.054,8.856,1.054c2.963,0,4.319-0.572,5.861-3.734c0.264-0.675,1.157-3.046,2.307-6.292
		c4.338-13.124,4.846-25.065,4.846-32.893c0-3.927,3.188-7.121,7.102-7.121c3.972,0,7.076,3.13,7.076,7.121l-0.006,1.247
		c-0.103,10.739,1.093,23.529,11.324,27.166c3.625,1.285,12.301,3.336,32.957,5.758c19.763,2.275,27.468,14.942,27.468,45.213
		c0,24.493-8.438,28.844-32.224,28.844h-3.123c-8.869,0-14.589-0.167-19.203-2.545c-7.468-3.843-8.336-11.748-8.336-17.359
		c0-15.836,14.685-16.517,20.572-16.549c-0.096-0.97-0.154-2.057-0.154-3.239c0-1.742,0.193-3.329,0.469-4.724
		C188.986,229.149,187.926,229.136,186.891,229.136z M54.865,56.267h23.214c-0.084-5.649-0.219-16.376-0.27-22.764L54.865,56.267z
		 M237.316,158.029l-9.088-4.042c-4.936-2.198-10.881-3.47-17.211-3.695c-3.445-0.116-6.8,0.084-9.974,0.604l-8.458,1.369
		l1.054-8.503c2.487-20.077,14.653-23.072,21.684-23.072l0.925,0.013c7.796,0.27,20.894,4.19,21.022,27.378L237.316,158.029z
		 M209.102,137.406c0.784,0,1.568,0.013,2.365,0.045c4.004,0.135,7.918,0.63,11.645,1.446c-1.883-5.154-5.354-5.276-7.32-5.347
		c-2.031,0-5.013-0.006-7.172,3.856C208.787,137.406,208.942,137.406,209.102,137.406z"/>
</g>
<g>
</g>
<g>
</g>
<g>
</g>
<g>
</g>
<g>
</g>
<g>
</g>
<g>
</g>
<g>
</g>
<g>
</g>
<g>
</g>
<g>
</g>
<g>
</g>
<g>
</g>
<g>
</g>
<g>
</g>
</svg>
