<?xml version="1.0" encoding="iso-8859-1"?>
<!-- Generator: Adobe Illustrator 19.1.0, SVG Export Plug-In . SVG Version: 6.00 Build 0)  -->
<svg version="1.1" id="Capa_1" xmlns="http://www.w3.org/2000/svg" xmlns:xlink="http://www.w3.org/1999/xlink" x="0px" y="0px"
	 viewBox="0 0 248.995 248.995" style="enable-background:new 0 0 248.995 248.995;" xml:space="preserve">
<g>
	<path d="M242.394,159.263c-4.248-4.255-9.897-6.594-15.926-6.594c-11.446,0-20.919,8.599-22.308,19.685l-41.639-41.639
		c-3.593-3.586-8.316-5.559-13.201-6.118c4.974-0.591,9.602-2.719,13.201-6.311l41.633-41.633
		c1.401,11.086,10.868,19.679,22.32,19.679c6.003,0,11.652-2.339,15.919-6.594c4.235-4.248,6.575-9.891,6.581-15.9l-0.032-51.852
		c-0.039-1.292-0.154-2.571-0.405-3.785c-0.109-0.623-0.296-1.228-0.488-1.825l-0.193-0.662c-0.167-0.611-0.353-1.202-0.611-1.825
		c-0.264-0.63-0.585-1.221-0.919-1.812L246,11.472c-0.251-0.488-0.514-0.977-0.816-1.42c-1.645-2.474-3.74-4.569-6.195-6.215
		c-0.488-0.328-0.983-0.604-1.491-0.861l-0.694-0.379c-0.566-0.315-1.131-0.623-1.677-0.842c-0.649-0.276-1.324-0.482-1.992-0.668
		l-0.694-0.206c-0.501-0.154-1.009-0.315-1.581-0.424c-0.9-0.174-1.806-0.296-2.719-0.373l-1.665-0.071L225.8,0.019l-50.643-0.006
		c-12.404,0-22.494,10.09-22.494,22.494c0,11.453,8.599,20.939,19.685,22.32l-41.639,41.639c-3.348,3.348-5.45,7.577-6.215,12.153
		c-0.752-4.454-2.796-8.728-6.221-12.16L76.64,44.834c11.086-1.407,19.679-10.874,19.679-22.327c0-6.009-2.339-11.652-6.594-15.919
		c-4.248-4.235-9.891-6.575-15.9-6.581L21.973,0.039c-1.285,0.039-2.571,0.154-3.785,0.398c-0.611,0.116-1.221,0.296-1.819,0.495
		l-0.662,0.193c-0.604,0.167-1.202,0.347-1.825,0.611c-0.623,0.27-1.221,0.585-1.812,0.919l-0.604,0.328
		c-0.495,0.251-0.983,0.514-1.42,0.81c-2.487,1.645-4.576,3.74-6.221,6.195c-0.334,0.488-0.604,0.99-0.861,1.491l-0.379,0.701
		C2.269,12.738,1.96,13.31,1.742,13.85c-0.276,0.656-0.482,1.324-0.668,1.999l-0.206,0.694c-0.154,0.508-0.308,1.009-0.418,1.581
		c-0.18,0.9-0.302,1.806-0.379,2.712L0,20.971l0.006,2.198L0,73.825c0,12.404,10.09,22.494,22.494,22.494
		c11.459,0,20.932-8.599,22.32-19.685l41.639,41.639c3.605,3.599,8.22,5.72,13.194,6.318c-4.884,0.559-9.602,2.539-13.188,6.118
		l-41.639,41.639c-0.617-4.942-2.828-9.505-6.408-13.079c-4.248-4.248-9.897-6.588-15.932-6.588
		c-12.378,0-22.462,10.084-22.468,22.487v51.312c0,1.465,0.148,2.95,0.424,4.357c0.116,0.598,0.289,1.17,0.643,2.275
		c0.186,0.662,0.392,1.318,0.611,1.857c0.264,0.675,0.604,1.311,1.26,2.506c0.257,0.521,0.533,1.022,0.835,1.465
		c0.713,1.073,1.51,2.076,2.372,2.995l0.353,0.366c0.039,0.026,0.064,0.058,0.096,0.084l0.039,0.039
		c1.022,1.028,2.153,1.954,3.393,2.789c0.482,0.328,0.99,0.598,1.51,0.861l0.649,0.341c0.54,0.309,1.099,0.617,1.697,0.855
		c0.694,0.296,1.407,0.501,2.622,0.848c0.527,0.167,1.054,0.328,1.568,0.424c1.452,0.289,2.931,0.437,4.473,0.437h0.006l51.28,0.006
		c6.003,0,11.652-2.339,15.868-6.575c4.255-4.248,6.594-9.891,6.594-15.906c0.006-6.016-2.333-11.665-6.581-15.919
		c-3.586-3.58-8.149-5.797-13.091-6.408l41.639-41.639c3.368-3.368,5.476-7.629,6.228-12.23c0.739,4.473,2.776,8.779,6.221,12.224
		l41.639,41.639c-11.08,1.388-19.679,10.868-19.679,22.314c-0.006,6.003,2.32,11.652,6.575,15.906
		c4.255,4.255,9.897,6.588,15.913,6.594h51.312c1.465,0,2.95-0.154,4.364-0.431c0.598-0.116,1.176-0.289,2.275-0.643
		c0.662-0.186,1.318-0.392,1.857-0.611c0.675-0.264,1.318-0.604,2.506-1.26c0.521-0.257,1.022-0.533,1.465-0.835
		c1.073-0.713,2.076-1.51,2.995-2.371l0.366-0.353c0.026-0.039,0.058-0.064,0.084-0.096l0.039-0.039
		c1.028-1.022,1.954-2.153,2.789-3.393c0.328-0.482,0.598-0.99,0.861-1.51l0.341-0.649c0.308-0.54,0.617-1.099,0.855-1.697
		c0.296-0.694,0.501-1.407,0.848-2.622c0.167-0.527,0.328-1.054,0.424-1.568c0.302-1.491,0.443-3.014,0.437-4.48l0.006-51.254
		C248.982,169.148,246.643,163.492,242.394,159.263z M139.796,95.554l63.401-63.401h-28.047c-5.309,0-9.634-4.325-9.634-9.64
		s4.325-9.64,9.64-9.64h51.325c0.643,0.006,1.292,0.077,1.986,0.231l3.355,1.395c1.073,0.713,1.973,1.607,2.719,2.789l1.388,3.342
		c0.109,0.559,0.141,1.131,0.161,1.844l0.026,0.392l-0.006,50.965c0,2.571-1.009,5-2.815,6.819
		c-1.838,1.825-4.261,2.828-6.832,2.828c-5.315,0-9.64-4.325-9.64-9.647V45.798l-63.388,63.388c-3.638,3.638-10.007,3.631-13.638,0
		c-1.819-1.819-2.815-4.242-2.815-6.819S137.978,97.379,139.796,95.554z M32.147,45.785L32.147,45.785l-0.006,28.047
		c0,5.315-4.325,9.634-9.64,9.634s-9.64-4.325-9.64-9.64l0.006-51.318c0.006-0.649,0.071-1.285,0.231-1.986l1.395-3.361
		c0.713-1.067,1.607-1.967,2.789-2.719l3.342-1.382c0.566-0.116,1.131-0.148,1.844-0.167l0.386-0.026l50.971,0.006
		c2.571,0.006,5,1.009,6.819,2.821c1.825,1.825,2.828,4.255,2.828,6.825c0,5.315-4.325,9.64-9.647,9.64H45.791l63.388,63.381
		c3.76,3.76,3.76,9.884,0,13.644c-3.638,3.638-9.994,3.631-13.631,0L32.147,45.785z M109.173,153.441l-63.401,63.401h28.04
		c2.571,0,4.994,1.003,6.825,2.815c1.819,1.825,2.815,4.248,2.815,6.825c0,2.584-1.003,5-2.834,6.825
		c-1.812,1.819-4.216,2.815-6.78,2.815h-0.026l-51.338-0.006c-0.63,0-1.253-0.064-1.909-0.212l-3.406-1.395
		c-0.379-0.257-0.752-0.54-1.279-1.015l-0.212-0.225c-0.418-0.411-0.816-0.906-1.221-1.549l-1.395-3.355
		c-0.129-0.623-0.186-1.247-0.186-1.883V175.17c0.006-5.315,4.319-9.64,9.64-9.64c2.584,0,5.007,0.996,6.832,2.821
		c1.812,1.825,2.815,4.242,2.815,6.819v28.027l63.401-63.394c3.638-3.631,9.994-3.631,13.631,0c1.819,1.825,2.815,4.242,2.815,6.825
		C111.994,149.199,110.991,151.622,109.173,153.441z M124.494,142.946c-0.752-4.614-2.86-8.869-6.228-12.23
		c-3.586-3.586-8.303-5.559-13.194-6.118c4.981-0.598,9.602-2.725,13.194-6.318c3.432-3.432,5.476-7.699,6.221-12.153
		c0.765,4.576,2.873,8.811,6.221,12.153c3.605,3.599,8.226,5.726,13.207,6.318c-4.891,0.553-9.615,2.539-13.201,6.118
		C127.271,134.16,125.227,138.466,124.494,142.946z M236.096,226.462c0.006,0.636-0.064,1.285-0.212,1.96l-1.395,3.406
		c-0.257,0.379-0.54,0.752-1.015,1.279l-0.212,0.206c-0.411,0.418-0.906,0.816-1.549,1.221l-3.355,1.395
		c-0.623,0.129-1.247,0.186-1.883,0.186h-51.312c-2.577,0-5-1.003-6.825-2.828s-2.821-4.242-2.815-6.812
		c0-2.584,1.003-5,2.821-6.825c1.819-1.812,4.242-2.815,6.819-2.815v0.013h28.027l-63.394-63.401
		c-1.819-1.825-2.815-4.242-2.815-6.819c0-2.577,0.996-5,2.815-6.825c3.638-3.631,10-3.631,13.631,0l63.401,63.401v-28.04
		c0-2.571,1.003-4.994,2.815-6.819c3.638-3.65,9.994-3.65,13.638,0.013c1.819,1.812,2.821,4.229,2.815,6.806V226.462z"/>
</g>
<g>
</g>
<g>
</g>
<g>
</g>
<g>
</g>
<g>
</g>
<g>
</g>
<g>
</g>
<g>
</g>
<g>
</g>
<g>
</g>
<g>
</g>
<g>
</g>
<g>
</g>
<g>
</g>
<g>
</g>
</svg>
