<?xml version="1.0" encoding="iso-8859-1"?>
<!-- Generator: Adobe Illustrator 19.1.0, SVG Export Plug-In . SVG Version: 6.00 Build 0)  -->
<svg version="1.1" id="Capa_1" xmlns="http://www.w3.org/2000/svg" xmlns:xlink="http://www.w3.org/1999/xlink" x="0px" y="0px"
	 viewBox="0 0 319.176 319.176" style="enable-background:new 0 0 319.176 319.176;" xml:space="preserve">
<g>
	<path d="M169.09,171.638h37.494v18.998H169.09v37.501h-18.998v-37.501h-37.494v-18.998h37.494v-37.494h18.998
		C169.09,134.144,169.09,171.638,169.09,171.638z M239.92,181.131c0,44.307-36.035,80.335-80.335,80.335
		c-44.307,0-80.335-36.029-80.335-80.335c0-44.3,36.029-80.335,80.335-80.335C203.885,100.795,239.92,136.837,239.92,181.131z
		 M227.066,181.131c0-37.199-30.277-67.482-67.482-67.482c-37.211,0-67.482,30.283-67.482,67.482
		c0,37.211,30.27,67.482,67.482,67.482C196.796,248.612,227.073,218.348,227.066,181.131z M319.176,90.724v180.838
		c0,10.579-8.618,19.184-19.191,19.184H19.184C8.606,290.747,0,282.135,0,271.563V90.724c0-10.579,8.612-19.178,19.184-19.178h15.09
		V61.63h38.028v9.917h33.458V47.054c0-10.289,8.329-18.625,18.631-18.625h70.4c10.289,0,18.638,8.329,18.638,18.625v24.493h33.465
		v-9.383h38.015v9.383h15.077C310.57,71.54,319.182,80.139,319.176,90.724z M131.454,71.54h56.267V54.13h-56.267
		C131.454,54.13,131.454,71.54,131.454,71.54z M306.329,271.556L306.329,271.556l-0.006-180.838c0-3.49-2.834-6.324-6.337-6.324
		H19.184c-3.496,0-6.33,2.834-6.33,6.324v180.838c0,3.496,2.834,6.33,6.33,6.33h280.808
		C303.494,277.893,306.329,275.052,306.329,271.556z"/>
</g>
<g>
</g>
<g>
</g>
<g>
</g>
<g>
</g>
<g>
</g>
<g>
</g>
<g>
</g>
<g>
</g>
<g>
</g>
<g>
</g>
<g>
</g>
<g>
</g>
<g>
</g>
<g>
</g>
<g>
</g>
</svg>
