<?xml version="1.0" encoding="iso-8859-1"?>
<!-- Generator: Adobe Illustrator 19.1.0, SVG Export Plug-In . SVG Version: 6.00 Build 0)  -->
<svg version="1.1" id="Capa_1" xmlns="http://www.w3.org/2000/svg" xmlns:xlink="http://www.w3.org/1999/xlink" x="0px" y="0px"
	 viewBox="0 0 248.976 248.976" style="enable-background:new 0 0 248.976 248.976;" xml:space="preserve">
<g>
	<path d="M200.749,168.826c11.073-1.395,19.673-10.874,19.673-22.32c0.006-6.003-2.314-11.652-6.568-15.906
		c-3.361-3.355-7.603-5.469-12.192-6.234c10.63-1.787,18.773-10.996,18.773-22.121c0-11.453-8.599-20.939-19.685-22.32
		l41.639-41.639c4.248-4.248,6.588-9.897,6.588-15.906c0-6.016-2.339-11.658-6.588-15.906c-8.49-8.496-23.317-8.483-31.813,0
		l-41.627,41.633c-1.401-11.086-10.874-19.679-22.32-19.679c-6.009,0-11.652,2.339-15.926,6.594
		c-3.361,3.368-5.469,7.635-6.221,12.25c-1.755-10.662-10.964-18.843-22.121-18.843c-11.453,0-20.932,8.599-22.32,19.685L38.4,6.484
		C29.904-2.012,15.071-2,6.594,6.484c-8.773,8.773-8.773,23.04,0,31.813L48.221,79.93c-11.08,1.401-19.673,10.868-19.673,22.32
		c0,6.009,2.333,11.652,6.588,15.919c3.342,3.329,7.552,5.437,12.121,6.208c-4.569,0.771-8.785,2.879-12.115,6.215
		c-4.248,4.248-6.588,9.891-6.588,15.906c-0.006,6.016,2.327,11.665,6.575,15.919c3.593,3.58,8.156,5.797,13.091,6.414
		L6.588,210.472C2.339,214.726,0,220.369,0,226.378c0,6.022,2.339,11.665,6.588,15.913c4.255,4.248,9.897,6.581,15.906,6.581
		s11.652-2.333,15.919-6.581l41.639-41.639c0.611,4.942,2.828,9.505,6.408,13.079c4.248,4.248,9.897,6.588,15.932,6.588
		c11.086,0,20.27-8.117,22.083-18.715c0.765,4.576,2.866,8.805,6.215,12.134c4.248,4.255,9.897,6.594,15.932,6.594
		c11.44,0,20.919-8.599,22.308-19.685l41.639,41.639c4.255,4.248,9.897,6.581,15.913,6.581c6.009,0,11.652-2.333,15.913-6.581
		c8.766-8.766,8.766-23.04,0-31.806L200.749,168.826z M136.982,50.951c0-2.571,1.003-5,2.815-6.819
		c1.838-1.825,4.261-2.828,6.832-2.828c5.315,0,9.64,4.332,9.64,9.647v28.021l63.381-63.388c3.631-3.638,10-3.644,13.638,0
		c1.819,1.819,2.821,4.242,2.821,6.819s-1.003,4.987-2.821,6.819l-63.394,63.401h28.047c5.309,0,9.634,4.325,9.634,9.64
		s-4.325,9.64-9.64,9.64l-51.273-0.006v0.006h-0.051c-0.649-0.006-1.292-0.077-1.992-0.231l-3.348-1.395
		c-1.073-0.713-1.979-1.607-2.719-2.783l-1.395-3.348c-0.103-0.559-0.135-1.131-0.154-1.845l-0.032-0.392L136.982,50.951z
		 M41.402,102.244c0-5.315,4.325-9.64,9.647-9.64v0.006h28.027L15.694,29.222c-3.76-3.76-3.76-9.884,0-13.644
		c3.631-3.638,9.994-3.631,13.631,0L92.72,78.979V50.932c0-5.315,4.332-9.634,9.64-9.634c5.315,0,9.64,4.325,9.64,9.64
		l-0.006,51.318c-0.006,0.649-0.071,1.285-0.225,1.986l-1.401,3.361c-0.707,1.067-1.607,1.967-2.783,2.719l-3.348,1.382
		c-0.566,0.116-1.131,0.148-1.838,0.167L102,111.897l-50.965-0.006c-2.577-0.006-5.007-1.009-6.825-2.821
		C42.404,107.244,41.402,104.814,41.402,102.244z M111.994,197.817c-0.006,5.315-4.319,9.64-9.64,9.64c-2.577,0-5-0.996-6.825-2.821
		c-1.825-1.825-2.815-4.242-2.815-6.819V169.79l-63.394,63.394c-3.638,3.631-10,3.631-13.631,0
		c-1.819-1.825-2.821-4.242-2.821-6.825c0-2.571,1.003-4.994,2.821-6.819l63.394-63.401H51.048c-2.577,0-5-1.003-6.832-2.815
		c-1.819-1.825-2.815-4.248-2.815-6.825s0.996-4.994,2.828-6.825c1.812-1.819,4.216-2.815,6.812-2.815l51.338,0.019
		c0.636,0,1.253,0.071,1.915,0.212l3.4,1.395c0.386,0.257,0.752,0.54,1.279,1.015l0.212,0.212c0.411,0.411,0.816,0.906,1.215,1.549
		l1.401,3.355c0.122,0.63,0.18,1.247,0.18,1.883v51.318H111.994z M134.141,127.79c-1.073,0.72-2.076,1.51-2.988,2.371l-0.366,0.36
		c-0.032,0.032-0.064,0.058-0.09,0.09l-0.039,0.039c-1.028,1.022-1.947,2.153-2.783,3.393c-0.334,0.482-0.604,0.99-0.868,1.51
		l-0.341,0.649c-0.308,0.54-0.611,1.099-0.855,1.697c-0.289,0.694-0.501,1.407-0.842,2.622c-0.174,0.527-0.328,1.054-0.431,1.568
		c-0.045,0.212-0.026,0.418-0.064,0.636c-0.032-0.193-0.019-0.398-0.058-0.591c-0.122-0.598-0.289-1.17-0.649-2.275
		c-0.18-0.662-0.386-1.317-0.611-1.857c-0.264-0.675-0.598-1.311-1.26-2.506c-0.257-0.521-0.533-1.022-0.835-1.465
		c-0.707-1.073-1.504-2.076-2.371-2.995l-0.353-0.366c-0.032-0.026-0.058-0.058-0.09-0.084l-0.039-0.039
		c-1.022-1.028-2.153-1.954-3.393-2.789c-0.488-0.321-0.996-0.591-1.517-0.855l-0.643-0.341c-0.54-0.308-1.099-0.604-1.697-0.855
		c-0.694-0.283-1.414-0.495-2.622-0.842c-0.527-0.167-1.054-0.334-1.568-0.424c-0.231-0.045-0.482-0.032-0.713-0.071
		c0.193-0.032,0.405-0.026,0.591-0.064c0.617-0.116,1.221-0.296,1.819-0.488l0.668-0.199c0.604-0.167,1.195-0.341,1.825-0.604
		c0.623-0.27,1.215-0.591,1.806-0.925l0.611-0.328c0.488-0.251,0.977-0.514,1.42-0.81c2.481-1.645,4.576-3.74,6.215-6.195
		c0.334-0.488,0.604-0.99,0.861-1.491l0.386-0.694c0.315-0.566,0.617-1.138,0.842-1.677c0.276-0.656,0.482-1.324,0.668-1.999
		l0.206-0.694c0.161-0.508,0.308-1.009,0.424-1.581c0.039-0.206,0.051-0.418,0.084-0.63c0.032,0.186,0.019,0.386,0.058,0.566
		c0.116,0.623,0.296,1.228,0.488,1.825l0.199,0.662c0.161,0.611,0.347,1.202,0.604,1.825c0.264,0.636,0.585,1.221,0.925,1.812
		l0.328,0.604c0.251,0.488,0.514,0.977,0.816,1.427c1.645,2.468,3.74,4.569,6.195,6.208c0.488,0.328,0.983,0.604,1.485,0.861
		l0.694,0.379c0.566,0.321,1.131,0.623,1.677,0.842c0.656,0.283,1.324,0.482,1.999,0.668l0.688,0.206
		c0.501,0.154,1.009,0.315,1.581,0.424c0.186,0.039,0.379,0.045,0.566,0.077c-0.18,0.032-0.373,0.019-0.553,0.051
		c-0.598,0.116-1.17,0.289-2.275,0.636c-0.668,0.186-1.318,0.392-1.857,0.611c-0.681,0.27-1.317,0.611-2.506,1.266
		C135.086,127.218,134.584,127.488,134.141,127.79z M233.281,233.184c-3.631,3.631-9.994,3.631-13.631,0l-63.394-63.401v28.027
		c0,2.571-1.003,4.994-2.821,6.819c-3.644,3.638-9.994,3.644-13.638-0.013c-1.819-1.812-2.815-4.229-2.815-6.806l0.006-51.286
		c-0.006-0.636,0.064-1.285,0.206-1.96l1.401-3.406c0.257-0.379,0.54-0.752,1.009-1.279l0.212-0.206
		c0.418-0.418,0.913-0.816,1.549-1.221l3.361-1.395c0.623-0.129,1.24-0.186,1.883-0.186h51.299c2.584,0,5.006,1.003,6.832,2.828
		c1.812,1.825,2.815,4.242,2.815,6.812c0,5.315-4.325,9.64-9.64,9.64h-28.021l63.388,63.401c1.819,1.825,2.821,4.242,2.821,6.819
		C236.103,228.942,235.1,231.365,233.281,233.184z"/>
</g>
<g>
</g>
<g>
</g>
<g>
</g>
<g>
</g>
<g>
</g>
<g>
</g>
<g>
</g>
<g>
</g>
<g>
</g>
<g>
</g>
<g>
</g>
<g>
</g>
<g>
</g>
<g>
</g>
<g>
</g>
</svg>
