<?xml version="1.0" encoding="iso-8859-1"?>
<!-- Generator: Adobe Illustrator 19.1.0, SVG Export Plug-In . SVG Version: 6.00 Build 0)  -->
<svg version="1.1" id="Capa_1" xmlns="http://www.w3.org/2000/svg" xmlns:xlink="http://www.w3.org/1999/xlink" x="0px" y="0px"
	 viewBox="0 0 248.969 248.969" style="enable-background:new 0 0 248.969 248.969;" xml:space="preserve">
<g>
	<path d="M125.182,109.119c0.18,0.662,0.386,1.318,0.611,1.857c0.264,0.675,0.598,1.318,1.26,2.506
		c0.257,0.521,0.533,1.022,0.835,1.465c0.707,1.073,1.504,2.076,2.371,2.995l0.353,0.366c0.032,0.026,0.058,0.058,0.09,0.084
		l0.039,0.039c1.022,1.022,2.153,1.954,3.393,2.789c0.488,0.321,0.996,0.591,1.517,0.855l0.643,0.341
		c0.54,0.308,1.099,0.611,1.697,0.855c0.694,0.283,1.414,0.495,2.622,0.842c0.527,0.167,1.054,0.334,1.568,0.424
		c1.452,0.289,2.931,0.437,4.48,0.437h0.006l51.28,0.006c6.016,0,11.652-2.346,15.881-6.588c4.248-4.248,6.588-9.891,6.588-15.906
		c0.006-6.016-2.327-11.665-6.575-15.919c-3.593-3.58-8.156-5.797-13.091-6.414l41.633-41.639c4.248-4.255,6.588-9.897,6.588-15.906
		c0-6.022-2.339-11.665-6.588-15.913c-4.255-4.248-9.897-6.581-15.906-6.581c-6.009,0-11.652,2.333-15.919,6.588L168.917,48.34
		c-0.611-4.942-2.828-9.505-6.408-13.079c-4.248-4.248-9.897-6.588-15.932-6.588c-12.378,0-22.455,10.084-22.462,22.487v51.312
		c0,1.472,0.141,2.95,0.424,4.377C124.655,107.435,124.828,108.013,125.182,109.119z M136.975,51.142
		c0.006-5.315,4.319-9.64,9.64-9.64c2.577,0,5,0.996,6.825,2.821c1.825,1.825,2.815,4.242,2.815,6.819V79.17l63.394-63.394
		c3.638-3.631,10-3.631,13.631,0c1.819,1.825,2.821,4.242,2.821,6.825c0,2.571-1.003,4.994-2.821,6.819L169.887,92.82h28.034
		c2.577,0,5,1.003,6.832,2.815c1.819,1.825,2.815,4.248,2.815,6.825c0,2.577-0.996,4.994-2.828,6.825
		c-1.812,1.819-4.216,2.815-6.812,2.815l-51.338-0.019c-0.636,0-1.253-0.071-1.915-0.212l-3.4-1.395
		c-0.386-0.257-0.752-0.54-1.279-1.015l-0.212-0.212c-0.411-0.411-0.816-0.906-1.215-1.549l-1.401-3.355
		c-0.122-0.63-0.18-1.247-0.18-1.883V51.142H136.975z M0,226.582c0,6.016,2.339,11.658,6.588,15.906
		c8.49,8.496,23.317,8.483,31.813,0l41.627-41.633c1.401,11.086,10.874,19.679,22.32,19.679c6.009,0,11.652-2.339,15.926-6.594
		c4.235-4.248,6.568-9.891,6.575-15.9l-0.032-51.852c-0.039-1.292-0.148-2.577-0.398-3.785c-0.116-0.623-0.296-1.228-0.488-1.825
		l-0.199-0.662c-0.161-0.611-0.347-1.202-0.604-1.825c-0.264-0.636-0.585-1.221-0.925-1.812l-0.328-0.604
		c-0.251-0.488-0.514-0.977-0.816-1.42c-1.645-2.474-3.74-4.576-6.195-6.215c-0.488-0.328-0.983-0.598-1.485-0.855l-0.694-0.379
		c-0.566-0.315-1.131-0.623-1.677-0.842c-0.656-0.276-1.324-0.482-1.999-0.668l-0.688-0.206c-0.501-0.154-1.009-0.315-1.581-0.424
		c-0.906-0.174-1.806-0.296-2.719-0.373l-1.671-0.071l-0.668,0.006l-50.643-0.006c-12.41,0-22.494,10.09-22.494,22.494
		c0,11.453,8.599,20.939,19.685,22.32L6.587,210.676C2.339,214.924,0,220.573,0,226.582z M15.675,219.75l63.394-63.401H51.023
		c-5.309,0-9.634-4.325-9.634-9.64c0-5.315,4.325-9.64,9.64-9.64l51.273,0.006v-0.006h0.051c0.649,0.006,1.292,0.077,1.992,0.231
		l3.348,1.395c1.073,0.713,1.979,1.607,2.719,2.789l1.395,3.342c0.103,0.559,0.135,1.131,0.154,1.844l0.032,0.392l-0.006,50.965
		c0,2.571-1.003,5-2.815,6.819c-1.838,1.825-4.261,2.828-6.832,2.828c-5.315,0-9.64-4.325-9.64-9.647v-28.021l-63.381,63.388
		c-3.631,3.638-10,3.644-13.638,0c-1.819-1.819-2.821-4.242-2.821-6.819C12.86,223.998,13.856,221.576,15.675,219.75z"/>
</g>
<g>
</g>
<g>
</g>
<g>
</g>
<g>
</g>
<g>
</g>
<g>
</g>
<g>
</g>
<g>
</g>
<g>
</g>
<g>
</g>
<g>
</g>
<g>
</g>
<g>
</g>
<g>
</g>
<g>
</g>
</svg>
