<?xml version="1.0" encoding="iso-8859-1"?>
<!-- Generator: Adobe Illustrator 19.1.0, SVG Export Plug-In . SVG Version: 6.00 Build 0)  -->
<svg version="1.1" id="Capa_1" xmlns="http://www.w3.org/2000/svg" xmlns:xlink="http://www.w3.org/1999/xlink" x="0px" y="0px"
	 viewBox="0 0 248.969 248.969" style="enable-background:new 0 0 248.969 248.969;" xml:space="preserve">
<g>
	<path d="M242.382,210.469l-41.633-41.639c4.936-0.623,9.505-2.834,13.091-6.414c4.248-4.255,6.581-9.904,6.575-15.913
		c0-6.028-2.333-11.671-6.568-15.906c-4.248-4.248-9.891-6.594-15.926-6.594l-51.331,0.006c-1.472,0-2.943,0.148-4.37,0.431
		c-0.553,0.103-1.08,0.264-2.102,0.585c-0.713,0.193-1.433,0.405-2.153,0.701c-0.572,0.244-1.131,0.54-1.671,0.848l-0.643,0.341
		c-0.521,0.257-1.028,0.533-1.555,0.88c-1.208,0.81-2.333,1.735-2.937,2.372l-0.938,0.925c-0.842,0.887-1.626,1.87-2.301,2.892
		c-0.328,0.488-0.604,0.99-1.163,2.057c-0.366,0.623-0.701,1.266-0.925,1.832c-0.27,0.656-0.469,1.305-0.816,2.513
		c-0.186,0.566-0.36,1.15-0.469,1.716c-0.289,1.459-0.431,2.937-0.431,4.409v51.312c0.006,12.404,10.077,22.481,22.494,22.481
		c6.016,0,11.658-2.333,15.913-6.588c3.58-3.567,5.797-8.13,6.408-13.079l41.639,41.639c4.248,4.242,9.891,6.581,15.906,6.581
		c6.003,0,11.652-2.327,15.906-6.575c4.255-4.248,6.588-9.891,6.588-15.913C248.969,220.36,246.63,214.711,242.382,210.469z
		 M233.288,233.188c-3.631,3.631-9.994,3.631-13.631,0l-63.394-63.401h-0.019v28.04c0,2.571-0.996,4.981-2.815,6.806
		c-1.819,1.825-4.242,2.821-6.838,2.821c-5.296,0-9.608-4.319-9.615-9.627v-51.312c0-0.636,0.064-1.26,0.251-2.037l1.369-3.31
		c0.366-0.54,0.771-1.035,1.189-1.459l0.135-0.135c0.411-0.411,0.88-0.778,1.504-1.17l3.297-1.356
		c0.617-0.129,1.24-0.186,1.96-0.186c0.006,0,0.006,0,0.006,0h51.28c2.571,0,4.974,0.99,6.806,2.821
		c1.812,1.825,2.815,4.235,2.815,6.819c0,2.584-0.99,5-2.815,6.825c-1.832,1.812-4.255,2.815-6.832,2.815h-28.053l63.394,63.401
		c1.819,1.825,2.821,4.242,2.821,6.819C236.109,228.946,235.106,231.369,233.288,233.188z M124.771,103.347l0.084-0.656
		l-0.006-51.781c-0.006-5.996-2.339-11.639-6.588-15.9c-4.255-4.242-9.904-6.581-15.913-6.581c-11.446,0-20.919,8.599-22.32,19.679
		L38.4,6.475c-8.496-8.49-23.323-8.477-31.813,0C2.339,10.723,0,16.372,0,22.388c0,6.009,2.339,11.652,6.588,15.906l41.639,41.639
		c-11.086,1.388-19.685,10.861-19.685,22.32c0,12.404,10.084,22.494,22.494,22.494h51.312l1.555-0.006l0.135-0.064
		c0.913-0.084,1.812-0.199,2.738-0.386c0.527-0.103,1.035-0.257,1.536-0.411l0.681-0.212c0.675-0.193,1.343-0.398,1.934-0.643
		c0.611-0.251,1.176-0.559,1.742-0.874l0.694-0.379c0.508-0.257,1.003-0.527,1.465-0.835c2.487-1.658,4.582-3.76,6.215-6.208
		c0.315-0.469,0.578-0.951,0.829-1.446l0.334-0.604c0.334-0.591,0.656-1.195,0.938-1.857c0.238-0.591,0.424-1.183,0.585-1.787
		l0.199-0.662c0.193-0.598,0.373-1.208,0.476-1.755C124.661,105.358,124.777,104.073,124.771,103.347z M111.955,102.453
		c-0.013,0.566-0.051,1.131-0.231,1.902l-1.356,3.246c-0.694,1.06-1.6,1.954-2.815,2.738l-3.271,1.356
		c-0.636,0.129-1.266,0.186-1.909,0.193l-51.331,0.006c-5.315,0-9.64-4.325-9.64-9.64c0-5.315,4.325-9.64,9.634-9.64v0.006h28.04
		L15.681,29.22c-1.819-1.825-2.821-4.242-2.821-6.819s1.003-4.994,2.821-6.819c3.625-3.631,9.987-3.638,13.638,0L92.701,78.97
		V50.949c0-5.315,4.325-9.647,9.64-9.647c2.577,0,5,1.003,6.825,2.821c1.819,1.825,2.815,4.248,2.821,6.819l0.006,50.952
		L111.955,102.453z"/>
</g>
<g>
</g>
<g>
</g>
<g>
</g>
<g>
</g>
<g>
</g>
<g>
</g>
<g>
</g>
<g>
</g>
<g>
</g>
<g>
</g>
<g>
</g>
<g>
</g>
<g>
</g>
<g>
</g>
<g>
</g>
</svg>
