<?xml version="1.0" encoding="iso-8859-1"?>
<!-- Generator: Adobe Illustrator 19.1.0, SVG Export Plug-In . SVG Version: 6.00 Build 0)  -->
<svg version="1.1" id="Capa_1" xmlns="http://www.w3.org/2000/svg" xmlns:xlink="http://www.w3.org/1999/xlink" x="0px" y="0px"
	 viewBox="0 0 331.888 331.888" style="enable-background:new 0 0 331.888 331.888;" xml:space="preserve">
<g>
	<path d="M124.468,244.956c0,5.411-4.39,9.794-9.794,9.794H93.099v21.575c0,5.411-4.396,9.794-9.795,9.794
		c-5.399,0-9.794-4.39-9.794-9.794V254.75H51.935c-5.411,0-9.794-4.39-9.794-9.794s4.39-9.794,9.794-9.794H73.51v-21.575
		c0-5.411,4.396-9.794,9.794-9.794c5.399,0,9.795,4.39,9.795,9.794v21.575h21.575C120.079,235.161,124.468,239.544,124.468,244.956z
		 M331.888,244.949c0,45.926-37.366,83.298-83.298,83.298c-27.443,0-52.726-13.31-68.343-35.791h-28.612
		c-15.617,22.481-40.907,35.791-68.349,35.791C37.359,328.247,0,290.882,0,244.949c0-42.809,33.201-78.716,75.213-82.835v-0.379
		l6.427-0.084h63.465v-7.462c0-3.548,2.879-6.42,6.427-6.42h8.329c-6.742-25.18-29.698-43.805-56.98-43.805v-0.019l-60.534-0.006
		c-22.134,0-40.142-18.002-40.142-40.129c0-22.121,18.008-40.123,40.142-40.123h169.868v-7.192c0-7.095,5.758-12.854,12.854-12.854
		h57.842v8.837h20.887v35.348h-20.887v8.83h-57.842c-7.095,0-12.854-5.752-12.854-12.847V36.54H42.353
		c-15.045,0-27.288,12.23-27.288,27.269c0,15.045,12.243,27.275,27.288,27.275l60.534,0.006v0.019
		c34.416,0,63.227,24.319,70.245,56.659h11.62c3.554,0,6.427,2.873,6.427,6.42v7.462h64.686v0.36
		C298.334,165.732,331.888,201.677,331.888,244.949z M319.034,244.949c0-38.4-31.254-69.982-69.673-70.393l-4.03-0.045
		l-163.55,0.084c-38.008,0.803-68.921,32.366-68.921,70.355c0,38.844,31.594,70.445,70.432,70.445
		c24.21,0,46.447-12.262,59.474-32.809l1.896-2.982h42.571l1.896,2.982c13.027,20.547,35.258,32.809,59.468,32.809
		C287.434,315.394,319.034,283.793,319.034,244.949z M248.217,260.618c-6.992,0-12.654,5.662-12.654,12.654
		c0,6.98,5.662,12.654,12.654,12.654s12.654-5.675,12.654-12.654C260.872,266.28,255.21,260.618,248.217,260.618z M248.217,203.984
		c-6.992,0-12.654,5.662-12.654,12.654c0,6.98,5.662,12.654,12.654,12.654s12.654-5.675,12.654-12.654
		C260.872,209.647,255.21,203.984,248.217,203.984z M220.28,232.301c-6.986,0-12.654,5.662-12.654,12.654
		s5.668,12.654,12.654,12.654c6.986,0,12.654-5.662,12.654-12.654S227.266,232.301,220.28,232.301z M276.919,232.301
		c-6.986,0-12.654,5.662-12.654,12.654s5.668,12.654,12.654,12.654s12.654-5.662,12.654-12.654S283.899,232.301,276.919,232.301z"/>
</g>
<g>
</g>
<g>
</g>
<g>
</g>
<g>
</g>
<g>
</g>
<g>
</g>
<g>
</g>
<g>
</g>
<g>
</g>
<g>
</g>
<g>
</g>
<g>
</g>
<g>
</g>
<g>
</g>
<g>
</g>
</svg>
