<?xml version="1.0" encoding="iso-8859-1"?>
<!-- Generator: Adobe Illustrator 19.1.0, SVG Export Plug-In . SVG Version: 6.00 Build 0)  -->
<svg version="1.1" id="Capa_1" xmlns="http://www.w3.org/2000/svg" xmlns:xlink="http://www.w3.org/1999/xlink" x="0px" y="0px"
	 viewBox="0 0 322.415 322.415" style="enable-background:new 0 0 322.415 322.415;" xml:space="preserve">
<g>
	<path d="M322.415,38.297H213.422V24.428c0-12.404-10.09-22.494-22.494-22.494H131.48c-12.404,0-22.494,10.09-22.494,22.494v13.869
		H0v83.767h29.506v173.351c0,13.818,11.247,25.065,25.065,25.065h213.281c13.818,0,25.058-11.247,25.058-25.065V122.065h29.506
		V38.297z M128.267,24.428c0-1.774,1.446-3.213,3.213-3.213h59.448c1.767,0,3.213,1.44,3.213,3.213v13.869h-65.875V24.428z
		 M280.056,295.416c0,6.735-5.482,12.211-12.205,12.211H54.57c-6.735,0-12.211-5.482-12.211-12.211l0.026-173.351h237.671
		C280.056,122.065,280.056,295.416,280.056,295.416z M309.561,109.211h-17.327H36.087H12.854v-58.06h296.708V109.211z
		 M84.68,262.485V161.262c0-5.321,4.319-9.64,9.64-9.64c5.321,0,9.64,4.319,9.64,9.64v101.223c0,5.321-4.319,9.64-9.64,9.64
		C88.999,272.125,84.68,267.806,84.68,262.485z M151.564,262.485V161.262c0-5.321,4.319-9.64,9.64-9.64
		c5.321,0,9.64,4.319,9.64,9.64v101.223c0,5.321-4.319,9.64-9.64,9.64C155.883,272.125,151.564,267.806,151.564,262.485z
		 M218.442,262.485V161.262c0-5.321,4.319-9.64,9.64-9.64s9.64,4.319,9.64,9.64v101.223c0,5.321-4.319,9.64-9.64,9.64
		S218.442,267.806,218.442,262.485z"/>
</g>
<g>
</g>
<g>
</g>
<g>
</g>
<g>
</g>
<g>
</g>
<g>
</g>
<g>
</g>
<g>
</g>
<g>
</g>
<g>
</g>
<g>
</g>
<g>
</g>
<g>
</g>
<g>
</g>
<g>
</g>
</svg>
