<?xml version="1.0" encoding="iso-8859-1"?>
<!-- Generator: Adobe Illustrator 19.1.0, SVG Export Plug-In . SVG Version: 6.00 Build 0)  -->
<svg version="1.1" id="Capa_1" xmlns="http://www.w3.org/2000/svg" xmlns:xlink="http://www.w3.org/1999/xlink" x="0px" y="0px"
	 viewBox="0 0 313.45 313.45" style="enable-background:new 0 0 313.45 313.45;" xml:space="preserve">
<g>
	<path d="M306.297,104.643L206.417,4.757c-6.35-6.343-17.436-6.343-23.786,0.006l-44.095,44.088c-6.555,6.555-6.555,17.224,0,23.786
		l44.281,44.274l-69.133,69.14l-4.351-4.351c-7.282-7.269-19.962-7.275-27.256,0.006l-69.275,69.281
		c-3.644,3.644-5.656,8.49-5.649,13.651c0.006,5.148,2.012,9.987,5.649,13.612l29.538,29.551c3.638,3.638,8.483,5.649,13.638,5.649
		s10-2.012,13.625-5.649l69.275-69.275c7.519-7.519,7.519-19.743,0-27.263l-4.749-4.749l69.14-69.146l30.688,30.695l4.634,4.447
		l1.33-1.318c0.617,0.116,1.253,0.174,1.896,0.174h52.482c5.938,0,10.759-4.827,10.759-10.759v-52.488
		c0-0.675-0.064-1.343-0.186-1.999L306.297,104.643z M129.79,229.432l-69.281,69.281c-2.416,2.423-6.658,2.41-9.081-0.006
		L21.884,269.15c-1.208-1.208-1.877-2.815-1.877-4.531c0-1.722,0.668-3.336,1.883-4.55l69.268-69.268
		c1.215-1.208,2.828-1.883,4.55-1.883s3.336,0.668,4.544,1.877l29.538,29.551C132.297,222.851,132.297,226.932,129.79,229.432z
		 M292.203,158.512h-49.384l-3.978-4.422l-0.341,0.328l-90.869-90.863c-1.549-1.549-1.549-4.068-0.006-5.617l44.095-44.088
		c1.491-1.504,4.12-1.491,5.611,0l90.953,90.959l-0.463,0.482l4.383,3.837C292.203,109.128,292.203,158.512,292.203,158.512z"/>
</g>
<g>
</g>
<g>
</g>
<g>
</g>
<g>
</g>
<g>
</g>
<g>
</g>
<g>
</g>
<g>
</g>
<g>
</g>
<g>
</g>
<g>
</g>
<g>
</g>
<g>
</g>
<g>
</g>
<g>
</g>
</svg>
