<?xml version='1.0' encoding='iso-8859-1'?>
<svg version="1.1" xmlns="http://www.w3.org/2000/svg" viewBox="0 0 44 44" xmlns:xlink="http://www.w3.org/1999/xlink" enable-background="new 0 0 44 44">
  <g>
    <g>
      <path d="m43.571,35.701l.01-.015-20.258-14.47 2.557-1.893c0.039-0.026 0.075-0.058 0.114-0.085l.487-.392-.019,.005c1.538-1.283 2.538-3.191 2.538-5.351 0-3.866-3.134-7-7-7s-7,3.134-7,7c0,1.799 0.698,3.423 1.813,4.663l.001-.002c0.182,0.188 0.435,0.308 0.717,0.308 0.552,0 1-0.447 1-1 0-0.282-0.119-0.535-0.307-0.717l.003-.004c-0.754-0.875-1.227-2.001-1.227-3.248 0-2.762 2.239-5 5-5 2.761,0 5,2.238 5,5 0,1.159-0.411,2.212-1.072,3.06l.003,.002-.024,.024c-0.245,0.31-0.523,0.587-0.833,0.831l-.057,.057-24.607,18.218 .01,.015c-0.248,0.182-0.42,0.461-0.42,0.793 0,0.553 0.448,1 1,1h42c0.552,0 1-0.447 1-1 0-0.335-0.176-0.617-0.429-0.799zm-39.54-.201l17.602-13.033 18.246,13.033h-35.848z"/>
    </g>
  </g>
</svg>
