<?xml version="1.0" encoding="iso-8859-1"?>
<!-- Generator: Adobe Illustrator 19.1.0, SVG Export Plug-In . SVG Version: 6.00 Build 0)  -->
<svg version="1.1" id="Capa_1" xmlns="http://www.w3.org/2000/svg" xmlns:xlink="http://www.w3.org/1999/xlink" x="0px" y="0px"
	 viewBox="0 0 333.392 333.392" style="enable-background:new 0 0 333.392 333.392;" xml:space="preserve">
<g>
	<path d="M257.073,333.392H76.319c-21.266,0-38.561-17.295-38.561-38.561V38.561C37.758,17.295,55.052,0,76.319,0h180.755
		c21.266,0,38.561,17.295,38.561,38.561v256.27C295.634,316.097,278.34,333.392,257.073,333.392z M76.319,12.854
		c-14.171,0-25.707,11.536-25.707,25.707v256.27c0,14.184,11.536,25.707,25.707,25.707h180.755
		c14.184,0,25.707-11.523,25.707-25.707V38.561c0-14.171-11.523-25.707-25.707-25.707C257.073,12.854,76.319,12.854,76.319,12.854z
		 M262.697,169.508H70.695V38.561h192.002C262.697,38.561,262.697,169.508,262.697,169.508z M83.549,156.654h166.294V51.415H83.549
		V156.654z M166.693,195.909c-28.394,0-51.415,23.021-51.415,51.415c0,28.394,23.021,51.415,51.415,51.415
		s51.415-23.021,51.415-51.415C218.107,218.93,195.093,195.909,166.693,195.909z M166.693,270.621
		c-12.867,0-23.297-10.431-23.297-23.297s10.431-23.297,23.297-23.297s23.297,10.431,23.297,23.297S179.566,270.621,166.693,270.621
		z"/>
</g>
<g>
</g>
<g>
</g>
<g>
</g>
<g>
</g>
<g>
</g>
<g>
</g>
<g>
</g>
<g>
</g>
<g>
</g>
<g>
</g>
<g>
</g>
<g>
</g>
<g>
</g>
<g>
</g>
<g>
</g>
</svg>
