<?xml version="1.0" encoding="iso-8859-1"?>
<!-- Generator: Adobe Illustrator 19.1.0, SVG Export Plug-In . SVG Version: 6.00 Build 0)  -->
<svg version="1.1" id="Capa_1" xmlns="http://www.w3.org/2000/svg" xmlns:xlink="http://www.w3.org/1999/xlink" x="0px" y="0px"
	 viewBox="0 0 334.729 334.729" style="enable-background:new 0 0 334.729 334.729;" xml:space="preserve">
<g>
	<path d="M302.595,129.35h-134.52c-12.481-21.331-35.56-35.74-62.006-35.74v-0.013l-60.534-0.006
		c-15.045,0-27.288-12.237-27.288-27.275s12.243-27.269,27.288-27.269h169.874v7.269c0,7.095,5.752,12.847,12.854,12.847h57.841
		v-8.83h20.887V14.984h-20.887V6.147h-57.841c-7.102,0-12.854,5.758-12.854,12.854v7.192H45.534
		c-22.134,0-40.142,18.002-40.142,40.123c0,22.128,18.008,40.129,40.142,40.129l60.534,0.006v0.013
		c18.927,0,35.746,8.991,46.543,22.886H32.134C14.415,129.35,0,143.765,0,161.484v134.964c0,17.719,14.415,32.134,32.134,32.134
		h270.46c17.725,0,32.134-14.415,32.134-32.134V161.484C334.729,143.765,320.32,129.35,302.595,129.35z M321.875,296.447
		c0,10.63-8.651,19.28-19.281,19.28H32.134c-10.63,0-19.281-8.651-19.281-19.28V161.484c0-10.63,8.651-19.281,19.281-19.281h270.46
		c10.63,0,19.281,8.651,19.281,19.281V296.447z M72.784,172.981v15.579c0,5.572-4.531,10.09-10.103,10.09H47.109
		c-5.578,0-10.097-4.518-10.097-10.09v-15.579c0-5.572,4.518-10.09,10.097-10.09h15.572
		C68.253,162.891,72.784,167.409,72.784,172.981z M93.241,188.56v-15.579c0-5.572,4.518-10.09,10.097-10.09h15.572
		c5.572,0,10.103,4.518,10.103,10.09v15.579c0,5.572-4.531,10.09-10.103,10.09h-15.572C97.759,198.65,93.241,194.132,93.241,188.56z
		 M149.475,188.56v-15.579c0-5.572,4.518-10.09,10.097-10.09h15.572c5.572,0,10.103,4.518,10.103,10.09v15.579
		c0,5.572-4.531,10.09-10.103,10.09h-15.572C153.993,198.65,149.475,194.132,149.475,188.56z M241.488,172.981v15.579
		c0,5.572-4.531,10.09-10.103,10.09h-15.579c-5.572,0-10.09-4.518-10.09-10.09v-15.579c0-5.572,4.518-10.09,10.09-10.09h15.579
		C236.957,162.891,241.488,167.409,241.488,172.981z M297.723,172.981v15.579c0,5.572-4.531,10.09-10.103,10.09h-15.579
		c-5.572,0-10.09-4.518-10.09-10.09v-15.579c0-5.572,4.518-10.09,10.09-10.09h15.579
		C293.192,162.891,297.723,167.409,297.723,172.981z M72.784,221.176v15.579c0,5.572-4.531,10.09-10.103,10.09H47.109
		c-5.578,0-10.097-4.518-10.097-10.09v-15.579c0-5.572,4.518-10.09,10.097-10.09h15.572
		C68.253,211.086,72.784,215.604,72.784,221.176z M93.241,236.755v-15.579c0-5.572,4.518-10.09,10.097-10.09h15.572
		c5.572,0,10.103,4.518,10.103,10.09v15.579c0,5.572-4.531,10.09-10.103,10.09h-15.572
		C97.759,246.845,93.241,242.327,93.241,236.755z M149.475,236.755v-15.579c0-5.572,4.518-10.09,10.097-10.09h15.572
		c5.572,0,10.103,4.518,10.103,10.09v15.579c0,5.572-4.531,10.09-10.103,10.09h-15.572
		C153.993,246.845,149.475,242.327,149.475,236.755z M241.488,221.176v15.579c0,5.572-4.531,10.09-10.103,10.09h-15.579
		c-5.572,0-10.09-4.518-10.09-10.09v-15.579c0-5.572,4.518-10.09,10.09-10.09h15.579
		C236.957,211.086,241.488,215.604,241.488,221.176z M297.723,221.176v15.579c0,5.572-4.531,10.09-10.103,10.09h-15.579
		c-5.572,0-10.09-4.518-10.09-10.09v-15.579c0-5.572,4.518-10.09,10.09-10.09h15.579
		C293.192,211.086,297.723,215.604,297.723,221.176z M72.784,269.378v15.579c0,5.572-4.531,10.09-10.103,10.09H47.109
		c-5.578,0-10.097-4.518-10.097-10.09v-15.579c0-5.572,4.518-10.09,10.097-10.09h15.572
		C68.253,259.287,72.784,263.805,72.784,269.378z M297.723,269.378v15.579c0,5.572-4.531,10.09-10.103,10.09h-15.579
		c-5.572,0-10.09-4.518-10.09-10.09v-15.579c0-5.572,4.518-10.09,10.09-10.09h15.579
		C293.192,259.287,297.723,263.805,297.723,269.378z M241.488,269.378v15.579c0,5.572-4.531,10.09-10.103,10.09h-6.016h-9.563
		h-96.897h-8.156h-7.417c-5.578,0-10.097-4.518-10.097-10.09v-15.579c0-5.572,4.518-10.09,10.097-10.09h7.417h8.156h96.897h9.563
		h6.016C236.957,259.287,241.488,263.805,241.488,269.378z"/>
</g>
<g>
</g>
<g>
</g>
<g>
</g>
<g>
</g>
<g>
</g>
<g>
</g>
<g>
</g>
<g>
</g>
<g>
</g>
<g>
</g>
<g>
</g>
<g>
</g>
<g>
</g>
<g>
</g>
<g>
</g>
</svg>
