<?xml version="1.0" encoding="iso-8859-1"?>
<!-- Generator: Adobe Illustrator 19.1.0, SVG Export Plug-In . SVG Version: 6.00 Build 0)  -->
<svg version="1.1" id="Capa_1" xmlns="http://www.w3.org/2000/svg" xmlns:xlink="http://www.w3.org/1999/xlink" x="0px" y="0px"
	 viewBox="0 0 333.829 333.829" style="enable-background:new 0 0 333.829 333.829;" xml:space="preserve">
<g>
	<path d="M166.911,333.826C74.879,333.826,0,258.953,0,166.915S74.879,0.003,166.911,0.003c92.045,0,166.918,74.879,166.918,166.918
		S258.956,333.826,166.911,333.826z M166.911,12.857c-84.95,0-154.058,69.108-154.058,154.064
		c0,84.943,69.108,154.058,154.058,154.058s154.064-69.114,154.064-154.058C320.975,81.965,251.868,12.857,166.911,12.857z
		 M154.019,120.776c0-15.971-12.989-28.966-28.959-28.966s-28.972,12.995-28.972,28.966c0,5.328,4.319,9.64,9.64,9.64
		s9.64-4.312,9.64-9.64c0-5.341,4.351-9.685,9.692-9.685c5.334,0,9.679,4.345,9.679,9.685c0,5.328,4.319,9.64,9.64,9.64
		S154.019,126.098,154.019,120.776z M237.741,120.776c0-15.971-12.989-28.966-28.972-28.966c-15.964,0-28.959,12.995-28.959,28.966
		c0,5.328,4.319,9.64,9.64,9.64c5.321,0,9.64-4.312,9.64-9.64c0-5.341,4.345-9.685,9.679-9.685c5.347,0,9.692,4.345,9.692,9.685
		c0,5.328,4.319,9.64,9.64,9.64S237.741,126.098,237.741,120.776z M189.302,178.592c-11.022,0.366-17.661,9.769-22.378,9.428
		c-4.73-0.341-8.747-10.052-19.332-10.077c-19.82-0.039-35.007,34.384-46.145,41.909c12.153,6.98,30.039,46.46,65.477,46.46
		c35.431,0,51.627-39.814,65.47-46.46C218.551,212.873,209.11,177.943,189.302,178.592z M163.486,226.491
		c-13.259,0-24.011-1.491-24.011-3.329c0-1.838,10.759-3.316,24.011-3.316c13.265,0,24.023,1.478,24.023,3.316
		C187.509,225,176.751,226.491,163.486,226.491z"/>
</g>
<g>
</g>
<g>
</g>
<g>
</g>
<g>
</g>
<g>
</g>
<g>
</g>
<g>
</g>
<g>
</g>
<g>
</g>
<g>
</g>
<g>
</g>
<g>
</g>
<g>
</g>
<g>
</g>
<g>
</g>
</svg>
