<?xml version='1.0' encoding='iso-8859-1'?>
<svg version="1.1" xmlns="http://www.w3.org/2000/svg" viewBox="0 0 44.104 44.104" xmlns:xlink="http://www.w3.org/1999/xlink" enable-background="new 0 0 44.104 44.104">
  <g>
    <g>
      <path d="m43.225,27.588l-18.642-18.588c-0.479-0.479-0.7-0.755-1.323-0.839-0.09-0.032-0.194-0.055-0.329-0.055-0.167,0-2.469-0.005-5.002-0.011-0.213-1.964-1.059-3.871-2.565-5.378-3.515-3.515-9.213-3.515-12.728,0-3.515,3.515-3.515,9.213 0,12.728 1.507,1.507 3.417,2.343 5.383,2.558 0.004,1.543 0.006,3.085 0.006,4.323 0,0.129-0.035,0.233-0.008,0.325 0.067,0.655 0.289,1.13 0.792,1.633l18.86,18.86c1.171,1.171 3.071,1.171 4.242,0l11.314-11.314c1.172-1.171 1.172-3.071 0-4.242zm-35.228-16.618c0,1.77636e-15 0.009,2.276 0.017,4.992-1.449-0.202-2.85-0.817-3.964-1.932-2.733-2.733-2.733-7.166 0-9.899s7.166-2.733 9.899,0c1.115,1.115 1.765,2.512 1.962,3.959-2.569-0.006-4.859-0.011-4.859-0.011-1.657,0.001-3.055,1.235-3.055,2.891zm7.717,4.819c-0.391,0.391-1.023,0.391-1.414,0-0.391-0.391-0.391-1.023 0-1.414 0.391-0.391 1.023-0.391 1.414,0 0.391,0.39 0.391,1.023 0,1.414zm-5.852,6.719l.055-.037 .081-11.5c0-0.552 0.502-0.891 1.055-0.891l4.835-.012c-0.104,0.702-0.315,1.386-0.631,2.038-0.849-0.07-1.721,0.205-2.37,0.854-1.172,1.172-1.172,3.071 0,4.243 1.172,1.171 3.071,1.171 4.242,0 1.172-1.172 1.172-3.071 0-4.243-0.011-0.011-0.023-0.018-0.034-0.028 0.436-0.915 0.707-1.881 0.816-2.869l4.896-.011-.01-.01 .026,.01h-0.017l15.634,15.588-12.723,12.723-15.855-15.855zm31.949,7.908l-11.314,11.313c-0.391,0.391-1.023,0.391-1.414,0l-1.952-1.952 12.725-12.725 1.955,1.949c0.39,0.391 0.39,1.024 0,1.415z"/>
    </g>
  </g>
</svg>
