<?xml version="1.0" encoding="iso-8859-1"?>
<!-- Generator: Adobe Illustrator 19.1.0, SVG Export Plug-In . SVG Version: 6.00 Build 0)  -->
<svg version="1.1" id="Capa_1" xmlns="http://www.w3.org/2000/svg" xmlns:xlink="http://www.w3.org/1999/xlink" x="0px" y="0px"
	 viewBox="0 0 331.38 331.38" style="enable-background:new 0 0 331.38 331.38;" xml:space="preserve">
<g>
	<path d="M306.547,229.878V73.436c0-14.171-11.53-25.707-25.707-25.707H50.541c-14.178,0-25.707,11.536-25.707,25.707v156.442H0
		v28.998c0,13.67,11.112,24.775,24.775,24.775h281.83c13.663,0,24.775-11.112,24.775-24.775v-28.998H306.547z M37.687,73.436
		c0-7.095,5.765-12.854,12.854-12.854H280.84c7.089,0,12.854,5.758,12.854,12.854v156.442H37.687V73.436z M318.527,258.876
		c0,6.575-5.347,11.922-11.922,11.922H24.775c-6.575,0-11.922-5.347-11.922-11.922v-16.144h11.98h80.265
		c2.23,6.202,8.098,10.656,15.064,10.656h91.049c6.967,0,12.834-4.454,15.065-10.656h80.271h11.98V258.876z"/>
</g>
<g>
</g>
<g>
</g>
<g>
</g>
<g>
</g>
<g>
</g>
<g>
</g>
<g>
</g>
<g>
</g>
<g>
</g>
<g>
</g>
<g>
</g>
<g>
</g>
<g>
</g>
<g>
</g>
<g>
</g>
</svg>
