<?xml version="1.0" encoding="iso-8859-1"?>
<!-- Generator: Adobe Illustrator 19.1.0, SVG Export Plug-In . SVG Version: 6.00 Build 0)  -->
<svg version="1.1" id="Capa_1" xmlns="http://www.w3.org/2000/svg" xmlns:xlink="http://www.w3.org/1999/xlink" x="0px" y="0px"
	 viewBox="0 0 334.427 334.427" style="enable-background:new 0 0 334.427 334.427;" xml:space="preserve">
<g>
	<path d="M218.088,156.635c-30.489,0-59.737,12.275-81.467,33.683l-2.108-2.224H46.601v-33.837l51.061-19.775
		c3.31-1.285,4.955-5.007,3.67-8.316c-1.285-3.31-5-4.955-8.316-3.67l-59.275,22.957v42.642H0v142.309h186.648v-46.588h147.29
		l0.353-7.642c0.071-1.054,0.135-2.108,0.135-3.175C334.433,208.827,282.241,156.635,218.088,156.635z M173.801,317.543H12.86
		V200.948h116.126l44.814,47.269v35.598V317.543z M186.655,270.962v-27.867l-41.299-43.568
		c19.351-19.158,45.534-30.039,72.726-30.039c56.383,0,102.392,45.328,103.478,101.48H186.655V270.962z M189.887,143.935
		c0.848,0.353,1.716,0.662,2.584,0.964l1.819,0.668c0.733,0.283,1.472,0.559,2.23,0.797c7.012,2.185,14.325,3.297,21.723,3.297
		c2.494,0,4.955-0.129,7.372-0.373c0.784-0.077,1.562-0.206,2.333-0.334l1.812-0.27c1.028-0.135,2.05-0.276,3.078-0.488
		c0.72-0.148,1.427-0.334,2.127-0.527l1.838-0.469c0.996-0.238,1.999-0.482,2.995-0.79c0.598-0.186,1.183-0.405,1.761-0.623
		l1.62-0.578c1.105-0.386,2.217-0.778,3.31-1.234c0.443-0.193,0.887-0.405,1.832-0.868c1.536-0.694,3.078-1.395,4.492-2.166
		c0.308-0.161,0.611-0.341,1.093-0.643c1.716-0.97,3.413-1.973,5.154-3.156c19.904-13.503,31.839-35.855,31.986-59.86l0.006-0.437
		c0-40.155-32.668-72.822-72.822-72.822c-38.323,0-70.22,29.975-72.604,68.234l-0.064,0.919c-0.084,1.215-0.161,2.429-0.161,3.67
		C145.401,106.152,162.856,132.489,189.887,143.935z M158.389,74.056l0.071-1.009c1.967-31.504,28.227-56.19,59.776-56.19
		c32.957,0,59.789,26.716,59.969,59.628l-0.006,0.411c-0.019,19.872-9.872,38.407-26.459,49.667
		c-1.337,0.906-2.751,1.729-4.132,2.513l-0.855,0.514c-1.208,0.656-2.474,1.215-3.747,1.793l-1.51,0.726
		c-0.823,0.347-1.677,0.643-2.532,0.938l-1.954,0.701c-0.347,0.135-0.681,0.264-1.009,0.366c-0.72,0.225-1.459,0.398-2.192,0.572
		l-2.217,0.559c-0.443,0.122-0.893,0.251-1.324,0.341c-0.726,0.148-1.472,0.244-2.217,0.341l-2.249,0.341
		c-0.482,0.084-0.964,0.167-1.472,0.219c-2.005,0.206-4.036,0.308-6.086,0.308h-0.013c-6.093,0-12.115-0.913-17.879-2.712
		c-0.488-0.154-0.964-0.341-1.452-0.527l-2.192-0.803c-0.623-0.219-1.247-0.431-1.832-0.675c-22.25-9.415-36.62-31.106-36.62-55.258
		C158.254,75.894,158.325,74.975,158.389,74.056z"/>
</g>
<g>
</g>
<g>
</g>
<g>
</g>
<g>
</g>
<g>
</g>
<g>
</g>
<g>
</g>
<g>
</g>
<g>
</g>
<g>
</g>
<g>
</g>
<g>
</g>
<g>
</g>
<g>
</g>
<g>
</g>
</svg>
