<?xml version='1.0' encoding='iso-8859-1'?>
<svg version="1.1" xmlns="http://www.w3.org/2000/svg" viewBox="0 0 44 44" xmlns:xlink="http://www.w3.org/1999/xlink" enable-background="new 0 0 44 44">
  <g>
    <g>
      <path d="m22,35.525l7.778-10.778c4.295-5.342 4.295-13.261 0-17.557-4.296-4.296-11.261-4.296-15.557,0-4.295,4.296-4.383,12.04 0,17.557l7.779,10.778zm-6.364-26.92c3.515-3.515 9.213-3.515 12.728,0 3.515,3.515 3.471,9.918 0,14.523l-6.364,9.28-6.364-9.281c-3.515-4.561-3.515-11.008 0-14.522zm6.364,12.426c3.313,0 6-2.686 6-6 0-3.313-2.687-6-6-6-3.314,0-6,2.687-6,6 0,3.314 2.686,6 6,6zm0-10c2.209,0 4,1.791 4,4s-1.791,4-4,4-4-1.791-4-4 1.791-4 4-4zm17,19h-10c-0.552,0-1,0.447-1,1 0,0.553 0.448,1 1,1h10c1.657,0 3,1.343 3,3 0,1.657-1.343,3-3,3h-34c-1.657,0-3-1.343-3-3 0-1.657 1.343-3 3-3h10c0.552,0 1-0.447 1-1 0-0.553-0.448-1-1-1h-10c-2.761,0-5,2.238-5,5s2.239,5 5,5h34c2.761,0 5-2.238 5-5s-2.239-5-5-5z"/>
    </g>
  </g>
</svg>
