<?xml version="1.0" encoding="iso-8859-1"?>
<!-- Generator: Adobe Illustrator 19.1.0, SVG Export Plug-In . SVG Version: 6.00 Build 0)  -->
<svg version="1.1" id="Capa_1" xmlns="http://www.w3.org/2000/svg" xmlns:xlink="http://www.w3.org/1999/xlink" x="0px" y="0px"
	 viewBox="0 0 304.741 304.741" style="enable-background:new 0 0 304.741 304.741;" xml:space="preserve">
<g>
	<path d="M167.345,225.363l55.547-55.547c1.17-1.157,2.224-2.436,3.123-3.792c0.341-0.514,0.63-1.048,0.906-1.594l0.321-0.585
		c0.379-0.668,0.733-1.337,1.054-2.082c0.27-0.662,0.482-1.356,0.668-2.05l0.251-0.835c0.174-0.54,0.334-1.08,0.463-1.69
		c0.63-3.181,0.643-6.427-0.013-9.698c-0.116-0.54-0.264-1.048-0.424-1.562l-0.225-0.726c-0.193-0.771-0.431-1.523-0.733-2.275
		c-0.264-0.636-0.598-1.228-0.925-1.819l-0.379-0.701c-0.289-0.578-0.604-1.144-0.964-1.703c-0.778-1.163-1.639-2.249-2.571-3.233
		l-56.1-56.1c-9.293-9.28-25.495-9.274-34.782,0.006c-9.582,9.589-9.582,25.206,0,34.788l13.599,13.599H32.497
		c-13.554,0-24.595,11.035-24.595,24.602c0,13.561,11.041,24.595,24.595,24.595h113.678l-13.606,13.606
		c-4.647,4.647-7.204,10.823-7.204,17.391c0,6.562,2.558,12.738,7.204,17.391c4.653,4.653,10.836,7.204,17.397,7.204
		C156.542,232.561,162.711,230.01,167.345,225.363z M141.651,199.662l35.547-35.547h-144.7c-6.478,0-11.742-5.264-11.742-11.742
		c0-6.478,5.264-11.748,11.742-11.748v-0.013h144.7l-35.547-35.54c-4.576-4.582-4.576-12.031,0-16.613
		c4.428-4.428,12.172-4.428,16.601-0.006l55.631,55.624c0.54,0.54,1.015,1.138,1.62,2.121l0.906,1.677
		c0.109,0.244,0.154,0.495,0.373,1.247l0.289,0.913c0.315,1.549,0.315,3.111-0.071,4.839l-0.591,1.967
		c-0.09,0.231-0.225,0.437-0.63,1.144l-0.45,0.9c-0.437,0.662-0.938,1.26-1.497,1.832l-55.566,55.566
		c-4.415,4.422-12.16,4.428-16.601-0.006C137.075,211.687,137.075,204.245,141.651,199.662z M296.839,0v304.741h-0.006H143.135
		c-3.56,0-6.427-2.873-6.427-6.427s2.866-6.427,6.427-6.427h140.851V12.854h-141.39c-3.56,0-6.427-2.873-6.427-6.427
		c0-3.548,2.866-6.427,6.427-6.427H296.839z"/>
</g>
<g>
</g>
<g>
</g>
<g>
</g>
<g>
</g>
<g>
</g>
<g>
</g>
<g>
</g>
<g>
</g>
<g>
</g>
<g>
</g>
<g>
</g>
<g>
</g>
<g>
</g>
<g>
</g>
<g>
</g>
</svg>
