<?xml version="1.0" encoding="iso-8859-1"?>
<!-- Generator: Adobe Illustrator 19.1.0, SVG Export Plug-In . SVG Version: 6.00 Build 0)  -->
<svg version="1.1" id="Capa_1" xmlns="http://www.w3.org/2000/svg" xmlns:xlink="http://www.w3.org/1999/xlink" x="0px" y="0px"
	 viewBox="0 0 333.848 333.848" style="enable-background:new 0 0 333.848 333.848;" xml:space="preserve">
<g>
	<path d="M166.911,0.01C74.879,0.01,0,74.889,0,166.927s74.873,166.911,166.911,166.911c92.052,0,166.937-74.873,166.937-166.911
		S258.963,0.01,166.911,0.01z M166.911,320.979c-84.95,0-154.058-69.114-154.058-154.058c0-84.95,69.108-154.064,154.058-154.064
		c84.956,0,154.083,69.108,154.083,154.064C320.995,251.871,251.874,320.979,166.911,320.979z M249.638,215.379
		c3.94,3.58,4.255,9.679,0.688,13.618c-3.593,3.953-9.666,4.255-13.618,0.688c-19.133-17.282-43.882-26.813-69.693-26.813
		c-25.887,0-50.701,9.576-69.853,26.961c-1.845,1.671-4.158,2.5-6.478,2.5c-2.622,0-5.231-1.067-7.134-3.162
		c-3.586-3.94-3.284-10.032,0.662-13.606c22.706-20.611,52.115-31.973,82.81-31.973
		C197.606,183.592,226.957,194.891,249.638,215.379z M81.377,91.785c2.693-4.602,8.586-6.138,13.188-3.445l58.683,34.384
		c4.595,2.693,6.138,8.599,3.445,13.194c-1.71,2.911-4.698,4.544-7.834,4.704c-0.739,0.36-1.517,0.662-2.365,0.816l-40.155,7.674
		c-0.611,0.122-1.215,0.174-1.819,0.174c-4.531,0-8.573-3.213-9.46-7.834c-0.996-5.231,2.429-10.283,7.661-11.279l18.933-3.618
		l-36.832-21.581C80.226,102.286,78.684,96.38,81.377,91.785z M252.472,91.785c2.699,4.595,1.157,10.501-3.438,13.194
		l-36.839,21.581l18.94,3.618c5.231,0.996,8.663,6.048,7.654,11.279c-0.88,4.614-4.923,7.834-9.454,7.834
		c-0.604,0-1.215-0.058-1.819-0.174l-40.168-7.674c-0.855-0.161-1.632-0.463-2.371-0.823c-3.123-0.167-6.112-1.8-7.821-4.698
		c-2.686-4.595-1.144-10.501,3.451-13.194l58.683-34.384C243.873,85.66,249.772,87.183,252.472,91.785z"/>
</g>
<g>
</g>
<g>
</g>
<g>
</g>
<g>
</g>
<g>
</g>
<g>
</g>
<g>
</g>
<g>
</g>
<g>
</g>
<g>
</g>
<g>
</g>
<g>
</g>
<g>
</g>
<g>
</g>
<g>
</g>
</svg>
