<?xml version="1.0" encoding="iso-8859-1"?>
<!-- Generator: Adobe Illustrator 19.1.0, SVG Export Plug-In . SVG Version: 6.00 Build 0)  -->
<svg version="1.1" id="Capa_1" xmlns="http://www.w3.org/2000/svg" xmlns:xlink="http://www.w3.org/1999/xlink" x="0px" y="0px"
	 viewBox="0 0 328.334 328.334" style="enable-background:new 0 0 328.334 328.334;" xml:space="preserve">
<g>
	<path d="M310.281,133.646c0-15.714-7.365-29.615-18.728-38.741V9.48c0-5.231-4.242-9.48-9.473-9.48c-5.231,0-9.48,4.242-9.48,9.48
		v0.88c-1.639,0.533-3.348,1.35-5.109,2.461l-64.757,40.843c-7.397,4.672-17.815,11.241-27.34,17.256H53.645
		c-10.341,0-18.76,8.419-18.76,18.76v4.087h-2.076c-8.149,0-14.756,6.6-14.756,14.756v50.245c0,8.149,6.607,14.743,14.756,14.743
		h2.076v4.087c0,10.347,8.419,18.766,18.76,18.766h1.979l30.855,117.579c2.224,8.471,9.891,14.39,18.644,14.39
		c1.645,0,3.291-0.212,4.897-0.636l41.582-10.913c10.283-2.706,16.446-13.265,13.741-23.542l-14.313-54.525l3.464-0.913
		c1.542-0.405,2.474-1.999,2.069-3.548l-7.115-27.089c-0.405-1.555-1.999-2.481-3.541-2.069l-3.458,0.913l-2.532-9.647h35.495
		c9.512,6.009,19.93,12.571,27.32,17.237l64.757,40.855c1.761,1.112,3.47,1.928,5.109,2.461v0.887c0,5.225,4.242,9.473,9.48,9.473
		c5.225,0,9.473-4.242,9.473-9.473v-85.425C302.922,163.254,310.281,149.353,310.281,133.646z M123.26,183.505l29.647,113.003
		c0.9,3.419-1.157,6.941-4.582,7.847l-41.569,10.906c-3.432,0.919-6.973-1.228-7.86-4.589L67.392,190.588
		c-0.109-0.398-0.135-0.79-0.167-1.183l-0.482-5.906H53.645c-3.258,0-5.906-2.654-5.906-5.913V89.667
		c0-3.258,2.648-5.906,5.906-5.906h111.043v99.738H123.26V183.505z M209.592,202.722c-8.644-5.444-21.421-13.509-32.044-20.219
		V84.764l6.735-4.248l25.315-15.977l63.009-39.744v217.683L209.592,202.722z"/>
</g>
<g>
</g>
<g>
</g>
<g>
</g>
<g>
</g>
<g>
</g>
<g>
</g>
<g>
</g>
<g>
</g>
<g>
</g>
<g>
</g>
<g>
</g>
<g>
</g>
<g>
</g>
<g>
</g>
<g>
</g>
</svg>
