<?xml version="1.0" encoding="iso-8859-1"?>
<!-- Generator: Adobe Illustrator 19.1.0, SVG Export Plug-In . SVG Version: 6.00 Build 0)  -->
<svg version="1.1" id="Capa_1" xmlns="http://www.w3.org/2000/svg" xmlns:xlink="http://www.w3.org/1999/xlink" x="0px" y="0px"
	 viewBox="0 0 320.558 320.558" style="enable-background:new 0 0 320.558 320.558;" xml:space="preserve">
<g>
	<path d="M239.817,277.973h-63.067v-47.758c29.936-6.999,52.732-32.539,55.509-63.908c0.186-2.127,0.328-4.261,0.328-6.433v-16.067
		v-15.669v-22.494V89.976V72.302c0-1.626-0.135-3.22-0.251-4.82C229.849,29.808,198.583,0,160.285,0
		c-38.304,0-69.564,29.808-72.058,67.482c-0.109,1.6-0.244,3.194-0.244,4.82v17.674v15.669v22.494v15.669v16.067
		c0,2.172,0.135,4.306,0.328,6.433c2.77,31.369,25.56,56.916,55.509,63.908v47.758H80.747c-11.761,0-21.292,9.525-21.292,21.292
		c0,11.748,9.525,21.292,21.292,21.292h159.064c11.748,0,21.292-9.537,21.292-21.292
		C261.103,287.504,251.566,277.973,239.817,277.973z M101.268,166.307h31.299c6.215,0,11.247-5.039,11.247-11.253
		c0-6.215-5.032-11.247-11.247-11.247h-31.736v-15.669h31.736c6.215,0,11.247-5.032,11.247-11.247s-5.032-11.247-11.247-11.247
		h-31.736V89.976h31.736c6.215,0,11.247-5.032,11.247-11.247c0-6.215-5.032-11.247-11.247-11.247h-31.421
		c2.474-30.695,28.265-54.628,59.133-54.628s56.653,23.934,59.14,54.628h-31.421c-6.215,0-11.247,5.032-11.247,11.247
		c0,6.215,5.032,11.247,11.247,11.247h31.736v15.669h-31.736c-6.215,0-11.247,5.032-11.247,11.247s5.032,11.247,11.247,11.247
		h31.736v15.669h-31.736c-6.215,0-11.247,5.032-11.247,11.247c0,6.215,5.032,11.253,11.247,11.253h31.305
		c-3.252,30.296-28.394,53.021-59.024,53.021C129.661,219.329,104.507,196.61,101.268,166.307z M169.058,231.591
		c-0.186,0.026-0.379,0.058-0.578,0.084C168.679,231.649,168.871,231.61,169.058,231.591z M151.506,231.591
		c0.186,0.026,0.379,0.064,0.572,0.084C151.885,231.649,151.693,231.617,151.506,231.591z"/>
</g>
<g>
</g>
<g>
</g>
<g>
</g>
<g>
</g>
<g>
</g>
<g>
</g>
<g>
</g>
<g>
</g>
<g>
</g>
<g>
</g>
<g>
</g>
<g>
</g>
<g>
</g>
<g>
</g>
<g>
</g>
</svg>
