<?xml version="1.0" encoding="iso-8859-1"?>
<!-- Generator: Adobe Illustrator 19.1.0, SVG Export Plug-In . SVG Version: 6.00 Build 0)  -->
<svg version="1.1" id="Capa_1" xmlns="http://www.w3.org/2000/svg" xmlns:xlink="http://www.w3.org/1999/xlink" x="0px" y="0px"
	 viewBox="0 0 314.812 314.812" style="enable-background:new 0 0 314.812 314.812;" xml:space="preserve">
<g>
	<path d="M281.308,58.529c-2.461-4.73-8.271-6.588-12.995-4.12l-46.627,24.171l-5.694,0.199l17.327-38.612
		c6.086-13.593,0.026-29.551-13.554-35.65c-3.573-1.607-7.307-2.365-10.983-2.365c-9.936,0-19.428,5.559-24.126,14.955
		C179.25,7.07,165.612,0,149.603,0c-0.315,0-0.63,0-0.945,0.006c-12.115,0.206-22.809,4.415-29.673,10.791
		c-5.167-6.022-12.706-9.48-20.514-9.48c-3.618,0-7.294,0.739-10.829,2.307c-13.606,6.048-19.73,21.993-13.683,35.605l19.48,43.818
		l-0.006,0.019l-6.87,0.244c-5.321,0.186-9.486,4.653-9.293,9.974c0.154,4.518,3.406,8.188,7.635,9.088L38.567,207.246h0.058
		c-3.965,8.111-6.202,16.755-6.202,25.772c0,45.168,53.966,81.794,120.542,81.794c66.563,0,120.535-36.62,120.535-81.794
		c0-9.01-2.237-17.661-6.202-25.772h0.051L216.873,98.041l5.893-0.206l44.21,14.968c1.028,0.347,2.069,0.514,3.091,0.514
		c4.023,0,7.77-2.532,9.133-6.555c1.71-5.045-0.996-10.514-6.035-12.224l-24.428-8.271l28.445-14.75
		C281.906,69.069,283.757,63.253,281.308,58.529z M105.181,77.842l-19.48-43.825c-3.162-7.115,0.045-15.476,7.159-18.638
		c1.793-0.797,3.676-1.202,5.604-1.202c4.12,0,8.04,1.819,10.765,4.994l8.702,10.142l9.794-9.094
		c4.807-4.46,12.712-7.217,21.151-7.359l0.726-0.006c12.481,0,21.048,5.36,23.734,10.341l11.742,21.826l11.073-22.173
		c2.416-4.839,7.256-7.847,12.629-7.847c1.967,0,3.888,0.418,5.72,1.234c7.095,3.188,10.277,11.562,7.095,18.664L201.84,78.922
		c-0.064,0.122-0.141,0.238-0.212,0.353l-94.333,3.323L105.181,77.842z M247.246,194.405H246.7l9.049,18.503
		c3.252,6.639,4.897,13.406,4.897,20.122c0,37.366-49.313,68.941-107.682,68.941S45.276,270.396,45.276,233.031
		c0-6.716,1.645-13.484,4.891-20.122l8.991-18.503h-0.861l40.746-92.225l103.896-3.644L247.246,194.405z M164.86,210.697
		c0.803-0.829,1.208-1.819,1.208-2.976c0-1.157-0.405-1.896-1.208-2.224c-0.803-0.328-1.735-0.488-2.789-0.488h-17.173
		c-2.86,0-5.534-0.54-8.021-1.62c-2.487-1.08-4.647-2.558-6.478-4.441c-1.832-1.883-3.291-4.081-4.37-6.588
		c-1.08-2.507-1.62-5.199-1.62-8.059c0-2.815,0.54-5.463,1.62-7.944c1.08-2.481,2.539-4.659,4.37-6.517
		c1.832-1.857,3.991-3.329,6.478-4.409c2.487-1.08,5.161-1.62,8.021-1.62h1.883v-20.412h13.856v20.412h17.622v16.491h-33.362
		c-1.157,0-2.134,0.392-2.937,1.17c-0.803,0.778-1.208,1.722-1.208,2.821c0,1.157,0.405,2.134,1.208,2.937
		c0.803,0.803,1.78,1.208,2.937,1.208h17.173c2.815,0,5.463,0.476,7.944,1.433c2.481,0.958,4.659,2.282,6.517,3.991
		s3.329,3.74,4.409,6.099c1.08,2.359,1.62,4.949,1.62,7.757c0,2.86-0.54,5.546-1.62,8.059c-1.08,2.513-2.545,4.685-4.409,6.517
		s-4.03,3.291-6.517,4.37c-2.487,1.08-5.135,1.62-7.944,1.62h-1.433v23.124h-13.856v-23.124h-22.365v-16.343h37.655
		C163.125,211.938,164.057,211.526,164.86,210.697z"/>
</g>
<g>
</g>
<g>
</g>
<g>
</g>
<g>
</g>
<g>
</g>
<g>
</g>
<g>
</g>
<g>
</g>
<g>
</g>
<g>
</g>
<g>
</g>
<g>
</g>
<g>
</g>
<g>
</g>
<g>
</g>
</svg>
