<?xml version="1.0" encoding="iso-8859-1"?>
<!-- Generator: Adobe Illustrator 19.1.0, SVG Export Plug-In . SVG Version: 6.00 Build 0)  -->
<svg version="1.1" id="Capa_1" xmlns="http://www.w3.org/2000/svg" xmlns:xlink="http://www.w3.org/1999/xlink" x="0px" y="0px"
	 viewBox="0 0 314.812 314.812" style="enable-background:new 0 0 314.812 314.812;" xml:space="preserve">
<g>
	<path d="M113.844,199.56h12.372c-0.077-0.488-0.116-0.964-0.116-1.446c0-0.463,0-0.964,0-1.491v-2.545h-11.125l3.162-14.235h11.408
		c1.62-3.689,3.728-7.082,6.324-10.167c2.596-3.085,5.566-5.739,8.895-7.956c3.342-2.224,6.96-3.952,10.874-5.199
		c3.914-1.247,8.021-1.87,12.314-1.87c5.007,0,9.859,0.861,14.544,2.571c4.692,1.716,8.92,4.203,12.687,7.481l-8.586,14.12
		c-2.371-2.558-5.193-4.524-8.438-5.9c-3.265-1.375-6.658-2.057-10.199-2.057c-3.952,0-7.629,0.816-11.016,2.455
		c-3.387,1.639-6.273,3.811-8.644,6.523h17.115l-3.104,14.229h-19.994c-0.077,0.411-0.116,0.842-0.116,1.266
		c0,0.437,0,0.868,0,1.279c0,0.527,0,1.028,0,1.491c0,0.476,0.039,0.951,0.116,1.446h18.869l-3.162,14.171h-9.261
		c2.372,2.712,5.206,4.82,8.503,6.324c3.291,1.504,6.857,2.262,10.701,2.262c3.541,0,6.935-0.675,10.199-2.057
		c3.252-1.369,6.067-3.342,8.438-5.9l8.586,14.12c-3.766,3.239-7.989,5.726-12.687,7.455c-4.685,1.735-9.531,2.596-14.544,2.596
		c-4.255,0-8.323-0.617-12.198-1.844c-3.882-1.215-7.468-2.924-10.765-5.109c-3.297-2.185-6.24-4.782-8.837-7.821
		c-2.596-3.027-4.704-6.375-6.324-10.032H110.74L113.844,199.56z M277.182,71.505l-28.445,14.75l24.428,8.271
		c5.039,1.71,7.744,7.179,6.035,12.224c-1.363,4.017-5.109,6.555-9.133,6.555c-1.022,0-2.063-0.167-3.091-0.514l-44.21-14.968
		l-5.893,0.206l50.476,109.218h-0.051c3.965,8.111,6.202,16.755,6.202,25.772c0,45.168-53.973,81.794-120.535,81.794
		c-66.569,0-120.542-36.62-120.542-81.794c0-9.01,2.237-17.661,6.202-25.772h-0.058l46.337-104.873
		c-4.235-0.893-7.481-4.563-7.635-9.088c-0.186-5.321,3.978-9.788,9.293-9.974l6.87-0.244l0.006-0.019l-19.48-43.818
		C67.912,25.617,74.036,9.672,87.642,3.625c3.528-1.568,7.211-2.307,10.829-2.307c7.809,0,15.347,3.458,20.514,9.48
		c6.864-6.375,17.558-10.579,29.673-10.791C148.973,0,149.295,0,149.603,0c16.009,0,29.647,7.07,35.052,17.108
		c4.692-9.396,14.19-14.955,24.126-14.955c3.676,0,7.41,0.758,10.983,2.365c13.58,6.099,19.647,22.057,13.554,35.65L215.992,78.78
		l5.694-0.199l46.627-24.171c4.724-2.468,10.54-0.611,12.995,4.12C283.757,63.234,281.906,69.05,277.182,71.505z M107.295,82.578
		l94.327-3.31c0.071-0.122,0.148-0.231,0.212-0.353l19.756-44.024c3.175-7.095-0.006-15.476-7.095-18.664
		c-1.825-0.816-3.753-1.234-5.72-1.234c-5.373,0-10.212,3.008-12.629,7.847l-11.073,22.173l-11.742-21.826
		c-2.686-4.981-11.253-10.341-23.734-10.341h-0.72c-8.438,0.141-16.343,2.899-21.151,7.359l-9.795,9.094l-8.702-10.142
		c-2.725-3.175-6.652-4.994-10.765-4.994c-1.922,0-3.811,0.405-5.604,1.202c-7.108,3.162-10.321,11.523-7.16,18.638l19.48,43.818
		L107.295,82.578z M202.939,98.511l-103.896,3.644L58.297,194.38h0.861l-8.991,18.503c-3.246,6.639-4.891,13.406-4.891,20.122
		c0,37.366,49.313,68.941,107.688,68.941s107.682-31.569,107.682-68.941c0-6.716-1.645-13.483-4.897-20.122L246.7,194.38h0.546
		L202.939,98.511z"/>
</g>
<g>
</g>
<g>
</g>
<g>
</g>
<g>
</g>
<g>
</g>
<g>
</g>
<g>
</g>
<g>
</g>
<g>
</g>
<g>
</g>
<g>
</g>
<g>
</g>
<g>
</g>
<g>
</g>
<g>
</g>
</svg>
