<?xml version="1.0" encoding="iso-8859-1"?>
<!-- Generator: Adobe Illustrator 19.1.0, SVG Export Plug-In . SVG Version: 6.00 Build 0)  -->
<svg version="1.1" id="Capa_1" xmlns="http://www.w3.org/2000/svg" xmlns:xlink="http://www.w3.org/1999/xlink" x="0px" y="0px"
	 viewBox="0 0 333.488 333.488" style="enable-background:new 0 0 333.488 333.488;" xml:space="preserve">
<g>
	<path d="M193.657,139.829H17.33c-7.783,0-14.12-6.337-14.12-14.126v-14.756c0-7.783,6.337-14.113,14.12-14.113h176.327
		c7.783,0,14.107,6.33,14.107,14.113v14.756C207.77,133.492,201.439,139.829,193.657,139.829z M17.33,109.687
		c-0.701,0-1.266,0.566-1.266,1.26v14.756c0,0.701,0.566,1.273,1.266,1.273h176.327c0.688,0,1.253-0.572,1.253-1.273v-14.756
		c0-0.694-0.566-1.26-1.253-1.26H17.33z M193.657,91.409H17.33c-7.783,0-14.12-6.337-14.12-14.12V62.533
		c0-7.783,6.337-14.113,14.12-14.113h176.327c7.783,0,14.107,6.33,14.107,14.113v14.756
		C207.77,85.072,201.439,91.409,193.657,91.409z M17.33,61.273c-0.701,0-1.266,0.566-1.266,1.26v14.756
		c0,0.701,0.566,1.266,1.266,1.266h176.327c0.688,0,1.253-0.566,1.253-1.266V62.533c0-0.694-0.566-1.26-1.253-1.26H17.33z
		 M193.657,42.996H17.33c-7.783,0-14.12-6.337-14.12-14.12V14.12C3.21,6.337,9.547,0,17.33,0h176.327
		c7.783,0,14.107,6.33,14.107,14.113v14.756C207.77,36.659,201.439,42.996,193.657,42.996z M17.33,12.854
		c-0.701,0-1.266,0.566-1.266,1.266v14.756c0,0.701,0.566,1.266,1.266,1.266h176.327c0.688,0,1.253-0.566,1.253-1.266V14.12
		c0-0.694-0.566-1.26-1.253-1.26H17.33V12.854z M193.657,333.488H17.33c-7.783,0-14.12-6.33-14.12-14.12v-14.756
		c0-7.783,6.337-14.113,14.12-14.113h143.98l1.902,2.018c10.739,11.395,24.236,19.788,39.011,24.268l7.494,2.275l-3.689,6.909
		C203.535,330.609,198.804,333.488,193.657,333.488z M17.33,303.353c-0.701,0-1.266,0.566-1.266,1.26v14.756
		c0,0.694,0.566,1.266,1.266,1.266h161.275c-8.31-4.64-16.003-10.456-22.796-17.282H17.33z M156.047,285.075H17.33
		c-7.783,0-14.12-6.33-14.12-14.12v-14.762c0-7.783,6.337-14.107,14.12-14.107h122.052l0.958,5.276
		c1.8,9.929,5.231,19.383,10.212,28.098L156.047,285.075z M17.33,254.933c-0.701,0-1.266,0.566-1.266,1.253v14.762
		c0,0.694,0.566,1.266,1.266,1.266h117.232c-2.436-5.566-4.364-11.343-5.765-17.282H17.33z M138.81,236.662H17.33
		c-7.783,0-14.12-6.33-14.12-14.12V207.78c0-7.783,6.337-14.113,14.12-14.113h129.398l-2.943,8.522
		c-3.149,9.12-4.801,18.58-4.91,28.117L138.81,236.662z M17.33,206.52c-0.701,0-1.266,0.566-1.266,1.26v14.756
		c0,0.694,0.566,1.266,1.266,1.266h108.961c0.431-5.816,1.369-11.6,2.802-17.282H17.33z M149.922,188.242H17.33
		c-7.783,0-14.12-6.33-14.12-14.12V159.36c0-7.783,6.337-14.107,14.12-14.107h178.936l-17.648,11.774
		c-10.72,7.153-19.994,16.883-26.819,28.124L149.922,188.242z M17.33,158.107c-0.701,0-1.266,0.566-1.266,1.253v14.762
		c0,0.694,0.566,1.266,1.266,1.266h125.439c4.113-6.266,8.908-12.076,14.229-17.282C156.998,158.107,17.33,158.107,17.33,158.107z
		 M198.277,214.586c1.62-3.689,3.728-7.082,6.324-10.167c2.596-3.085,5.572-5.746,8.901-7.963c3.342-2.224,6.954-3.952,10.868-5.199
		c3.914-1.247,8.021-1.864,12.314-1.864c5.007,0,9.865,0.861,14.55,2.564c4.692,1.722,8.914,4.21,12.68,7.487l-8.586,14.12
		c-2.372-2.558-5.186-4.524-8.438-5.906c-3.265-1.369-6.665-2.057-10.206-2.057c-3.953,0-7.622,0.816-11.009,2.461
		c-3.387,1.632-6.279,3.811-8.651,6.523h17.121l-3.111,14.235h-19.994c-0.077,0.411-0.116,0.842-0.116,1.266
		c0,0.437,0,0.861,0,1.273c0,0.527,0,1.028,0,1.497c0,0.469,0.039,0.945,0.116,1.44h18.869l-3.162,14.178h-9.267
		c2.372,2.712,5.212,4.82,8.509,6.324c3.291,1.504,6.851,2.262,10.694,2.262c3.541,0,6.941-0.681,10.206-2.057
		c3.252-1.375,6.061-3.348,8.438-5.906l8.586,14.12c-3.766,3.239-7.982,5.726-12.68,7.455c-4.685,1.735-9.537,2.596-14.55,2.596
		c-4.255,0-8.323-0.617-12.198-1.838c-3.882-1.215-7.468-2.924-10.759-5.109c-3.303-2.185-6.24-4.788-8.837-7.821
		c-2.596-3.033-4.704-6.375-6.324-10.032h-19.094l3.098-14.178h12.378c-0.077-0.488-0.116-0.964-0.116-1.44s0-0.97,0-1.497v-2.545
		h-11.131l3.162-14.235h11.414V214.586z M228.117,333.488c-56.325,0-102.155-45.83-102.155-102.161
		c0-56.325,45.83-102.148,102.155-102.148c56.338,0,102.161,45.823,102.161,102.148
		C330.278,287.659,284.448,333.488,228.117,333.488z M228.117,142.033c-49.236,0-89.301,40.052-89.301,89.294
		s40.065,89.307,89.294,89.307c49.242,0,89.307-40.065,89.307-89.307C317.425,182.085,277.36,142.033,228.117,142.033z"/>
</g>
<g>
</g>
<g>
</g>
<g>
</g>
<g>
</g>
<g>
</g>
<g>
</g>
<g>
</g>
<g>
</g>
<g>
</g>
<g>
</g>
<g>
</g>
<g>
</g>
<g>
</g>
<g>
</g>
<g>
</g>
</svg>
