<?xml version="1.0" encoding="iso-8859-1"?>
<!-- Generator: Adobe Illustrator 19.1.0, SVG Export Plug-In . SVG Version: 6.00 Build 0)  -->
<svg version="1.1" id="Capa_1" xmlns="http://www.w3.org/2000/svg" xmlns:xlink="http://www.w3.org/1999/xlink" x="0px" y="0px"
	 viewBox="0 0 314.812 314.812" style="enable-background:new 0 0 314.812 314.812;" xml:space="preserve">
<g>
	<path d="M120.567,181.822v-24.287h16.208v24.287c0,2.224,0.418,4.319,1.273,6.298c0.842,1.973,2.005,3.695,3.471,5.167
		c1.465,1.472,3.194,2.629,5.167,3.47c1.986,0.855,4.081,1.273,6.298,1.273s4.312-0.418,6.273-1.273
		c1.96-0.842,3.67-2.005,5.141-3.47c1.472-1.465,2.622-3.194,3.477-5.167c0.842-1.986,1.266-4.081,1.266-6.298v-24.287h16.208
		v24.287c0,2.712-0.373,5.437-1.099,8.162c-0.739,2.738-1.799,5.296-3.194,7.68c-1.395,2.397-3.098,4.531-5.116,6.414
		c-2.018,1.883-4.319,3.348-6.915,4.409h13.445v15.367h-21.408v14.685h-16.208v-14.685h-21.408v-15.367h13.329
		c-2.674-1.279-5.026-2.879-7.063-4.801c-2.037-1.922-3.728-4.049-5.084-6.382s-2.371-4.82-3.053-7.455
		C120.894,187.214,120.567,184.534,120.567,181.822z M277.182,71.505l-28.445,14.75l24.428,8.271
		c5.039,1.71,7.744,7.179,6.035,12.224c-1.363,4.017-5.109,6.555-9.133,6.555c-1.022,0-2.063-0.167-3.091-0.514l-44.21-14.968
		l-5.893,0.206l50.476,109.218h-0.051c3.965,8.111,6.202,16.755,6.202,25.772c0,45.168-53.973,81.794-120.535,81.794
		c-66.569,0-120.542-36.62-120.542-81.794c0-9.01,2.237-17.661,6.202-25.772h-0.058l46.337-104.873
		c-4.235-0.893-7.481-4.563-7.635-9.088c-0.186-5.321,3.978-9.788,9.293-9.974l6.87-0.244l0.006-0.019l-19.48-43.818
		C67.912,25.617,74.036,9.672,87.642,3.625c3.528-1.568,7.211-2.307,10.829-2.307c7.809,0,15.347,3.458,20.514,9.48
		c6.864-6.375,17.558-10.579,29.673-10.791C148.973,0,149.295,0,149.603,0c16.009,0,29.647,7.07,35.052,17.108
		c4.692-9.396,14.19-14.955,24.126-14.955c3.676,0,7.41,0.758,10.983,2.365c13.58,6.099,19.647,22.057,13.554,35.65L215.992,78.78
		l5.694-0.199l46.627-24.171c4.724-2.468,10.54-0.611,12.995,4.12C283.757,63.234,281.906,69.05,277.182,71.505z M107.295,82.578
		l94.327-3.31c0.071-0.122,0.148-0.231,0.212-0.353l19.756-44.024c3.175-7.095-0.006-15.476-7.095-18.664
		c-1.825-0.816-3.753-1.234-5.72-1.234c-5.373,0-10.212,3.008-12.629,7.847l-11.073,22.173l-11.742-21.826
		c-2.686-4.981-11.253-10.341-23.734-10.341h-0.72c-8.438,0.141-16.343,2.899-21.151,7.359l-9.795,9.094l-8.702-10.142
		c-2.725-3.175-6.652-4.994-10.765-4.994c-1.922,0-3.811,0.405-5.604,1.202c-7.108,3.162-10.321,11.523-7.16,18.638l19.48,43.818
		L107.295,82.578z M202.939,98.511l-103.896,3.644L58.297,194.38h0.861l-8.991,18.503c-3.246,6.639-4.891,13.406-4.891,20.122
		c0,37.366,49.313,68.941,107.688,68.941s107.682-31.569,107.682-68.941c0-6.716-1.645-13.483-4.897-20.122L246.7,194.38h0.546
		L202.939,98.511z"/>
</g>
<g>
</g>
<g>
</g>
<g>
</g>
<g>
</g>
<g>
</g>
<g>
</g>
<g>
</g>
<g>
</g>
<g>
</g>
<g>
</g>
<g>
</g>
<g>
</g>
<g>
</g>
<g>
</g>
<g>
</g>
</svg>
