<?xml version="1.0" encoding="iso-8859-1"?>
<!-- Generator: Adobe Illustrator 19.1.0, SVG Export Plug-In . SVG Version: 6.00 Build 0)  -->
<svg version="1.1" id="Capa_1" xmlns="http://www.w3.org/2000/svg" xmlns:xlink="http://www.w3.org/1999/xlink" x="0px" y="0px"
	 viewBox="0 0 333.488 333.488" style="enable-background:new 0 0 333.488 333.488;" xml:space="preserve">
<g>
	<path d="M193.657,139.829H17.33c-7.783,0-14.12-6.337-14.12-14.126v-14.756c0-7.783,6.337-14.113,14.12-14.113h176.327
		c7.783,0,14.107,6.33,14.107,14.113v14.756C207.77,133.492,201.439,139.829,193.657,139.829z M17.33,109.687
		c-0.701,0-1.266,0.566-1.266,1.26v14.756c0,0.701,0.566,1.266,1.266,1.266h176.327c0.688,0,1.253-0.566,1.253-1.266v-14.756
		c0-0.694-0.566-1.26-1.253-1.26H17.33z M193.657,91.409H17.33c-7.783,0-14.12-6.337-14.12-14.12V62.533
		c0-7.783,6.337-14.113,14.12-14.113h176.327c7.783,0,14.107,6.33,14.107,14.113v14.756
		C207.77,85.072,201.439,91.409,193.657,91.409z M17.33,61.273c-0.701,0-1.266,0.566-1.266,1.26v14.756
		c0,0.701,0.566,1.266,1.266,1.266h176.327c0.688,0,1.253-0.566,1.253-1.266V62.533c0-0.694-0.566-1.26-1.253-1.26H17.33z
		 M193.657,42.996H17.33c-7.783,0-14.12-6.337-14.12-14.12V14.12C3.21,6.337,9.547,0,17.33,0h176.327
		c7.783,0,14.107,6.33,14.107,14.113v14.756C207.77,36.659,201.439,42.996,193.657,42.996z M17.33,12.854
		c-0.701,0-1.266,0.566-1.266,1.266v14.756c0,0.701,0.566,1.266,1.266,1.266h176.327c0.688,0,1.253-0.566,1.253-1.266V14.12
		c0-0.694-0.566-1.26-1.253-1.26H17.33V12.854z M193.657,333.488H17.33c-7.783,0-14.12-6.33-14.12-14.12v-14.756
		c0-7.783,6.337-14.113,14.12-14.113h143.98l1.902,2.018c10.739,11.395,24.236,19.788,39.011,24.268l7.494,2.275l-3.689,6.909
		C203.535,330.609,198.804,333.488,193.657,333.488z M17.33,303.353c-0.701,0-1.266,0.566-1.266,1.26v14.756
		c0,0.694,0.566,1.266,1.266,1.266h161.275c-8.31-4.64-16.003-10.456-22.796-17.282H17.33z M156.047,285.075H17.33
		c-7.783,0-14.12-6.33-14.12-14.12v-14.762c0-7.783,6.337-14.107,14.12-14.107h122.052l0.958,5.276
		c1.8,9.929,5.231,19.383,10.212,28.098L156.047,285.075z M17.33,254.933c-0.701,0-1.266,0.566-1.266,1.253v14.762
		c0,0.694,0.566,1.266,1.266,1.266h117.232c-2.436-5.566-4.364-11.343-5.765-17.282H17.33z M138.81,236.662H17.33
		c-7.783,0-14.12-6.33-14.12-14.12V207.78c0-7.783,6.337-14.113,14.12-14.113h129.398l-2.943,8.522
		c-3.149,9.12-4.801,18.58-4.91,28.117L138.81,236.662z M17.33,206.52c-0.701,0-1.266,0.566-1.266,1.26v14.756
		c0,0.694,0.566,1.266,1.266,1.266h108.961c0.431-5.816,1.369-11.6,2.802-17.282H17.33z M149.922,188.242H17.33
		c-7.783,0-14.12-6.33-14.12-14.12v-14.756c0-7.789,6.337-14.12,14.12-14.12h178.923l-17.622,11.774
		c-10.733,7.16-20.013,16.89-26.832,28.13L149.922,188.242z M17.33,158.1c-0.701,0-1.266,0.572-1.266,1.266v14.756
		c0,0.694,0.566,1.266,1.266,1.266h125.439c4.113-6.266,8.908-12.082,14.235-17.288H17.33z M211.934,241.784
		c-2.674-1.279-5.019-2.873-7.057-4.794c-2.037-1.922-3.728-4.055-5.084-6.388c-1.356-2.333-2.372-4.82-3.053-7.455
		c-0.681-2.635-1.015-5.309-1.015-8.021v-24.287h16.202v24.287c0,2.224,0.424,4.319,1.279,6.298
		c0.842,1.973,1.999,3.702,3.464,5.174c1.465,1.472,3.201,2.622,5.174,3.464c1.986,0.855,4.081,1.279,6.298,1.279
		s4.306-0.424,6.266-1.279c1.96-0.842,3.676-1.999,5.148-3.464c1.472-1.465,2.622-3.201,3.477-5.174
		c0.842-1.986,1.266-4.081,1.266-6.298v-24.287h16.202v24.287c0,2.712-0.366,5.437-1.093,8.162c-0.739,2.738-1.806,5.296-3.201,7.68
		c-1.395,2.397-3.098,4.531-5.109,6.414c-2.018,1.883-4.319,3.348-6.915,4.409h13.445v15.367h-21.414v14.685h-16.202v-14.685
		h-21.414V241.79h13.336V241.784z M228.117,333.488c-56.325,0-102.155-45.83-102.155-102.161
		c0-56.325,45.83-102.148,102.155-102.148c56.338,0,102.161,45.823,102.161,102.148
		C330.278,287.659,284.448,333.488,228.117,333.488z M228.117,142.033c-49.236,0-89.301,40.052-89.301,89.294
		s40.065,89.307,89.294,89.307c49.242,0,89.307-40.065,89.307-89.307C317.425,182.085,277.36,142.033,228.117,142.033z"/>
</g>
<g>
</g>
<g>
</g>
<g>
</g>
<g>
</g>
<g>
</g>
<g>
</g>
<g>
</g>
<g>
</g>
<g>
</g>
<g>
</g>
<g>
</g>
<g>
</g>
<g>
</g>
<g>
</g>
<g>
</g>
</svg>
