<?xml version="1.0" encoding="iso-8859-1"?>
<!-- Generator: Adobe Illustrator 19.1.0, SVG Export Plug-In . SVG Version: 6.00 Build 0)  -->
<svg version="1.1" id="Capa_1" xmlns="http://www.w3.org/2000/svg" xmlns:xlink="http://www.w3.org/1999/xlink" x="0px" y="0px"
	 viewBox="0 0 314.806 314.806" style="enable-background:new 0 0 314.806 314.806;" xml:space="preserve">
<g>
	<path d="M281.302,58.529c-2.461-4.724-8.271-6.581-12.995-4.12L221.68,78.581l-5.694,0.199l17.327-38.612
		c6.08-13.593,0.026-29.557-13.554-35.65c-3.573-1.607-7.307-2.365-10.983-2.365c-9.936,0-19.428,5.559-24.126,14.955
		C179.244,7.063,165.606,0,149.597,0c-0.315,0-0.63,0-0.945,0.006c-12.115,0.206-22.809,4.415-29.666,10.791
		c-5.174-6.022-12.712-9.48-20.514-9.48c-3.618,0-7.294,0.733-10.829,2.301c-13.606,6.048-19.73,21.993-13.683,35.605l19.473,43.818
		l-0.006,0.019l-6.864,0.244c-5.321,0.186-9.492,4.653-9.293,9.974c0.148,4.518,3.406,8.188,7.635,9.088L38.567,207.24h0.064
		c-3.965,8.111-6.208,16.748-6.208,25.772c0,45.168,53.966,81.794,120.548,81.794c66.556,0,120.535-36.614,120.535-81.794
		c0-9.01-2.243-17.661-6.202-25.772h0.051L216.866,98.041l5.893-0.206l44.21,14.968c1.028,0.347,2.069,0.514,3.091,0.514
		c4.023,0,7.77-2.539,9.133-6.562c1.71-5.039-0.996-10.514-6.035-12.217l-24.428-8.271l28.445-14.75
		C281.899,69.069,283.75,63.253,281.302,58.529z M85.695,34.017c-3.156-7.115,0.051-15.476,7.159-18.638
		c1.793-0.797,3.676-1.202,5.604-1.202c4.12,0,8.04,1.812,10.765,4.987l8.702,10.142l9.788-9.094
		c4.807-4.454,12.719-7.217,21.151-7.359l0.726-0.006c12.481,0,21.048,5.36,23.734,10.334l11.735,21.826l11.08-22.173
		c2.416-4.839,7.256-7.847,12.629-7.847c1.967,0,3.888,0.411,5.72,1.228c7.095,3.188,10.283,11.568,7.095,18.664l-19.756,44.024
		c-0.064,0.129-0.135,0.238-0.212,0.36l-94.327,3.336l-2.114-4.756L85.695,34.017z M247.239,194.405h-0.546l9.043,18.503
		c3.258,6.639,4.904,13.406,4.904,20.122c0,37.359-49.313,68.941-107.682,68.941S45.27,270.396,45.27,233.031
		c0-6.716,1.652-13.484,4.897-20.122l8.985-18.503h-0.861l40.746-92.231l103.896-3.638L247.239,194.405z M171.621,212.214h16.228
		c0,3.355-0.649,6.504-1.896,9.441c-1.273,2.937-3.001,5.495-5.206,7.706c-2.211,2.198-4.775,3.946-7.744,5.225
		c-2.95,1.279-6.099,1.922-9.454,1.922h-35.99v-30.894h-9.383v-15.373h9.377v-10.456c0-3.348,0.636-6.491,1.922-9.428
		c1.285-2.937,3.027-5.508,5.225-7.712c2.217-2.198,4.782-3.946,7.719-5.225c2.937-1.279,6.08-1.928,9.428-1.928h6.838v16.215
		h-6.838c-1.131,0-2.185,0.199-3.156,0.617c-0.977,0.418-1.832,0.996-2.571,1.735c-0.733,0.726-1.305,1.587-1.722,2.558
		c-0.418,0.977-0.623,2.031-0.623,3.162v10.456h11.356v15.373h-11.356v14.679h19.769c1.131,0,2.185-0.206,3.162-0.63
		s1.832-0.996,2.551-1.722c0.746-0.739,1.318-1.594,1.742-2.571C171.422,214.386,171.621,213.345,171.621,212.214z"/>
</g>
<g>
</g>
<g>
</g>
<g>
</g>
<g>
</g>
<g>
</g>
<g>
</g>
<g>
</g>
<g>
</g>
<g>
</g>
<g>
</g>
<g>
</g>
<g>
</g>
<g>
</g>
<g>
</g>
<g>
</g>
</svg>
