<?xml version="1.0" encoding="iso-8859-1"?>
<!-- Generator: Adobe Illustrator 19.1.0, SVG Export Plug-In . SVG Version: 6.00 Build 0)  -->
<svg version="1.1" id="Capa_1" xmlns="http://www.w3.org/2000/svg" xmlns:xlink="http://www.w3.org/1999/xlink" x="0px" y="0px"
	 viewBox="0 0 333.488 333.488" style="enable-background:new 0 0 333.488 333.488;" xml:space="preserve">
<g>
	<path d="M193.66,139.829H17.333c-7.783,0-14.12-6.337-14.12-14.126v-14.756c0-7.783,6.337-14.113,14.12-14.113H193.66
		c7.783,0,14.107,6.33,14.107,14.113v14.756C207.773,133.492,201.443,139.829,193.66,139.829z M17.333,109.687
		c-0.701,0-1.266,0.566-1.266,1.26v14.756c0,0.701,0.566,1.273,1.266,1.273H193.66c0.688,0,1.253-0.572,1.253-1.273v-14.756
		c0-0.694-0.566-1.26-1.253-1.26H17.333z M193.66,91.409H17.333c-7.783,0-14.12-6.337-14.12-14.12V62.533
		c0-7.783,6.337-14.113,14.12-14.113H193.66c7.783,0,14.107,6.33,14.107,14.113v14.756C207.773,85.072,201.443,91.409,193.66,91.409
		z M17.333,61.273c-0.701,0-1.266,0.566-1.266,1.26v14.756c0,0.701,0.566,1.266,1.266,1.266H193.66c0.688,0,1.253-0.566,1.253-1.266
		V62.533c0-0.694-0.566-1.26-1.253-1.26H17.333z M193.66,42.996H17.333c-7.783,0-14.12-6.337-14.12-14.12V14.12
		C3.213,6.337,9.55,0,17.333,0H193.66c7.783,0,14.107,6.33,14.107,14.113v14.756C207.773,36.659,201.443,42.996,193.66,42.996z
		 M17.333,12.854c-0.701,0-1.266,0.566-1.266,1.266v14.756c0,0.701,0.566,1.266,1.266,1.266H193.66c0.688,0,1.253-0.566,1.253-1.266
		V14.12c0-0.694-0.566-1.26-1.253-1.26H17.333V12.854z M193.66,333.488H17.333c-7.783,0-14.12-6.33-14.12-14.12v-14.756
		c0-7.783,6.337-14.113,14.12-14.113h143.98l1.902,2.018c10.739,11.395,24.236,19.788,39.011,24.268l7.494,2.275l-3.689,6.909
		C203.538,330.609,198.808,333.488,193.66,333.488z M17.333,303.353c-0.701,0-1.266,0.566-1.266,1.26v14.756
		c0,0.694,0.566,1.266,1.266,1.266h161.275c-8.31-4.64-16.003-10.456-22.796-17.282H17.333z M156.05,285.075H17.333
		c-7.783,0-14.12-6.33-14.12-14.12v-14.762c0-7.783,6.337-14.107,14.12-14.107h122.052l0.958,5.276
		c1.8,9.929,5.231,19.383,10.212,28.098L156.05,285.075z M17.333,254.933c-0.701,0-1.266,0.566-1.266,1.253v14.762
		c0,0.694,0.566,1.266,1.266,1.266h117.232c-2.436-5.566-4.364-11.343-5.765-17.282H17.333z M138.813,236.662H17.333
		c-7.783,0-14.12-6.33-14.12-14.12V207.78c0-7.783,6.337-14.113,14.12-14.113h129.398l-2.943,8.522
		c-3.149,9.12-4.801,18.58-4.91,28.117L138.813,236.662z M17.333,206.52c-0.701,0-1.266,0.566-1.266,1.26v14.756
		c0,0.694,0.566,1.266,1.266,1.266h108.961c0.431-5.816,1.369-11.6,2.802-17.282H17.333z M149.925,188.242H17.333
		c-7.783,0-14.12-6.33-14.12-14.12V159.36c0-7.783,6.337-14.107,14.12-14.107h178.936l-17.648,11.774
		c-10.72,7.153-19.994,16.883-26.819,28.124L149.925,188.242z M17.333,158.107c-0.701,0-1.266,0.566-1.266,1.253v14.762
		c0,0.694,0.566,1.266,1.266,1.266h125.439c4.113-6.266,8.908-12.076,14.229-17.282C157.001,158.107,17.333,158.107,17.333,158.107z
		 M262.947,241.116c0,3.348-0.643,6.504-1.896,9.441c-1.266,2.937-3.001,5.495-5.199,7.706c-2.211,2.198-4.782,3.94-7.744,5.225
		c-2.95,1.279-6.099,1.922-9.454,1.922h-35.99v-30.894h-9.377v-15.367h9.377v-10.456c0-3.348,0.643-6.491,1.922-9.428
		s3.027-5.508,5.225-7.712c2.211-2.204,4.782-3.946,7.719-5.225c2.937-1.279,6.073-1.922,9.428-1.922h6.838v16.215h-6.838
		c-1.131,0-2.185,0.199-3.162,0.617s-1.832,0.99-2.571,1.729c-0.726,0.733-1.305,1.587-1.722,2.564
		c-0.418,0.977-0.617,2.031-0.617,3.162v10.456h11.35v15.367h-11.35V249.2h19.769c1.131,0,2.185-0.212,3.162-0.63
		s1.832-0.99,2.558-1.722c0.739-0.739,1.318-1.594,1.735-2.571c0.418-0.977,0.617-2.031,0.617-3.162
		C246.726,241.116,262.947,241.116,262.947,241.116z M228.12,333.488c-56.325,0-102.155-45.83-102.155-102.161
		s45.823-102.155,102.148-102.155c56.338,0,102.161,45.823,102.161,102.155C330.281,287.659,284.452,333.488,228.12,333.488z
		 M228.12,142.027c-49.236,0-89.301,40.058-89.301,89.301s40.065,89.307,89.294,89.307c49.242,0,89.307-40.065,89.307-89.307
		C317.428,182.085,277.363,142.027,228.12,142.027z"/>
</g>
<g>
</g>
<g>
</g>
<g>
</g>
<g>
</g>
<g>
</g>
<g>
</g>
<g>
</g>
<g>
</g>
<g>
</g>
<g>
</g>
<g>
</g>
<g>
</g>
<g>
</g>
<g>
</g>
<g>
</g>
</svg>
