<?xml version="1.0" encoding="iso-8859-1"?>
<!-- Generator: Adobe Illustrator 19.1.0, SVG Export Plug-In . SVG Version: 6.00 Build 0)  -->
<svg version="1.1" id="Capa_1" xmlns="http://www.w3.org/2000/svg" xmlns:xlink="http://www.w3.org/1999/xlink" x="0px" y="0px"
	 viewBox="0 0 328.231 328.231" style="enable-background:new 0 0 328.231 328.231;" xml:space="preserve">
<g>
	<path d="M239.849,64.603C236.186,28.368,205.504,0,168.319,0c-39.647,0-71.903,32.263-71.903,71.903h-0.013v206.918
		c0,15.045-12.237,27.288-27.275,27.288s-27.275-12.243-27.275-27.288V108.954h7.275c7.095,0,12.854-5.758,12.854-12.854V38.259
		h-8.837V17.372H17.796v20.887H8.953V96.1c0,7.095,5.758,12.854,12.854,12.854h7.185v169.868c0,22.128,18.008,40.142,40.129,40.142
		c22.128,0,40.129-18.014,40.129-40.142V71.903h0.013c0-32.558,26.485-59.05,59.05-59.05c30.103,0,54.956,22.648,58.542,51.794
		c-43.985,3.509-78.722,40.354-78.722,85.239v92.778c0,47.192,38.4,85.567,85.573,85.567c47.192,0,85.573-38.394,85.573-85.567
		V149.88C319.304,104.757,284.175,67.771,239.849,64.603z M306.451,242.658c0,40.103-32.623,72.713-72.726,72.713
		c-40.097,0-72.72-32.61-72.72-72.713V149.88c0-40.103,32.623-72.732,72.72-72.732c40.103,0,72.726,32.629,72.726,72.732
		C306.451,149.88,306.451,242.658,306.451,242.658z M244.361,127.02v34.904c0,5.887-4.756,10.643-10.636,10.643
		c-5.874,0-10.636-4.756-10.636-10.643V127.02c0-5.868,4.762-10.624,10.636-10.624C239.605,116.396,244.361,121.159,244.361,127.02z
		"/>
</g>
<g>
</g>
<g>
</g>
<g>
</g>
<g>
</g>
<g>
</g>
<g>
</g>
<g>
</g>
<g>
</g>
<g>
</g>
<g>
</g>
<g>
</g>
<g>
</g>
<g>
</g>
<g>
</g>
<g>
</g>
</svg>
