<?xml version="1.0" encoding="iso-8859-1"?>
<!-- Generator: Adobe Illustrator 19.1.0, SVG Export Plug-In . SVG Version: 6.00 Build 0)  -->
<svg version="1.1" id="Capa_1" xmlns="http://www.w3.org/2000/svg" xmlns:xlink="http://www.w3.org/1999/xlink" x="0px" y="0px"
	 viewBox="0 0 333.857 333.857" style="enable-background:new 0 0 333.857 333.857;" xml:space="preserve">
<g>
	<g>
		<path d="M167.156,333.65l-1.144-0.032c-1.112-0.058-2.224-0.193-3.316-0.418c-0.533-0.103-1.125-0.276-1.71-0.469
			c-1.183-0.334-1.838-0.533-2.487-0.803c-0.585-0.244-1.131-0.533-1.671-0.835l-0.739-0.398c-0.469-0.238-0.938-0.488-1.395-0.784
			c-1.305-0.893-2.449-1.812-3.477-2.841l-36.286-36.286c-4.248-4.261-6.581-9.91-6.581-15.913c0-6.016,2.339-11.658,6.594-15.906
			c7.828-7.809,21.093-8.554,29.686-1.87l-0.006-67.668l-67.675-0.006c3.072,3.933,4.724,8.74,4.724,13.811
			c0,6.009-2.346,11.652-6.594,15.894c-8.496,8.522-23.374,8.458-31.813-0.013L7.044,182.876c-1.048-1.028-2.024-2.217-2.873-3.49
			c-0.289-0.437-0.54-0.906-0.778-1.375c-0.636-1.131-0.99-1.793-1.279-2.5c-0.238-0.559-0.418-1.17-0.591-1.774l-0.219-0.739
			c-0.18-0.546-0.353-1.093-0.463-1.665c-0.231-1.183-0.379-2.359-0.418-3.541L0,165.973l0.488-0.868
			c0.071-0.861,0.193-1.729,0.366-2.577c0.103-0.546,0.27-1.125,0.456-1.69l0.193-0.63c0.174-0.656,0.373-1.298,0.636-1.928
			c0.257-0.611,0.566-1.189,0.893-1.755l0.315-0.585c0.244-0.488,0.501-0.97,0.81-1.446c0.88-1.298,1.806-2.442,2.841-3.477
			l36.286-36.286c8.516-8.496,23.342-8.483,31.806,0.013c4.248,4.242,6.588,9.897,6.588,15.906c0,5.051-1.658,9.852-4.717,13.779
			h67.668V76.756c-8.593,6.697-21.877,5.958-29.705-1.87c-8.766-8.766-8.76-23.04,0.006-31.806l36.794-36.774
			c0.913-0.848,1.883-1.62,2.924-2.314c0.437-0.296,0.932-0.566,1.44-0.823l0.675-0.373c0.585-0.328,1.17-0.643,1.793-0.893
			c0.559-0.238,1.189-0.424,1.819-0.604l0.752-0.225c0.508-0.161,1.022-0.321,1.562-0.424c2.982-0.591,5.971-0.585,8.85-0.006
			c0.521,0.109,1.06,0.263,1.594,0.437l0.649,0.186c0.643,0.18,1.279,0.373,1.909,0.63c0.649,0.27,1.195,0.566,1.742,0.874
			l0.591,0.321c0.572,0.283,1.131,0.585,1.658,0.951c1.028,0.681,2.018,1.51,2.956,2.397l36.684,36.639
			c4.248,4.261,6.581,9.91,6.581,15.906c0,6.016-2.339,11.658-6.588,15.913c-7.815,7.834-21.086,8.567-29.686,1.877v67.662
			l67.681,0.006c-6.845-8.818-6.228-21.601,1.87-29.705c8.503-8.509,23.317-8.49,31.806,0.006l36.858,36.884
			c0.81,0.88,1.555,1.819,2.224,2.815c0.328,0.488,0.585,0.964,0.836,1.465l0.315,0.578c0.347,0.611,0.668,1.215,0.938,1.87
			c0.244,0.604,0.437,1.228,0.617,1.864l0.199,0.675c0.174,0.54,0.341,1.086,0.45,1.658c0.578,2.899,0.578,5.868-0.006,8.785
			c-0.103,0.533-0.263,1.067-0.431,1.6l-0.193,0.649c-0.18,0.662-0.379,1.305-0.636,1.941c-0.257,0.617-0.553,1.17-0.868,1.722
			l-0.347,0.643c-0.27,0.54-0.559,1.067-0.9,1.568c-0.701,1.048-1.536,2.037-2.41,2.969l-0.527,0.578l-36.125,36.119
			c-8.516,8.509-23.355,8.451-31.813-0.006c-8.091-8.098-8.708-20.868-1.87-29.686l-67.675-0.006v67.675
			c8.586-6.697,21.883-5.971,29.705,1.864c4.255,4.261,6.588,9.917,6.581,15.926c0.006,5.996-2.327,11.652-6.588,15.9
			l-36.241,36.228c-1.015,1.035-2.204,2.012-3.49,2.866c-0.411,0.283-0.932,0.559-1.446,0.816c-1.067,0.604-1.735,0.958-2.429,1.247
			c-0.623,0.257-1.228,0.437-1.838,0.604c-1.183,0.379-1.748,0.553-2.346,0.668c-1.298,0.257-2.603,0.405-3.901,0.424
			L167.156,333.65z M130.863,265.236c-2.571,0-5,1.003-6.825,2.821c-3.76,3.753-3.76,9.865,0,13.638l36.279,36.286
			c0.463,0.463,0.977,0.874,1.51,1.234l2.719,1.157l0.784,0.251c0.553,0.116,1.183,0.174,1.806,0.174h0.051
			c0.617,0,1.234-0.064,1.844-0.186l3.4-1.427c0.604-0.379,1.099-0.784,1.53-1.221l36.286-36.273
			c1.819-1.819,2.821-4.235,2.815-6.806c0.006-2.59-0.996-5.007-2.821-6.838c-3.631-3.631-10-3.625-13.631,0.006l-19.833,19.833
			V176.571l111.306,0.006l-19.814,19.814c-3.76,3.76-3.76,9.878-0.006,13.638c3.618,3.618,9.974,3.657,13.644,0l36.357-36.402
			c0.418-0.437,0.803-0.868,1.125-1.35l1.382-3.323c0.302-1.382,0.302-2.654,0.051-3.901l-1.395-3.355
			c-0.328-0.527-0.675-0.97-1.048-1.375l-0.463-0.469L281.9,123.839c-3.65-3.644-9.994-3.65-13.631,0
			c-3.76,3.753-3.76,9.872-0.006,13.631l19.833,19.833l-111.319-0.006V45.991l19.814,19.807c3.65,3.644,10,3.644,13.638,0.006
			c1.819-1.819,2.821-4.242,2.821-6.825c0-2.571-1.003-4.994-2.821-6.825l-36.402-36.35c-0.443-0.424-0.874-0.803-1.35-1.118
			l-3.336-1.388c-1.497-0.353-2.661-0.302-3.901-0.045l-3.329,1.375c-0.649,0.405-1.138,0.81-1.594,1.253l-0.032,0.032
			l-36.26,36.254c-3.76,3.76-3.76,9.878-0.006,13.631c3.638,3.644,10,3.631,13.638,0.006l19.833-19.833v111.313H46.183l19.82-19.82
			c1.825-1.819,2.828-4.235,2.828-6.812c0-2.577-1.003-4.994-2.828-6.825c-3.638-3.644-9.981-3.644-13.631,0l-36.286,36.279
			c-0.456,0.456-0.861,0.964-1.221,1.497l-1.356,3.303c-0.167,0.746-0.238,1.388-0.238,2.018v0.058c0,0.617,0.071,1.234,0.186,1.838
			l0.463,1.491c0.161,0.482,0.283,0.668,0.392,0.848l0.578,1.08c0.36,0.566,0.765,1.06,1.215,1.504l36.273,36.279
			c3.67,3.683,10.032,3.605,13.625,0.006c1.825-1.825,2.828-4.242,2.828-6.812c0-2.577-1.003-5-2.821-6.832l-19.833-19.833
			l111.313,0.006l0.006,111.306l-19.82-19.82C135.857,266.238,133.434,265.236,130.863,265.236z"/>
	</g>
</g>
<g>
</g>
<g>
</g>
<g>
</g>
<g>
</g>
<g>
</g>
<g>
</g>
<g>
</g>
<g>
</g>
<g>
</g>
<g>
</g>
<g>
</g>
<g>
</g>
<g>
</g>
<g>
</g>
<g>
</g>
</svg>
