<?xml version='1.0' encoding='iso-8859-1'?>
<svg version="1.1" xmlns="http://www.w3.org/2000/svg" viewBox="0 0 44 44" xmlns:xlink="http://www.w3.org/1999/xlink" enable-background="new 0 0 44 44">
  <g>
    <g>
      <polygon points="14.928,7.926 14.928,10.004 28.31,9.044 40.947,8.073 40.947,6.06   "/>
    </g>
  </g>
  <g>
    <g>
      <path d="m42,0l-28,2c-0.553,0-1,0.447-1,1v30.81c-1.271-1.115-3.039-1.81-5-1.81-3.866,0-7,2.687-7,6s3.134,6 7,6 7-2.687 7-6v-26.071l26-1.857v21.738c-1.271-1.115-3.039-1.81-5-1.81-3.866,0-7,2.687-7,6s3.134,6 7,6 7-2.687 7-6v-35c0-0.553-0.447-1-1-1zm-34,42c-2.762,0-5-1.791-5-4s2.238-4 5-4 5,1.791 5,4-2.238,4-5,4zm28-2c-2.762,0-5-1.791-5-4s2.238-4 5-4 5,1.791 5,4-2.238,4-5,4zm5-32l-26,2v-6l26-2v6z"/>
    </g>
  </g>
</svg>
