<?xml version='1.0' encoding='iso-8859-1'?>
<svg version="1.1" xmlns="http://www.w3.org/2000/svg" viewBox="0 0 44 44" xmlns:xlink="http://www.w3.org/1999/xlink" enable-background="new 0 0 44 44">
  <g>
    <g>
      <path d="m35.433,11.97c0,0 0.169-1.115 0.003-1.886-0.167-0.778-0.935-1.459-0.935-1.459-1.847-2.043-6.004-3.506-10.892-3.619v-0.022h-2.344v2h2.235v0.016c5.576,0.1 10.027,1.856 10.027,4 0,0.346-0.097,0.617-0.095,1l.063-.031c0,0.553 0.386,1.031 0.939,1.031 0.553,0 0.877-0.635 1.002-1 0.003-0.01-0.006-0.019-0.006-0.03h0.003z"/>
    </g>
  </g>
  <g>
    <g>
      <path d="m35.401,13.97c0.512-1.214 1.099-2.655 1.099-3.97 0-7.369-1.6-9.938-15.986-9.997-0.005-1.13624e-16-0.009-0.003-0.014-0.003s-0.009,0.003-0.014,0.003l-.986,.013v33.789c-1.271-1.113-3.04-1.805-5-1.805-3.866,0-7,2.687-7,6s3.134,6 7,6 7-2.687 7-6v-29l2,.01c5.565,0.1 10,1.846 10,3.99 0,0.346-0.096,0.617-0.094,1 0,0.553 0.447,1 1,1 0.553,0 0.875-0.635 1-1 0.004-0.01-0.006-0.019-0.005-0.03zm-20.901,28.03c-2.762,0-5-1.791-5-4s2.238-4 5-4 5,1.791 5,4-2.238,4-5,4zm19.972-31.375c-1.858-2.059-6.045-3.519-10.972-3.613l-2-.012v-5.021c11.639-0.08 13,2.098 13,8.021 0,0.191-0.012,0.404-0.028,0.625z"/>
    </g>
  </g>
</svg>
