<?xml version="1.0" encoding="iso-8859-1"?>
<!-- Generator: Adobe Illustrator 19.1.0, SVG Export Plug-In . SVG Version: 6.00 Build 0)  -->
<svg version="1.1" id="Capa_1" xmlns="http://www.w3.org/2000/svg" xmlns:xlink="http://www.w3.org/1999/xlink" x="0px" y="0px"
	 viewBox="0 0 327.597 327.597" style="enable-background:new 0 0 327.597 327.597;" xml:space="preserve">
<g>
	<path d="M182.316,124.781V38.777c0-5.264-4.267-9.537-9.531-9.537c-5.27,0-9.537,4.274-9.537,9.537v0.887
		c-1.652,0.533-3.374,1.356-5.154,2.474l-65.2,41.132c-7.14,4.505-17.07,10.771-26.331,16.613H32.134
		C14.415,99.883,0,114.299,0,132.018v63.549C0,213.291,14.415,227.7,32.134,227.7h34.435c9.248,5.836,19.178,12.115,26.318,16.607
		l65.2,41.145c1.774,1.118,3.503,1.934,5.154,2.474v0.893c0,5.257,4.267,9.537,9.537,9.537c5.264,0,9.531-4.28,9.531-9.537v-86.004
		c11.446-9.19,18.863-23.194,18.863-39.017C201.173,147.969,193.763,133.978,182.316,124.781z M54.583,214.853H32.134
		c-10.63,0-19.281-8.651-19.281-19.281v-63.549c0-10.63,8.651-19.281,19.281-19.281h22.443v102.11H54.583z M163.242,273.511
		l-63.491-40.065l-23.644-14.91l-8.406-5.309V114.37l4.152-2.622l27.892-17.597l63.491-40.058v219.419H163.242z M323.045,186.909
		c6.067,6.073,6.067,15.906,0,21.98c-6.061,6.061-15.906,6.061-21.967,0l-23.111-23.124l-23.111,23.124
		c-6.073,6.061-15.906,6.061-21.967,0c-6.061-6.073-6.061-15.906,0-21.98L256,163.798l-23.111-23.117
		c-6.073-6.061-6.073-15.9,0-21.967c6.061-6.061,15.9-6.061,21.96,0l23.117,23.111l23.111-23.111c6.067-6.061,15.906-6.061,21.973,0
		c6.061,6.061,6.061,15.906,0,21.967l-23.117,23.117L323.045,186.909z"/>
</g>
<g>
</g>
<g>
</g>
<g>
</g>
<g>
</g>
<g>
</g>
<g>
</g>
<g>
</g>
<g>
</g>
<g>
</g>
<g>
</g>
<g>
</g>
<g>
</g>
<g>
</g>
<g>
</g>
<g>
</g>
</svg>
