<?xml version="1.0" encoding="iso-8859-1"?>
<!-- Generator: Adobe Illustrator 19.1.0, SVG Export Plug-In . SVG Version: 6.00 Build 0)  -->
<svg version="1.1" id="Capa_1" xmlns="http://www.w3.org/2000/svg" xmlns:xlink="http://www.w3.org/1999/xlink" x="0px" y="0px"
	 viewBox="0 0 324.549 324.549" style="enable-background:new 0 0 324.549 324.549;" xml:space="preserve">
<g>
	<g>
		<path d="M188.557,298.158c-6.009,0-11.652-2.333-15.913-6.581c-4.242-4.242-6.581-9.897-6.581-15.913
			c0-6.009,2.339-11.652,6.581-15.906l75.11-75.11H22.494C10.084,184.647,0,174.557,0,162.153c0-12.41,10.084-22.494,22.494-22.494
			h225.254L172.65,64.581c-4.242-4.248-6.581-9.897-6.581-15.913s2.339-11.652,6.581-15.913c8.49-8.483,23.31-8.49,31.806,0
			l113.504,113.498c1.015,1.022,1.967,2.172,2.809,3.419c0.334,0.482,0.598,0.977,0.848,1.478c0.643,1.157,0.958,1.755,1.221,2.404
			c0.251,0.617,0.443,1.247,0.63,1.902l0.199,0.668c0.154,0.508,0.328,1.003,0.431,1.536c0.302,1.555,0.45,3.021,0.45,4.48
			c0,1.472-0.148,2.931-0.437,4.37c-0.135,0.649-0.289,1.189-0.456,1.729l-0.199,0.668c-0.167,0.649-0.379,1.266-0.63,1.889
			c-0.264,0.63-0.611,1.26-0.964,1.909c-0.508,0.983-0.771,1.472-1.08,1.928c-0.842,1.247-1.799,2.429-2.866,3.49l-113.453,113.44
			C200.215,295.819,194.566,298.158,188.557,298.158z M22.494,152.526c-5.315,0-9.64,4.325-9.64,9.64c0,5.309,4.325,9.64,9.64,9.64
			h256.283l-97.045,97.045c-1.819,1.812-2.815,4.235-2.815,6.819s0.996,4.994,2.815,6.832c3.631,3.631,9.994,3.631,13.631,0
			l113.453-113.446c0.476-0.476,0.9-0.977,1.247-1.523l1.356-3.258c0.186-0.79,0.263-1.433,0.263-2.069
			c0-0.656-0.077-1.298-0.193-1.941l-1.382-3.303c-0.405-0.649-0.79-1.144-1.24-1.594L195.369,41.85c-3.631-3.625-10-3.631-13.631,0
			c-1.819,1.819-2.815,4.242-2.815,6.825c0,2.571,0.996,4.987,2.815,6.825l97.052,97.045H22.494V152.526z"/>
	</g>
</g>
<g>
</g>
<g>
</g>
<g>
</g>
<g>
</g>
<g>
</g>
<g>
</g>
<g>
</g>
<g>
</g>
<g>
</g>
<g>
</g>
<g>
</g>
<g>
</g>
<g>
</g>
<g>
</g>
<g>
</g>
</svg>
