<?xml version='1.0' encoding='iso-8859-1'?>
<svg version="1.1" xmlns="http://www.w3.org/2000/svg" viewBox="0 0 44 44" xmlns:xlink="http://www.w3.org/1999/xlink" enable-background="new 0 0 44 44">
  <g>
    <g>
      <path d="m15,16c0.553,0 1-0.447 1-1s-0.447-1-1-1h-5c-1.104,0-2,0.896-2,2v5c0,1.104 0.896,2 2,2h5c0.553,0 1-0.447 1-1s-0.447-1-1-1h-5v-5h5zm19-2h-11c-0.553,0-1,0.447-1,1s0.447,1 1,1h11v5h-5c-0.553,0-1,0.447-1,1s0.447,1 1,1h5c1.104,0 2-0.896 2-2v-5c0-1.104-0.896-2-2-2zm-14.233,2.283c-0.41-0.41-1.074-0.41-1.483,0-0.238,0.237-0.321,0.558-0.283,0.867v7.85c0,0.553 0.447,1 1,1 0.11,0 0.213-0.03 0.312-0.063l.004,.012 .07-.026c0.001-0.001 0.003-0.001 0.004-0.002l1.978-.752 1.703,4.175c0.219,0.535 0.803,0.78 1.306,0.548 0.503-0.232 0.733-0.854 0.515-1.39l-1.65-4.046 1.825-.694-.003-.008c0.142-0.051 0.275-0.126 0.388-0.239 0.41-0.409 0.41-1.073 0-1.483l-5.686-5.749zm.233,7.268v-4.048l2.909,2.94-2.909,1.108zm22,8.449v-26c0-1.104-0.896-2-2-2h-36c-1.104,0-2,0.896-2,2v26c-1.104,0-2,0.896-2,2v4c0,1.104 0.896,2 2,2h40c1.104,0 2-0.896 2-2v-4c0-1.104-0.896-2-2-2zm-38-26h36v4h-36v-4zm0,6h36v20h-36v-20zm38,26h-40v-4h40v4z"/>
    </g>
  </g>
</svg>
