<?xml version='1.0' encoding='iso-8859-1'?>
<svg version="1.1" xmlns="http://www.w3.org/2000/svg" viewBox="0 0 44.004 44.004" xmlns:xlink="http://www.w3.org/1999/xlink" enable-background="new 0 0 44.004 44.004">
  <g>
    <g>
      <path d="m40.986,32.781v-21.586c0.017-0.097 0.01-0.192-0.004-0.288-0.001-0.153-0.023-0.306-0.107-0.448-0.147-0.248-0.399-0.37-0.667-0.42l-8.44-4.706c-0.156-0.18-0.361-0.294-0.592-0.329l-8.483-4.73c-0.31-0.287-0.779-0.367-1.17-0.148l-17.743,9.917c-0.262,0.053-0.507,0.173-0.651,0.415-0.084,0.142-0.106,0.294-0.107,0.446-0.015,0.096-0.021,0.192-0.005,0.289v21.586c-0.029,0.171-0.005,0.339 0.059,0.498 0.105,0.339 0.379,0.588 0.729,0.666l17.507,9.786c0.31,0.287 0.779,0.368 1.17,0.149l17.732-9.938c0.341-0.082 0.607-0.325 0.713-0.657 0.063-0.16 0.089-0.329 0.059-0.502zm-19.008-30.694l6.987,3.896-15.909,8.916-6.999-3.912 15.921-8.9zm-.975,39.254l-15.988-8.937v-19.783l7.254,4.054c0.148,0.161 0.335,0.268 0.546,0.306l8.187,4.577v19.783zm1.023-21.429l-6.983-3.904 15.912-8.917 6.992,3.898-15.921,8.923zm16.963,12.493l-15.987,8.959v-19.777l15.987-8.959v19.777zm-12.989-1.419c0.162,0 0.31-0.048 0.445-0.117 0.002-0.001 0.004-0.001 0.006-0.002l5.048-3.037c0.291-0.175 0.496-0.479 0.496-0.844v-6c0-0.553-0.448-1-1-1-0.158,0-0.303,0.045-0.436,0.11-0.008,0.005-0.018,0.004-0.025,0.009l-5.045,3.041c-0.287,0.176-0.489,0.479-0.489,0.84v6c0,0.553 0.448,1 1,1zm.999-6.446l2.997-1.789v3.676l-2.997,1.79v-3.677z"/>
    </g>
  </g>
</svg>
