<?xml version="1.0" encoding="iso-8859-1"?>
<!-- Generator: Adobe Illustrator 19.1.0, SVG Export Plug-In . SVG Version: 6.00 Build 0)  -->
<svg version="1.1" id="Capa_1" xmlns="http://www.w3.org/2000/svg" xmlns:xlink="http://www.w3.org/1999/xlink" x="0px" y="0px"
	 viewBox="0 0 328.816 328.816" style="enable-background:new 0 0 328.816 328.816;" xml:space="preserve">
<g>
	<path d="M253.982,328.816H74.834c-24.801,0-44.988-20.187-44.988-44.988V174.572c0-24.043,18.959-43.747,42.713-44.93v-37.79
		C72.559,41.202,113.761,0,164.405,0c50.637,0,91.852,41.202,91.852,91.852v37.79c23.747,1.189,42.713,20.887,42.713,44.93v109.256
		C298.97,308.629,278.79,328.816,253.982,328.816z M74.834,142.438c-17.719,0-32.134,14.415-32.134,32.134v109.256
		c0,17.719,14.415,32.134,32.134,32.134h179.148c17.712,0,32.134-14.415,32.134-32.134V174.572
		c0-17.719-14.422-32.134-32.134-32.134h-10.579V91.852c0-43.561-35.438-78.999-78.999-78.999
		c-43.555,0-78.992,35.438-78.992,78.999v50.586C85.413,142.438,74.834,142.438,74.834,142.438z M230.55,142.438H98.266V91.852
		c0-36.472,29.666-66.145,66.139-66.145c36.466,0,66.145,29.673,66.145,66.145V142.438z M111.12,129.584h106.576V91.852
		c0-29.383-23.914-53.291-53.291-53.291S111.12,62.469,111.12,91.852V129.584z M164.405,184.919
		c-11.838,0-21.427,9.595-21.427,21.427s9.589,21.421,21.427,21.421c11.825,0,21.427-9.589,21.427-21.421
		S176.237,184.919,164.405,184.919z M174.99,213.339c0-5.842-4.73-10.579-10.585-10.579l0,0c-5.836,0-10.579,4.73-10.579,10.579
		v49.557c0,5.842,4.743,10.579,10.579,10.579l0,0c5.855,0,10.585-4.737,10.585-10.579V213.339z"/>
</g>
<g>
</g>
<g>
</g>
<g>
</g>
<g>
</g>
<g>
</g>
<g>
</g>
<g>
</g>
<g>
</g>
<g>
</g>
<g>
</g>
<g>
</g>
<g>
</g>
<g>
</g>
<g>
</g>
<g>
</g>
</svg>
