<?xml version="1.0" encoding="iso-8859-1"?>
<!-- Generator: Adobe Illustrator 19.1.0, SVG Export Plug-In . SVG Version: 6.00 Build 0)  -->
<svg version="1.1" id="Capa_1" xmlns="http://www.w3.org/2000/svg" xmlns:xlink="http://www.w3.org/1999/xlink" x="0px" y="0px"
	 viewBox="0 0 293.372 293.372" style="enable-background:new 0 0 293.372 293.372;" xml:space="preserve">
<g>
	<path d="M280.862,95.921l-9.705,9.711l-6.877-6.877L278.542,84.5c19.319-19.332,19.332-50.669-0.013-70.001
		C268.863,4.833,256.196,0,243.542,0c-12.674,0-25.335,4.833-35.001,14.499L194.274,28.76l0,0l-5.9,5.9l0,0l-74.442,74.442
		l1.87,12.725v0.006l-80.67,80.676c-5.546,5.54-5.546,14.525,0,20.071l2.995,2.995l-15.881,7.249L0.337,279.387l4.833,4.82
		l24.801-24.795c-1.883-3.631-1.35-8.175,1.684-11.228c3.76-3.76,9.865-3.76,13.618,0c3.753,3.76,3.753,9.852,0,13.612
		c-3.053,3.04-7.603,3.58-11.221,1.69L9.251,288.301l5.09,5.071l45.855-22.597l6.061-17.07l4.197,4.203
		c2.77,2.77,6.401,4.152,10.039,4.152s7.269-1.388,10.045-4.152l80.663-80.67l12.725,1.857l74.448-74.442l6.877,6.877
		l-53.812,53.812c-1.844,1.844-1.844,4.839,0,6.697c1.844,1.844,4.852,1.844,6.69,0l69.429-69.423c1.844-1.851,1.844-4.852,0-6.697
		C285.721,94.07,282.72,94.076,280.862,95.921z M217.622,23.586c6.922-6.922,16.125-10.733,25.913-10.733
		c9.782,0,18.978,3.811,25.9,10.733c14.293,14.287,14.293,37.533,0.013,51.82l-14.261,14.261l-51.826-51.82L217.622,23.586z
		 M179.408,165.446l-6.343-0.932l-6.382-0.932l-4.563,4.563l-80.67,80.67c-0.264,0.257-0.585,0.398-0.958,0.398
		c-0.373,0-0.688-0.135-0.945-0.392l-35.322-35.328c-0.264-0.264-0.398-0.585-0.398-0.945c0-0.36,0.135-0.681,0.398-0.945
		l80.67-80.682l4.569-4.569l-0.938-6.388l-0.938-6.343l69.873-69.873l51.826,51.82L179.408,165.446z"/>
</g>
<g>
</g>
<g>
</g>
<g>
</g>
<g>
</g>
<g>
</g>
<g>
</g>
<g>
</g>
<g>
</g>
<g>
</g>
<g>
</g>
<g>
</g>
<g>
</g>
<g>
</g>
<g>
</g>
<g>
</g>
</svg>
