<?xml version="1.0" encoding="iso-8859-1"?>
<!-- Generator: Adobe Illustrator 19.1.0, SVG Export Plug-In . SVG Version: 6.00 Build 0)  -->
<svg version="1.1" id="Capa_1" xmlns="http://www.w3.org/2000/svg" xmlns:xlink="http://www.w3.org/1999/xlink" x="0px" y="0px"
	 viewBox="0 0 319.266 319.266" style="enable-background:new 0 0 319.266 319.266;" xml:space="preserve">
<g>
	<path d="M180.08,35.65L159.63,0l-20.45,35.65l-1.24,2.159l-21.691,37.372v184.373v22.455v2.449v15.527
		c0,10.656,8.625,19.281,19.281,19.281h48.201c10.643,0,19.281-8.625,19.281-19.281v-15.527v-2.449v-22.455V75.181l-21.684-37.372
		L180.08,35.65z M190.164,282.009v2.449v15.527c0,3.548-2.886,6.427-6.427,6.427h-48.201c-3.548,0-6.427-2.879-6.427-6.427v-15.527
		v-2.449v-19.814h61.055V282.009z M190.164,249.342h-61.055V89.211h61.055V249.342z M130.426,76.357l18.651-32.141l1.06-1.838
		h18.978l1.086,1.883l18.619,32.096C188.82,76.357,130.426,76.357,130.426,76.357z M297.408,37.809l-1.24-2.159L275.718,0
		l-20.457,35.65l-1.234,2.159l-21.691,37.372v184.373v22.455v2.449v15.527c0,10.656,8.625,19.281,19.281,19.281h48.201
		c10.636,0,19.281-8.625,19.281-19.281v-15.527v-2.449v-22.455V75.181L297.408,37.809z M265.165,44.217l1.067-1.838h18.978
		l1.08,1.883l18.625,32.096h-58.414L265.165,44.217z M306.245,282.009v2.449v15.527c0,3.548-2.886,6.427-6.427,6.427h-48.201
		c-3.56,0-6.427-2.879-6.427-6.427v-15.527v-2.449v-19.814h61.055V282.009z M306.245,249.342H245.19V89.211h61.055V249.342z
		 M63.992,35.65L43.542,0L23.098,35.65l-1.24,2.159L0.167,75.181v184.373v22.455v2.449v15.527c0,10.656,8.625,19.281,19.281,19.281
		h48.201c10.636,0,19.281-8.625,19.281-19.281v-15.527v-2.449v-22.455V75.181L65.239,37.809L63.992,35.65z M74.076,282.009v2.449
		v15.527c0,3.548-2.879,6.427-6.427,6.427H19.448c-3.554,0-6.427-2.879-6.427-6.427v-15.527v-2.449v-19.814h61.055V282.009z
		 M74.076,249.342H13.021V89.211h61.055V249.342z M14.345,76.357l18.651-32.141l1.06-1.838h18.978l1.086,1.883l18.625,32.096
		C72.745,76.357,14.345,76.357,14.345,76.357z"/>
</g>
<g>
</g>
<g>
</g>
<g>
</g>
<g>
</g>
<g>
</g>
<g>
</g>
<g>
</g>
<g>
</g>
<g>
</g>
<g>
</g>
<g>
</g>
<g>
</g>
<g>
</g>
<g>
</g>
<g>
</g>
</svg>
