<?xml version="1.0" encoding="iso-8859-1"?>
<!-- Generator: Adobe Illustrator 19.1.0, SVG Export Plug-In . SVG Version: 6.00 Build 0)  -->
<svg version="1.1" id="Capa_1" xmlns="http://www.w3.org/2000/svg" xmlns:xlink="http://www.w3.org/1999/xlink" x="0px" y="0px"
	 viewBox="0 0 347.859 347.859" style="enable-background:new 0 0 347.859 347.859;" xml:space="preserve">
<g>
	<path d="M173.929,0C78.028,0,0,78.022,0,173.929s78.028,173.929,173.929,173.929s173.929-78.028,173.929-173.929
		S269.837,0,173.929,0z M334.844,167.496H180.363V13.014C264.066,16.324,331.535,83.787,334.844,167.496z M12.86,173.923
		c0-86.659,68.806-157.522,154.649-160.909v154.482v5.424v7.436h0.058l113.614,113.62c-28.509,25.489-66.087,41.029-107.245,41.029
		C85.117,334.999,12.86,262.735,12.86,173.923z M290.397,285.017L185.736,180.356h149.109
		C333.244,220.852,316.618,257.536,290.397,285.017z"/>
</g>
<g>
</g>
<g>
</g>
<g>
</g>
<g>
</g>
<g>
</g>
<g>
</g>
<g>
</g>
<g>
</g>
<g>
</g>
<g>
</g>
<g>
</g>
<g>
</g>
<g>
</g>
<g>
</g>
<g>
</g>
</svg>
