<?xml version="1.0" encoding="iso-8859-1"?>
<!-- Generator: Adobe Illustrator 19.1.0, SVG Export Plug-In . SVG Version: 6.00 Build 0)  -->
<svg version="1.1" id="Capa_1" xmlns="http://www.w3.org/2000/svg" xmlns:xlink="http://www.w3.org/1999/xlink" x="0px" y="0px"
	 viewBox="0 0 296.039 296.039" style="enable-background:new 0 0 296.039 296.039;" xml:space="preserve">
<g>
	<path d="M87.569,296.039c-4.319,0-7.879-3.078-8.471-7.32l-0.103-0.701c-2.037-13.959-4.666-40.759,0.72-63.491l20.418-86.55
		c-1.677-4.171-4.859-13.779-4.859-26.337c0-27.218,16.594-48.535,37.777-48.535c16.967,0,28.362,12.397,28.362,30.849
		c0,10.456-3.978,23.355-8.194,37.012c-2.262,7.346-4.608,14.93-6.33,22.192c-1.407,5.964-0.264,11.658,3.213,16.054
		c3.708,4.685,9.621,7.365,16.208,7.365c25.315,0,45.149-35.161,45.149-80.059c0-34.486-23.471-55.907-61.254-55.907
		c-47.841,0-73.664,36.832-73.664,71.486c0,11.523,2.924,20.341,9.21,27.732c3.843,4.576,5.456,8.124,3.644,14.885
		c-0.437,1.645-1.17,4.531-1.857,7.282l-1.465,5.752c-1.954,7.519-9.525,11.363-16.774,8.387
		c-23.368-9.525-37.314-34.988-37.314-68.092C31.983,54.937,77.871,0,154.652,0c68.484,0,109.404,50.65,109.404,99.616
		c0,68.317-39.615,117.9-94.192,117.9c-13.631,0-27.269-5.071-36.582-12.982c-2.95,11.652-7.127,28.079-8.393,32.7
		c-6.356,23.059-23.194,46.158-30.135,55.02C92.762,294.825,90.268,296.039,87.569,296.039z M133.052,75.959
		c-13.978,0-24.923,15.669-24.923,35.682c0,13.49,4.46,22.809,4.512,22.899l1.003,2.063l-0.514,2.256l-20.906,88.626
		c-3.098,13.091-3.683,30.213-1.735,48.966c7.603-10.694,17.661-26.838,22.012-42.629c1.941-7.082,11.305-44.197,11.395-44.577
		l4.113-16.292l7.815,14.872c4.345,8.271,18.265,16.832,34.043,16.832c47.886,0,81.338-43.195,81.338-105.047
		c0-42.648-36.112-86.762-96.55-86.762c-75.747,0-109.815,55.663-109.815,95.188c0,27.892,10.521,48.272,28.876,56.016l1.356-5.199
		c0.707-2.815,1.459-5.784,1.909-7.462c0.289-1.086,0.321-1.485,0.328-1.594c-0.051,0.084-0.264-0.36-1.375-1.677
		c-8.233-9.692-12.243-21.485-12.243-36.029c0-48.079,37.192-84.339,86.518-84.339c45.02,0,74.108,26.993,74.108,68.761
		c0,52.97-24.93,92.913-58.002,92.913c-10.546,0-20.129-4.454-26.286-12.237c-5.971-7.545-7.969-17.134-5.643-26.999
		c1.819-7.68,4.229-15.476,6.562-23.021c3.92-12.706,7.629-24.705,7.629-33.22C148.56,88.542,147.049,75.959,133.052,75.959z"/>
</g>
<g>
</g>
<g>
</g>
<g>
</g>
<g>
</g>
<g>
</g>
<g>
</g>
<g>
</g>
<g>
</g>
<g>
</g>
<g>
</g>
<g>
</g>
<g>
</g>
<g>
</g>
<g>
</g>
<g>
</g>
</svg>
