<?xml version="1.0" encoding="iso-8859-1"?>
<!-- Generator: Adobe Illustrator 19.1.0, SVG Export Plug-In . SVG Version: 6.00 Build 0)  -->
<svg version="1.1" id="Capa_1" xmlns="http://www.w3.org/2000/svg" xmlns:xlink="http://www.w3.org/1999/xlink" x="0px" y="0px"
	 viewBox="0 0 333.244 333.244" style="enable-background:new 0 0 333.244 333.244;" xml:space="preserve">
<g>
	<path d="M166.985,333.244h-0.739c-11.176,0-19.293-9.293-20.18-10.354C97.055,264.188,44.773,195.781,44.773,126.583
		C44.773,56.788,99.426,0,166.612,0c67.193,0,121.859,56.788,121.859,126.583c0,69.249-52.289,137.637-101.3,196.301
		c0-0.006,0-0.006,0-0.006S178.772,333.244,166.985,333.244z M166.612,12.854c-60.097,0-108.986,51.016-108.986,113.729
		c0,64.898,50.74,131.095,98.298,188.062c1.35,1.568,5.919,5.752,10.321,5.752h0.739c4.383,0,9.036-4.261,10.321-5.758
		c47.559-56.922,98.305-123.106,98.305-188.056C275.618,63.87,226.716,12.854,166.612,12.854z M166.632,199.206
		c-43.657,0-79.179-35.515-79.179-79.172c0-43.651,35.521-79.166,79.179-79.166c43.651,0,79.159,35.515,79.159,79.166
		C245.791,163.691,210.283,199.206,166.632,199.206z M166.632,53.715c-36.569,0-66.325,29.75-66.325,66.312
		c0,36.569,29.756,66.319,66.325,66.319c36.562,0,66.306-29.75,66.306-66.319C232.937,83.465,203.194,53.715,166.632,53.715z
		 M206.709,111.936h-79.532v12.854h79.532V111.936z"/>
</g>
<g>
</g>
<g>
</g>
<g>
</g>
<g>
</g>
<g>
</g>
<g>
</g>
<g>
</g>
<g>
</g>
<g>
</g>
<g>
</g>
<g>
</g>
<g>
</g>
<g>
</g>
<g>
</g>
<g>
</g>
</svg>
