<?xml version="1.0" encoding="iso-8859-1"?>
<!-- Generator: Adobe Illustrator 19.1.0, SVG Export Plug-In . SVG Version: 6.00 Build 0)  -->
<svg version="1.1" id="Capa_1" xmlns="http://www.w3.org/2000/svg" xmlns:xlink="http://www.w3.org/1999/xlink" x="0px" y="0px"
	 viewBox="0 0 333.231 333.231" style="enable-background:new 0 0 333.231 333.231;" xml:space="preserve">
<g>
	<path d="M173.097,113.8h33.342v12.854h-33.342v33.336h-12.854v-33.336h-33.336V113.8h33.336V80.458h12.854V113.8z M245.785,120.021
		c0,43.657-35.508,79.172-79.159,79.172c-43.657,0-79.179-35.515-79.179-79.172c0-43.651,35.521-79.166,79.179-79.166
		C210.276,40.855,245.785,76.37,245.785,120.021z M232.931,120.028c0-36.562-29.743-66.312-66.306-66.312
		S100.3,83.465,100.3,120.028c0,36.569,29.763,66.319,66.325,66.319S232.931,156.596,232.931,120.028z M187.165,322.878
		C187.165,322.871,187.165,322.871,187.165,322.878c0-0.006-8.406,10.354-20.193,10.354h-0.733
		c-11.176,0-19.293-9.287-20.187-10.347C97.048,264.181,44.766,195.774,44.766,126.576C44.766,56.788,99.42,0,166.606,0
		c67.193,0,121.859,56.788,121.859,126.576C288.465,195.832,236.177,264.214,187.165,322.878z M275.618,126.576
		c0-62.713-48.895-113.723-109.006-113.723c-60.097,0-108.986,51.016-108.986,113.723c0,64.905,50.746,131.101,98.298,188.068
		c1.35,1.575,5.919,5.752,10.321,5.752h0.733c4.383,0,9.036-4.267,10.322-5.758C224.865,257.71,275.612,191.526,275.618,126.576z"/>
</g>
<g>
</g>
<g>
</g>
<g>
</g>
<g>
</g>
<g>
</g>
<g>
</g>
<g>
</g>
<g>
</g>
<g>
</g>
<g>
</g>
<g>
</g>
<g>
</g>
<g>
</g>
<g>
</g>
<g>
</g>
</svg>
