<?xml version="1.0" encoding="iso-8859-1"?>
<!-- Generator: Adobe Illustrator 19.1.0, SVG Export Plug-In . SVG Version: 6.00 Build 0)  -->
<svg version="1.1" id="Capa_1" xmlns="http://www.w3.org/2000/svg" xmlns:xlink="http://www.w3.org/1999/xlink" x="0px" y="0px"
	 viewBox="0 0 330.982 330.982" style="enable-background:new 0 0 330.982 330.982;" xml:space="preserve">
<g>
	<path d="M91.222,103.578h148.074v10.662H91.222C91.222,114.24,91.222,103.578,91.222,103.578z M91.222,86.958h148.074V76.296
		H91.222C91.222,76.296,91.222,86.958,91.222,86.958z M185.517,37.774H91.222v10.662h94.295
		C185.517,48.436,185.517,37.774,185.517,37.774z M330.982,176.176v128.537c0,14.171-11.536,25.707-25.707,25.707H25.707
		C11.53,330.42,0,318.883,0,304.712V176.176c0-14.178,11.53-25.707,25.707-25.707h10.649v-36.151
		c0-13.143,9.949-23.895,22.693-25.405V26.25c0-14.165,11.523-25.688,25.682-25.688h161.519c14.171,0,25.694,11.523,25.694,25.688
		v62.655c12.732,1.517,22.687,12.262,22.687,25.405v36.151h10.643C319.452,150.462,330.988,161.992,330.982,176.176z
		 M71.903,150.462h187.182V88.604V26.25c0-7.076-5.758-12.834-12.841-12.834H84.738c-7.076,0-12.828,5.758-12.828,12.834v62.353
		v61.858H71.903z M318.135,304.712L318.135,304.712l-0.006-128.537c0-7.095-5.771-12.854-12.854-12.854h-23.496v-49.005
		c0-6.048-4.197-11.138-9.833-12.494v61.498H59.05v-61.498c-5.643,1.356-9.839,6.446-9.839,12.494v49.005H25.714
		c-7.089,0-12.854,5.758-12.854,12.854v128.537c0,7.082,5.765,12.854,12.854,12.854h279.567
		C312.363,317.566,318.135,311.795,318.135,304.712z M274.953,188.689c-7.731,0-13.998,6.266-13.998,13.998
		s6.266,13.998,13.998,13.998c7.731,0,13.998-6.266,13.998-13.998C288.95,194.955,282.684,188.689,274.953,188.689z
		 M277.703,262.398H53.285c-6.208,0-11.247,5.032-11.247,11.247s5.039,11.247,11.247,11.247h224.412
		c6.215,0,11.247-5.032,11.247-11.247S283.912,262.398,277.703,262.398z"/>
</g>
<g>
</g>
<g>
</g>
<g>
</g>
<g>
</g>
<g>
</g>
<g>
</g>
<g>
</g>
<g>
</g>
<g>
</g>
<g>
</g>
<g>
</g>
<g>
</g>
<g>
</g>
<g>
</g>
<g>
</g>
</svg>
