<?xml version="1.0" encoding="iso-8859-1"?>
<!-- Generator: Adobe Illustrator 19.1.0, SVG Export Plug-In . SVG Version: 6.00 Build 0)  -->
<svg version="1.1" id="Capa_1" xmlns="http://www.w3.org/2000/svg" xmlns:xlink="http://www.w3.org/1999/xlink" x="0px" y="0px"
	 viewBox="0 0 333.488 333.488" style="enable-background:new 0 0 333.488 333.488;" xml:space="preserve">
<g>
	<path d="M132.425,62.549c-43.214,0-78.362,35.148-78.362,78.35s35.155,78.35,78.362,78.35c43.201,0,78.337-35.148,78.337-78.35
		S175.626,62.549,132.425,62.549z M132.425,206.401c-36.177,0-65.509-29.326-65.509-65.496s29.332-65.496,65.509-65.496
		c36.164,0,65.483,29.326,65.483,65.496S168.589,206.401,132.425,206.401z M299.471,127.338c0,7.725-6.266,13.991-13.991,13.991
		c-7.731,0-13.998-6.266-13.998-13.991s6.266-13.998,13.998-13.998C293.205,113.34,299.471,119.613,299.471,127.338z M288.501,81.63
		h-63.362c-20.212-31.498-55.399-50.92-92.726-50.92c-37.481,0-72.797,19.576-92.977,51.305C17.063,84.754,0,103.713,0,126.618
		v95.94c0,24.21,19.216,44.011,43.201,44.949v11.922c0,12.873,10.476,23.349,23.349,23.349s23.349-10.476,23.349-23.349v-11.89
		h163.531v11.89c0,12.873,10.476,23.349,23.349,23.349c12.879,0,23.355-10.476,23.355-23.349v-13.451
		c19.364-5.186,33.355-22.944,33.355-43.426v-95.933C333.488,101.804,313.302,81.63,288.501,81.63z M320.635,222.552
		c0,15.99-11.948,29.66-27.796,31.8l-5.566,0.752l0.006,24.319c0,5.784-4.711,10.495-10.501,10.495s-10.495-4.704-10.495-10.495
		v-24.743H77.045v24.743c0,5.784-4.704,10.495-10.495,10.495c-5.791,0-10.495-4.704-10.495-10.495v-24.743H44.988
		c-17.719,0-32.134-14.415-32.134-32.134v-95.927c0-17.192,13.464-31.267,30.656-32.051l3.458-0.154l1.767-2.982
		c17.539-29.525,49.602-47.861,83.677-47.861c34.043,0,66.081,18.31,83.62,47.777l1.87,3.143h70.599
		c17.719,0,32.134,14.415,32.134,32.134V222.552z"/>
</g>
<g>
</g>
<g>
</g>
<g>
</g>
<g>
</g>
<g>
</g>
<g>
</g>
<g>
</g>
<g>
</g>
<g>
</g>
<g>
</g>
<g>
</g>
<g>
</g>
<g>
</g>
<g>
</g>
<g>
</g>
</svg>
