<?xml version="1.0" encoding="iso-8859-1"?>
<!-- Generator: Adobe Illustrator 19.1.0, SVG Export Plug-In . SVG Version: 6.00 Build 0)  -->
<svg version="1.1" id="Capa_1" xmlns="http://www.w3.org/2000/svg" xmlns:xlink="http://www.w3.org/1999/xlink" x="0px" y="0px"
	 viewBox="0 0 333.656 333.656" style="enable-background:new 0 0 333.656 333.656;" xml:space="preserve">
<g>
	<g>
		<path d="M166.825,333.656c-78.215,0-141.847-63.626-141.847-141.84c0-76.062,60.174-138.338,135.42-141.712l0.006-32.282
			C160.404,6.118,168.496,0,176.484,0c2.911,0,7.359,0.816,11.999,4.704l62.212,52.045c4.756,3.978,7.487,9.705,7.487,15.701
			c0,5.996-2.731,11.716-7.487,15.701l-62.212,52.064c-4.647,3.888-9.088,4.704-11.999,4.704c-7.989,0-16.08-6.125-16.08-17.822
			V95.162c-50.431,3.316-90.438,45.399-90.438,96.653c0,53.407,43.452,96.852,96.859,96.852s96.865-43.452,96.865-96.852
			c0-6.954-0.739-13.895-2.204-20.63c-1.273-5.868-0.18-11.89,3.072-16.941s8.271-8.535,14.145-9.807
			c12.037-2.609,24.184,5.379,26.755,17.211c2.134,9.859,3.22,20.007,3.22,30.168C308.678,270.023,245.046,333.656,166.825,333.656z
			 M166.831,62.809c-71.132,0-128.999,57.874-128.999,128.999c0,71.119,57.867,128.987,128.993,128.987
			c71.132,0,128.999-57.867,128.999-128.987c0-9.242-0.983-18.484-2.931-27.449c-1.125-5.148-6.273-8.483-11.478-7.372
			c-2.506,0.546-4.659,2.037-6.048,4.203c-1.388,2.166-1.857,4.743-1.311,7.262c1.652,7.629,2.494,15.482,2.494,23.355
			c0,60.496-49.217,109.706-109.719,109.706c-60.496,0-109.712-49.21-109.712-109.706S106.335,82.09,166.831,82.09h6.427
			l0.006,45.001c0,3.111,1.208,4.968,3.226,4.968c0.643,0,1.979-0.225,3.753-1.71l62.212-52.07c1.819-1.523,2.873-3.65,2.873-5.836
			s-1.048-4.312-2.879-5.842L180.237,14.55c-1.774-1.485-3.111-1.71-3.753-1.71c-2.018,0-3.226,1.857-3.226,4.968v44.994h-6.427
			V62.809z"/>
	</g>
</g>
<g>
</g>
<g>
</g>
<g>
</g>
<g>
</g>
<g>
</g>
<g>
</g>
<g>
</g>
<g>
</g>
<g>
</g>
<g>
</g>
<g>
</g>
<g>
</g>
<g>
</g>
<g>
</g>
<g>
</g>
</svg>
