<?xml version="1.0" encoding="iso-8859-1"?>
<!-- Generator: Adobe Illustrator 19.1.0, SVG Export Plug-In . SVG Version: 6.00 Build 0)  -->
<svg version="1.1" id="Capa_1" xmlns="http://www.w3.org/2000/svg" xmlns:xlink="http://www.w3.org/1999/xlink" x="0px" y="0px"
	 viewBox="0 0 317.595 317.595" style="enable-background:new 0 0 317.595 317.595;" xml:space="preserve">
<g>
	<path d="M281.733,165.048c-0.752-3.471-4.203-5.675-7.642-4.91c-3.47,0.746-5.675,4.171-4.923,7.635
		c1.703,7.847,2.564,15.939,2.564,24.049c0,62.263-50.663,112.919-112.932,112.919c-62.263,0-112.926-50.663-112.926-112.919
		c0-60.11,47.237-109.256,106.505-112.611v47.886c0,11.703,8.091,17.822,16.08,17.822c2.911,0,7.359-0.816,11.999-4.698
		l62.212-52.07c4.756-3.985,7.487-9.705,7.487-15.701c0-5.996-2.731-11.723-7.487-15.701L180.459,4.704
		C175.812,0.816,171.372,0,168.46,0c-7.989,0-16.08,6.125-16.08,17.822v48.535C86.01,69.731,33.015,124.629,33.015,191.822
		c0,69.352,56.421,125.773,125.78,125.773S284.58,261.174,284.58,191.822C284.587,182.798,283.629,173.801,281.733,165.048z
		 M165.234,17.822c0-3.111,1.208-4.968,3.226-4.968c0.643,0,1.979,0.225,3.753,1.71l62.212,52.051
		c1.832,1.53,2.879,3.657,2.879,5.842c0,2.185-1.048,4.312-2.879,5.848l-62.212,52.064c-1.774,1.485-3.111,1.71-3.753,1.71
		c-2.018,0-3.226-1.857-3.226-4.968C165.234,127.11,165.234,17.822,165.234,17.822z"/>
</g>
<g>
</g>
<g>
</g>
<g>
</g>
<g>
</g>
<g>
</g>
<g>
</g>
<g>
</g>
<g>
</g>
<g>
</g>
<g>
</g>
<g>
</g>
<g>
</g>
<g>
</g>
<g>
</g>
<g>
</g>
</svg>
