<?xml version="1.0" encoding="iso-8859-1"?>
<!-- Generator: Adobe Illustrator 19.1.0, SVG Export Plug-In . SVG Version: 6.00 Build 0)  -->
<svg version="1.1" id="Capa_1" xmlns="http://www.w3.org/2000/svg" xmlns:xlink="http://www.w3.org/1999/xlink" x="0px" y="0px"
	 viewBox="0 0 317.595 317.595" style="enable-background:new 0 0 317.595 317.595;" xml:space="preserve">
<g>
	<path d="M165.221,66.351V17.822C165.221,6.118,157.13,0,149.141,0c-2.911,0-7.352,0.816-11.999,4.698L74.93,56.749
		c-4.756,3.978-7.487,9.698-7.487,15.701c0,5.99,2.731,11.71,7.487,15.694l62.212,52.07c4.64,3.882,9.088,4.698,11.999,4.698
		c7.989,0,16.08-6.131,16.08-17.815V79.204c59.275,3.355,106.505,52.501,106.505,112.605c0,62.263-50.663,112.919-112.926,112.919
		S45.868,254.072,45.868,191.809c0-8.104,0.868-16.189,2.564-24.03c0.752-3.471-1.459-6.89-4.923-7.642
		c-3.464-0.752-6.89,1.446-7.642,4.923c-1.896,8.734-2.854,17.751-2.854,26.761c0,69.352,56.428,125.773,125.786,125.773
		s125.78-56.428,125.78-125.78C284.58,124.616,231.585,69.725,165.221,66.351z M152.367,127.104c0,3.104-1.208,4.962-3.226,4.962
		c-0.643,0-1.979-0.231-3.753-1.716L83.176,78.285c-1.832-1.53-2.879-3.657-2.879-5.842c0-2.192,1.048-4.319,2.879-5.842
		l62.212-52.057c1.774-1.485,3.111-1.71,3.753-1.71c2.018,0,3.226,1.857,3.226,4.968V127.104z"/>
</g>
<g>
</g>
<g>
</g>
<g>
</g>
<g>
</g>
<g>
</g>
<g>
</g>
<g>
</g>
<g>
</g>
<g>
</g>
<g>
</g>
<g>
</g>
<g>
</g>
<g>
</g>
<g>
</g>
<g>
</g>
</svg>
