<?xml version="1.0" encoding="iso-8859-1"?>
<!-- Generator: Adobe Illustrator 19.1.0, SVG Export Plug-In . SVG Version: 6.00 Build 0)  -->
<svg version="1.1" id="Capa_1" xmlns="http://www.w3.org/2000/svg" xmlns:xlink="http://www.w3.org/1999/xlink" x="0px" y="0px"
	 viewBox="0 0 333.488 333.488" style="enable-background:new 0 0 333.488 333.488;" xml:space="preserve">
<g>
	<path d="M328.778,171.024L276.727,108.8c-3.985-4.762-9.698-7.487-15.694-7.487c-5.983,0-11.703,2.725-15.701,7.487l-52.064,62.218
		c-3.882,4.64-4.698,9.088-4.698,11.999c0,7.982,6.118,16.08,17.815,16.08h31.71c-3.625,48.677-34.519,87.251-71.055,87.251
		c-17.629,0-34.653-8.991-47.918-25.309c-4.293-5.27-10.656-8.31-17.462-8.31c-5.154,0-10.193,1.793-14.178,5.045
		c-4.659,3.785-7.577,9.178-8.188,15.142c-0.611,5.977,1.138,11.838,4.936,16.491c21.973,27.025,51.389,41.909,82.829,41.909
		c60.959,0,111.988-58.761,116.094-132.219h32.513c11.697,0,17.822-8.098,17.822-16.08
		C333.482,180.112,332.666,175.671,328.778,171.024z M315.673,186.237h-45.007l-0.122,6.292
		c-1.324,69.448-47.751,125.947-103.498,125.947h-0.013c-27.488,0-53.362-13.207-72.848-37.166c-1.62-2.005-2.371-4.505-2.108-7.076
		c0.264-2.558,1.51-4.859,3.522-6.504c1.735-1.408,3.83-2.159,6.061-2.159c2.918,0,5.649,1.305,7.494,3.56
		c15.752,19.39,36.318,30.058,57.886,30.058c45.843,0,82.835-46.736,84.224-106.39l0.141-6.562h-45.033
		c-3.111,0-4.962-1.208-4.962-3.226c0-0.649,0.219-1.979,1.71-3.753l52.057-62.218c3.085-3.663,8.618-3.657,11.697-0.006
		l52.051,62.225c1.491,1.761,1.716,3.104,1.716,3.753C320.641,185.029,318.784,186.237,315.673,186.237z M140.214,162.496
		c3.882-4.647,4.704-9.094,4.704-12.012c0-7.989-6.125-16.08-17.822-16.08H95.393c3.618-48.683,34.512-87.251,71.049-87.251
		c17.629,0,34.653,8.991,47.918,25.309c4.293,5.276,10.656,8.303,17.468,8.303c5.141,0,10.174-1.787,14.178-5.039
		c9.621-7.821,11.086-22.012,3.258-31.646c-21.98-27.025-51.395-41.909-82.823-41.909c-60.971,0-112,58.767-116.107,132.251H17.822
		C6.125,134.424,0,142.521,0,150.504c0,2.911,0.816,7.352,4.711,11.992l52.051,62.218c3.985,4.743,9.705,7.481,15.694,7.481
		c5.983,0,11.703-2.725,15.694-7.494L140.214,162.496z M66.621,216.462L14.57,154.244c-1.491-1.767-1.716-3.104-1.716-3.747
		c0-2.012,1.857-3.226,4.968-3.226v0.006h45.007l0.122-6.298c1.324-69.448,47.751-125.947,103.504-125.947
		c27.481,0,53.356,13.207,72.848,37.166c3.355,4.139,2.731,10.219-1.388,13.567c-4.03,3.258-10.309,2.59-13.567-1.401
		c-15.759-19.377-36.324-30.052-57.893-30.052c-45.843,0-82.835,46.73-84.217,106.39l-0.141,6.568h45.026
		c3.111,0,4.968,1.208,4.968,3.226c0,0.649-0.225,1.992-1.716,3.76l-52.057,62.212C75.233,220.126,69.699,220.113,66.621,216.462z"
		/>
</g>
<g>
</g>
<g>
</g>
<g>
</g>
<g>
</g>
<g>
</g>
<g>
</g>
<g>
</g>
<g>
</g>
<g>
</g>
<g>
</g>
<g>
</g>
<g>
</g>
<g>
</g>
<g>
</g>
<g>
</g>
</svg>
