<?xml version="1.0" encoding="iso-8859-1"?>
<!-- Generator: Adobe Illustrator 19.1.0, SVG Export Plug-In . SVG Version: 6.00 Build 0)  -->
<svg version="1.1" id="Capa_1" xmlns="http://www.w3.org/2000/svg" xmlns:xlink="http://www.w3.org/1999/xlink" x="0px" y="0px"
	 viewBox="0 0 333.476 333.476" style="enable-background:new 0 0 333.476 333.476;" xml:space="preserve">
<g>
	<path d="M328.778,170.996l-52.051-62.212c-3.985-4.762-9.698-7.487-15.694-7.487c-5.983,0-11.703,2.725-15.694,7.487l-52.07,62.205
		c-3.882,4.653-4.698,9.1-4.698,12.012c0,7.982,6.118,16.08,17.815,16.08h47.796c-3.843,57.533-41.839,103.318-87.135,103.318
		c-0.006,0-0.006,0-0.006,0c-22.558,0-44.005-11.099-60.387-31.241c-2.23-2.751-6.285-3.168-9.036-0.938
		c-2.757,2.249-3.175,6.292-0.938,9.036c18.869,23.214,43.85,35.997,70.342,35.997c0.006,0,0.006,0,0.013,0
		c53.169,0,96.094-50.56,100.014-116.178h48.606c11.697,0,17.822-8.085,17.822-16.08
		C333.482,180.083,332.666,175.642,328.778,170.996z M315.654,186.221l-54.487,0.006c-0.013,0-0.019-0.006-0.032-0.006
		c-0.013,0-0.019,0.006-0.032,0.006l-54.731,0.006c-3.111,0-4.968-1.208-4.968-3.226c0-0.649,0.225-1.992,1.716-3.753l52.057-62.218
		c1.542-1.832,3.676-2.886,5.855-2.886c2.172,0,4.306,1.048,5.829,2.879l52.051,62.225c1.491,1.761,1.716,3.091,1.716,3.74
		C320.622,185.013,318.765,186.221,315.654,186.221z M144.912,150.488c0-7.989-6.125-16.08-17.822-16.08H79.307
		c3.837-57.527,41.832-103.324,87.135-103.324c22.552,0,43.998,11.099,60.387,31.234c2.243,2.757,6.285,3.181,9.036,0.938
		s3.175-6.292,0.938-9.043c-18.869-23.207-43.85-35.99-70.355-35.99c-53.176,0-96.107,50.56-100.008,116.184H17.822
		C6.125,134.408,0,142.499,0,150.488c0,2.911,0.816,7.352,4.711,11.992l52.051,62.212c3.985,4.756,9.705,7.494,15.694,7.494
		c5.983,0,11.703-2.731,15.694-7.494l52.064-62.205C144.096,157.846,144.912,153.399,144.912,150.488z M130.368,154.247
		l-52.057,62.205c-3.085,3.67-8.618,3.67-11.697,0.013l-52.051-62.225c-1.491-1.767-1.716-3.104-1.716-3.747
		c0-2.012,1.857-3.226,4.968-3.226l109.275-0.006c3.111,0,4.968,1.208,4.981,3.233C132.078,151.137,131.853,152.473,130.368,154.247
		z"/>
</g>
<g>
</g>
<g>
</g>
<g>
</g>
<g>
</g>
<g>
</g>
<g>
</g>
<g>
</g>
<g>
</g>
<g>
</g>
<g>
</g>
<g>
</g>
<g>
</g>
<g>
</g>
<g>
</g>
<g>
</g>
</svg>
