<?xml version="1.0" encoding="iso-8859-1"?>
<!-- Generator: Adobe Illustrator 19.1.0, SVG Export Plug-In . SVG Version: 6.00 Build 0)  -->
<svg version="1.1" id="Capa_1" xmlns="http://www.w3.org/2000/svg" xmlns:xlink="http://www.w3.org/1999/xlink" x="0px" y="0px"
	 viewBox="0 0 319.33 319.33" style="enable-background:new 0 0 319.33 319.33;" xml:space="preserve">
<g>
	<path d="M22.128,177.496c3.56,0,6.427-2.879,6.44-6.427v-70.695c0-6.857,1.851-12.14,5.489-15.681
		c6.112-5.945,15.669-5.758,15.932-5.746h158.184v48.143c0,11.697,8.098,17.822,16.093,17.822c2.918,0,7.365-0.816,11.999-4.704
		l62.212-52.064c4.756-3.978,7.481-9.705,7.481-15.701c0-5.996-2.725-11.716-7.481-15.694L236.263,4.698
		C231.623,0.816,227.176,0,224.264,0c-7.995,0-16.093,6.118-16.093,17.815v48.278L50.232,66.1
		c-0.572-0.045-14.923-0.456-25.026,9.261c-6.311,6.067-9.505,14.48-9.505,25.013v70.695
		C15.701,174.617,18.574,177.496,22.128,177.496z M224.264,12.847c0.649,0,1.979,0.225,3.753,1.697l62.218,52.051
		c1.825,1.536,2.866,3.663,2.866,5.842c0,2.185-1.041,4.319-2.866,5.848l-62.218,52.07c-1.774,1.478-3.104,1.71-3.753,1.71
		c-2.018,0-3.239-1.857-3.239-4.968v-54.5c0-0.019,0.013-0.039,0.013-0.064s-0.013-0.039-0.013-0.064V17.815
		C221.025,14.705,222.246,12.847,224.264,12.847z M297.209,141.827c-3.56,0-6.427,2.879-6.427,6.427v70.695
		c0,6.857-1.851,12.14-5.489,15.681c-6.112,5.945-15.669,5.746-15.932,5.746H111.159v-48.143c0-11.697-8.091-17.822-16.086-17.822
		c-2.911,0-7.359,0.816-11.999,4.704l-62.212,52.07c-4.756,3.978-7.487,9.698-7.487,15.701c0,5.99,2.731,11.71,7.487,15.688
		l62.212,52.057c4.64,3.882,9.088,4.698,11.999,4.698c8.001,0,16.086-6.125,16.086-17.815V253.23l157.959-0.006
		c0.051,0.006,0.251,0.006,0.566,0.006c2.841,0,15.367-0.514,24.448-9.268c6.318-6.067,9.505-14.473,9.505-25.013v-70.695
		C303.636,144.707,300.763,141.827,297.209,141.827z M98.305,301.521c0,3.104-1.215,4.962-3.233,4.962
		c-0.649,0-1.986-0.231-3.753-1.716l-62.212-52.045c-1.825-1.53-2.873-3.657-2.873-5.836c0-2.185,1.048-4.319,2.873-5.848
		l62.218-52.077c1.767-1.478,3.104-1.71,3.753-1.71c2.018,0,3.233,1.857,3.233,4.968v109.301H98.305z"/>
</g>
<g>
</g>
<g>
</g>
<g>
</g>
<g>
</g>
<g>
</g>
<g>
</g>
<g>
</g>
<g>
</g>
<g>
</g>
<g>
</g>
<g>
</g>
<g>
</g>
<g>
</g>
<g>
</g>
<g>
</g>
</svg>
