<?xml version="1.0" encoding="iso-8859-1"?>
<!-- Generator: Adobe Illustrator 19.1.0, SVG Export Plug-In . SVG Version: 6.00 Build 0)  -->
<svg version="1.1" id="Capa_1" xmlns="http://www.w3.org/2000/svg" xmlns:xlink="http://www.w3.org/1999/xlink" x="0px" y="0px"
	 viewBox="0 0 319.317 319.317" style="enable-background:new 0 0 319.317 319.317;" xml:space="preserve">
<g>
	<path d="M298.472,231.167l-62.212-52.064c-4.64-3.888-9.088-4.704-11.999-4.704c-7.995,0-16.093,6.125-16.093,17.822v48.143H49.76
		c-0.058,0.013-9.621,0.193-15.72-5.746c-3.638-3.541-5.489-8.824-5.489-15.681v-70.695c0-3.554-2.866-6.427-6.427-6.427
		c-3.554,0-6.427,2.873-6.427,6.427v70.695c0,10.54,3.201,18.946,9.505,25.013c9.126,8.785,21.697,9.274,24.3,9.274
		c0.276,0,0.431-0.006,0.469-0.006h158.19v48.285c0,11.69,8.098,17.815,16.093,17.815c2.918,0,7.365-0.81,11.999-4.698
		l62.212-52.057c4.756-3.978,7.481-9.698,7.481-15.688C305.953,240.878,303.228,235.151,298.472,231.167z M290.226,252.703
		l-62.218,52.064c-1.774,1.478-3.104,1.71-3.753,1.71c-2.018,0-3.239-1.857-3.239-4.962V192.22c0-3.111,1.221-4.968,3.239-4.968
		c0.649,0,1.979,0.225,3.753,1.703l62.218,52.07c1.825,1.53,2.866,3.663,2.866,5.848
		C293.099,249.046,292.058,251.174,290.226,252.703z M83.07,140.208c4.64,3.888,9.088,4.704,11.999,4.704
		c8.001,0,16.086-6.118,16.086-17.822v-48.15l158.447-0.006c0.077,0.019,9.512-0.186,15.617,5.688
		c3.689,3.554,5.559,8.85,5.559,15.752v70.695c0,3.548,2.866,6.427,6.427,6.427c3.554,0,6.427-2.879,6.427-6.427v-70.695
		c0-10.54-3.194-18.953-9.505-25.02c-10.09-9.717-24.396-9.332-24.769-9.267H111.155V17.815C111.155,6.125,103.064,0,95.069,0
		C92.158,0,87.71,0.816,83.07,4.698L20.858,56.755c-4.756,3.978-7.487,9.705-7.487,15.688c0,5.996,2.731,11.716,7.487,15.707
		L83.07,140.208z M29.104,66.608l62.218-52.064c1.767-1.478,3.104-1.71,3.753-1.71c2.018,0,3.233,1.857,3.233,4.962v109.288
		c0,3.111-1.215,4.968-3.233,4.968c-0.649,0-1.986-0.225-3.753-1.71L29.11,78.272c-1.825-1.53-2.879-3.663-2.879-5.848
		C26.225,70.265,27.272,68.137,29.104,66.608z"/>
</g>
<g>
</g>
<g>
</g>
<g>
</g>
<g>
</g>
<g>
</g>
<g>
</g>
<g>
</g>
<g>
</g>
<g>
</g>
<g>
</g>
<g>
</g>
<g>
</g>
<g>
</g>
<g>
</g>
<g>
</g>
</svg>
