<?xml version="1.0" encoding="iso-8859-1"?>
<!-- Generator: Adobe Illustrator 19.1.0, SVG Export Plug-In . SVG Version: 6.00 Build 0)  -->
<svg version="1.1" id="Capa_1" xmlns="http://www.w3.org/2000/svg" xmlns:xlink="http://www.w3.org/1999/xlink" x="0px" y="0px"
	 viewBox="0 0 319.317 319.317" style="enable-background:new 0 0 319.317 319.317;" xml:space="preserve">
<g>
	<path d="M91.419,82.161L91.419,82.161L91.419,82.161L91.419,82.161z M312.823,100.374v70.695
		c-0.006,12.404-10.103,22.494-22.5,22.494c-12.404,0-22.494-10.09-22.494-22.494v-70.695c0-2.725-0.482-3.959-0.668-4.21
		c-0.321-0.289-1.472-0.771-4.859-1.131l-158.029-0.019v32.076c0,11.697-8.091,17.815-16.08,17.815
		c-2.918,0-7.365-0.816-12.005-4.704L13.982,88.144c-4.756-3.978-7.487-9.705-7.487-15.701c0-5.996,2.731-11.716,7.487-15.694
		L76.187,4.698C80.834,0.816,85.274,0,88.192,0c7.989,0,16.08,6.118,16.08,17.809v32.218l157.592,0.013l0.874-0.013
		c5.013,0,22.391,0.983,35.669,13.766C304.976,70.123,312.823,81.614,312.823,100.374z M299.969,100.374
		c0-14.248-5.701-22.719-10.482-27.32c-9.807-9.447-22.957-10.174-26.755-10.174l-0.681,0.013L91.425,62.88V17.815
		c0-3.098-1.208-4.955-3.226-4.955c-0.643,0-1.986,0.225-3.753,1.71L22.234,66.627c-1.832,1.523-2.879,3.65-2.879,5.836
		c0,2.192,1.048,4.312,2.879,5.842l62.212,52.07c1.767,1.478,3.111,1.71,3.753,1.71c2.018,0,3.226-1.851,3.226-4.962V82.18
		l171.776,0.045c3.265,0.347,9.12,0.951,13.072,4.891c2.924,2.918,4.422,7.384,4.422,13.278v70.695c0,5.309,4.325,9.64,9.64,9.64
		s9.64-4.332,9.64-9.64v-70.714H299.969z M305.329,231.18c4.756,3.985,7.487,9.711,7.487,15.694c0,6.003-2.731,11.716-7.481,15.701
		l-62.212,52.051c-4.647,3.882-9.088,4.692-12.005,4.692c-7.989,0-16.08-6.118-16.08-17.809v-32.218l-157.592-0.013l-0.945,0.013
		c-4.987,0-22.32-0.983-35.585-13.773c-6.575-6.324-14.422-17.809-14.422-36.575v-70.689c0-12.404,10.09-22.494,22.494-22.494
		s22.494,10.09,22.494,22.494v70.702c0,2.725,0.482,3.959,0.668,4.21c0.572,0.508,3.078,1.15,4.685,1.15h158.203v-32.076
		c0-11.697,8.091-17.822,16.08-17.822c2.911,0,7.359,0.816,12.005,4.711L305.329,231.18z M299.969,246.868
		c0-2.179-1.054-4.306-2.886-5.842l-62.205-52.064c-1.78-1.485-3.117-1.716-3.76-1.716c-2.018,0-3.226,1.857-3.226,4.968v44.93
		H56.836c-0.906,0-8.972-0.135-13.792-4.936c-2.937-2.911-4.422-7.378-4.422-13.278v-70.676c0-5.309-4.325-9.64-9.64-9.64
		s-9.64,4.332-9.64,9.64v70.702c0,14.255,5.701,22.719,10.482,27.314c9.807,9.454,22.899,10.18,26.671,10.18l0.945-0.013
		l170.446,0.013v45.071c0,3.098,1.208,4.955,3.226,4.955c0.649,0,1.992-0.219,3.766-1.71l62.205-52.038
		C298.915,251.186,299.969,249.053,299.969,246.868z"/>
</g>
<g>
</g>
<g>
</g>
<g>
</g>
<g>
</g>
<g>
</g>
<g>
</g>
<g>
</g>
<g>
</g>
<g>
</g>
<g>
</g>
<g>
</g>
<g>
</g>
<g>
</g>
<g>
</g>
<g>
</g>
</svg>
