<?xml version="1.0" encoding="iso-8859-1"?>
<!-- Generator: Adobe Illustrator 19.1.0, SVG Export Plug-In . SVG Version: 6.00 Build 0)  -->
<svg version="1.1" id="Capa_1" xmlns="http://www.w3.org/2000/svg" xmlns:xlink="http://www.w3.org/1999/xlink" x="0px" y="0px"
	 viewBox="0 0 333.456 333.456" style="enable-background:new 0 0 333.456 333.456;" xml:space="preserve">
<g>
	<path d="M333.039,162.273c-0.116-0.591-0.276-1.163-0.643-2.32c-0.193-0.668-0.398-1.33-0.662-1.967
		c-0.264-0.611-0.566-1.195-0.893-1.767l-0.328-0.598c-0.251-0.508-0.527-1.003-0.861-1.504c-0.829-1.221-1.755-2.365-2.802-3.406
		l-36.286-36.286c-8.496-8.49-23.342-8.49-31.806,0.006c-4.242,4.248-6.588,9.897-6.588,15.906c0,5.058,1.652,9.859,4.717,13.792
		h-58.87c-12.404,0-22.494,10.084-22.494,22.494c0,12.397,10.09,22.488,22.494,22.488H256.9c-3.066,3.92-4.73,8.728-4.73,13.792
		c0,6.022,2.346,11.665,6.588,15.906c4.255,4.248,9.904,6.588,15.906,6.588c6.016,0,11.658-2.346,15.913-6.581l36.279-36.273
		c1.06-1.054,2.012-2.217,2.802-3.406c0.309-0.456,0.572-0.938,0.823-1.433l0.315-0.572c0.347-0.63,0.668-1.24,0.945-1.909
		c0.264-0.623,0.456-1.247,0.636-1.883l0.193-0.656c0.174-0.559,0.341-1.125,0.45-1.658c0.225-1.17,0.373-2.352,0.411-3.535
		l0.026-0.88C333.463,165.159,333.315,163.674,333.039,162.273z M320.609,166.65c0,0.617-0.071,1.228-0.263,2.031l-1.369,3.284
		c-0.36,0.533-0.758,1.015-1.208,1.472l-36.279,36.279c-3.638,3.631-10,3.631-13.631,0c-1.819-1.825-2.821-4.242-2.821-6.825
		c0-2.584,1.003-5,2.821-6.819l19.833-19.833H198.03c-5.321,0-9.64-4.332-9.64-9.634c0-5.315,4.319-9.64,9.64-9.64h89.661
		l-19.82-19.82c-1.819-1.819-2.821-4.242-2.821-6.819s1.003-5,2.834-6.825c3.618-3.65,9.981-3.631,13.618,0l36.286,36.279
		c0.45,0.45,0.848,0.951,1.253,1.594l1.382,3.348c0.096,0.508,0.161,1.028,0.186,1.555
		C320.609,166.277,320.609,166.65,320.609,166.65z M135.426,144.137H76.544c3.066-3.927,4.724-8.734,4.724-13.798
		c0-6.003-2.339-11.652-6.588-15.906c-8.49-8.49-23.336-8.49-31.806,0.006L6.639,150.673c-1.067,1.067-2.024,2.243-2.847,3.47
		c-0.321,0.469-0.585,0.958-1.028,1.825c-0.386,0.662-0.752,1.33-1.073,2.108c-0.238,0.591-0.418,1.189-0.765,2.397
		c-0.199,0.591-0.379,1.183-0.482,1.742c-0.219,1.112-0.36,2.23-0.405,3.348L0,166.631c0,1.446,0.148,2.924,0.431,4.338
		c0.116,0.604,0.283,1.17,0.604,2.179c0.193,0.713,0.405,1.427,0.688,2.102c0.263,0.623,0.572,1.208,1.208,2.352
		c0.257,0.508,0.521,0.996,0.874,1.517c0.823,1.221,1.748,2.365,2.796,3.406l36.286,36.286c4.248,4.242,9.891,6.581,15.906,6.581
		s11.671-2.346,15.894-6.575c4.248-4.255,6.588-9.897,6.588-15.913c0-5.064-1.652-9.865-4.711-13.786h58.87
		c12.404,0,22.494-10.09,22.494-22.494C157.92,154.227,147.83,144.137,135.426,144.137z M135.439,176.264H45.785l19.814,19.82
		c1.819,1.819,2.821,4.235,2.821,6.819s-1.003,5-2.828,6.832c-3.618,3.618-9.987,3.625-13.625-0.006l-36.286-36.286
		c-0.45-0.45-0.855-0.951-1.266-1.632l-1.362-3.291c-0.096-0.521-0.161-1.041-0.186-1.568v-0.36c0-0.623,0.064-1.234,0.174-1.787
		l0.289-0.913l0.257-0.938c0.09-0.212,0.212-0.405,0.572-1.028l0.321-0.649c0.366-0.546,0.784-1.054,1.253-1.523l36.254-36.247
		c3.618-3.644,9.987-3.638,13.618,0c3.76,3.76,3.76,9.878,0,13.638l-19.833,19.84h89.667c5.315,0,9.64,4.325,9.64,9.64
		C145.079,171.933,140.754,176.264,135.439,176.264z"/>
</g>
<g>
</g>
<g>
</g>
<g>
</g>
<g>
</g>
<g>
</g>
<g>
</g>
<g>
</g>
<g>
</g>
<g>
</g>
<g>
</g>
<g>
</g>
<g>
</g>
<g>
</g>
<g>
</g>
<g>
</g>
</svg>
