<?xml version="1.0" encoding="iso-8859-1"?>
<!-- Generator: Adobe Illustrator 19.1.0, SVG Export Plug-In . SVG Version: 6.00 Build 0)  -->
<svg version="1.1" id="Capa_1" xmlns="http://www.w3.org/2000/svg" xmlns:xlink="http://www.w3.org/1999/xlink" x="0px" y="0px"
	 viewBox="0 0 248.995 248.995" style="enable-background:new 0 0 248.995 248.995;" xml:space="preserve">
<g>
	<path d="M226.488,152.679c-6.022,0-11.665,2.339-15.926,6.588c-3.58,3.573-5.791,8.136-6.395,13.079l-41.639-41.639
		c-8.496-8.496-23.31-8.496-31.806,0c-4.255,4.248-6.588,9.891-6.588,15.913c0,6.009,2.333,11.652,6.588,15.906l41.633,41.639
		c-4.936,0.611-9.505,2.828-13.091,6.408c-4.242,4.255-6.588,9.904-6.575,15.913c0,6.022,2.333,11.665,6.575,15.9
		c4.242,4.255,9.878,6.594,15.894,6.594h0.026l51.338-0.006c1.459,0,2.937-0.141,4.357-0.431c0.553-0.109,1.08-0.264,2.108-0.585
		c0.713-0.193,1.433-0.405,2.147-0.701c0.578-0.231,1.131-0.54,1.671-0.848l0.649-0.341c0.527-0.263,1.028-0.533,1.555-0.887
		c1.202-0.81,2.327-1.735,2.937-2.371l0.938-0.919c0.835-0.893,1.62-1.877,2.307-2.898c0.328-0.482,0.604-0.983,1.157-2.057
		c0.366-0.623,0.707-1.266,0.919-1.832c0.276-0.656,0.476-1.305,0.816-2.513c0.186-0.566,0.366-1.144,0.476-1.71
		c0.289-1.459,0.437-2.937,0.437-4.409v-51.318C248.969,162.763,238.892,152.679,226.488,152.679z M236.141,226.478
		c0,0.63-0.064,1.26-0.251,2.037l-1.369,3.303c-0.366,0.546-0.771,1.041-1.202,1.459l-0.129,0.135
		c-0.424,0.405-0.887,0.778-1.517,1.163l-3.291,1.356c-0.617,0.129-1.247,0.186-1.96,0.186l-51.273,0.006l-0.013,6.427v-6.427
		c-2.571,0-4.968-0.996-6.806-2.828c-1.812-1.812-2.815-4.235-2.815-6.819c0-2.571,0.996-4.994,2.815-6.819
		c1.838-1.812,4.261-2.815,6.832-2.815h28.053l-63.401-63.401c-1.819-1.825-2.815-4.242-2.815-6.819s0.996-5,2.815-6.825
		c3.638-3.631,10-3.631,13.631,0l63.401,63.394V175.16c0-2.571,0.996-4.987,2.815-6.812c1.819-1.819,4.242-2.821,6.851-2.821
		c5.296,0,9.602,4.325,9.615,9.634v51.318H236.141z M118.299,86.47L76.659,44.83c11.093-1.388,19.685-10.861,19.685-22.32
		c0-12.404-10.09-22.494-22.494-22.494l-50.65,0.006l-0.032-0.006l-2.204,0.006l-0.135,0.064c-0.919,0.084-1.819,0.199-2.738,0.386
		c-0.527,0.103-1.035,0.257-1.536,0.411l-0.694,0.206c-0.668,0.193-1.343,0.398-1.934,0.649c-0.604,0.244-1.17,0.553-1.735,0.868
		l-0.694,0.379c-0.514,0.257-1.009,0.527-1.465,0.835c-2.494,1.665-4.589,3.76-6.221,6.215c-0.315,0.463-0.578,0.945-0.829,1.44
		l-0.328,0.604c-0.334,0.591-0.656,1.195-0.938,1.857c-0.238,0.591-0.424,1.183-0.591,1.787l-0.193,0.662
		c-0.193,0.598-0.379,1.208-0.476,1.755c-0.257,1.273-0.379,2.551-0.373,3.284L0,22.079L0.006,73.86
		c0.006,6.003,2.346,11.639,6.594,15.9c4.255,4.248,9.904,6.581,15.906,6.581c11.453,0,20.919-8.599,22.327-19.679l41.62,41.633
		c4.255,4.248,9.897,6.581,15.913,6.581c6.009,0,11.652-2.333,15.926-6.575c4.248-4.248,6.581-9.891,6.581-15.913
		C124.886,96.367,122.547,90.718,118.299,86.47z M109.192,109.189c-3.644,3.631-10.013,3.625-13.638,0L32.166,45.801v28.008
		c0,5.315-4.325,9.647-9.64,9.647c-2.571,0-4.994-0.996-6.819-2.821c-1.825-1.825-2.821-4.248-2.828-6.819l-0.006-50.952
		l0.039-0.559c0.013-0.566,0.058-1.131,0.231-1.902l1.356-3.246c0.701-1.06,1.6-1.954,2.821-2.738l3.271-1.356
		c0.63-0.129,1.266-0.186,1.902-0.193l51.338-0.006c5.315,0,9.64,4.325,9.64,9.64s-4.325,9.64-9.634,9.64H45.791l63.401,63.401
		c1.819,1.825,2.815,4.242,2.815,6.819C112.013,104.947,111.011,107.37,109.192,109.189z"/>
</g>
<g>
</g>
<g>
</g>
<g>
</g>
<g>
</g>
<g>
</g>
<g>
</g>
<g>
</g>
<g>
</g>
<g>
</g>
<g>
</g>
<g>
</g>
<g>
</g>
<g>
</g>
<g>
</g>
<g>
</g>
</svg>
