<?xml version="1.0" encoding="iso-8859-1"?>
<!-- Generator: Adobe Illustrator 19.1.0, SVG Export Plug-In . SVG Version: 6.00 Build 0)  -->
<svg version="1.1" id="Capa_1" xmlns="http://www.w3.org/2000/svg" xmlns:xlink="http://www.w3.org/1999/xlink" x="0px" y="0px"
	 viewBox="0 0 333.829 333.829" style="enable-background:new 0 0 333.829 333.829;" xml:space="preserve">
<g>
	<path d="M166.911,333.826C74.879,333.826,0,258.953,0,166.915S74.879,0.003,166.911,0.003c92.045,0,166.918,74.879,166.918,166.918
		S258.956,333.826,166.911,333.826z M166.911,12.857c-84.95,0-154.058,69.108-154.058,154.064
		c0,84.943,69.108,154.058,154.058,154.058s154.064-69.114,154.064-154.058C320.975,81.965,251.868,12.857,166.911,12.857z
		 M276.09,183.901c1.067-5.225-2.294-10.315-7.519-11.382c-5.186-1.041-10.309,2.294-11.375,7.519
		c-8.76,42.79-46.871,73.844-90.625,73.844c-43.047,0-80.059-29.21-90.001-71.036c-1.221-5.174-6.42-8.426-11.607-7.14
		c-5.186,1.228-8.387,6.427-7.147,11.6c12.012,50.56,56.736,85.856,108.755,85.856C219.444,273.163,265.499,235.617,276.09,183.901z
		 M236.578,143.206c0-14.563-12.05-20.36-20.521-20.707h-2.635v-8.233h12.719c4.884,0,8.85-3.959,8.85-8.85
		c0-4.884-3.965-8.843-8.85-8.843h-12.725V81.283c0-4.891-3.965-8.85-8.85-8.85s-8.837,3.959-8.837,8.85v15.347
		c-13.207,0.296-22.378,9.03-22.378,21.511c0,13.336,8.773,21.96,22.378,22.044v7.018h-14.332c-4.884,0-8.837,3.959-8.837,8.85
		c0,4.884,3.952,8.843,8.837,8.843h14.332v15.283c0,4.884,3.953,8.85,8.837,8.85s8.85-3.965,8.85-8.85v-15.373
		C234.804,163.836,236.578,148.135,236.578,143.206z M191.05,118.135c0-1.382,0.064-3.618,4.685-3.837v8.188
		C191.288,122.441,191.05,120.879,191.05,118.135z M213.416,147.133v-6.941h2.275c3.188,0.135,3.188,2.294,3.188,3.014
		C218.879,145.282,218.827,146.831,213.416,147.133z M161.288,143.206c0-14.563-12.05-20.36-20.521-20.707h-2.635v-8.233h12.719
		c4.884,0,8.85-3.959,8.85-8.85c0-4.884-3.965-8.843-8.85-8.843h-12.719V81.283c0-4.891-3.965-8.85-8.85-8.85
		c-4.884,0-8.85,3.959-8.85,8.85v15.347c-13.194,0.296-22.365,9.03-22.365,21.511c0,13.336,8.773,21.96,22.365,22.044v7.018h-14.325
		c-4.884,0-8.85,3.959-8.85,8.85c0,4.884,3.965,8.843,8.85,8.843h14.325v15.283c0,4.884,3.965,8.85,8.85,8.85
		c4.884,0,8.85-3.965,8.85-8.85v-15.373C159.52,163.836,161.288,148.135,161.288,143.206z M115.747,118.135
		c0-1.382,0.064-3.618,4.685-3.837v8.188C115.998,122.441,115.747,120.879,115.747,118.135z M138.132,147.133v-6.941h2.275
		c3.188,0.135,3.188,2.294,3.188,3.014C143.588,145.282,143.543,146.831,138.132,147.133z"/>
</g>
<g>
</g>
<g>
</g>
<g>
</g>
<g>
</g>
<g>
</g>
<g>
</g>
<g>
</g>
<g>
</g>
<g>
</g>
<g>
</g>
<g>
</g>
<g>
</g>
<g>
</g>
<g>
</g>
<g>
</g>
</svg>
