<?xml version="1.0" encoding="iso-8859-1"?>
<!-- Generator: Adobe Illustrator 19.1.0, SVG Export Plug-In . SVG Version: 6.00 Build 0)  -->
<svg version="1.1" id="Capa_1" xmlns="http://www.w3.org/2000/svg" xmlns:xlink="http://www.w3.org/1999/xlink" x="0px" y="0px"
	 viewBox="0 0 301.213 301.213" style="enable-background:new 0 0 301.213 301.213;" xml:space="preserve">
<g>
	<g>
		<path d="M78.979,301.213c-13.67,0-27.5-10.752-27.5-31.305V31.312C51.479,10.759,65.309,0,78.979,0
			c5.09,0,12.924,1.472,21.318,8.496l135.818,113.639c8.663,7.237,13.618,17.603,13.618,28.452s-4.955,21.215-13.618,28.458
			L100.297,292.697C91.891,299.741,84.069,301.213,78.979,301.213z M78.979,12.854c-7.294,0-14.647,5.707-14.647,18.458v238.596
			c0,12.744,7.359,18.451,14.647,18.451c2.956,0,7.629-0.958,13.072-5.514L227.87,169.18c5.739-4.794,9.01-11.568,9.01-18.599
			c0-7.025-3.278-13.798-9.01-18.593L92.052,18.361C86.608,13.811,81.942,12.854,78.979,12.854z"/>
	</g>
</g>
<g>
</g>
<g>
</g>
<g>
</g>
<g>
</g>
<g>
</g>
<g>
</g>
<g>
</g>
<g>
</g>
<g>
</g>
<g>
</g>
<g>
</g>
<g>
</g>
<g>
</g>
<g>
</g>
<g>
</g>
</svg>
