<?xml version="1.0" encoding="iso-8859-1"?>
<!-- Generator: Adobe Illustrator 19.1.0, SVG Export Plug-In . SVG Version: 6.00 Build 0)  -->
<svg version="1.1" id="Capa_1" xmlns="http://www.w3.org/2000/svg" xmlns:xlink="http://www.w3.org/1999/xlink" x="0px" y="0px"
	 viewBox="0 0 327.062 327.062" style="enable-background:new 0 0 327.062 327.062;" xml:space="preserve">
<g>
	<g>
		<path d="M208.737,268.134c-10.321,0-20.772-8.034-20.772-23.374v-58.735H22.494C10.09,186.025,0,175.935,0,163.531
			c0-12.404,10.09-22.494,22.494-22.494h165.465V82.302c0-15.347,10.45-23.374,20.772-23.374c3.811,0,9.647,1.086,15.836,6.273
			l92.482,77.373c6.363,5.321,10.013,12.957,10.013,20.945s-3.644,15.63-10.013,20.951l-92.482,77.386
			C218.377,267.041,212.542,268.134,208.737,268.134z M22.494,153.891c-5.315,0-9.64,4.325-9.64,9.64s4.325,9.64,9.64,9.64h178.319
			v71.589c0,7.757,4.267,10.521,7.918,10.521c1.677,0,4.351-0.578,7.59-3.278l92.482-77.398c3.432-2.873,5.405-6.915,5.405-11.086
			s-1.973-8.214-5.405-11.086l-92.476-77.373c-3.233-2.706-5.913-3.271-7.59-3.271c-3.65,0-7.918,2.757-7.918,10.521v71.589H22.494
			V153.891z"/>
	</g>
</g>
<g>
</g>
<g>
</g>
<g>
</g>
<g>
</g>
<g>
</g>
<g>
</g>
<g>
</g>
<g>
</g>
<g>
</g>
<g>
</g>
<g>
</g>
<g>
</g>
<g>
</g>
<g>
</g>
<g>
</g>
</svg>
