<?xml version="1.0" encoding="iso-8859-1"?>
<!-- Generator: Adobe Illustrator 19.1.0, SVG Export Plug-In . SVG Version: 6.00 Build 0)  -->
<svg version="1.1" id="Capa_1" xmlns="http://www.w3.org/2000/svg" xmlns:xlink="http://www.w3.org/1999/xlink" x="0px" y="0px"
	 viewBox="0 0 333.476 333.476" style="enable-background:new 0 0 333.476 333.476;" xml:space="preserve">
<g>
	<path d="M156.866,159.965c-0.193-0.668-0.392-1.33-0.656-1.967c-0.257-0.611-0.566-1.195-0.9-1.767l-0.328-0.598
		c-0.251-0.508-0.521-1.003-0.855-1.504c-0.823-1.221-1.755-2.365-2.796-3.406l-36.286-36.286c-8.496-8.49-23.336-8.49-31.806,0.006
		c-4.248,4.248-6.581,9.897-6.581,15.906c0,5.058,1.652,9.859,4.704,13.792h-58.87C10.09,144.142,0,154.226,0,166.636
		c0,12.397,10.09,22.487,22.494,22.487h58.883c-3.059,3.92-4.717,8.728-4.717,13.792c0,6.022,2.333,11.665,6.581,15.906
		c4.255,4.248,9.897,6.588,15.913,6.588c6.009,0,11.652-2.346,15.906-6.581l36.273-36.273c1.06-1.054,2.018-2.217,2.809-3.406
		c0.308-0.456,0.572-0.938,0.816-1.433l0.315-0.572c0.347-0.63,0.681-1.24,0.958-1.909c0.257-0.623,0.443-1.247,0.63-1.883
		l0.193-0.656c0.174-0.559,0.341-1.125,0.45-1.658c0.225-1.17,0.373-2.352,0.411-3.535l0.026-0.88c0-1.452-0.141-2.931-0.424-4.338
		C157.4,161.7,157.232,161.128,156.866,159.965z M145.079,166.668c0,0.617-0.064,1.228-0.257,2.031l-1.375,3.284
		c-0.353,0.533-0.758,1.015-1.208,1.472l-36.279,36.279c-3.638,3.631-9.994,3.631-13.631,0c-1.819-1.825-2.815-4.242-2.815-6.825
		s0.996-5,2.815-6.819l19.833-19.833H22.5c-5.309,0-9.64-4.332-9.64-9.634c0-5.315,4.332-9.64,9.64-9.64h89.667l-19.82-19.82
		c-1.819-1.819-2.815-4.242-2.815-6.819c0-2.577,0.996-5,2.821-6.825c3.625-3.65,9.994-3.631,13.625,0l36.286,36.279
		c0.443,0.45,0.848,0.951,1.24,1.594l1.382,3.348c0.103,0.508,0.167,1.028,0.186,1.555v0.373H145.079z M333.437,165.569
		c-0.058-1.118-0.193-2.224-0.405-3.284c-0.116-0.623-0.289-1.208-0.668-2.41c-0.174-0.604-0.36-1.202-0.623-1.857
		c-0.296-0.701-0.662-1.382-1.234-2.416c-0.251-0.488-0.514-0.977-0.816-1.433c-0.842-1.253-1.799-2.423-2.86-3.483l-36.234-36.241
		c-8.483-8.503-23.323-8.503-31.813-0.006c-4.248,4.255-6.588,9.897-6.588,15.906c0,5.064,1.658,9.872,4.724,13.798h-58.883
		c-12.404,0-22.494,10.084-22.494,22.494c0,12.404,10.09,22.494,22.494,22.494h58.87c-3.059,3.92-4.711,8.721-4.711,13.786
		c0,6.016,2.339,11.658,6.581,15.9c4.248,4.255,9.897,6.594,15.913,6.594c6.009,0,11.652-2.346,15.913-6.594l36.286-36.279
		c1.041-1.041,1.967-2.185,2.815-3.445c0.321-0.482,0.585-0.977,1.144-2.05c0.334-0.572,0.649-1.157,0.906-1.774
		c0.289-0.681,0.495-1.388,0.823-2.545c0.186-0.572,0.36-1.138,0.456-1.677c0.296-1.472,0.443-2.956,0.443-4.402L333.437,165.569z
		 M320.603,166.938c-0.019,0.54-0.103,1.093-0.238,1.722l-1.369,3.323c-0.36,0.533-0.758,1.028-1.208,1.478l-36.286,36.286
		c-3.65,3.631-10.013,3.625-13.631,0c-1.819-1.825-2.821-4.242-2.821-6.825s1.003-5,2.821-6.819l19.82-19.82h-89.654
		c-5.315,0-9.64-4.332-9.64-9.64c0-5.315,4.325-9.64,9.64-9.64h89.667l-19.833-19.833c-3.76-3.76-3.76-9.878,0-13.631
		c3.618-3.638,9.981-3.657,13.631,0l36.247,36.254c0.463,0.463,0.88,0.97,1.26,1.568l0.553,1.022
		c0.109,0.193,0.238,0.392,0.405,0.932l0.443,1.465c0.122,0.611,0.186,1.221,0.186,1.844v0.315H320.603z"/>
</g>
<g>
</g>
<g>
</g>
<g>
</g>
<g>
</g>
<g>
</g>
<g>
</g>
<g>
</g>
<g>
</g>
<g>
</g>
<g>
</g>
<g>
</g>
<g>
</g>
<g>
</g>
<g>
</g>
<g>
</g>
</svg>
