<?xml version="1.0" encoding="iso-8859-1"?>
<!-- Generator: Adobe Illustrator 19.1.0, SVG Export Plug-In . SVG Version: 6.00 Build 0)  -->
<svg version="1.1" id="Capa_1" xmlns="http://www.w3.org/2000/svg" xmlns:xlink="http://www.w3.org/1999/xlink" x="0px" y="0px"
	 viewBox="0 0 333.842 333.842" style="enable-background:new 0 0 333.842 333.842;" xml:space="preserve">
<g>
	<path d="M166.911,333.835C74.879,333.835,0,258.963,0,166.918C0,74.885,74.873,0.006,166.911,0.006
		c92.045,0,166.931,74.873,166.931,166.911C333.835,258.963,258.956,333.835,166.911,333.835z M166.911,12.867
		c-84.95,0-154.058,69.108-154.058,154.058s69.108,154.064,154.058,154.064c84.956,0,154.077-69.114,154.077-154.064
		C320.982,81.974,251.868,12.867,166.911,12.867z M98.851,229.843c19.146-17.385,43.96-26.961,69.853-26.961
		c25.817,0,50.566,9.525,69.699,26.813c3.946,3.567,10.039,3.265,13.618-0.688c3.567-3.94,3.258-10.045-0.688-13.618
		c-22.68-20.489-52.025-31.781-82.623-31.781c-30.695,0-60.11,11.363-82.81,31.973c-3.946,3.58-4.235,9.666-0.662,13.606
		c1.902,2.095,4.512,3.162,7.134,3.162C94.687,232.336,97.007,231.514,98.851,229.843z M254.798,117.386
		c0-5.328-4.319-9.64-9.64-9.64h-49.416c-5.321,0-9.64,4.312-9.64,9.64s4.319,9.64,9.64,9.64h49.416
		C250.479,127.026,254.798,122.714,254.798,117.386z M154.79,117.386c0-5.328-4.319-9.64-9.64-9.64H95.734
		c-5.321,0-9.64,4.312-9.64,9.64s4.319,9.64,9.64,9.64h49.416C150.471,127.026,154.79,122.714,154.79,117.386z"/>
</g>
<g>
</g>
<g>
</g>
<g>
</g>
<g>
</g>
<g>
</g>
<g>
</g>
<g>
</g>
<g>
</g>
<g>
</g>
<g>
</g>
<g>
</g>
<g>
</g>
<g>
</g>
<g>
</g>
<g>
</g>
</svg>
