<?xml version="1.0" encoding="iso-8859-1"?>
<!-- Generator: Adobe Illustrator 19.1.0, SVG Export Plug-In . SVG Version: 6.00 Build 0)  -->
<svg version="1.1" id="Capa_1" xmlns="http://www.w3.org/2000/svg" xmlns:xlink="http://www.w3.org/1999/xlink" x="0px" y="0px"
	 viewBox="0 0 333.842 333.842" style="enable-background:new 0 0 333.842 333.842;" xml:space="preserve">
<g>
	<path d="M166.918,333.842c-92.032,0-166.911-74.879-166.911-166.924C0.006,74.885,74.879,0,166.918,0
		c92.045,0,166.918,74.879,166.918,166.918C333.835,258.963,258.963,333.842,166.918,333.842z M166.918,12.86
		c-84.95,0-154.058,69.114-154.058,154.064c0,84.956,69.108,154.07,154.058,154.07s154.064-69.114,154.064-154.07
		C320.982,81.974,251.874,12.86,166.918,12.86z M207.182,97.334c-10.656,0-19.293,8.631-19.293,19.293
		c0,10.649,8.638,19.293,19.293,19.293s19.293-8.644,19.293-19.293C226.475,105.959,217.844,97.334,207.182,97.334z M126.853,97.334
		c-10.656,0-19.293,8.631-19.293,19.293c0,10.649,8.638,19.293,19.293,19.293s19.293-8.644,19.293-19.293
		C146.146,105.959,137.509,97.334,126.853,97.334z M98.858,229.843c19.146-17.385,43.96-26.954,69.853-26.954
		c25.817,0,50.573,9.518,69.686,26.806c3.953,3.573,10.045,3.265,13.618-0.681c3.567-3.946,3.265-10.045-0.688-13.612
		c-22.667-20.502-52.019-31.787-82.617-31.787c-30.695,0-60.11,11.35-82.81,31.967c-3.946,3.58-4.235,9.672-0.662,13.612
		c1.902,2.095,4.512,3.162,7.134,3.162C94.699,232.343,97.013,231.52,98.858,229.843z M248.622,150.33l0.051-0.006l-18.239-21.665
		l-7.507,26.498l0.064-0.013c-0.353,1.253-0.591,2.545-0.591,3.908c0,8.059,6.53,14.595,14.589,14.595
		c8.059,0,14.595-6.536,14.595-14.595C251.585,155.767,250.454,152.772,248.622,150.33z"/>
</g>
<g>
</g>
<g>
</g>
<g>
</g>
<g>
</g>
<g>
</g>
<g>
</g>
<g>
</g>
<g>
</g>
<g>
</g>
<g>
</g>
<g>
</g>
<g>
</g>
<g>
</g>
<g>
</g>
<g>
</g>
</svg>
