<?xml version='1.0' encoding='iso-8859-1'?>
<svg version="1.1" xmlns="http://www.w3.org/2000/svg" viewBox="0 0 44 44" xmlns:xlink="http://www.w3.org/1999/xlink" enable-background="new 0 0 44 44">
  <g>
    <g>
      <path d="m5,32c1.657,0 3,0.896 3,2 0,0.553 0.448,1 1,1s1-0.447 1-1c0-2.209-2.239-4-5-4-2.762,0-5,1.791-5,4s2.238,4 5,4c1.657,0 3,0.896 3,2s-1.343,2-3,2-3-0.896-3-2c0-0.553-0.448-1-1-1s-1,0.447-1,1c0,2.209 2.238,4 5,4 2.761,0 5-1.791 5-4s-2.239-4-5-4c-1.657,0-3-0.896-3-2s1.343-2 3-2zm29.697-30.729c-0.392-0.393-1.028-0.393-1.42-8.88178e-16l-24.006,24.006c-0.392,0.393-0.392,1.028 0,1.42 0.392,0.392 1.027,0.392 1.419,0l24.007-24.006c0.392-0.392 0.392-1.028 0-1.42zm-19.697,12.729c3.866,0 7-3.134 7-7s-3.134-7-7-7-7,3.134-7,7 3.134,7 7,7zm0-12c2.761,0 5,2.238 5,5s-2.239,5-5,5c-2.761,0-5-2.238-5-5s2.239-5 5-5zm2.973,28.849c-0.05-0.294-0.225-0.544-0.476-0.697-0.021-0.013-0.043-0.022-0.065-0.033-0.056-0.029-0.103-0.069-0.165-0.087-0.03-0.008-0.06,0-0.09-0.006-0.058-0.012-0.116-0.011-0.177-0.012-0.06,0.001-0.119,0-0.177,0.012-0.03,0.006-0.059-0.002-0.089,0.006-0.062,0.018-0.11,0.058-0.165,0.087-0.023,0.012-0.044,0.021-0.066,0.033-0.25,0.153-0.426,0.403-0.475,0.697l-5.011,11.849c-0.14,0.55 0.17,1.114 0.694,1.262 0.523,0.147 1.061-0.179 1.202-0.728l.955-2.258c0.044,0.005 0.085,0.026 0.132,0.026h6c0.047,0 0.088-0.021 0.133-0.027l.955,2.258c0.14,0.55 0.679,0.875 1.202,0.728 0.524-0.147 0.835-0.712 0.694-1.262l-5.011-11.848zm-3.272,8.151l2.299-5.435 2.299,5.435h-4.598zm17.299,3h-5v-11c0-0.553-0.448-1-1-1s-1,0.447-1,1v12c0,0.553 0.448,1 1,1h6c0.552,0 1-0.447 1-1 0-0.553-0.448-1-1-1zm11,0h-6v-4h5c0.552,0 1-0.447 1-1 0-0.553-0.448-1-1-1h-5v-4h6c0.552,0 1-0.447 1-1 0-0.553-0.448-1-1-1h-7c-0.552,0-1,0.447-1,1v12c0,0.553 0.448,1 1,1h7c0.552,0 1-0.447 1-1 0-0.553-0.448-1-1-1zm-14-28c-3.866,0-7,3.134-7,7s3.134,7 7,7 7-3.134 7-7-3.134-7-7-7zm0,12c-2.761,0-5-2.238-5-5s2.239-5 5-5c2.761,0 5,2.238 5,5s-2.239,5-5,5z"/>
    </g>
  </g>
</svg>
