<?xml version="1.0" encoding="iso-8859-1"?>
<!-- Generator: Adobe Illustrator 19.1.0, SVG Export Plug-In . SVG Version: 6.00 Build 0)  -->
<svg version="1.1" id="Capa_1" xmlns="http://www.w3.org/2000/svg" xmlns:xlink="http://www.w3.org/1999/xlink" x="0px" y="0px"
	 viewBox="0 0 330.731 330.731" style="enable-background:new 0 0 330.731 330.731;" xml:space="preserve">
<g>
	<path d="M223.982,229.515c34.422,0,67.096-13.201,91.994-37.154l4.717-4.544l-90.58-90.599l30.123-30.123
		c2.423,1.086,5.09,1.722,7.911,1.722c10.707,0,19.396-8.689,19.396-19.403s-8.689-19.409-19.396-19.409
		c-10.714,0-19.409,8.696-19.409,19.409c0,3.181,0.848,6.138,2.204,8.785l-29.923,29.91L132.907,0l-4.544,4.724
		c-23.966,24.904-37.16,57.578-37.16,92c0,29.904,10.058,57.443,26.819,79.673c-4.345,3.638-7.16,9.036-7.16,15.142
		c0,2.828,0.623,5.514,1.697,7.956l-58.266,58.266H29.319c-10.63,0-19.281,8.651-19.281,19.28v34.409
		c0,10.624,8.651,19.281,19.281,19.281h199.232c10.63,0,19.281-8.657,19.281-19.281v-34.409c0-10.63-8.651-19.28-19.281-19.28
		h-21.389l-42.372-42.372C182.638,224.361,202.696,229.515,223.982,229.515z M104.057,96.737c0-28.901,10.309-56.434,29.152-78.253
		l169.019,169.032c-21.806,18.85-49.345,29.146-78.247,29.146c-27.674,0-53.111-9.505-73.427-25.309
		c-0.129-10.861-8.959-19.647-19.84-19.647c-0.071,0-0.129,0.019-0.18,0.019C114.012,151.166,104.057,125.105,104.057,96.737z
		 M121.075,218.262v39.531H81.544L121.075,218.262z M234.978,277.08v34.409c0,3.548-2.879,6.427-6.427,6.427H29.319
		c-3.548,0-6.427-2.879-6.427-6.427V277.08c0-3.548,2.879-6.427,6.427-6.427h199.232
		C232.099,270.653,234.978,273.533,234.978,277.08z M140.356,257.8v-39.538l39.531,39.538H140.356z"/>
</g>
<g>
</g>
<g>
</g>
<g>
</g>
<g>
</g>
<g>
</g>
<g>
</g>
<g>
</g>
<g>
</g>
<g>
</g>
<g>
</g>
<g>
</g>
<g>
</g>
<g>
</g>
<g>
</g>
<g>
</g>
</svg>
