<?xml version="1.0" encoding="iso-8859-1"?>
<!-- Generator: Adobe Illustrator 19.1.0, SVG Export Plug-In . SVG Version: 6.00 Build 0)  -->
<svg version="1.1" id="Capa_1" xmlns="http://www.w3.org/2000/svg" xmlns:xlink="http://www.w3.org/1999/xlink" x="0px" y="0px"
	 viewBox="0 0 325.534 325.534" style="enable-background:new 0 0 325.534 325.534;" xml:space="preserve">
<g>
	<path d="M78.485,215.188c-13.143,0-27.745,6.767-39.075,18.092c-8.811,8.811-14.897,19.615-17.134,30.425
		c-2.41,11.613,0.051,22.108,6.748,28.799c5.013,5.013,12.005,7.667,20.219,7.667c13.136,0,27.719-6.761,39.024-18.079
		c19.21-19.197,23.889-45.785,10.424-59.268C93.678,217.835,86.692,215.188,78.485,215.188z M79.179,273.016
		c-8.818,8.824-20.283,14.313-29.936,14.313c-3.303,0-7.905-0.675-11.131-3.901c-3.58-3.58-4.762-9.807-3.252-17.108
		c1.716-8.258,6.684-16.993,13.638-23.946c8.837-8.837,20.328-14.325,29.988-14.325c3.297,0,7.899,0.675,11.118,3.888
		C97.765,240.104,92.9,259.301,79.179,273.016z M301.335,218.504c-15.399-15.399-35.2-24.236-54.32-24.236
		c-12.918,0-24.679,4.229-33.432,11.954l-9.158-9.158l16.491-16.491l4.39-4.698l0,0l51.138-51.138
		c32.089-32.083,32.237-84.442,0.315-116.718l-4.544-4.595l-109.68,109.674L52.855,3.417l-4.544,4.595
		C16.395,40.281,16.537,92.641,48.626,124.73l51.138,51.138l-0.154,0.154l21.016,21.016l-8.683,8.689
		c-8.76-7.731-20.521-11.96-33.439-11.96c-19.12,0-38.914,8.837-54.313,24.236c-27.616,27.623-32.282,67.887-10.405,89.764
		c8.92,8.927,21.504,13.837,35.431,13.837c19.12,0,38.914-8.83,54.332-24.242c1.125-1.131,2.179-2.294,3.303-3.567
		c1.575-1.292,3.117-2.686,4.64-4.203l50.843-50.836l0.051,0.051l0.167-0.167l51.498,51.46c1.51,1.51,3.066,2.905,4.634,4.203
		c1.067,1.202,2.153,2.404,3.323,3.58c15.405,15.399,35.206,24.236,54.32,24.236c0.006,0,0.006,0,0.006,0
		c14.126,0,26.376-4.788,35.431-13.837C333.624,286.39,328.952,246.12,301.335,218.504z M108.852,166.781l-51.138-51.138
		c-25.566-25.566-27.121-66.363-4.595-93.793l100.329,100.329l-34.711,34.711L108.852,166.781z M102.393,280.497
		c-1.324,1.324-2.68,2.532-4.055,3.644l-0.887,0.861c-0.977,1.105-1.967,2.224-3.014,3.278
		c-13.008,13.001-29.499,20.469-45.232,20.469c-10.643,0-19.75-3.483-26.344-10.071C5.997,281.815,10.669,249.7,33.266,227.09
		c13.008-13.008,29.493-20.476,45.226-20.476c10.643,0,19.756,3.483,26.369,10.09c0.636,0.63,1.195,1.318,2.024,2.327l4.505,5.405
		l27.398-27.404l-21.016-21.016l53.838-53.838l0,0L271.952,21.849c22.532,27.43,20.977,68.227-4.595,93.787L162.374,220.625
		l-0.051-0.051L102.393,280.497z M302.659,299.173c-6.587,6.587-15.694,10.071-26.344,10.071c-15.739,0-32.231-7.462-45.226-20.457
		c-1.067-1.073-2.05-2.192-3.143-3.419l-0.752-0.72c-1.382-1.118-2.738-2.327-4.068-3.65l-51.485-51.479l2.41-2.41l21.125-21.119
		l13.966,13.972l5.366,4.505l4.505-5.405c0.533-0.643,1.06-1.285,1.652-1.877c6.588-6.588,15.701-10.071,26.35-10.071
		c15.739,0,32.224,7.462,45.232,20.476C314.851,250.195,319.523,282.309,302.659,299.173z M303.251,264.211
		c-2.243-10.816-8.323-21.613-17.134-30.425c-11.331-11.331-25.939-18.092-39.082-18.092c-8.207,0-15.193,2.648-20.212,7.654
		c-13.458,13.477-8.779,40.052,10.424,59.262c11.305,11.318,25.887,18.079,39.024,18.079c8.213,0,15.206-2.654,20.219-7.667
		C303.193,286.32,305.654,275.825,303.251,264.211z M287.409,283.923c-3.226,3.226-7.834,3.901-11.131,3.901
		c-9.653,0-21.119-5.489-29.936-14.313c-13.715-13.715-18.586-32.912-10.424-41.08c3.22-3.22,7.828-3.895,11.118-3.895
		c9.666,0,21.157,5.489,29.994,14.325c6.954,6.954,11.922,15.681,13.631,23.946C292.171,274.109,290.988,280.349,287.409,283.923z
		 M176.411,180.303l-21.016-21.016c1.864-0.745,3.888-1.189,6.028-1.189c8.927,0,16.176,7.243,16.176,16.176
		C177.593,176.414,177.156,178.439,176.411,180.303z M167.445,189.268c-1.864,0.752-3.895,1.195-6.028,1.195
		c-8.94,0-16.183-7.249-16.183-16.183c0-2.134,0.437-4.165,1.195-6.028L167.445,189.268z"/>
</g>
<g>
</g>
<g>
</g>
<g>
</g>
<g>
</g>
<g>
</g>
<g>
</g>
<g>
</g>
<g>
</g>
<g>
</g>
<g>
</g>
<g>
</g>
<g>
</g>
<g>
</g>
<g>
</g>
<g>
</g>
</svg>
