<?xml version="1.0" encoding="iso-8859-1"?>
<!-- Generator: Adobe Illustrator 19.1.0, SVG Export Plug-In . SVG Version: 6.00 Build 0)  -->
<svg version="1.1" id="Capa_1" xmlns="http://www.w3.org/2000/svg" xmlns:xlink="http://www.w3.org/1999/xlink" x="0px" y="0px"
	 viewBox="0 0 325.172 325.172" style="enable-background:new 0 0 325.172 325.172;" xml:space="preserve">
<g>
	<path d="M311.03,13.831C302.109,4.91,290.245,0,277.623,0s-24.486,4.91-33.4,13.831l-83.504,83.517l3.233,4.441
		c1.806,2.487,1.742,5.771-0.064,8.136l-0.861-0.855c-7.429-7.442-20.412-7.455-27.854-0.006c-7.667,7.674-7.667,20.161,0,27.847
		l17.089,17.083L35.903,270.338l-19.865,4.749L0.312,306.547l18.625,18.625l31.446-15.726l4.962-20.688l-0.308-0.315L170.88,172.599
		l17.089,17.083c3.715,3.715,8.663,5.765,13.921,5.765c5.257,0,10.206-2.05,13.921-5.765c3.715-3.721,5.758-8.67,5.758-13.921
		c0-5.257-2.05-10.206-5.765-13.921l-0.868-0.868c2.32-1.767,5.752-1.806,8.143-0.058l4.441,3.233l83.504-83.504
		c8.927-8.92,13.837-20.784,13.837-33.407C324.88,34.621,319.957,22.751,311.03,13.831z M301.942,71.556l-76.319,76.319
		c-6.928-2.461-15.148-0.688-20.463,4.627c-1.973,1.979-3.477,4.39-4.486,7.159l-1.395,3.843l7.436,7.436
		c1.292,1.285,2.005,3.001,2.005,4.827c0,1.819-0.713,3.541-2.012,4.833c-2.571,2.584-7.07,2.584-9.653,0l-52.796-52.784
		c-2.667-2.667-2.667-7.005-0.006-9.666c1.292-1.298,3.014-2.012,4.846-2.012c1.819,0,3.535,0.707,4.827,2.005l7.442,7.442
		l3.85-1.407c2.783-1.015,5.186-2.526,7.147-4.486c5.495-5.495,7.127-13.451,4.627-20.45l76.319-76.325
		c6.498-6.491,15.129-10.064,24.313-10.064c5.174,0,10.109,1.24,14.647,3.387l-91.615,91.627c-3.92,3.92-3.92,10.283,0,14.203
		c3.92,3.92,10.283,3.92,14.203,0l92.27-92.27c3.111,5.244,4.891,11.189,4.891,17.442C312.02,56.428,308.44,65.065,301.942,71.556z"
		/>
</g>
<g>
</g>
<g>
</g>
<g>
</g>
<g>
</g>
<g>
</g>
<g>
</g>
<g>
</g>
<g>
</g>
<g>
</g>
<g>
</g>
<g>
</g>
<g>
</g>
<g>
</g>
<g>
</g>
<g>
</g>
</svg>
