<?xml version="1.0" encoding="iso-8859-1"?>
<!-- Generator: Adobe Illustrator 19.1.0, SVG Export Plug-In . SVG Version: 6.00 Build 0)  -->
<svg version="1.1" id="Capa_1" xmlns="http://www.w3.org/2000/svg" xmlns:xlink="http://www.w3.org/1999/xlink" x="0px" y="0px"
	 viewBox="0 0 333.437 333.437" style="enable-background:new 0 0 333.437 333.437;" xml:space="preserve">
<g>
	<path d="M321.64,264.651l-64.519-64.519c10.135-19.056,15.932-40.759,15.932-63.806C273.053,61.158,211.908,0,136.753,0
		C61.571,0,0.407,61.158,0.407,136.326c0,75.162,61.164,136.313,136.345,136.313c22.616,0,43.915-5.623,62.707-15.412l64.802,64.802
		c7.365,7.359,17.147,11.408,27.552,11.408c10.405,0,20.193-4.055,27.552-11.408l2.275-2.275
		C336.826,304.574,336.826,279.85,321.64,264.651z M13.267,136.326c0-68.079,55.399-123.472,123.492-123.472
		c68.073,0,123.447,55.393,123.447,123.472c0,21.164-5.366,41.1-14.788,58.523l-0.72,1.234c-1.015,1.838-2.159,3.605-3.271,5.379
		c-1.497,2.41-3.078,4.756-4.73,7.05c-1.054,1.459-2.114,2.911-3.233,4.319c-1.035,1.311-2.108,2.596-3.194,3.869
		c-1.311,1.523-2.674,3.001-4.055,4.46c-1.26,1.33-2.532,2.648-3.856,3.92c-1.857,1.793-3.766,3.541-5.746,5.225
		c-1.118,0.951-2.275,1.87-3.426,2.789c-1.658,1.311-3.355,2.571-5.077,3.798c-1.105,0.791-2.192,1.6-3.323,2.352
		c-19.525,12.956-42.899,20.54-68.034,20.54C68.667,259.786,13.267,204.405,13.267,136.326z M312.552,310.667l-2.275,2.275
		c-4.936,4.929-11.491,7.641-18.464,7.641c-6.973,0-13.528-2.719-18.464-7.641l-62.372-62.372c0.18-0.122,0.353-0.264,0.533-0.392
		c3.13-2.063,6.144-4.293,9.094-6.607c0.623-0.482,1.285-0.925,1.902-1.42c10.752-8.734,20.148-19.062,27.828-30.63l62.218,62.218
		C322.726,283.925,322.726,300.493,312.552,310.667z"/>
</g>
<g>
</g>
<g>
</g>
<g>
</g>
<g>
</g>
<g>
</g>
<g>
</g>
<g>
</g>
<g>
</g>
<g>
</g>
<g>
</g>
<g>
</g>
<g>
</g>
<g>
</g>
<g>
</g>
<g>
</g>
</svg>
