<?xml version="1.0" encoding="iso-8859-1"?>
<!-- Generator: Adobe Illustrator 19.1.0, SVG Export Plug-In . SVG Version: 6.00 Build 0)  -->
<svg version="1.1" id="Capa_1" xmlns="http://www.w3.org/2000/svg" xmlns:xlink="http://www.w3.org/1999/xlink" x="0px" y="0px"
	 viewBox="0 0 330.838 330.838" style="enable-background:new 0 0 330.838 330.838;" xml:space="preserve">
<g>
	<path d="M166.346,106.037c-7.59-19.049-25.739-31.363-46.241-31.363c-6.298,0-12.487,1.189-18.387,3.541
		c-12.352,4.923-22.05,14.358-27.301,26.562c-5.251,12.211-5.437,25.733-0.514,38.079c7.577,19.056,25.727,31.369,46.228,31.369
		c6.305,0,12.5-1.202,18.406-3.554C164.02,160.524,176.494,131.526,166.346,106.037z M133.775,158.744
		c-4.39,1.742-8.978,2.635-13.651,2.635c-15.206,0-28.67-9.133-34.294-23.265c-3.644-9.165-3.515-19.191,0.386-28.252
		c3.895-9.055,11.093-16.054,20.251-19.698c4.383-1.742,8.972-2.629,13.631-2.629c15.206,0,28.67,9.133,34.306,23.265
		C161.931,129.701,152.683,151.205,133.775,158.744z M185.922,226.727c1.17-2.725,1.208-5.739,0.109-8.477l-7.423-18.638
		c5.797-4.434,11.061-9.544,15.714-15.251l18.098,7.783c5.489,2.384,12.23-0.353,14.557-5.81l11.549-26.813
		c2.416-5.604-0.174-12.14-5.797-14.582l-17.764-7.635c1.086-7.693,1.215-15.444,0.398-23.13l17.873-7.115
		c2.757-1.093,4.917-3.194,6.086-5.913s1.215-5.739,0.122-8.496l-10.81-27.141c-2.211-5.553-8.785-8.432-14.409-6.202l-17.873,7.121
		c-4.518-5.906-9.717-11.247-15.521-15.951l7.731-17.982c1.176-2.719,1.215-5.733,0.129-8.483c-1.093-2.757-3.194-4.923-5.926-6.099
		L155.96,6.376c-5.469-2.365-12.217,0.315-14.595,5.797l-7.68,17.86c-7.558-1.028-15.193-1.157-22.764-0.366l-7.436-18.67
		c-2.237-5.553-8.83-8.387-14.396-6.183l-27.141,10.81c-2.757,1.099-4.923,3.207-6.086,5.926s-1.202,5.739-0.103,8.477l7.423,18.657
		c-6.15,4.698-11.678,10.116-16.511,16.189l-18.85-8.104c-5.463-2.365-12.205,0.321-14.576,5.803L1.71,89.398
		c-2.41,5.611,0.186,12.14,5.797,14.57l19.178,8.252c-0.938,7.307-1.028,14.64-0.263,21.896L6.999,141.86
		c-2.751,1.099-4.917,3.194-6.086,5.919c-1.176,2.731-1.215,5.746-0.122,8.49l10.816,27.147c2.217,5.54,8.824,8.413,14.403,6.176
		l19.428-7.731c4.608,6.028,9.936,11.478,15.919,16.279l-8.156,18.94c-1.176,2.719-1.215,5.733-0.122,8.483
		c1.093,2.751,3.201,4.917,5.919,6.086l26.838,11.549c5.489,2.352,12.224-0.353,14.57-5.81l8.201-19.081
		c7.41,0.977,14.885,1.073,22.256,0.302l7.436,18.683c1.703,4.229,5.746,6.96,10.302,6.96c1.414,0,2.796-0.264,4.1-0.791
		l27.128-10.81C182.587,231.56,184.752,229.458,185.922,226.727z M173.441,221.367l-23.863,9.505l-10.54-26.472l-5.096,0.829
		c-9.203,1.504-18.766,1.375-28.079-0.373l-5.058-0.951l-11.51,26.787l-23.586-10.154l11.485-26.678l-4.197-3.021
		c-7.886-5.662-14.595-12.532-19.955-20.424l-2.899-4.261l-27.243,10.848l-9.499-23.85l27.237-10.848l-0.823-5.09
		c-1.485-9.152-1.382-18.496,0.315-27.764l0.925-5.032L14.229,92.875l10.142-23.593L51.01,80.741l3.014-4.229
		c5.656-7.956,12.59-14.756,20.611-20.219l4.261-2.899L68.362,26.929l23.856-9.499l10.54,26.459l5.09-0.823
		c9.377-1.523,19.113-1.362,28.548,0.456l5.077,0.977l11.016-25.611l23.567,10.135l-11.041,25.701l4.158,3.014
		c7.699,5.578,14.28,12.352,19.576,20.135l2.905,4.267l25.688-10.232l9.505,23.856l-25.701,10.232l0.829,5.096
		c1.562,9.563,1.395,19.281-0.501,28.876l-1.003,5.096l25.553,10.99l-10.154,23.58l-25.759-11.08l-3.021,4.139
		c-5.546,7.609-12.25,14.107-19.923,19.325l-4.267,2.898L173.441,221.367z M251.534,219.882
		c-17.449,2.217-29.846,18.214-27.635,35.669c2.012,15.9,15.611,27.892,31.607,27.892c1.337,0,2.686-0.09,4.055-0.257
		c17.449-2.23,29.846-18.233,27.635-35.675C284.992,230.281,269.169,217.658,251.534,219.882z M257.935,270.435
		c-10.482,1.414-19.975-6.202-21.286-16.498c-1.324-10.418,6.08-19.975,16.498-21.292c0.816-0.109,1.626-0.154,2.429-0.154
		c9.537,0,17.648,7.159,18.863,16.658C275.769,259.548,268.353,269.105,257.935,270.435z M328.598,233.635
		c-0.572-4.582-4.486-8.034-9.107-8.034l-10.411,1.247c-1.356-2.937-2.963-5.752-4.807-8.426l5.836-7.539
		c1.504-1.934,2.166-4.332,1.857-6.761c-0.302-2.436-1.542-4.608-3.477-6.105l-13.58-10.534c-3.85-2.969-9.846-2.224-12.847,1.645
		l-5.791,7.468c-3.136-1.17-6.356-2.05-9.634-2.654l-1.247-9.749c-0.591-4.569-4.499-8.008-9.094-8.008l-18.124,2.237
		c-2.442,0.289-4.621,1.51-6.131,3.451c-1.517,1.947-2.179,4.37-1.864,6.793l1.234,9.756c-3.085,1.433-6.048,3.136-8.856,5.096
		l-7.969-6.176c-3.875-2.995-9.884-2.211-12.854,1.645l-10.521,13.567c-1.497,1.941-2.153,4.351-1.838,6.787
		c0.315,2.436,1.549,4.602,3.483,6.086l8.143,6.298c-1.08,2.995-1.909,6.048-2.481,9.158l-10.238,1.298
		c-2.429,0.308-4.595,1.542-6.099,3.483c-1.497,1.934-2.159,4.332-1.851,6.755l2.159,16.999c0.559,4.595,4.473,8.059,9.113,8.059
		l11.375-1.369c1.407,3.021,3.072,5.919,4.981,8.676l-6.189,7.982c-1.51,1.928-2.185,4.332-1.877,6.774
		c0.308,2.449,1.549,4.627,3.483,6.105l13.548,10.501c3.85,3.021,9.897,2.249,12.886-1.613l6.266-8.091
		c3.053,1.118,6.176,1.973,9.357,2.558l1.234,9.737c0.572,4.582,4.479,8.034,9.094,8.034l18.182-2.243
		c2.436-0.309,4.602-1.542,6.099-3.483c1.504-1.941,2.159-4.351,1.845-6.767l-1.24-9.749c2.866-1.337,5.63-2.905,8.252-4.692
		l7.577,5.881c3.863,2.988,9.859,2.249,12.873-1.62l10.546-13.599c3.066-3.997,2.32-9.762-1.658-12.841l-7.41-5.746
		c1.202-3.201,2.108-6.491,2.725-9.839l9.268-1.176c2.429-0.309,4.595-1.542,6.093-3.483c1.497-1.941,2.159-4.338,1.851-6.767
		L328.598,233.635z M301.952,250.583l-0.482,5.129c-0.501,5.366-1.947,10.572-4.293,15.476l-2.237,4.685l12.513,9.692l-6.003,7.744
		l-12.597-9.775l-3.965,3.258c-4.036,3.316-8.548,5.881-13.413,7.629l-4.859,1.742l2.05,16.08l-9.717,1.24l-2.044-16.086
		l-5.129-0.482c-5.219-0.482-10.283-1.87-15.045-4.113l-4.666-2.192l-10.174,13.13l-7.731-5.996l10.135-13.085l-3.316-3.965
		c-3.451-4.139-6.112-8.76-7.899-13.753l-1.742-4.865l-16.575,2.134l-1.234-9.743l16.588-2.108l0.469-5.141
		c0.463-5.116,1.819-10.122,4.03-14.872l2.159-4.653l-13.162-10.187l6.003-7.744l13.059,10.116l3.965-3.336
		c4.177-3.503,8.856-6.202,13.908-8.008l4.859-1.742l-2.031-16.099l9.711-1.253l2.05,16.125l5.135,0.469
		c5.283,0.482,10.418,1.902,15.277,4.21l4.679,2.224l9.724-12.552l7.738,6.009l-9.743,12.584l3.278,3.965
		c3.361,4.068,5.964,8.618,7.725,13.535l1.742,4.852l15.611-2.005l1.234,9.743L301.952,250.583z"/>
</g>
<g>
</g>
<g>
</g>
<g>
</g>
<g>
</g>
<g>
</g>
<g>
</g>
<g>
</g>
<g>
</g>
<g>
</g>
<g>
</g>
<g>
</g>
<g>
</g>
<g>
</g>
<g>
</g>
<g>
</g>
</svg>
