<?xml version="1.0" encoding="iso-8859-1"?>
<!-- Generator: Adobe Illustrator 19.1.0, SVG Export Plug-In . SVG Version: 6.00 Build 0)  -->
<svg version="1.1" id="Capa_1" xmlns="http://www.w3.org/2000/svg" xmlns:xlink="http://www.w3.org/1999/xlink" x="0px" y="0px"
	 viewBox="0 0 333.842 333.842" style="enable-background:new 0 0 333.842 333.842;" xml:space="preserve">
<g>
	<path d="M187.805,116.625c0-10.662,8.638-19.293,19.293-19.293s19.293,8.631,19.293,19.293c0,10.649-8.638,19.293-19.293,19.293
		S187.805,127.274,187.805,116.625z M126.763,135.918c10.656,0,19.293-8.644,19.293-19.293c0-10.662-8.638-19.293-19.293-19.293
		s-19.293,8.631-19.293,19.293C107.47,127.274,116.107,135.918,126.763,135.918z M333.842,166.921
		c0,92.039-74.879,166.911-166.931,166.911C74.879,333.832,0,258.96,0,166.921S74.879,0.01,166.918,0.01
		C258.963,0.01,333.842,74.882,333.842,166.921z M320.988,166.921c0-84.95-69.121-154.064-154.077-154.064
		c-84.95,0-154.058,69.108-154.058,154.064c0,84.943,69.108,154.058,154.058,154.058
		C251.874,320.979,320.988,251.871,320.988,166.921z M220.428,207.359h-107c-5.321,0-9.64,4.319-9.64,9.64
		c0,5.321,4.319,9.64,9.64,9.64h107c5.321,0,9.64-4.319,9.64-9.64C230.068,211.677,225.749,207.359,220.428,207.359z"/>
</g>
<g>
</g>
<g>
</g>
<g>
</g>
<g>
</g>
<g>
</g>
<g>
</g>
<g>
</g>
<g>
</g>
<g>
</g>
<g>
</g>
<g>
</g>
<g>
</g>
<g>
</g>
<g>
</g>
<g>
</g>
</svg>
