<?xml version="1.0" encoding="iso-8859-1"?>
<!-- Generator: Adobe Illustrator 19.1.0, SVG Export Plug-In . SVG Version: 6.00 Build 0)  -->
<svg version="1.1" id="Capa_1" xmlns="http://www.w3.org/2000/svg" xmlns:xlink="http://www.w3.org/1999/xlink" x="0px" y="0px"
	 viewBox="0 0 333.129 333.129" style="enable-background:new 0 0 333.129 333.129;" xml:space="preserve">
<g>
	<path d="M313.848,110.232H197.837l45.399-86.107c1.658-3.136,0.463-7.018-2.686-8.683L219.939,4.582
		c-3.136-1.658-7.018-0.45-8.676,2.686l-46.935,89.005l-7.365,13.966H19.281C8.651,110.239,0,118.889,0,129.519v24.64
		c0,10.63,8.651,19.281,19.281,19.281h7.507v136.57c0,10.63,8.651,19.281,19.281,19.281h242.073c10.63,0,19.281-8.651,19.281-19.281
		V173.44h6.427c10.63,0,19.281-8.651,19.281-19.281v-24.64C333.129,118.883,324.478,110.232,313.848,110.232z M294.568,310.004
		c0,3.548-2.873,6.427-6.427,6.427H46.068c-3.548,0-6.427-2.879-6.427-6.427v-136.57h254.927V310.004z M320.275,154.153
		c0,3.548-2.873,6.427-6.427,6.427h-6.427H26.787h-7.507c-3.548,0-6.427-2.879-6.427-6.427v-24.64c0-3.548,2.879-6.427,6.427-6.427
		h130.908l-0.533,1.015c-4.64,8.798-1.273,19.692,7.532,24.332c8.792,4.64,19.685,1.266,24.332-7.532l5.476-10.379
		c0.129-0.18,0.315-0.308,0.424-0.521l3.638-6.915h122.785c3.554,0,6.427,2.879,6.427,6.427v24.64H320.275z M70.355,227.342v-18.413
		c0-2.301,1.87-4.165,4.165-4.165h18.413c2.294,0,4.165,1.864,4.165,4.165v18.413c0,2.294-1.87,4.165-4.165,4.165H74.519
		C72.231,231.507,70.355,229.636,70.355,227.342z M238.66,227.342v-18.413c0-2.301,1.87-4.165,4.165-4.165h18.413
		c2.294,0,4.165,1.864,4.165,4.165v18.413c0,2.294-1.87,4.165-4.165,4.165h-18.413C240.531,231.507,238.66,229.636,238.66,227.342z
		 M182.561,227.342v-18.413c0-2.301,1.87-4.165,4.165-4.165h18.413c2.294,0,4.165,1.864,4.165,4.165v18.413
		c0,2.294-1.87,4.165-4.165,4.165h-18.413C184.431,231.507,182.561,229.636,182.561,227.342z M126.461,227.342v-18.413
		c0-2.301,1.87-4.165,4.165-4.165h18.413c2.294,0,4.165,1.864,4.165,4.165v18.413c0,2.294-1.87,4.165-4.165,4.165h-18.413
		C128.331,231.507,126.461,229.636,126.461,227.342z M97.508,261.951v18.413c0,2.294-1.87,4.165-4.165,4.165H74.93
		c-2.294,0-4.165-1.87-4.165-4.165v-18.413c0-2.301,1.87-4.165,4.165-4.165h18.413C95.638,257.78,97.508,259.643,97.508,261.951z
		 M265.807,261.951v18.413c0,2.294-1.87,4.165-4.165,4.165H243.23c-2.294,0-4.165-1.87-4.165-4.165v-18.413
		c0-2.301,1.87-4.165,4.165-4.165h18.413C263.937,257.78,265.807,259.643,265.807,261.951z M209.714,261.951v18.413
		c0,2.294-1.87,4.165-4.165,4.165h-18.413c-2.294,0-4.165-1.87-4.165-4.165v-18.413c0-2.301,1.87-4.165,4.165-4.165h18.413
		C207.844,257.78,209.714,259.643,209.714,261.951z M153.614,261.951v18.413c0,2.294-1.87,4.165-4.165,4.165h-18.413
		c-2.294,0-4.165-1.87-4.165-4.165v-18.413c0-2.301,1.87-4.165,4.165-4.165h18.413C151.744,257.78,153.614,259.643,153.614,261.951z
		"/>
</g>
<g>
</g>
<g>
</g>
<g>
</g>
<g>
</g>
<g>
</g>
<g>
</g>
<g>
</g>
<g>
</g>
<g>
</g>
<g>
</g>
<g>
</g>
<g>
</g>
<g>
</g>
<g>
</g>
<g>
</g>
</svg>
