<?xml version='1.0' encoding='iso-8859-1'?>
<svg version="1.1" xmlns="http://www.w3.org/2000/svg" viewBox="0 0 44 44" xmlns:xlink="http://www.w3.org/1999/xlink" enable-background="new 0 0 44 44">
  <g>
    <g>
      <path d="m43.991,8.956c-0.006-0.426-0.275-0.815-0.709-0.932-0.078-0.021-0.154-0.013-0.23-0.014-0.019,0-0.033-0.01-0.052-0.01h-34.52l-2.857-3.572c0.232-0.426 0.377-0.908 0.377-1.428 0-1.657-1.343-3-3-3-1.657,0-3,1.343-3,3 0,1.657 1.343,3 3,3 0.403,0 0.787-0.082 1.138-0.227l3.081,3.852 .012-.01c0.023,0.028 0.059,0.044 0.084,0.069l-.022,.023 .707,.707v14.586c0,0.414 0.252,0.77 0.61,0.921 0.12,0.051 0.252,0.079 0.39,0.079h2.691l-2.666,8.781c-0.012,0.045-0.003,0.089-0.009,0.135-0.001,0.029-0.016,0.054-0.016,0.084 0,0.016 0.008,0.028 0.009,0.044 0.005,0.426 0.275,0.815 0.709,0.932 0.078,0.021 0.153,0.013 0.23,0.014 0.019,0 0.033,0.01 0.052,0.01h29c0.553,0 1-0.447 1-1 0-0.553-0.447-1-1-1h-27.691l2.429-8h24.262c0.01,0 0.018-0.005 0.027-0.006 0.08-0.004 0.153-0.022 0.228-0.046 0.066-0.017 0.131-0.034 0.191-0.065 0.015-0.008 0.027-0.02 0.042-0.028 0.28-0.161 0.473-0.444 0.498-0.785l4.934-15.679c0.001-0.002 0.002-0.004 0.002-0.006l.053-.166c0.012-0.045 0.003-0.089 0.009-0.135 0.001-0.029 0.016-0.054 0.016-0.084 0-0.016-0.008-0.028-0.009-0.044zm-40.991-4.956c-0.553,0-1-0.448-1-1 0-0.553 0.447-1 1-1 0.552,0 1,0.447 1,1 0,0.552-0.448,1-1,1zm34.271,20h-27.271v-14h31.678l-4.407,14zm-3.271,14c-1.657,0-3,1.343-3,3 0,1.657 1.343,3 3,3 1.657,0 3-1.343 3-3 0-1.657-1.343-3-3-3zm0,4c-0.553,0-1-0.448-1-1 0-0.553 0.447-1 1-1 0.552,0 1,0.447 1,1 0,0.552-0.448,1-1,1zm-20-4c-1.657,0-3,1.343-3,3 0,1.657 1.343,3 3,3 1.657,0 3-1.343 3-3 0-1.657-1.343-3-3-3zm0,4c-0.553,0-1-0.448-1-1 0-0.553 0.447-1 1-1 0.553,0 1,0.447 1,1 0,0.552-0.447,1-1,1z"/>
    </g>
  </g>
</svg>
