<?xml version='1.0' encoding='iso-8859-1'?>
<svg version="1.1" xmlns="http://www.w3.org/2000/svg" viewBox="0 0 44 44" xmlns:xlink="http://www.w3.org/1999/xlink" enable-background="new 0 0 44 44">
  <g>
    <g>
      <path d="m25,27h-6c-0.552,0-1,0.447-1,1 0,0.553 0.448,1 1,1h6c0.553,0 1-0.447 1-1 0-0.553-0.447-1-1-1zm3-4h-12c-0.552,0-1,0.447-1,1 0,0.553 0.448,1 1,1h12c0.553,0 1-0.447 1-1 0-0.553-0.447-1-1-1zm8-13h-5v-1c0-4.971-4.029-9-9-9s-9,4.029-9,9v1h-5c-0.552,0-1,0.447-1,1v30c0,1.657 1.343,3 3,3h24c1.656,0 3-1.343 3-3v-30c0-0.553-0.447-1-1-1zm-21-1c0-3.866 3.134-7 7-7s7,3.134 7,7v1h-14v-1zm20,32c0,0.553-0.447,1-1,1h-24c-0.552,0-1-0.447-1-1v-29h4v3c0,0.553 0.448,1 1,1s1-0.447 1-1v-3h14v3c0,0.553 0.447,1 1,1 0.553,0 1-0.447 1-1v-3h4v29z"/>
    </g>
  </g>
</svg>
