<?xml version="1.0" encoding="iso-8859-1"?>
<!-- Generator: Adobe Illustrator 19.1.0, SVG Export Plug-In . SVG Version: 6.00 Build 0)  -->
<svg version="1.1" id="Capa_1" xmlns="http://www.w3.org/2000/svg" xmlns:xlink="http://www.w3.org/1999/xlink" x="0px" y="0px"
	 viewBox="0 0 320.738 320.738" style="enable-background:new 0 0 320.738 320.738;" xml:space="preserve">
<g>
	<path d="M264.831,225.617c0.219-0.411,0.456-0.803,0.585-1.266l16.17-59.602c23.619-16.234,39.152-43.42,39.152-74.185
		c0-49.609-40.361-89.963-89.969-89.963c-49.005,0-88.909,39.403-89.873,88.183H55.701c-0.463,0-0.88,0.174-1.318,0.27
		l-9.672-32.121c-0.109-0.353-0.341-0.611-0.495-0.925c-0.264-3.31-2.956-5.926-6.324-5.926c-0.006,0-0.019,0-0.026,0L6.401,50.216
		C2.847,50.235-0.013,53.121,0,56.675c0.013,3.541,2.886,6.395,6.427,6.395c0.006,0,0.019,0,0.026,0l26.652-0.116l61.524,204.187
		c-6.112,5.585-10.013,13.541-10.013,22.468c0,16.858,13.663,30.527,30.527,30.527c16.858,0,30.527-13.67,30.527-30.527
		c0-4.396-0.964-8.548-2.635-12.327h88.819c-1.671,3.779-2.635,7.931-2.635,12.327c0,16.858,13.663,30.527,30.527,30.527
		c16.858,0,30.527-13.67,30.527-30.527c0-16.858-13.67-30.527-30.527-30.527c-6.401,0-12.333,1.986-17.243,5.347H132.38
		c-4.91-3.361-10.836-5.347-17.237-5.347c-3.181,0-6.189,0.617-9.075,1.517l-9.178-30.45l161.918-0.129
		C261.649,230.039,263.982,228.169,264.831,225.617z M259.753,271.948c9.749,0,17.674,7.918,17.674,17.674
		c0,9.743-7.924,17.674-17.674,17.674c-9.75,0-17.674-7.931-17.674-17.674C242.08,279.866,250.004,271.948,259.753,271.948z
		 M115.15,271.948c9.75,0,17.674,7.918,17.674,17.674c0,9.743-7.924,17.674-17.674,17.674s-17.674-7.931-17.674-17.674
		C97.476,279.866,105.4,271.948,115.15,271.948z M230.762,13.448c42.52,0,77.116,34.596,77.116,77.109
		c0,42.526-34.596,77.128-77.116,77.128s-77.109-34.596-77.109-77.128C153.653,48.044,188.242,13.448,230.762,13.448z
		 M93.028,217.32L58.176,101.631h83.375c5.489,44.397,43.355,78.909,89.211,78.909c12.468,0,24.351-2.558,35.161-7.166
		l-11.883,43.818L93.028,217.32z M278.012,100.114h-94.487V81.007h94.487V100.114z"/>
</g>
<g>
</g>
<g>
</g>
<g>
</g>
<g>
</g>
<g>
</g>
<g>
</g>
<g>
</g>
<g>
</g>
<g>
</g>
<g>
</g>
<g>
</g>
<g>
</g>
<g>
</g>
<g>
</g>
<g>
</g>
</svg>
