<?xml version='1.0' encoding='iso-8859-1'?>
<svg version="1.1" xmlns="http://www.w3.org/2000/svg" viewBox="0 0 44 44" xmlns:xlink="http://www.w3.org/1999/xlink" enable-background="new 0 0 44 44">
  <g>
    <g>
      <path d="m27,24v6c0,1.104 0.896,2 2,2h9c1.104,0 2-0.896 2-2v-6c0-1.104-0.896-2-2-2h-9c-1.104,0-2,0.896-2,2zm11,6h-9v-6h9v6zm4-30h-32c-0.341,0-0.627,0.182-0.807,0.441l-.015-.01-9,11 .015,.011c-0.112,0.16-0.193,0.346-0.193,0.558v1c0,2.762 2.238,5 5,5 1.643,0 3.088-0.804 4-2.027v26.027c0,1.104 0.896,2 2,2h31c1.104,0 2-0.896 2-2v-40c0-1.104-0.896-2-2-2zm-37,16c-1.657,0-3-1.343-3-3h6c0,1.657-1.343,3-3,3zm3.479-5h-5.57l7.615-9h30.568l-7.615,9h-6.557l4.902-5.431-.016-.011c0.114-0.16 0.194-0.346 0.194-0.558 0-0.553-0.447-1-1-1-0.341,0-0.627,0.181-0.807,0.441l-.016-.011-5.698,6.57h-5.559l4.902-5.431-.016-.011c0.114-0.16 0.194-0.346 0.194-0.558 0-0.553-0.447-1-1-1-0.341,0-0.627,0.181-0.807,0.441l-.016-.011-5.698,6.57h-5.559l4.902-5.431-.015-.011c0.112-0.16 0.193-0.346 0.193-0.558 0-0.553-0.448-1-1-1-0.341,0-0.627,0.181-0.807,0.441l-.015-.011-5.699,6.57zm23.521,2c0,1.657-1.344,3-3,3-1.656,0-3-1.343-3-3h6zm-8,0c0,1.657-1.344,3-3,3-1.657,0-3-1.343-3-3h6zm-13.222,2c-0.478-0.531-0.778-1.229-0.778-2h6c0,1.657-1.343,3-3,3-0.772,0-1.468-0.3-2-0.778v-0.222h-0.222zm12.222,27h-8v-20h8v20zm19,0h-17v-20c0-1.104-0.896-2-2-2h-8c-1.104,0-2,0.896-2,2v20h-2v-24.422c0.613,0.269 1.288,0.422 2,0.422 1.643,0 3.088-0.804 4-2.027 0.911,1.223 2.356,2.027 4,2.027s3.088-0.804 4-2.027c0.911,1.223 2.356,2.027 4,2.027 2.762,0 5-2.238 5-5 0.34,0 0.627-0.182 0.807-0.441l.016,.011 7.177-8.369v37.799zm-21-8c0.552,0 1-0.447 1-1s-0.448-1-1-1-1,0.447-1,1 0.448,1 1,1z"/>
    </g>
  </g>
</svg>
