<?xml version="1.0" encoding="iso-8859-1"?>
<!-- Generator: Adobe Illustrator 19.1.0, SVG Export Plug-In . SVG Version: 6.00 Build 0)  -->
<svg version="1.1" id="Capa_1" xmlns="http://www.w3.org/2000/svg" xmlns:xlink="http://www.w3.org/1999/xlink" x="0px" y="0px"
	 viewBox="0 0 319.311 319.311" style="enable-background:new 0 0 319.311 319.311;" xml:space="preserve">
<g>
	<path d="M246.768,179.103c-4.647-3.895-9.094-4.711-12.012-4.711c-7.989,0-16.086,6.125-16.086,17.822v48.214h-57.462l-33.58-80.74
		l33.58-80.747h57.462v48.143c0,11.697,8.098,17.822,16.086,17.822c2.918,0,7.378-0.816,11.999-4.704l62.231-52.057
		c4.743-3.978,7.474-9.705,7.474-15.707c0-5.996-2.738-11.71-7.487-15.688L246.768,4.704C242.121,0.816,237.674,0,234.756,0
		c-7.989,0-16.086,6.118-16.086,17.815v48.272h-66.042l-31.967,76.865L88.719,66.145L9.284,66.087c-0.006,0-0.006,0-0.006,0
		c-3.548,0-6.427,2.866-6.427,6.42s2.873,6.433,6.42,6.433l70.888,0.051l33.555,80.682L80.152,240.37l-70.882,0.058
		c-3.548,0-6.42,2.866-6.42,6.427c0,3.554,2.879,6.427,6.427,6.427l79.455-0.071l31.935-76.801l31.967,76.871h66.029v48.221
		c0,11.69,8.098,17.809,16.086,17.809c2.918,0,7.378-0.816,11.999-4.692l62.218-52.064c4.749-3.978,7.487-9.705,7.487-15.694
		c0-6.003-2.738-11.723-7.487-15.701L246.768,179.103z M231.523,17.809c0-3.104,1.215-4.962,3.233-4.962
		c0.649,0,1.992,0.225,3.766,1.703l62.205,52.044c1.832,1.53,2.879,3.657,2.879,5.836c0,2.192-1.048,4.325-2.873,5.855
		l-62.237,52.07c-1.748,1.478-3.091,1.703-3.74,1.703c-2.018,0-3.233-1.857-3.233-4.968V17.809z M300.721,252.697L238.49,304.76
		c-1.748,1.478-3.091,1.697-3.74,1.697c-2.018,0-3.233-1.844-3.233-4.955V192.214c0-3.111,1.215-4.968,3.233-4.968
		c0.649,0,1.992,0.225,3.766,1.71l62.205,52.064c1.832,1.53,2.879,3.644,2.879,5.836C303.6,249.033,302.553,251.167,300.721,252.697
		z"/>
</g>
<g>
</g>
<g>
</g>
<g>
</g>
<g>
</g>
<g>
</g>
<g>
</g>
<g>
</g>
<g>
</g>
<g>
</g>
<g>
</g>
<g>
</g>
<g>
</g>
<g>
</g>
<g>
</g>
<g>
</g>
</svg>
