<?xml version="1.0" encoding="iso-8859-1"?>
<!-- Generator: Adobe Illustrator 19.1.0, SVG Export Plug-In . SVG Version: 6.00 Build 0)  -->
<svg version="1.1" id="Capa_1" xmlns="http://www.w3.org/2000/svg" xmlns:xlink="http://www.w3.org/1999/xlink" x="0px" y="0px"
	 viewBox="0 0 333.829 333.829" style="enable-background:new 0 0 333.829 333.829;" xml:space="preserve">
<g>
	<path d="M166.911,333.829C74.879,333.829,0,258.956,0,166.918S74.873,0,166.911,0c92.045,0,166.918,74.873,166.918,166.918
		C333.829,258.956,258.956,333.829,166.911,333.829z M166.911,12.86c-84.95,0-154.058,69.114-154.058,154.064
		c0,84.943,69.108,154.058,154.058,154.058s154.064-69.114,154.064-154.058C320.975,81.968,251.868,12.86,166.911,12.86z
		 M154.019,131.84c0-5.321-4.319-9.64-9.64-9.64s-9.64,4.319-9.64,9.64c0,5.341-4.345,9.685-9.679,9.685
		c-5.341,0-9.692-4.345-9.692-9.685c0-5.321-4.319-9.64-9.64-9.64s-9.64,4.319-9.64,9.64c0,15.971,12.995,28.966,28.972,28.966
		C141.03,160.806,154.019,147.817,154.019,131.84z M237.741,131.84c0-5.321-4.319-9.64-9.64-9.64s-9.64,4.319-9.64,9.64
		c0,5.341-4.345,9.685-9.692,9.685c-5.334,0-9.679-4.345-9.679-9.685c0-5.321-4.319-9.64-9.64-9.64c-5.321,0-9.64,4.319-9.64,9.64
		c0,15.971,12.989,28.966,28.959,28.966C224.753,160.806,237.741,147.817,237.741,131.84z M220.196,218.962
		c-8.085,0-14.621,6.543-14.621,14.621c0,8.072,6.543,14.621,14.621,14.621c8.079,0,14.621-6.555,14.621-14.621
		C234.817,225.505,228.281,218.962,220.196,218.962z"/>
</g>
<g>
</g>
<g>
</g>
<g>
</g>
<g>
</g>
<g>
</g>
<g>
</g>
<g>
</g>
<g>
</g>
<g>
</g>
<g>
</g>
<g>
</g>
<g>
</g>
<g>
</g>
<g>
</g>
<g>
</g>
</svg>
