<?xml version="1.0" encoding="iso-8859-1"?>
<!-- Generator: Adobe Illustrator 19.1.0, SVG Export Plug-In . SVG Version: 6.00 Build 0)  -->
<svg version="1.1" id="Capa_1" xmlns="http://www.w3.org/2000/svg" xmlns:xlink="http://www.w3.org/1999/xlink" x="0px" y="0px"
	 viewBox="0 0 346.779 346.779" style="enable-background:new 0 0 346.779 346.779;" xml:space="preserve">
<g>
	<path d="M110.574,307.28c0,6.215-5.039,11.247-11.253,11.247c-6.228,0-11.26-5.032-11.26-11.247c0-6.228,5.032-11.26,11.26-11.26
		C105.535,296.02,110.574,301.052,110.574,307.28z M343.842,83.35v109.314c0,17.687-14.37,32.07-32.057,32.07h-92.977
		l-23.111,15.964v64.795c0,22.757-18.516,41.286-41.286,41.286H44.229c-22.77,0-41.292-18.529-41.292-41.286V41.286
		C2.937,18.522,21.459,0,44.229,0h110.188c22.77,0,41.286,18.522,41.286,41.286v10.007h116.088
		C329.472,51.293,343.842,65.669,343.842,83.35z M15.791,41.286v20.167h110.683c5.848-6.221,14.094-10.167,23.291-10.167h33.085v-10
		c0-15.707-12.732-28.432-28.432-28.432H44.229C28.516,12.854,15.791,25.579,15.791,41.286z M117.701,192.664V83.35
		c0-3.162,0.604-6.157,1.459-9.043H15.791v193.338h134.957l0.308-42.918h-1.292C132.078,224.734,117.701,210.35,117.701,192.664z
		 M182.843,305.493v-24.994H15.791v24.994c0,15.701,12.725,28.432,28.439,28.432h110.188
		C170.112,333.925,182.843,321.2,182.843,305.493z M182.843,249.573l-26.157,18.079h26.157V249.573z M330.988,83.35
		c0-10.591-8.612-19.203-19.203-19.203h-162.02c-10.585,0-19.203,8.612-19.203,19.203v109.314c0,10.591,8.618,19.216,19.203,19.216
		h14.248l-0.264,35.27l51.061-35.27h96.981c10.591,0,19.203-8.625,19.203-19.216V83.35H330.988z M79.776,40.566h39.088
		c2.815,0,5.09-2.275,5.09-5.09c0-2.809-2.275-5.09-5.09-5.09H79.776c-2.815,0-5.096,2.275-5.096,5.09
		C74.68,38.291,76.961,40.566,79.776,40.566z M165.06,108.581h131.422V95.728H165.06V108.581z M165.06,144.732h131.422v-12.854
		H165.06V144.732z M165.06,180.89h97.225v-12.854H165.06V180.89z"/>
</g>
<g>
</g>
<g>
</g>
<g>
</g>
<g>
</g>
<g>
</g>
<g>
</g>
<g>
</g>
<g>
</g>
<g>
</g>
<g>
</g>
<g>
</g>
<g>
</g>
<g>
</g>
<g>
</g>
<g>
</g>
</svg>
