<?xml version="1.0" encoding="iso-8859-1"?>
<!-- Generator: Adobe Illustrator 19.1.0, SVG Export Plug-In . SVG Version: 6.00 Build 0)  -->
<svg version="1.1" id="Capa_1" xmlns="http://www.w3.org/2000/svg" xmlns:xlink="http://www.w3.org/1999/xlink" x="0px" y="0px"
	 viewBox="0 0 305.339 305.339" style="enable-background:new 0 0 305.339 305.339;" xml:space="preserve">
<g>
	<path d="M266.489,143.633c-5.321,0-10.392,1.08-15.026,3.027c-3.098-35.013-32.462-62.488-68.285-62.488
		c-8.76,0-17.295,1.729-24.853,4.647c-2.943,1.131-3.715,2.301-3.74,4.576v123.312c0.039,2.384,1.877,4.229,4.19,4.454
		c0.039,0.006,12.012,0.006,27.97,0.006c31.922,0,79.744-0.006,79.744-0.006c21.44,0,38.85-17.198,38.85-38.664
		C305.339,161.044,287.929,143.633,266.489,143.633z M266.489,208.307l-79.744,0.006c-7.635,0-14.37,0-19.306,0V99.295
		c5.122-1.485,10.482-2.269,15.739-2.269c29.069,0,52.919,21.826,55.483,50.759l1.542,17.539l16.228-6.819
		c3.201-1.343,6.575-2.018,10.052-2.018c14.332,0,25.997,11.665,25.997,26.009C292.485,196.725,280.821,208.307,266.489,208.307z
		 M63.002,124.841c4.48-3.997,9.627-7.224,15.238-9.486v105.58H63.002V124.841z M97.212,111.679c3.824,0,7.552,0.431,11.138,1.234
		v108.022H93.112V111.846C94.487,111.737,95.85,111.679,97.212,111.679z M138.453,98.954v121.981h-15.238V113.511
		C127.489,107.945,132.631,103.041,138.453,98.954z M48.028,146.962c0.039-0.103,0.071-0.174,0.103-0.264v74.236H34.474v-0.174
		c-0.527-0.051-1.06-0.103-1.581-0.186v-74.538c1.71-0.244,3.451-0.379,5.206-0.379C41.524,145.658,44.866,146.12,48.028,146.962z
		 M18.027,151.326v63.96C7.198,208.647,0,196.809,0,183.287C0,169.81,7.198,157.972,18.027,151.326z"/>
</g>
<g>
</g>
<g>
</g>
<g>
</g>
<g>
</g>
<g>
</g>
<g>
</g>
<g>
</g>
<g>
</g>
<g>
</g>
<g>
</g>
<g>
</g>
<g>
</g>
<g>
</g>
<g>
</g>
<g>
</g>
</svg>
