<?xml version="1.0" encoding="iso-8859-1"?>
<!-- Generator: Adobe Illustrator 19.1.0, SVG Export Plug-In . SVG Version: 6.00 Build 0)  -->
<svg version="1.1" id="Capa_1" xmlns="http://www.w3.org/2000/svg" xmlns:xlink="http://www.w3.org/1999/xlink" x="0px" y="0px"
	 viewBox="0 0 269.111 269.111" style="enable-background:new 0 0 269.111 269.111;" xml:space="preserve">
<g>
	<path d="M267.279,133.562c0,26.337-10.257,51.087-28.882,69.712c-1.883,1.883-4.345,2.821-6.819,2.821
		c-2.461,0-4.936-0.938-6.819-2.821c-3.766-3.766-3.766-9.865,0-13.631c14.987-14.981,23.233-34.898,23.233-56.081
		c0-21.189-8.258-41.112-23.259-56.1c-3.766-3.76-3.766-9.865,0-13.631c3.766-3.773,9.865-3.766,13.631-0.006
		C257.009,82.456,267.279,107.219,267.279,133.562z M202.998,134.559c0,15.816-7.404,29.821-18.856,39.004v86.01
		c0,5.264-4.267,9.537-9.537,9.537c-5.27,0-9.537-4.274-9.537-9.537v-0.887c-1.652-0.54-3.374-1.356-5.154-2.481l-65.2-41.138
		c-7.134-4.499-17.063-10.771-26.318-16.607H33.966c-17.719,0-32.134-14.415-32.134-32.134v-63.555
		c0-17.712,14.415-32.128,32.134-32.128h34.422c9.255-5.842,19.184-12.115,26.331-16.613l65.2-41.132
		c1.774-1.125,3.503-1.941,5.154-2.481V9.531c0-5.264,4.267-9.531,9.537-9.531c5.27,0,9.537,4.267,9.537,9.531v86.01
		C195.594,104.732,202.998,118.729,202.998,134.559z M56.408,83.497H33.966c-10.63,0-19.281,8.651-19.281,19.274v63.555
		c0,10.63,8.651,19.281,19.281,19.281h22.443V83.497z M165.067,24.84l-63.491,40.058L73.684,82.495l-4.152,2.622v98.851l8.406,5.302
		l23.644,14.917l63.491,40.058V24.84H165.067z"/>
</g>
<g>
</g>
<g>
</g>
<g>
</g>
<g>
</g>
<g>
</g>
<g>
</g>
<g>
</g>
<g>
</g>
<g>
</g>
<g>
</g>
<g>
</g>
<g>
</g>
<g>
</g>
<g>
</g>
<g>
</g>
</svg>
