<?xml version="1.0" encoding="iso-8859-1"?>
<!-- Generator: Adobe Illustrator 19.1.0, SVG Export Plug-In . SVG Version: 6.00 Build 0)  -->
<svg version="1.1" id="Capa_1" xmlns="http://www.w3.org/2000/svg" xmlns:xlink="http://www.w3.org/1999/xlink" x="0px" y="0px"
	 viewBox="0 0 332.332 332.332" style="enable-background:new 0 0 332.332 332.332;" xml:space="preserve">
<g>
	<path d="M302.048,121.891h-38.587V40.476c0-20.155-16.401-36.556-36.556-36.556H36.549C16.395,3.92,0,20.315,0,40.476V168.91
		c0,20.155,16.395,36.556,36.549,36.556h2.654l-0.386,54.255l78.529-54.249h3.618v48.452c0,16.703,13.586,30.29,30.29,30.29h86.377
		l63.96,44.197l-0.321-44.197h0.771c16.703,0,30.29-13.586,30.29-30.29V152.187C332.332,135.484,318.745,121.891,302.048,121.891z
		 M113.337,192.612l-61.492,42.475l0.302-42.475H36.549c-13.066,0-23.696-10.63-23.696-23.702V40.476
		c0-13.066,10.63-23.702,23.696-23.702h190.363c13.066,0,23.702,10.63,23.702,23.702v81.415h-99.359
		c-16.703,0-30.29,13.586-30.29,30.29v40.431H113.337z M319.478,253.918c0,9.615-7.821,17.436-17.436,17.436h-13.715l0.231,32.423
		l-46.929-32.423h-90.374c-9.615,0-17.436-7.821-17.436-17.436v-48.452v-53.285c0-9.615,7.821-17.436,17.436-17.436h112.2h38.587
		c9.615,0,17.436,7.821,17.436,17.436C319.478,152.181,319.478,253.918,319.478,253.918z M233.423,195.826h34.069v12.854h-34.069
		v34.069h-12.854v-34.069h-34.081v-12.854h34.081v-34.081h12.854V195.826z"/>
</g>
<g>
</g>
<g>
</g>
<g>
</g>
<g>
</g>
<g>
</g>
<g>
</g>
<g>
</g>
<g>
</g>
<g>
</g>
<g>
</g>
<g>
</g>
<g>
</g>
<g>
</g>
<g>
</g>
<g>
</g>
</svg>
