<?xml version="1.0" encoding="iso-8859-1"?>
<!-- Generator: Adobe Illustrator 19.1.0, SVG Export Plug-In . SVG Version: 6.00 Build 0)  -->
<svg version="1.1" id="Capa_1" xmlns="http://www.w3.org/2000/svg" xmlns:xlink="http://www.w3.org/1999/xlink" x="0px" y="0px"
	 viewBox="0 0 314.581 314.581" style="enable-background:new 0 0 314.581 314.581;" xml:space="preserve">
<g>
	<path d="M246.705,307.502c-4.12,0-8.773-1.703-13.837-5.039l-56.299-37.154c-9.904-6.543-28.638-6.543-38.542,0l-56.299,37.154
		c-10.071,6.639-19.088,6.433-23.734,0.334c-3.265-4.28-3.785-10.579-1.542-18.696l17.937-65.027
		c3.329-12.07-2.134-28.85-11.915-36.646L9.741,140.352C-0.953,131.824-0.6,124.536,0.564,120.95
		c1.17-3.586,5.161-9.692,18.831-10.309l67.372-3.04c12.5-0.566,26.781-10.938,31.183-22.648l23.709-63.15
		c4.814-12.809,11.857-14.724,15.63-14.724s10.816,1.909,15.63,14.724l23.709,63.15c4.402,11.716,18.676,22.089,31.183,22.648
		l67.372,3.04c13.67,0.617,17.667,6.722,18.831,10.309c1.17,3.586,1.523,10.868-9.178,19.409l-52.719,42.064
		c-9.782,7.802-15.244,24.583-11.915,36.652l17.937,65.027c2.243,8.124,1.722,14.415-1.542,18.696
		C254.295,305.824,250.78,307.502,246.705,307.502z M157.295,247.308c9.891,0,19.242,2.584,26.35,7.269l56.299,37.154
		c3.676,2.429,5.758,2.847,6.543,2.905c0.199-0.803,0.431-2.905-0.726-7.121l-17.937-65.027
		c-4.704-17.07,2.455-39.082,16.292-50.116l52.719-42.064c3.413-2.725,4.467-4.557,4.782-5.328
		c-0.707-0.437-2.635-1.305-6.999-1.497l-67.372-3.04c-17.687-0.797-36.414-14.403-42.642-30.971l-23.715-63.15
		c-1.536-4.094-2.956-5.656-3.593-6.189c-0.636,0.533-2.05,2.102-3.593,6.189l-23.709,63.15
		c-6.228,16.568-24.955,30.174-42.642,30.971l-67.373,3.033c-4.364,0.193-6.292,1.06-6.999,1.497
		c0.315,0.771,1.362,2.603,4.782,5.321l52.732,42.076c13.831,11.028,20.996,33.04,16.286,50.11l-17.937,65.027
		c-1.15,4.177-0.938,6.279-0.733,7.095c1.395-0.129,3.612-0.938,6.549-2.879l56.299-37.154
		C138.059,249.891,147.41,247.308,157.295,247.308z"/>
</g>
<g>
</g>
<g>
</g>
<g>
</g>
<g>
</g>
<g>
</g>
<g>
</g>
<g>
</g>
<g>
</g>
<g>
</g>
<g>
</g>
<g>
</g>
<g>
</g>
<g>
</g>
<g>
</g>
<g>
</g>
</svg>
