<?xml version="1.0" encoding="iso-8859-1"?>
<!-- Generator: Adobe Illustrator 19.1.0, SVG Export Plug-In . SVG Version: 6.00 Build 0)  -->
<svg version="1.1" id="Capa_1" xmlns="http://www.w3.org/2000/svg" xmlns:xlink="http://www.w3.org/1999/xlink" x="0px" y="0px"
	 viewBox="0 0 333.829 333.829" style="enable-background:new 0 0 333.829 333.829;" xml:space="preserve">
<g>
	<path d="M166.911,333.826C74.879,333.826,0,258.953,0,166.915S74.879,0.003,166.911,0.003c92.045,0,166.918,74.879,166.918,166.918
		S258.956,333.826,166.911,333.826z M166.911,12.857c-84.95,0-154.058,69.108-154.058,154.064
		c0,84.943,69.108,154.058,154.058,154.058s154.064-69.114,154.064-154.058C320.975,81.965,251.868,12.857,166.911,12.857z
		 M207.092,97.325c-10.656,0-19.293,8.631-19.293,19.293c0,10.649,8.638,19.293,19.293,19.293s19.293-8.644,19.293-19.293
		C226.385,105.956,217.748,97.325,207.092,97.325z M126.756,97.325c-10.656,0-19.293,8.631-19.293,19.293
		c0,10.649,8.638,19.293,19.293,19.293s19.293-8.644,19.293-19.293C146.05,105.956,137.412,97.325,126.756,97.325z M166.911,221.131
		c-8.072,0-14.621,6.543-14.621,14.621c0,8.072,6.555,14.621,14.621,14.621c8.079,0,14.634-6.555,14.634-14.621
		C181.545,227.674,174.996,221.131,166.911,221.131z"/>
</g>
<g>
</g>
<g>
</g>
<g>
</g>
<g>
</g>
<g>
</g>
<g>
</g>
<g>
</g>
<g>
</g>
<g>
</g>
<g>
</g>
<g>
</g>
<g>
</g>
<g>
</g>
<g>
</g>
<g>
</g>
</svg>
