<?xml version="1.0" encoding="iso-8859-1"?>
<!-- Generator: Adobe Illustrator 19.1.0, SVG Export Plug-In . SVG Version: 6.00 Build 0)  -->
<svg version="1.1" id="Capa_1" xmlns="http://www.w3.org/2000/svg" xmlns:xlink="http://www.w3.org/1999/xlink" x="0px" y="0px"
	 viewBox="0 0 333.501 333.501" style="enable-background:new 0 0 333.501 333.501;" xml:space="preserve">
<g>
	<path d="M301.354,25.682H32.134C14.415,25.682,0,40.097,0,57.816v196.655c0,17.712,14.415,32.134,32.134,32.134h6.234
		c-0.077,0.527-0.161,1.041-0.161,1.581v7.86c0,6.504,5.276,11.774,11.78,11.774c6.51,0,11.787-5.27,11.787-11.774v-7.86
		c0-0.54-0.09-1.054-0.161-1.581h210.267c-0.071,0.527-0.154,1.041-0.154,1.581v7.86c0,6.504,5.27,11.774,11.78,11.774
		c6.51,0,11.78-5.27,11.78-11.774v-7.86c0-0.54-0.09-1.054-0.154-1.581h6.234c17.719,0,32.134-14.422,32.134-32.134V57.816
		C333.488,40.097,319.073,25.682,301.354,25.682z M320.635,254.471c0,10.63-8.651,19.281-19.281,19.281H32.134
		c-10.63,0-19.281-8.651-19.281-19.281V57.816c0-10.63,8.651-19.281,19.281-19.281h269.22c10.63,0,19.281,8.651,19.281,19.281
		V254.471z M304.047,188.396c0,7.391-6.003,13.394-13.394,13.394s-13.393-6.003-13.393-13.394c0-7.391,6.003-13.394,13.393-13.394
		S304.047,181.005,304.047,188.396z M304.047,229.104c0,7.378-6.003,13.381-13.394,13.381s-13.393-6.003-13.393-13.381
		c0-7.404,6.003-13.394,13.393-13.394S304.047,221.7,304.047,229.104z M33.555,250.82h225.53V61.453H33.555V250.82z M46.408,74.307
		h199.823V237.96H46.408V74.307z M310.84,72.578c0,3.548-2.873,6.427-6.427,6.427H276.9c-3.554,0-6.427-2.879-6.427-6.427
		s2.873-6.427,6.427-6.427h27.513C307.961,66.151,310.84,69.031,310.84,72.578z M310.84,97.18c0,3.548-2.873,6.427-6.427,6.427
		H276.9c-3.554,0-6.427-2.879-6.427-6.427s2.873-6.427,6.427-6.427h27.513C307.961,90.753,310.84,93.633,310.84,97.18z
		 M310.84,121.782c0,3.548-2.873,6.427-6.427,6.427H276.9c-3.554,0-6.427-2.879-6.427-6.427c0-3.548,2.873-6.427,6.427-6.427h27.513
		C307.961,115.355,310.84,118.234,310.84,121.782z"/>
</g>
<g>
</g>
<g>
</g>
<g>
</g>
<g>
</g>
<g>
</g>
<g>
</g>
<g>
</g>
<g>
</g>
<g>
</g>
<g>
</g>
<g>
</g>
<g>
</g>
<g>
</g>
<g>
</g>
<g>
</g>
</svg>
