<?xml version="1.0" encoding="iso-8859-1"?>
<!-- Generator: Adobe Illustrator 19.1.0, SVG Export Plug-In . SVG Version: 6.00 Build 0)  -->
<svg version="1.1" id="Capa_1" xmlns="http://www.w3.org/2000/svg" xmlns:xlink="http://www.w3.org/1999/xlink" x="0px" y="0px"
	 viewBox="0 0 333.398 333.398" style="enable-background:new 0 0 333.398 333.398;" xml:space="preserve">
<g>
	<path d="M159.112,66.524h141.448v43.773H159.112V66.524z M179.376,134.822h-12.295c-4.409,0-7.976,3.567-7.976,7.969v12.295
		c0,4.402,3.573,7.976,7.976,7.976h12.295c4.409,0,7.982-3.58,7.982-7.976v-12.295C187.365,138.389,183.785,134.822,179.376,134.822
		z M235.99,134.822h-12.301c-4.409,0-7.969,3.567-7.969,7.969v12.288c0,4.409,3.567,7.969,7.969,7.969h12.301
		c4.396,0,7.969-3.567,7.969-7.969v-12.288C243.959,138.389,240.386,134.822,235.99,134.822z M292.591,134.822H280.29
		c-4.396,0-7.969,3.567-7.969,7.969v12.288c0,4.409,3.58,7.969,7.969,7.969h12.301c4.396,0,7.969-3.567,7.969-7.969v-12.288
		C300.561,138.389,296.981,134.822,292.591,134.822z M179.376,184.559h-12.295c-4.409,0-7.976,3.554-7.976,7.969v12.288
		c0,4.409,3.573,7.969,7.976,7.969h12.295c4.409,0,7.982-3.567,7.982-7.969v-12.288
		C187.365,188.113,183.785,184.559,179.376,184.559z M179.376,234.277h-12.295c-4.409,0-7.976,3.567-7.976,7.982v12.275
		c0,4.409,3.573,7.982,7.976,7.982h12.295c4.409,0,7.982-3.58,7.982-7.982V242.26C187.365,237.844,183.785,234.277,179.376,234.277z
		 M235.99,184.547h-12.301c-4.409,0-7.969,3.567-7.969,7.969v12.314c0,4.383,3.567,7.956,7.969,7.956h12.301
		c4.396,0,7.969-3.58,7.969-7.956v-12.314C243.959,188.113,240.386,184.547,235.99,184.547z M235.99,234.277h-12.301
		c-4.409,0-7.969,3.567-7.969,7.969v12.288c0,4.409,3.567,7.982,7.969,7.982h12.301c4.396,0,7.969-3.58,7.969-7.982v-12.288
		C243.959,237.844,240.386,234.277,235.99,234.277z M292.591,184.547H280.29c-4.409,0-7.969,3.567-7.969,7.969v12.314
		c0,4.383,3.567,7.956,7.969,7.956h12.301c4.396,0,7.969-3.58,7.969-7.956v-12.314C300.561,188.113,296.981,184.547,292.591,184.547
		z M292.591,234.277H280.29c-4.409,0-7.969,3.567-7.969,7.969v12.288c0,4.409,3.567,7.982,7.969,7.982h12.301
		c4.396,0,7.969-3.58,7.969-7.982v-12.288C300.561,237.844,296.981,234.277,292.591,234.277z M332.997,61.858V263.77
		c0,17.712-14.422,32.134-32.134,32.134H122.512v5.36c0,17.712-14.415,32.134-32.134,32.134H32.536
		c-17.719,0-32.134-14.422-32.134-32.134V32.134C0.402,14.415,14.817,0,32.536,0h57.842c16.896,0,30.637,13.149,31.89,29.724
		h178.595C318.575,29.724,332.997,44.139,332.997,61.858z M109.658,295.898V32.134c0-10.63-8.651-19.281-19.281-19.281H32.536
		c-10.63,0-19.281,8.651-19.281,19.281v269.124c0,10.63,8.651,19.28,19.281,19.28h57.842c10.63,0,19.281-8.651,19.281-19.28V295.898
		z M320.143,61.858c0-10.63-8.651-19.281-19.28-19.281H122.512v240.473h178.345c10.63,0,19.281-8.651,19.281-19.28V61.858H320.143z"
		/>
</g>
<g>
</g>
<g>
</g>
<g>
</g>
<g>
</g>
<g>
</g>
<g>
</g>
<g>
</g>
<g>
</g>
<g>
</g>
<g>
</g>
<g>
</g>
<g>
</g>
<g>
</g>
<g>
</g>
<g>
</g>
</svg>
