<?xml version='1.0' encoding='iso-8859-1'?>
<svg version="1.1" xmlns="http://www.w3.org/2000/svg" viewBox="0 0 44 44" xmlns:xlink="http://www.w3.org/1999/xlink" enable-background="new 0 0 44 44">
  <g>
    <g>
      <path d="m19,24h-18c-0.552,0-1,0.447-1,1v18c0,0.553 0.448,1 1,1h18c0.552,0 1-0.447 1-1v-18c0-0.553-0.448-1-1-1zm-1,18h-16v-16h16v16zm25-42h-18c-0.552,0-1,0.447-1,1v18c0,0.553 0.448,1 1,1h18c0.552,0 1-0.447 1-1v-18c0-0.553-0.448-1-1-1zm-1,18h-16v-16h16v16zm-23-18h-18c-0.552,0-1,0.447-1,1v18c0,0.553 0.448,1 1,1h18c0.552,0 1-0.447 1-1v-18c0-0.553-0.448-1-1-1zm-1,18h-16v-16h16v16zm25,6h-18c-0.552,0-1,0.447-1,1v18c0,0.553 0.448,1 1,1h18c0.552,0 1-0.447 1-1v-18c0-0.553-0.448-1-1-1zm-1,18h-16v-16h16v16z"/>
    </g>
  </g>
</svg>
