<?xml version="1.0" encoding="iso-8859-1"?>
<!-- Generator: Adobe Illustrator 19.1.0, SVG Export Plug-In . SVG Version: 6.00 Build 0)  -->
<svg version="1.1" id="Capa_1" xmlns="http://www.w3.org/2000/svg" xmlns:xlink="http://www.w3.org/1999/xlink" x="0px" y="0px"
	 viewBox="0 0 333.842 333.842" style="enable-background:new 0 0 333.842 333.842;" xml:space="preserve">
<g>
	<path d="M166.911,333.832C74.879,333.832,0,258.96,0,166.921S74.873,0.01,166.911,0.01c92.045,0,166.931,74.879,166.931,166.918
		S258.956,333.832,166.911,333.832z M166.911,12.863c-84.95,0-154.058,69.108-154.058,154.064
		c0,84.943,69.108,154.058,154.058,154.058c84.956,0,154.077-69.114,154.077-154.058C320.982,81.971,251.868,12.863,166.911,12.863z
		 M207.085,135.918c10.656,0,19.293-8.644,19.293-19.293c0-10.662-8.638-19.293-19.293-19.293s-19.293,8.631-19.293,19.293
		C187.792,127.274,196.43,135.918,207.085,135.918z M126.75,135.918c10.656,0,19.293-8.644,19.293-19.293
		c0-10.662-8.638-19.293-19.293-19.293s-19.293,8.631-19.293,19.293C107.457,127.274,116.094,135.918,126.75,135.918z
		 M242.581,200.932H91.255c-5.321,0-9.64,4.319-9.64,9.64c0,5.321,4.319,9.64,9.64,9.64h67.43v16.96
		c0,15.63,15.193,28.291,33.934,28.291c18.747,0,33.94-12.667,33.94-28.291v-16.96h16.016c5.321,0,9.64-4.319,9.64-9.64
		C252.215,205.251,247.902,200.932,242.581,200.932z"/>
</g>
<g>
</g>
<g>
</g>
<g>
</g>
<g>
</g>
<g>
</g>
<g>
</g>
<g>
</g>
<g>
</g>
<g>
</g>
<g>
</g>
<g>
</g>
<g>
</g>
<g>
</g>
<g>
</g>
<g>
</g>
</svg>
