<?xml version="1.0" encoding="iso-8859-1"?>
<!-- Generator: Adobe Illustrator 19.1.0, SVG Export Plug-In . SVG Version: 6.00 Build 0)  -->
<svg version="1.1" id="Capa_1" xmlns="http://www.w3.org/2000/svg" xmlns:xlink="http://www.w3.org/1999/xlink" x="0px" y="0px"
	 viewBox="0 0 337.743 337.743" style="enable-background:new 0 0 337.743 337.743;" xml:space="preserve">
<g>
	<path d="M337.743,139.331l-21.074-17.558l14.055-22.25h-22.128c-15.527-34.782-50.386-59.127-90.875-59.127
		c-45.489,0-85.066,31.234-96.19,74.95H32.513l1.504,7.667c7.352,37.43,30.013,70.001,62.604,90.374
		c-15.887,22.854-40.386,35.663-73.15,37.822L0,252.758l21.003,10.598c2.751,1.388,68.137,33.992,138.087,33.992
		c0.006,0,0,0,0.006,0c57.957,0,131.994-23.471,155.555-135.156c1.234-5.392,1.87-10.759,2.224-16.074L337.743,139.331z
		 M48.394,128.199h70.348h21.716c15.026,0,27.25,12.224,27.25,27.243v64.14c0,0.771-0.039,1.549-0.109,2.327
		c-20.553-0.604-40.772-6.163-58.696-16.176C78.729,188.881,57,160.905,48.394,128.199z M302.1,159.427
		c-17.513,82.99-65.624,125.066-143.01,125.066c-44.172,0-87.476-14.107-111.943-23.766c26.221-6.105,46.62-19.807,60.869-40.913
		c0.456,0.231,0.932,0.424,1.395,0.649c1.118,0.546,2.249,1.06,3.374,1.575c1.485,0.681,2.982,1.35,4.492,1.973
		c1.157,0.482,2.314,0.938,3.483,1.388c1.517,0.585,3.053,1.144,4.595,1.677c1.183,0.405,2.365,0.803,3.56,1.183
		c1.555,0.488,3.123,0.938,4.698,1.382c1.195,0.334,2.384,0.662,3.586,0.958c1.62,0.405,3.252,0.758,4.884,1.105
		c1.183,0.251,2.346,0.514,3.535,0.733c1.71,0.315,3.432,0.572,5.161,0.829c1.118,0.161,2.224,0.353,3.348,0.488
		c1.909,0.238,3.83,0.398,5.752,0.553c0.945,0.077,1.889,0.193,2.834,0.251c2.866,0.174,5.752,0.276,8.631,0.276l6.504-0.039
		l1.292-4.73c0.945-3.477,1.433-6.999,1.433-10.469v-64.14c0-22.108-17.995-40.097-40.103-40.097h-5.701
		c10.739-36.414,44.454-62.096,82.958-62.096c47.79,0,86.666,38.882,86.666,86.672C304.388,146.246,303.629,152.775,302.1,159.427z
		 M235.312,79.04c-22.603,0-40.984,18.381-40.984,40.971c0,22.597,18.381,40.971,40.984,40.971c22.59,0,40.965-18.374,40.965-40.971
		C276.277,97.428,257.896,79.04,235.312,79.04z M235.312,148.129c-15.508,0-28.13-12.609-28.13-28.117
		c0-15.502,12.622-28.117,28.13-28.117c15.502,0,28.111,12.616,28.111,28.117C263.423,135.519,250.814,148.129,235.312,148.129z
		 M248.339,119.427c0,6.877-5.572,12.449-12.449,12.449c-6.877,0-12.442-5.566-12.442-12.449c0-6.87,5.559-12.449,12.442-12.449
		C242.767,106.984,248.339,112.556,248.339,119.427z"/>
</g>
<g>
</g>
<g>
</g>
<g>
</g>
<g>
</g>
<g>
</g>
<g>
</g>
<g>
</g>
<g>
</g>
<g>
</g>
<g>
</g>
<g>
</g>
<g>
</g>
<g>
</g>
<g>
</g>
<g>
</g>
</svg>
