<?xml version="1.0" encoding="iso-8859-1"?>
<!-- Generator: Adobe Illustrator 19.1.0, SVG Export Plug-In . SVG Version: 6.00 Build 0)  -->
<svg version="1.1" id="Capa_1" xmlns="http://www.w3.org/2000/svg" xmlns:xlink="http://www.w3.org/1999/xlink" x="0px" y="0px"
	 viewBox="0 0 310.365 310.365" style="enable-background:new 0 0 310.365 310.365;" xml:space="preserve">
<g>
	<path d="M259.596,128.003c22.52,0,41.672,6.517,49.095,15.656c-10.058-73.047-70.959-129.681-145.844-133.35V6.427
		c0-3.548-2.873-6.427-6.427-6.427c-3.548,0-6.427,2.879-6.427,6.427v3.747C73.97,12.699,11.835,69.802,1.674,143.646
		c7.417-9.133,26.562-15.643,49.075-15.643c26.247,0,47.938,8.843,51.749,20.392c0,0,0,0,0,0.006
		c0.257,0.778,0.437,1.568,0.527,2.371c1.324-11.883,21.421-21.472,46.974-22.642v112.611h-2.95c-3.843,0-6.96,3.117-6.96,6.96
		c0,3.843,3.117,6.96,6.96,6.96h2.95v19.82c0,19.782,16.099,35.881,35.881,35.881s35.881-16.099,35.881-35.881
		c0-3.554-2.873-6.427-6.427-6.427s-6.427,2.873-6.427,6.427c0,12.699-10.328,23.027-23.027,23.027
		c-12.699,0-23.027-10.328-23.027-23.027v-19.82h2.41c3.843,0,6.96-3.117,6.96-6.96c0-3.843-3.117-6.96-6.96-6.96h-2.41V128.28
		c23.689,1.568,42.25,10.36,44.602,21.369c0.096-0.443,0.264-0.874,0.411-1.305c0,0.006,0,0.006,0,0.006
		C211.722,136.827,233.381,128.003,259.596,128.003z M207.564,128.954c-12.77-9.428-33.047-13.798-52.276-13.798
		c-22.076,0-40.656,5.27-52.269,13.978c-12.886-9.557-33.362-13.978-52.276-13.978c-10.836,0-21.048,1.33-30.033,3.785
		c18.85-54.795,70.445-94.108,129.822-96.055c0,0,13.451-0.617,37.237,3.747c42.822,8.985,86.055,46.325,101.878,92.309
		c-8.985-2.455-19.21-3.792-30.052-3.792C240.823,115.15,220.476,119.513,207.564,128.954z"/>
</g>
<g>
</g>
<g>
</g>
<g>
</g>
<g>
</g>
<g>
</g>
<g>
</g>
<g>
</g>
<g>
</g>
<g>
</g>
<g>
</g>
<g>
</g>
<g>
</g>
<g>
</g>
<g>
</g>
<g>
</g>
</svg>
