<?xml version="1.0" encoding="iso-8859-1"?>
<!-- Generator: Adobe Illustrator 19.1.0, SVG Export Plug-In . SVG Version: 6.00 Build 0)  -->
<svg version="1.1" id="Capa_1" xmlns="http://www.w3.org/2000/svg" xmlns:xlink="http://www.w3.org/1999/xlink" x="0px" y="0px"
	 viewBox="0 0 324.552 324.552" style="enable-background:new 0 0 324.552 324.552;" xml:space="preserve">
<g>
	<g>
		<path d="M162.266,324.552c-12.404,0-22.494-10.09-22.494-22.494V76.797l-75.091,75.098c-8.503,8.503-23.317,8.496-31.813,0
			c-8.766-8.766-8.766-23.034,0-31.806L146.36,6.584c1.028-1.028,2.185-1.973,3.432-2.809c0.469-0.315,0.958-0.578,1.465-0.829
			l0.591-0.315c0.598-0.341,1.195-0.662,1.825-0.925c0.623-0.257,1.253-0.443,1.889-0.623l0.688-0.206
			c0.501-0.167,1.003-0.315,1.523-0.431c3.149-0.611,6.003-0.572,8.856-0.026c0.649,0.135,1.183,0.296,1.716,0.476l0.662,0.193
			c0.643,0.18,1.279,0.373,1.902,0.636c0.617,0.251,1.26,0.598,1.896,0.958c0.99,0.521,1.472,0.778,1.934,1.08
			c1.273,0.855,2.449,1.819,3.496,2.879l113.434,113.434c4.248,4.248,6.587,9.897,6.587,15.906c0,6.009-2.339,11.652-6.587,15.906
			c-8.496,8.496-23.31,8.496-31.806,0L184.76,76.797v225.261C184.76,314.455,174.664,324.552,162.266,324.552z M152.626,45.762
			v256.289c0,5.315,4.325,9.64,9.64,9.64s9.64-4.325,9.64-9.64V45.769l97.045,97.045c3.638,3.638,9.994,3.638,13.631,0
			c1.819-1.825,2.821-4.242,2.821-6.819s-1.003-4.994-2.821-6.819L169.124,15.723c-0.476-0.482-0.99-0.9-1.536-1.266l-3.246-1.343
			c-1.581-0.379-2.731-0.308-4.004-0.064l-3.297,1.375c-0.656,0.405-1.15,0.797-1.594,1.247L41.956,129.176
			c-3.753,3.76-3.753,9.878,0,13.631c3.631,3.625,9.994,3.644,13.638,0L152.626,45.762z"/>
	</g>
</g>
<g>
</g>
<g>
</g>
<g>
</g>
<g>
</g>
<g>
</g>
<g>
</g>
<g>
</g>
<g>
</g>
<g>
</g>
<g>
</g>
<g>
</g>
<g>
</g>
<g>
</g>
<g>
</g>
<g>
</g>
</svg>
