<?xml version="1.0" encoding="iso-8859-1"?>
<!-- Generator: Adobe Illustrator 19.1.0, SVG Export Plug-In . SVG Version: 6.00 Build 0)  -->
<svg version="1.1" id="Capa_1" xmlns="http://www.w3.org/2000/svg" xmlns:xlink="http://www.w3.org/1999/xlink" x="0px" y="0px"
	 viewBox="0 0 320.995 320.995" style="enable-background:new 0 0 320.995 320.995;" xml:space="preserve">
<g>
	<path d="M139.539,10.019l-77.373,92.489c-5.193,6.189-6.279,12.025-6.279,15.842c0,10.315,8.027,20.759,23.381,20.759h74.808
		v175.459c0,3.567,2.873,6.427,6.427,6.427c3.548,0,6.427-2.86,6.427-6.427V139.109h74.796c15.347,0,23.381-10.444,23.381-20.759
		c0-3.818-1.093-9.64-6.279-15.842l-77.392-92.489C176.121,3.657,168.473,0,160.491,0C152.502,0,144.861,3.657,139.539,10.019z
		 M171.577,18.265l77.398,92.489c2.712,3.239,3.284,5.913,3.284,7.597c0,3.638-2.764,7.905-10.527,7.905H79.269
		c-7.764,0-10.527-4.267-10.527-7.905c0-1.684,0.572-4.37,3.284-7.597l77.373-92.489c2.866-3.438,6.909-5.411,11.093-5.411
		C164.662,12.854,168.698,14.827,171.577,18.265z"/>
</g>
<g>
</g>
<g>
</g>
<g>
</g>
<g>
</g>
<g>
</g>
<g>
</g>
<g>
</g>
<g>
</g>
<g>
</g>
<g>
</g>
<g>
</g>
<g>
</g>
<g>
</g>
<g>
</g>
<g>
</g>
</svg>
