<?xml version="1.0" encoding="iso-8859-1"?>
<!-- Generator: Adobe Illustrator 19.1.0, SVG Export Plug-In . SVG Version: 6.00 Build 0)  -->
<svg version="1.1" id="Capa_1" xmlns="http://www.w3.org/2000/svg" xmlns:xlink="http://www.w3.org/1999/xlink" x="0px" y="0px"
	 viewBox="0 0 317.903 317.903" style="enable-background:new 0 0 317.903 317.903;" xml:space="preserve">
<g>
	<path d="M165.382,163.499V97.559h48.214c11.073,0,15.315-7.249,16.356-9.48c1.041-2.224,3.882-10.122-3.252-18.612L174.643,7.256
		C170.78,2.641,165.08,0,158.948,0c-6.125,0-11.851,2.641-15.707,7.256L91.197,69.455c-7.121,8.503-4.287,16.408-3.252,18.619
		c1.041,2.23,5.289,9.48,16.363,9.48h48.214v65.939L53.33,236.45v75.027c0,3.554,2.866,6.427,6.427,6.427
		c3.554,0,6.427-2.873,6.427-6.427v-68.523l92.771-68.227l92.765,68.227v68.516c0,3.554,2.873,6.427,6.427,6.427
		c3.56,0,6.427-2.873,6.427-6.427v-75.02L165.382,163.499z M104.308,84.706c-3.265,0-4.351-1.285-4.711-2.057
		c-0.36-0.765-0.649-2.423,1.465-4.936l52.044-62.205c1.407-1.684,3.541-2.648,5.855-2.648c2.301,0,4.435,0.964,5.842,2.641
		l52.057,62.225c2.108,2.506,1.819,4.152,1.465,4.923c-0.353,0.771-1.452,2.057-4.704,2.057H104.308z"/>
</g>
<g>
</g>
<g>
</g>
<g>
</g>
<g>
</g>
<g>
</g>
<g>
</g>
<g>
</g>
<g>
</g>
<g>
</g>
<g>
</g>
<g>
</g>
<g>
</g>
<g>
</g>
<g>
</g>
<g>
</g>
</svg>
