<?xml version="1.0" encoding="iso-8859-1"?>
<!-- Generator: Adobe Illustrator 19.1.0, SVG Export Plug-In . SVG Version: 6.00 Build 0)  -->
<svg version="1.1" id="Capa_1" xmlns="http://www.w3.org/2000/svg" xmlns:xlink="http://www.w3.org/1999/xlink" x="0px" y="0px"
	 viewBox="0 0 272.067 272.067" style="enable-background:new 0 0 272.067 272.067;" xml:space="preserve">
<g>
	<path d="M225.302,77.289L156.49,8.471l-0.289-0.283c-1.253-1.215-2.635-2.333-4.107-3.31c-0.617-0.411-1.253-0.746-1.896-1.073
		l-0.88-0.469c-0.713-0.405-1.433-0.797-2.249-1.138c-0.803-0.328-1.62-0.566-2.436-0.797l-0.951-0.283
		c-0.668-0.225-1.33-0.424-1.999-0.553C139.787,0.186,137.878,0,135.976,0c-1.87,0.006-3.76,0.199-5.604,0.566
		c-0.72,0.141-1.42,0.36-2.108,0.585l-0.816,0.244c-0.835,0.231-1.671,0.476-2.468,0.803c-0.79,0.328-1.536,0.733-2.275,1.15
		l-0.906,0.482c-0.63,0.321-1.247,0.649-1.8,1.022c-1.234,0.823-2.436,1.767-3.605,2.847l-69.635,69.59
		c-5.463,5.463-8.471,12.719-8.471,20.45s3.008,14.987,8.471,20.45c5.463,5.469,12.719,8.471,20.45,8.471s14.987-3.008,20.45-8.471
		l19.454-19.454v144.411c0,15.951,12.976,28.921,28.921,28.921c15.951,0,28.921-12.969,28.921-28.921V98.742l19.454,19.441
		c5.463,5.469,12.719,8.471,20.45,8.471c7.719,0,14.987-3.008,20.45-8.464c5.463-5.456,8.471-12.719,8.471-20.45
		S230.759,82.758,225.302,77.289z M216.215,109.102c-3.04,3.04-7.07,4.704-11.363,4.704s-8.336-1.671-11.363-4.704l-41.395-41.389
		v175.433c0,8.863-7.204,16.067-16.067,16.067s-16.067-7.204-16.067-16.067V67.7l-41.395,41.395c-3.04,3.04-7.07,4.704-11.363,4.704
		s-8.323-1.671-11.363-4.704c-6.08-6.073-6.067-16.646,0-22.719l68.439-68.446l0.508-0.476c0.707-0.694,1.472-1.337,2.796-2.14
		l1.472-0.791c0.27-0.148,0.527-0.321,0.835-0.443c0.308-0.122,0.63-0.199,0.945-0.283l2.044-0.623
		c1.035-0.206,2.095-0.315,3.143-0.321c1.015,0,2.076,0.109,3.599,0.463l1.581,0.476c0.341,0.096,0.675,0.174,0.938,0.283
		c0.289,0.122,0.553,0.283,0.829,0.437l1.986,1.048c0.868,0.585,1.684,1.247,2.449,2.005l68.812,68.819
		C222.288,92.456,222.275,103.035,216.215,109.102z"/>
</g>
<g>
</g>
<g>
</g>
<g>
</g>
<g>
</g>
<g>
</g>
<g>
</g>
<g>
</g>
<g>
</g>
<g>
</g>
<g>
</g>
<g>
</g>
<g>
</g>
<g>
</g>
<g>
</g>
<g>
</g>
</svg>
