<?xml version="1.0" encoding="iso-8859-1"?>
<!-- Generator: Adobe Illustrator 19.1.0, SVG Export Plug-In . SVG Version: 6.00 Build 0)  -->
<svg version="1.1" id="Capa_1" xmlns="http://www.w3.org/2000/svg" xmlns:xlink="http://www.w3.org/1999/xlink" x="0px" y="0px"
	 viewBox="0 0 334.002 334.002" style="enable-background:new 0 0 334.002 334.002;" xml:space="preserve">
<g>
	<path d="M329.319,77.684l-52.044-62.205c-3.856-4.608-9.582-7.249-15.707-7.249c-6.125,0-11.845,2.641-15.688,7.243l-52.07,62.205
		c-7.121,8.503-4.287,16.408-3.252,18.625c1.041,2.224,5.289,9.467,16.363,9.467h48.323v44.622l-86.827,68.786l-89.378-68.838
		v-44.57h2.5l45.541-0.006c11.08,0,15.328-7.243,16.363-9.467c1.041-2.217,3.882-10.122-3.246-18.612L88.132,15.472
		c-3.856-4.602-9.57-7.243-15.694-7.243c-6.125,0-11.851,2.641-15.707,7.249L4.686,77.678C-2.435,86.18,0.4,94.085,1.434,96.296
		c1.041,2.224,5.289,9.467,16.369,9.467h48.381v50.894l95.863,73.831v88.857c0,3.554,2.873,6.427,6.427,6.427
		c3.554,0,6.427-2.873,6.427-6.427v-88.909l93.189-73.825v-50.836h2.584l45.528-0.006c11.073,0,15.322-7.237,16.363-9.467
		C333.605,94.085,336.433,86.174,329.319,77.684z M13.073,90.853c-0.353-0.765-0.643-2.416,1.465-4.929l52.044-62.199
		c1.407-1.677,3.541-2.648,5.855-2.648c2.301,0,4.428,0.964,5.836,2.641l52.07,62.218c2.102,2.5,1.812,4.152,1.459,4.917
		c-0.353,0.765-1.452,2.057-4.717,2.057l-45.541,0.006l-63.748-0.006C14.532,92.909,13.44,91.624,13.073,90.853z M320.925,90.859
		c-0.366,0.765-1.459,2.057-4.717,2.057L206.92,92.922c-3.265,0-4.357-1.285-4.711-2.057c-0.36-0.765-0.649-2.423,1.459-4.936
		l52.077-62.205c1.388-1.677,3.515-2.641,5.823-2.641c2.314,0,4.441,0.964,5.855,2.648l52.044,62.205
		C321.568,88.442,321.279,90.094,320.925,90.859z"/>
</g>
<g>
</g>
<g>
</g>
<g>
</g>
<g>
</g>
<g>
</g>
<g>
</g>
<g>
</g>
<g>
</g>
<g>
</g>
<g>
</g>
<g>
</g>
<g>
</g>
<g>
</g>
<g>
</g>
<g>
</g>
</svg>
