<?xml version="1.0" encoding="iso-8859-1"?>
<!-- Generator: Adobe Illustrator 19.1.0, SVG Export Plug-In . SVG Version: 6.00 Build 0)  -->
<svg version="1.1" id="Capa_1" xmlns="http://www.w3.org/2000/svg" xmlns:xlink="http://www.w3.org/1999/xlink" x="0px" y="0px"
	 viewBox="0 0 327.062 327.062" style="enable-background:new 0 0 327.062 327.062;" xml:space="preserve">
<g>
	<g>
		<path d="M58.928,118.331c0-3.805,1.093-9.64,6.279-15.836l77.398-92.482C147.914,3.65,155.555,0,163.544,0
			c7.995,0,15.63,3.644,20.951,10.013l77.373,92.482c5.18,6.189,6.266,12.025,6.266,15.836c0,10.321-8.021,20.772-23.374,20.772
			h-58.735v165.465c0,12.404-10.09,22.494-22.494,22.494s-22.494-10.09-22.494-22.494V139.102H82.302
			C66.961,139.102,58.928,128.652,58.928,118.331z M255.267,118.331c0-1.677-0.566-4.357-3.265-7.59l-77.379-92.482
			c-2.866-3.432-6.909-5.405-11.093-5.405c-4.165,0-8.207,1.973-11.086,5.405l-77.398,92.482c-2.699,3.239-3.278,5.913-3.278,7.59
			c0,3.65,2.764,7.918,10.521,7.918h71.589v178.319c0,5.315,4.332,9.64,9.64,9.64c5.321,0,9.64-4.325,9.64-9.64V126.249h71.589
			C252.523,126.249,255.267,121.981,255.267,118.331z"/>
	</g>
</g>
<g>
</g>
<g>
</g>
<g>
</g>
<g>
</g>
<g>
</g>
<g>
</g>
<g>
</g>
<g>
</g>
<g>
</g>
<g>
</g>
<g>
</g>
<g>
</g>
<g>
</g>
<g>
</g>
<g>
</g>
</svg>
