<?xml version="1.0" encoding="iso-8859-1"?>
<!-- Generator: Adobe Illustrator 19.1.0, SVG Export Plug-In . SVG Version: 6.00 Build 0)  -->
<svg version="1.1" id="Capa_1" xmlns="http://www.w3.org/2000/svg" xmlns:xlink="http://www.w3.org/1999/xlink" x="0px" y="0px"
	 viewBox="0 0 304.735 304.735" style="enable-background:new 0 0 304.735 304.735;" xml:space="preserve">
<g>
	<path d="M304.735,287.167H0l0,0V133.456c0-3.554,2.873-6.427,6.427-6.427s6.427,2.873,6.427,6.427v140.857h279.027v-141.39
		c0-3.554,2.873-6.427,6.427-6.427s6.427,2.873,6.427,6.427V287.167z M145.934,102.511H97.746c-2.873,0-5.321-0.668-7.282-1.992
		c-2.622-1.755-4.132-4.55-4.132-7.667c0-1.851,0.553-4.711,3.201-7.886l52.077-62.212c2.764-3.297,6.684-5.186,10.771-5.186
		s8.014,1.889,10.778,5.186l52.045,62.212c2.648,3.156,3.213,6.028,3.213,7.886c0,4.653-3.58,9.66-11.395,9.66h-48.227v108.871
		c0,3.554-2.873,6.427-6.427,6.427c-3.554,0-6.427-2.873-6.427-6.427V102.511H145.934z M202.297,89.658l-49.011-58.645
		c-0.302-0.373-0.636-0.578-0.913-0.578c-0.276,0-0.611,0.206-0.919,0.578l-49.05,58.6L202.297,89.658z"/>
</g>
<g>
</g>
<g>
</g>
<g>
</g>
<g>
</g>
<g>
</g>
<g>
</g>
<g>
</g>
<g>
</g>
<g>
</g>
<g>
</g>
<g>
</g>
<g>
</g>
<g>
</g>
<g>
</g>
<g>
</g>
</svg>
