<?xml version="1.0" encoding="iso-8859-1"?>
<!-- Generator: Adobe Illustrator 19.1.0, SVG Export Plug-In . SVG Version: 6.00 Build 0)  -->
<svg version="1.1" id="Capa_1" xmlns="http://www.w3.org/2000/svg" xmlns:xlink="http://www.w3.org/1999/xlink" x="0px" y="0px"
	 viewBox="0 0 305.474 305.474" style="enable-background:new 0 0 305.474 305.474;" xml:space="preserve">
<g>
	<path d="M296.251,152.425c0-11.999-9.743-21.723-21.729-21.723h-16.646V55.11c0-30.393-27.963-55.11-62.321-55.11
		s-62.321,24.724-62.321,55.11l-0.013,111.345h0.006l-0.006,83.902c0,23.297-20.437,42.263-45.553,42.263
		c-25.11,0-45.541-18.966-45.541-42.263V95.464h7.269c7.095,0,12.847-5.758,12.847-12.854V24.769h-8.83V3.882H18.059v20.887H9.223
		l0.006,57.842c0,7.095,5.758,12.854,12.854,12.854h7.192v154.893c0,30.392,26.196,55.117,58.394,55.117
		c32.205,0,58.407-24.73,58.407-55.117l0.006-87.418h-0.006l0.013-107.836c0-23.297,22.192-42.256,49.467-42.256
		s49.467,18.959,49.467,42.256v75.599h-16.658c-11.986,0-21.703,9.724-21.703,21.723v97.733h14.923v48.15h59.725v-48.15h14.936
		v-97.733H296.251z M243.706,283.963h-9.287v-16.819h9.287V283.963z M268.494,283.963h-9.3v-16.819h9.3V283.963z M283.398,237.304
		h-63.876v-84.879c0-4.891,3.972-8.869,8.85-8.869h46.158c4.897,0,8.875,3.978,8.875,8.869v84.879H283.398z"/>
</g>
<g>
</g>
<g>
</g>
<g>
</g>
<g>
</g>
<g>
</g>
<g>
</g>
<g>
</g>
<g>
</g>
<g>
</g>
<g>
</g>
<g>
</g>
<g>
</g>
<g>
</g>
<g>
</g>
<g>
</g>
</svg>
