<?xml version="1.0" encoding="iso-8859-1"?>
<!-- Generator: Adobe Illustrator 19.1.0, SVG Export Plug-In . SVG Version: 6.00 Build 0)  -->
<svg version="1.1" id="Capa_1" xmlns="http://www.w3.org/2000/svg" xmlns:xlink="http://www.w3.org/1999/xlink" x="0px" y="0px"
	 viewBox="0 0 322.087 322.087" style="enable-background:new 0 0 322.087 322.087;" xml:space="preserve">
<g>
	<path d="M86.602,124.507c0.758,0.315,1.542,0.598,2.327,0.874l1.6,0.585c0.643,0.244,1.279,0.482,1.96,0.694
		c6.221,1.934,12.719,2.931,19.319,2.943h0.013c2.224,0,4.415-0.122,6.498-0.334c0.79-0.071,1.581-0.199,2.371-0.334l1.247-0.193
		c0.964-0.129,1.934-0.264,2.905-0.469c0.636-0.135,1.253-0.296,1.864-0.456l1.53-0.386c0.925-0.219,1.851-0.443,2.847-0.758
		c0.469-0.154,0.932-0.328,1.395-0.501l1.356-0.488c1.041-0.36,2.082-0.726,3.091-1.15c0.437-0.18,0.855-0.386,1.6-0.758
		c1.375-0.611,2.744-1.24,4.248-2.05l0.758-0.469c1.51-0.855,3.001-1.735,4.435-2.68l0.585-0.411
		c17.539-12.095,28.008-31.974,28.04-53.362C176.59,29.069,147.528,0,111.795,0C77.694,0,49.32,26.671,47.192,60.727l-0.058,0.855
		c-0.077,1.067-0.141,2.127-0.141,3.22C47.006,90.901,62.54,114.327,86.602,124.507z M59.969,62.482l0.064-0.951
		c1.71-27.295,24.448-48.67,51.775-48.67c28.638,0,51.942,23.304,51.942,52.006c-0.026,17.217-8.561,33.278-22.526,42.758
		l-0.617,0.411c-1.099,0.713-2.237,1.375-3.4,2.031l-0.662,0.418c-1.048,0.553-2.14,1.054-3.323,1.581l-1.26,0.617
		c-0.758,0.315-1.555,0.585-2.339,0.861l-2.449,0.887c-0.623,0.193-1.26,0.341-1.902,0.495l-1.889,0.476
		c-0.398,0.109-0.797,0.219-1.189,0.296c-0.649,0.135-1.305,0.219-1.967,0.302l-1.748,0.27c-0.431,0.077-0.868,0.161-1.388,0.206
		c-1.742,0.174-3.49,0.27-5.264,0.27c-5.315-0.013-10.534-0.803-15.489-2.352c-0.424-0.135-0.835-0.289-1.24-0.45l-1.883-0.681
		c-0.559-0.199-1.118-0.398-1.632-0.611c-19.274-8.156-31.729-26.935-31.729-47.848C59.86,64.024,59.911,63.246,59.969,62.482z
		 M223.512,142.149c-17.783,0-34.326,5.251-48.298,14.184c-18.13-14.261-40.47-22.147-63.542-22.147
		c-56.832,0-103.061,46.228-103.061,103.061c0,0.938,0.058,1.857,0.116,2.789l0.315,7.519H134.97
		c7.352,42.263,44.204,74.532,88.536,74.532c49.609,0,89.969-40.361,89.969-89.969S273.121,142.149,223.512,142.149z
		 M133.588,234.702H21.504c1.356-48.568,41.286-87.662,90.175-87.662c19.03,0,37.533,6.067,52.886,17.224
		c-0.302,0.264-0.559,0.566-0.855,0.829c-1.922,1.716-3.766,3.49-5.527,5.354c-0.437,0.469-0.868,0.951-1.298,1.433
		c-1.69,1.87-3.303,3.805-4.839,5.81c-0.36,0.469-0.707,0.938-1.054,1.42c-1.549,2.108-2.995,4.287-4.357,6.53
		c-0.244,0.405-0.501,0.803-0.739,1.208c-1.388,2.372-2.661,4.814-3.837,7.32c-0.148,0.321-0.315,0.636-0.456,0.951
		c-1.176,2.596-2.23,5.251-3.156,7.969c-0.096,0.27-0.199,0.533-0.296,0.803c-0.9,2.712-1.658,5.476-2.294,8.291
		c-0.071,0.302-0.167,0.598-0.231,0.9c-0.591,2.719-1.028,5.489-1.369,8.291c-0.051,0.398-0.135,0.778-0.174,1.176
		c-0.341,3.149-0.527,6.337-0.527,9.57C133.55,232.973,133.562,233.834,133.588,234.702z M223.512,309.227
		c-39.718,0-72.495-30.187-76.646-68.825c-0.315-2.879-0.463-5.598-0.463-8.291c0-2.931,0.193-5.842,0.527-8.721
		c0.077-0.649,0.206-1.273,0.296-1.915c0.328-2.294,0.72-4.582,1.247-6.832c0.135-0.585,0.296-1.157,0.443-1.735
		c0.617-2.359,1.324-4.692,2.159-6.986c0.135-0.392,0.283-0.778,0.424-1.17c1.009-2.635,2.134-5.225,3.419-7.725
		c0.013-0.026,0.026-0.058,0.045-0.084c2.757-5.36,6.144-10.399,10.097-15c0.032-0.039,0.071-0.077,0.103-0.116
		c1.838-2.134,3.818-4.158,5.9-6.093c0.302-0.283,0.604-0.559,0.913-0.835c1.973-1.774,4.042-3.464,6.208-5.045
		c0.482-0.353,0.945-0.733,1.44-1.073l1.028-0.739c12.262-8.226,27.006-13.046,42.861-13.046c42.52,0,77.116,34.589,77.116,77.109
		S266.039,309.227,223.512,309.227z M268.025,204.02c4.171,4.177,4.171,10.964,0,15.135l-46.999,46.999
		c-4.087,4.068-10.611,4.139-14.814,0.27l-0.032,0.032l-27.166-27.173c-4.184-4.171-4.184-10.958,0-15.129
		c4.177-4.184,10.958-4.184,15.129,0l19.293,19.293l39.435-39.435C257.054,199.842,263.834,199.842,268.025,204.02z"/>
</g>
<g>
</g>
<g>
</g>
<g>
</g>
<g>
</g>
<g>
</g>
<g>
</g>
<g>
</g>
<g>
</g>
<g>
</g>
<g>
</g>
<g>
</g>
<g>
</g>
<g>
</g>
<g>
</g>
<g>
</g>
</svg>
