<?xml version="1.0" encoding="iso-8859-1"?>
<!-- Generator: Adobe Illustrator 19.1.0, SVG Export Plug-In . SVG Version: 6.00 Build 0)  -->
<svg version="1.1" id="Capa_1" xmlns="http://www.w3.org/2000/svg" xmlns:xlink="http://www.w3.org/1999/xlink" x="0px" y="0px"
	 viewBox="0 0 312.664 312.664" style="enable-background:new 0 0 312.664 312.664;" xml:space="preserve">
<g>
	<path d="M304.701,105.4c-4.402,0-7.963,3.567-7.963,7.963v6.215l-23.137,13.361V119.95c0-20.27-16.485-36.761-36.761-36.761H96.748
		H83.894L67.699,66.993c3.438-6.195,2.603-14.139-2.661-19.396c-6.363-6.369-16.684-6.369-23.047,0L4.767,84.815
		c-6.356,6.363-6.356,16.684,0,23.034c4.229,4.235,10.187,5.591,15.585,4.197l10.688,10.688v12.854v97.489
		c0,20.27,16.485,36.768,36.761,36.768H236.84c20.27,0,36.761-16.491,36.761-36.768v-12.989l23.137,13.361v6.208
		c0,4.409,3.567,7.969,7.963,7.969c4.396,0,7.963-3.567,7.963-7.969V113.369C312.664,108.967,309.097,105.4,304.701,105.4z
		 M87.66,105.13l34.429,34.429c3.74,3.747,5.803,8.721,5.803,14.017c0,5.289-2.063,10.264-5.81,14.004
		c-2.641,2.648-5.913,4.402-9.454,5.231c-1.478,0.353-2.995,0.585-4.55,0.585c-1.324,0-2.622-0.135-3.895-0.386
		c-3.805-0.752-7.307-2.616-10.109-5.431l-41.087-41.08l-18.355-18.355L62.66,80.123l3.066,3.066h-0.006L87.66,105.13z
		 M260.748,233.082c0,13.207-10.701,23.914-23.908,23.914H67.801c-13.207,0-23.908-10.707-23.908-23.914v-97.489l41.08,41.08
		c6.375,6.382,14.743,9.576,23.104,9.576s16.729-3.194,23.104-9.576c12.757-12.751,12.757-33.445,0-46.203L96.754,96.043h140.092
		c13.207,0,23.908,10.707,23.908,23.908v20.412v72.302v20.418H260.748z M292.978,176.513v39.923l-19.383-11.189v-57.462
		l19.383-11.189V176.513z M208.234,128.447c0,5.585-4.524,10.109-10.103,10.109c-5.585,0-10.109-4.525-10.109-10.109
		c0-5.578,4.524-10.103,10.109-10.103C203.71,118.344,208.234,122.868,208.234,128.447z M238.286,128.447
		c0,5.585-4.524,10.109-10.103,10.109c-5.585,0-10.109-4.525-10.109-10.109c0-5.578,4.524-10.103,10.109-10.103
		C233.762,118.344,238.286,122.868,238.286,128.447z"/>
</g>
<g>
</g>
<g>
</g>
<g>
</g>
<g>
</g>
<g>
</g>
<g>
</g>
<g>
</g>
<g>
</g>
<g>
</g>
<g>
</g>
<g>
</g>
<g>
</g>
<g>
</g>
<g>
</g>
<g>
</g>
</svg>
