<?xml version="1.0" encoding="iso-8859-1"?>
<!-- Generator: Adobe Illustrator 19.1.0, SVG Export Plug-In . SVG Version: 6.00 Build 0)  -->
<svg version="1.1" id="Capa_1" xmlns="http://www.w3.org/2000/svg" xmlns:xlink="http://www.w3.org/1999/xlink" x="0px" y="0px"
	 viewBox="0 0 319.754 319.754" style="enable-background:new 0 0 319.754 319.754;" xml:space="preserve">
<g>
	<path d="M311.772,30.277c-4.402,0-7.963,3.567-7.963,7.963v6.215l-27.584,15.932h-21.029V44.821
		c0-16.729-13.606-30.335-30.335-30.335H55.823c-16.729,0-30.335,13.606-30.335,30.335v3.618h-4.569v-1.851
		c0-5.778-4.685-10.463-10.456-10.463C4.685,36.125,0,40.81,0,46.588v34.12c0,5.771,4.685,10.463,10.463,10.463
		c5.771,0,10.456-4.685,10.456-10.463v-1.375h4.576v78.619c0,16.729,13.606,30.341,30.335,30.341h12.262l27.102,103.254
		c2.114,8.079,9.428,13.721,17.777,13.721c1.568,0,3.136-0.199,4.672-0.604l38.67-10.154c9.788-2.577,15.669-12.648,13.098-22.443
		l-11.716-44.647l1.388-0.366c1.44-0.379,2.294-1.844,1.928-3.291l-6.62-25.193c-0.373-1.446-1.851-2.307-3.297-1.934l-1.382,0.366
		l-2.282-8.708h77.45c16.729,0,30.335-13.612,30.335-30.341v-15.566h21.035l27.578,15.932v6.215c0,4.409,3.567,7.969,7.963,7.969
		s7.963-3.567,7.963-7.969V38.24C319.741,33.837,316.175,30.277,311.772,30.277z M242.343,157.952
		c0,9.64-7.841,17.487-17.481,17.487h-94.108l26.215,99.892c0.771,2.943-0.996,5.977-3.94,6.755l-38.657,10.148
		c-2.931,0.784-6.003-1.054-6.761-3.946L78.002,175.44H55.823c-9.64,0-17.481-7.847-17.481-17.487V44.814
		c0-9.634,7.841-17.481,17.481-17.481h169.039c9.64,0,17.481,7.847,17.481,17.481V60.38h-0.026v82.006h0.026V157.952z
		 M300.056,101.383v39.924l-17.397-10.045l-2.982-1.729h-3.445h-21.035V73.234h21.029h3.445l2.982-1.729l17.404-10.045V101.383z
		 M126.924,79.333c0,15.649-12.699,28.342-28.349,28.342c-15.662,0-28.349-12.699-28.349-28.342
		c0-15.662,12.693-28.349,28.349-28.349C114.224,50.978,126.924,63.671,126.924,79.333z"/>
</g>
<g>
</g>
<g>
</g>
<g>
</g>
<g>
</g>
<g>
</g>
<g>
</g>
<g>
</g>
<g>
</g>
<g>
</g>
<g>
</g>
<g>
</g>
<g>
</g>
<g>
</g>
<g>
</g>
<g>
</g>
</svg>
