<?xml version="1.0" encoding="iso-8859-1"?>
<!-- Generator: Adobe Illustrator 19.1.0, SVG Export Plug-In . SVG Version: 6.00 Build 0)  -->
<svg version="1.1" id="Capa_1" xmlns="http://www.w3.org/2000/svg" xmlns:xlink="http://www.w3.org/1999/xlink" x="0px" y="0px"
	 viewBox="0 0 328.077 328.077" style="enable-background:new 0 0 328.077 328.077;" xml:space="preserve">
<g>
	<path d="M319.317,145.295c-2.121,0-4.492,0.681-7.018,2.134l-48.754,28.156c-1.105,0.636-2.294,1.324-3.567,2.05v106.859
		c1.266,0.726,2.461,1.42,3.567,2.05l48.754,28.156c2.526,1.452,4.897,2.14,7.018,2.14c5.186,0,8.76-4.139,8.76-11.253v-56.306
		c0-10.026,0-26.414,0-36.434v-56.305C328.077,149.421,324.504,145.295,319.317,145.295z M315.223,212.847v36.434v52.263
		l-42.391-24.48v-92.007l42.391-24.48V212.847z M294.754,89.375c0-47.051-38.285-85.329-85.342-85.329
		c-40.862,0-75.078,28.889-83.382,67.308c-11.96-19.557-33.452-32.68-58.009-32.68C30.515,38.673,0,69.188,0,106.695
		c0,14.589,4.659,28.085,12.507,39.172c-7.147,6.016-11.414,14.807-11.414,24.377v121.654c0,17.719,14.415,32.134,32.134,32.134
		h181.77c17.725,0,32.134-14.415,32.134-32.134v-121.66c0-1.395-0.148-2.815-0.366-4.255
		C275.126,152.094,294.754,123.019,294.754,89.375z M209.406,16.893c39.968,0,72.488,32.513,72.488,72.475
		c0,29.949-18.265,55.708-44.229,66.743l-0.186,0.077c-0.887,0.373-1.806,0.656-2.706,0.99c-1.433,0.533-2.854,1.086-4.306,1.53
		c-0.906,0.276-1.832,0.469-2.751,0.707c-1.356,0.353-2.706,0.739-4.075,1.015c-1.292,0.264-2.622,0.411-3.933,0.604
		c-1.028,0.148-2.05,0.347-3.085,0.45c-2.372,0.238-4.782,0.366-7.217,0.366c-2.494,0-4.955-0.129-7.384-0.373
		c-0.167-0.019-0.341-0.058-0.508-0.077c-13.599-1.478-26.042-6.774-36.331-14.73c-0.649-0.508-1.33-0.958-1.967-1.491
		c-0.765-0.63-1.465-1.337-2.198-1.999c-1.054-0.945-2.121-1.877-3.117-2.892c-12.95-13.104-20.971-31.087-20.971-50.92
		C136.924,49.406,169.443,16.893,209.406,16.893z M139.449,138.103h-11.157c1.851-3.535,3.432-7.23,4.647-11.093
		C134.848,130.873,137.001,134.594,139.449,138.103z M68.022,51.521c30.418,0,55.168,24.75,55.168,55.168
		c0,12.867-4.467,24.698-11.877,34.094c-2.558,3.239-5.411,6.144-8.522,8.689c-0.347,0.283-0.726,0.533-1.08,0.803
		c-1.144,0.893-2.314,1.748-3.522,2.545c-0.675,0.443-1.382,0.855-2.082,1.266c-0.938,0.559-1.883,1.105-2.854,1.607
		c-0.797,0.411-1.607,0.797-2.429,1.176c-0.945,0.431-1.902,0.829-2.866,1.208c-0.835,0.321-1.677,0.643-2.532,0.925
		c-1.041,0.347-2.102,0.643-3.162,0.925c-0.81,0.219-1.613,0.45-2.436,0.63c-1.24,0.27-2.5,0.463-3.766,0.649
		c-0.681,0.103-1.35,0.238-2.037,0.315c-1.979,0.212-3.978,0.341-5.996,0.341c-1.954,0-3.901-0.109-5.823-0.315
		c-0.225-0.026-0.437-0.077-0.656-0.103c-1.716-0.206-3.413-0.469-5.09-0.829c-0.193-0.039-0.373-0.103-0.559-0.141
		c-1.69-0.386-3.368-0.835-5.019-1.375c-0.186-0.064-0.373-0.141-0.559-0.206c-1.62-0.553-3.213-1.17-4.775-1.877
		c-0.225-0.103-0.443-0.219-0.668-0.321c-1.497-0.694-2.969-1.452-4.409-2.288c-0.257-0.148-0.508-0.308-0.758-0.463
		c-1.375-0.829-2.719-1.71-4.017-2.661c-0.27-0.193-0.533-0.398-0.797-0.591c-1.279-0.964-2.513-1.979-3.708-3.059
		c-0.238-0.212-0.469-0.424-0.701-0.636c-1.228-1.144-2.404-2.346-3.528-3.612c-0.328-0.366-0.675-0.713-0.99-1.093l-0.578-0.662
		c-7.821-9.518-12.526-21.697-12.526-34.949C12.854,76.264,37.597,51.521,68.022,51.521z M234.271,171.002v120.889
		c0,10.63-8.651,19.28-19.281,19.28H33.227c-10.63,0-19.281-8.651-19.281-19.28V170.237c0-5.739,2.551-11.041,6.877-14.647
		c0.238,0.225,0.495,0.418,0.733,0.643c1.305,1.221,2.629,2.41,4.023,3.528c0.321,0.264,0.668,0.495,0.996,0.746
		c1.401,1.08,2.821,2.127,4.3,3.098c0.321,0.212,0.662,0.398,0.99,0.604c1.517,0.951,3.053,1.877,4.64,2.712
		c0.308,0.161,0.636,0.296,0.945,0.456c1.62,0.816,3.265,1.6,4.955,2.288c0.328,0.135,0.662,0.238,0.99,0.366
		c1.684,0.662,3.387,1.279,5.129,1.8c0.437,0.135,0.893,0.225,1.337,0.347c1.639,0.456,3.284,0.9,4.968,1.228
		c0.803,0.154,1.613,0.238,2.423,0.373c1.343,0.212,2.686,0.456,4.055,0.598c2.217,0.219,4.454,0.341,6.703,0.341
		c2.423,0,4.814-0.135,7.166-0.386c0.919-0.103,1.812-0.289,2.725-0.418c1.414-0.206,2.828-0.398,4.216-0.688
		c1.138-0.238,2.243-0.566,3.355-0.861c1.112-0.302,2.23-0.572,3.323-0.925c1.208-0.392,2.384-0.855,3.567-1.305
		c0.958-0.373,1.915-0.72,2.854-1.138c1.189-0.514,2.339-1.099,3.49-1.684c0.906-0.463,1.8-0.919,2.68-1.42
		c1.08-0.611,2.14-1.266,3.194-1.941c0.938-0.598,1.857-1.221,2.764-1.87c0.913-0.649,1.806-1.311,2.686-2.012
		c1.06-0.829,2.069-1.71,3.078-2.596c0.668-0.598,1.343-1.189,1.999-1.812c1.273-1.228,2.481-2.519,3.657-3.837
		c0.27-0.302,0.566-0.566,0.829-0.874h30.785c0.874,0.835,1.812,1.575,2.712,2.365c0.88,0.778,1.742,1.581,2.661,2.32
		c1.401,1.138,2.854,2.185,4.319,3.233c0.707,0.508,1.395,1.041,2.121,1.523c1.735,1.157,3.515,2.211,5.321,3.233
		c0.533,0.302,1.048,0.636,1.587,0.925c1.979,1.067,3.997,2.018,6.048,2.924c0.45,0.199,0.887,0.424,1.337,0.611
		c2.089,0.88,4.229,1.639,6.388,2.346c0.476,0.154,0.945,0.347,1.433,0.495c2.102,0.649,4.248,1.17,6.401,1.652
		c0.598,0.135,1.17,0.308,1.761,0.424c2.127,0.424,4.28,0.72,6.453,0.99c0.656,0.077,1.285,0.212,1.947,0.276
		c2.815,0.276,5.662,0.431,8.535,0.431c2.609,0,5.212-0.154,7.789-0.398c0.758-0.071,1.51-0.161,2.275-0.251
		c1.877-0.225,3.747-0.508,5.604-0.861c0.752-0.135,1.51-0.263,2.262-0.418C229.669,172.281,231.983,171.703,234.271,171.002z
		 M175.33,250.585v6.131c0,7.095-5.758,12.854-12.854,12.854H76.036c-7.095,0-12.854-5.758-12.854-12.854v-6.131
		c0-7.095,5.758-12.854,12.854-12.854h86.435C169.566,237.732,175.33,243.49,175.33,250.585z"/>
</g>
<g>
</g>
<g>
</g>
<g>
</g>
<g>
</g>
<g>
</g>
<g>
</g>
<g>
</g>
<g>
</g>
<g>
</g>
<g>
</g>
<g>
</g>
<g>
</g>
<g>
</g>
<g>
</g>
<g>
</g>
</svg>
