<?xml version="1.0" encoding="iso-8859-1"?>
<!-- Generator: Adobe Illustrator 19.1.0, SVG Export Plug-In . SVG Version: 6.00 Build 0)  -->
<svg version="1.1" id="Capa_1" xmlns="http://www.w3.org/2000/svg" xmlns:xlink="http://www.w3.org/1999/xlink" x="0px" y="0px"
	 viewBox="0 0 317.833 317.833" style="enable-background:new 0 0 317.833 317.833;" xml:space="preserve">
<g>
	<path d="M309.516,36.52c-10.161-12.86-27.828-15.559-40.849-15.559c-5.135,0-10.405,0.405-15.656,1.215
		c-11.279,1.729-60.477,20.071-77.379,72.495l-2.931,9.107l9.531-0.726c3.515-0.27,6.793-0.424,9.827-0.424
		c9.203,0,14.865,1.504,17.828,4.737c3.207,3.503,4.345,10.032,3.477,19.949c-1.035,11.761-7.725,25.457-13.439,36.074l-0.514,0.958
		c-4.878,9.094-13.959,26.016-22.635,26.016c-2.731,0-5.784-1.793-9.088-5.321c-11.941-12.764-14.293-35.881-16.363-56.28
		c-0.707-6.967-1.375-13.541-2.391-19.557l-0.951-5.81c-2.05-12.622-4.377-26.928-8.329-39.339
		c-4.152-13.04-13.869-29.698-27.578-33.702c-3.001-0.88-6.279-1.33-9.724-1.33c-13.464,0-25.9,6.71-29.383,8.76
		C54.898,48.397,39.711,61.932,25.033,75.017c-7.339,6.543-14.93,13.304-22.616,19.435L0,96.38v7.552l1.986,1.896
		c1.035,0.99,1.973,2.468,2.963,4.036c2.429,3.837,5.765,9.094,13.021,10.142c7.153,1.06,14.068-1.035,19.917-2.854
		c3.67-1.144,7.134-2.224,9.852-2.224c1.979,0,4.319,0.392,7.063,5.007c3.965,6.735,6.118,14.1,8.4,21.896
		c1.112,3.798,2.237,7.622,3.567,11.427c5.321,15.142,9.467,31.761,13.991,49.898l1.652,6.703c7.552,30.772,17.892,72.919,45.2,84.5
		c3.927,1.665,8.451,2.513,13.464,2.513c13.066,0,27.571-5.861,36.022-10.874c30.939-18.316,53.304-44.737,69.397-65.792
		c44.037-59.667,66.678-125.458,69.963-142.734C319.619,59.779,317.338,46.379,309.516,36.52z M303.822,75.146
		c-2.995,15.791-25.47,80.265-67.604,137.348c-22.751,29.782-43.002,49.043-65.676,62.456c-7.616,4.518-19.679,9.081-29.467,9.081
		c-3.271,0-6.112-0.501-8.438-1.491c-21.382-9.068-30.836-47.597-37.738-75.727l-1.8-7.288
		c-4.467-17.899-8.689-34.808-14.197-50.508c-1.26-3.586-2.307-7.192-3.355-10.771c-2.404-8.207-4.878-16.697-9.672-24.827
		c-4.454-7.513-10.553-11.324-18.124-11.324c-4.679,0-9.255,1.427-13.676,2.809c-5.045,1.575-9.57,3.098-14.229,2.41
		c-1.234-0.18-2.012-1.131-4.017-4.3c-0.386-0.604-0.784-1.234-1.208-1.877c6.498-5.373,12.834-11.016,18.991-16.511
		c14.216-12.674,28.921-25.778,45.907-35.752c5.739-3.381,14.75-6.986,22.867-6.986c2.224,0,4.274,0.27,6.112,0.81
		c7.802,2.282,15.585,14.724,18.946,25.27c3.663,11.504,5.906,25.315,7.886,37.494l0.958,5.874
		c0.945,5.611,1.594,11.986,2.275,18.741c2.282,22.417,4.865,47.822,19.763,63.754c5.823,6.24,12.044,9.402,18.477,9.402
		c16.369-0.006,26.954-19.73,33.959-32.79l0.514-0.951c6.684-12.43,13.683-27.025,14.917-41.042
		c1.215-13.908-0.945-23.362-6.812-29.756c-7.23-7.899-18.387-8.908-27.301-8.908c-0.283,0-0.566,0-0.855,0
		c17.307-39.666,56.228-53.735,63.748-54.892c4.544-0.694,9.28-1.067,13.708-1.067c10.187,0,23.792,1.851,30.772,10.688
		C304.928,51.411,306.309,61.174,303.822,75.146z"/>
</g>
<g>
</g>
<g>
</g>
<g>
</g>
<g>
</g>
<g>
</g>
<g>
</g>
<g>
</g>
<g>
</g>
<g>
</g>
<g>
</g>
<g>
</g>
<g>
</g>
<g>
</g>
<g>
</g>
<g>
</g>
</svg>
