<?xml version="1.0" encoding="iso-8859-1"?>
<!-- Generator: Adobe Illustrator 19.1.0, SVG Export Plug-In . SVG Version: 6.00 Build 0)  -->
<svg version="1.1" id="Capa_1" xmlns="http://www.w3.org/2000/svg" xmlns:xlink="http://www.w3.org/1999/xlink" x="0px" y="0px"
	 viewBox="0 0 333.578 333.578" style="enable-background:new 0 0 333.578 333.578;" xml:space="preserve">
<g>
	<path d="M290.705,285.313h-18.201L187.201,0h-38.702L61.235,285.313H42.867c-13.304,0-24.126,10.823-24.126,24.126
		c0,13.316,10.823,24.139,24.126,24.139h247.838c13.304,0,24.133-10.823,24.133-24.139
		C314.838,296.136,304.009,285.313,290.705,285.313z M231.424,192.818H102.971l17.513-57.263h93.825L231.424,192.818z
		 M158.01,12.854h19.615l15.514,51.884h-50.997L158.01,12.854z M290.705,320.725H42.867c-6.215,0-11.273-5.058-11.273-11.286
		c0-6.215,5.058-11.273,11.273-11.273h27.88l10.566-34.544h171.282l10.328,34.544h27.777c6.221,0,11.279,5.058,11.279,11.273
		C301.984,315.667,296.926,320.725,290.705,320.725z"/>
</g>
<g>
</g>
<g>
</g>
<g>
</g>
<g>
</g>
<g>
</g>
<g>
</g>
<g>
</g>
<g>
</g>
<g>
</g>
<g>
</g>
<g>
</g>
<g>
</g>
<g>
</g>
<g>
</g>
<g>
</g>
</svg>
