<?xml version='1.0' encoding='iso-8859-1'?>
<svg version="1.1" xmlns="http://www.w3.org/2000/svg" viewBox="0 0 44 44" xmlns:xlink="http://www.w3.org/1999/xlink" enable-background="new 0 0 44 44">
  <g>
    <g>
      <path d="M43,21h-3V11c0-1.657-1.343-3-3-3h-1V3c0-1.657-1.343-3-3-3H5C2.238,0,0,2.238,0,5v34c0,2.762,2.238,5,5,5h32    c1.657,0,3-1.343,3-3V31h3c0.553,0,1-0.447,1-1v-8C44,21.447,43.553,21,43,21z M5,2h28c0.553,0,1,0.447,1,1v5H5    C3.343,8,2,6.657,2,5C2,3.343,3.343,2,5,2z M38,41c0,0.553-0.447,1-1,1H5c-1.657,0-3-1.343-3-3V8.977C2.838,9.61,3.869,10,5,10h32    c0.553,0,1,0.447,1,1v10H28c-0.553,0-1,0.447-1,1v8c0,0.553,0.447,1,1,1h10V41z M42,29H29v-6h13V29z"/>
    </g>
  </g>
</svg>
