<?xml version="1.0" encoding="iso-8859-1"?>
<!-- Generator: Adobe Illustrator 19.1.0, SVG Export Plug-In . SVG Version: 6.00 Build 0)  -->
<svg version="1.1" id="Capa_1" xmlns="http://www.w3.org/2000/svg" xmlns:xlink="http://www.w3.org/1999/xlink" x="0px" y="0px"
	 viewBox="0 0 333.842 333.842" style="enable-background:new 0 0 333.842 333.842;" xml:space="preserve">
<g>
	<path d="M166.911,333.835C74.879,333.835,0,258.963,0,166.931C0,74.892,74.873,0.006,166.911,0.006
		c92.045,0,166.931,74.879,166.931,166.924C333.835,258.963,258.956,333.835,166.911,333.835z M166.911,12.867
		c-84.95,0-154.058,69.114-154.058,154.07c0,84.95,69.108,154.051,154.058,154.051c84.956,0,154.077-69.101,154.077-154.051
		C320.982,81.974,251.868,12.867,166.911,12.867z M276.09,183.91c1.067-5.212-2.294-10.309-7.513-11.375
		c-5.18-1.041-10.309,2.282-11.382,7.507c-8.753,42.79-46.871,73.844-90.625,73.844c-43.053,0-80.066-29.21-90.008-71.023
		c-1.228-5.186-6.42-8.393-11.607-7.153c-5.186,1.228-8.387,6.427-7.147,11.613c12.012,50.547,56.736,85.843,108.761,85.843
		C219.451,273.173,265.505,235.64,276.09,183.91z M155.163,106.152c0-5.328-4.319-9.64-9.64-9.64s-9.64,4.312-9.64,9.64
		c0,5.341-4.345,9.679-9.685,9.679s-9.685-4.338-9.685-9.679c0-5.328-4.319-9.64-9.64-9.64c-5.321,0-9.64,4.312-9.64,9.64
		c0,15.964,12.989,28.959,28.966,28.959S155.163,122.123,155.163,106.152z M207.195,96.512c-10.656,0-19.293,8.638-19.293,19.293
		s8.638,19.293,19.293,19.293c10.656,0,19.293-8.638,19.293-19.293S217.857,96.512,207.195,96.512z"/>
</g>
<g>
</g>
<g>
</g>
<g>
</g>
<g>
</g>
<g>
</g>
<g>
</g>
<g>
</g>
<g>
</g>
<g>
</g>
<g>
</g>
<g>
</g>
<g>
</g>
<g>
</g>
<g>
</g>
<g>
</g>
</svg>
