<?xml version="1.0" encoding="iso-8859-1"?>
<!-- Generator: Adobe Illustrator 19.1.0, SVG Export Plug-In . SVG Version: 6.00 Build 0)  -->
<svg version="1.1" id="Capa_1" xmlns="http://www.w3.org/2000/svg" xmlns:xlink="http://www.w3.org/1999/xlink" x="0px" y="0px"
	 viewBox="0 0 329.497 329.497" style="enable-background:new 0 0 329.497 329.497;" xml:space="preserve">
<g>
	<path d="M77.713,328.151c-9.955,0-19.718-1.896-29.024-5.649l-9.01-3.638l42.301-42.301c3.946-3.94,6.118-9.19,6.118-14.762
		c0-5.585-2.172-10.823-6.118-14.775c-7.899-7.899-21.646-7.899-29.544,0L9.897,289.577l-3.728-8.76
		C2.076,271.19,0,260.984,0,250.45c0-42.854,34.866-77.713,77.713-77.713c9.158,0,18.092,1.581,26.626,4.704l73.774-73.78
		c-2.68-7.982-4.036-16.241-4.036-24.608c0-42.848,34.866-77.707,77.713-77.707c10.257,0,20.245,1.986,29.692,5.9l8.888,3.683
		l-42.854,42.848c-3.946,3.946-6.118,9.197-6.118,14.775s2.172,10.829,6.118,14.775c7.899,7.886,21.658,7.886,29.544,0
		l42.848-42.848l3.683,8.882c3.914,9.46,5.906,19.448,5.906,29.692c0,42.848-34.859,77.707-77.707,77.707
		c-9.158,0-18.092-1.581-26.633-4.704l-73.78,73.78c2.686,7.982,4.042,16.241,4.042,24.615
		C155.42,293.292,120.561,328.151,77.713,328.151z M63.099,313.613c4.782,1.118,9.672,1.684,14.608,1.684
		c35.759,0,64.853-29.081,64.853-64.847c0-8.162-1.549-16.196-4.608-23.889l-1.555-3.927l85.74-85.734l4.004,1.729
		c8.143,3.509,16.768,5.283,25.643,5.283c35.759,0,64.853-29.094,64.853-64.853c0-5.199-0.617-10.315-1.825-15.302l-28.67,28.664
		c-6.369,6.369-14.846,9.878-23.856,9.878c-9.004,0-17.487-3.503-23.863-9.878c-6.375-6.375-9.884-14.852-9.884-23.863
		s3.509-17.487,9.884-23.863l28.664-28.664c-4.981-1.208-10.097-1.825-15.302-1.825c-35.759,0-64.86,29.094-64.86,64.853
		c0,8.156,1.549,16.189,4.602,23.882l1.555,3.927l-85.734,85.728l-4.004-1.722c-8.143-3.515-16.761-5.283-25.637-5.283
		c-35.759,0-64.86,29.094-64.86,64.86c0,5.45,0.668,10.81,1.992,15.99l28.509-28.509c6.369-6.375,14.846-9.878,23.856-9.878
		s17.487,3.503,23.863,9.878c6.375,6.375,9.884,14.852,9.884,23.863c0,9.01-3.509,17.487-9.884,23.85L63.099,313.613z"/>
</g>
<g>
</g>
<g>
</g>
<g>
</g>
<g>
</g>
<g>
</g>
<g>
</g>
<g>
</g>
<g>
</g>
<g>
</g>
<g>
</g>
<g>
</g>
<g>
</g>
<g>
</g>
<g>
</g>
<g>
</g>
</svg>
