<?xml version="1.0" encoding="iso-8859-1"?>
<!-- Generator: Adobe Illustrator 19.1.0, SVG Export Plug-In . SVG Version: 6.00 Build 0)  -->
<svg version="1.1" id="Capa_1" xmlns="http://www.w3.org/2000/svg" xmlns:xlink="http://www.w3.org/1999/xlink" x="0px" y="0px"
	 viewBox="0 0 333.437 333.437" style="enable-background:new 0 0 333.437 333.437;" xml:space="preserve">
<g>
	<path d="M198.939,129.674v12.854H75.756v-12.854H198.939z M321.64,319.754l-2.275,2.275c-7.365,7.359-17.147,11.408-27.552,11.408
		s-20.193-4.055-27.552-11.408l-64.802-64.802c-18.792,9.788-40.091,15.412-62.707,15.412c-75.181,0-136.345-61.151-136.345-136.313
		C0.407,61.158,61.571,0,136.753,0c75.155,0,136.3,61.158,136.3,136.326c0,23.047-5.797,44.75-15.932,63.806l64.519,64.519
		C336.826,279.85,336.826,304.574,321.64,319.754z M136.759,259.785c25.135,0,48.51-7.59,68.034-20.54
		c1.131-0.752,2.217-1.562,3.323-2.352c1.722-1.221,3.419-2.487,5.077-3.798c1.157-0.919,2.307-1.832,3.426-2.789
		c1.979-1.684,3.882-3.426,5.746-5.225c1.324-1.273,2.59-2.59,3.856-3.92c1.382-1.465,2.744-2.937,4.055-4.46
		c1.086-1.266,2.159-2.551,3.194-3.869c1.118-1.407,2.179-2.86,3.233-4.319c1.658-2.288,3.233-4.64,4.73-7.05
		c1.112-1.774,2.256-3.541,3.271-5.379l0.72-1.234c9.422-17.43,14.788-37.359,14.788-58.523
		c0-68.079-55.374-123.472-123.447-123.472c-68.092,0-123.492,55.393-123.492,123.472
		C13.267,204.405,68.667,259.785,136.759,259.785z M312.552,273.738l-62.218-62.218c-7.68,11.568-17.076,21.89-27.828,30.63
		c-0.617,0.495-1.279,0.938-1.902,1.42c-2.95,2.314-5.964,4.544-9.094,6.607c-0.18,0.129-0.353,0.27-0.533,0.392l62.372,62.372
		c4.936,4.929,11.491,7.642,18.464,7.642c6.973,0,13.529-2.719,18.464-7.642l2.275-2.275
		C322.726,300.493,322.726,283.925,312.552,273.738z"/>
</g>
<g>
</g>
<g>
</g>
<g>
</g>
<g>
</g>
<g>
</g>
<g>
</g>
<g>
</g>
<g>
</g>
<g>
</g>
<g>
</g>
<g>
</g>
<g>
</g>
<g>
</g>
<g>
</g>
<g>
</g>
</svg>
